G04 #@! TF.GenerationSoftware,KiCad,Pcbnew,(5.1.2)-2*
G04 #@! TF.CreationDate,2019-07-21T13:35:31+02:00*
G04 #@! TF.ProjectId,MyArduino,4d794172-6475-4696-9e6f-2e6b69636164,rev?*
G04 #@! TF.SameCoordinates,Original*
G04 #@! TF.FileFunction,Legend,Top*
G04 #@! TF.FilePolarity,Positive*
%FSLAX46Y46*%
G04 Gerber Fmt 4.6, Leading zero omitted, Abs format (unit mm)*
G04 Created by KiCad (PCBNEW (5.1.2)-2) date 2019-07-21 13:35:31*
%MOMM*%
%LPD*%
G04 APERTURE LIST*
%ADD10C,0.150000*%
%ADD11C,0.120000*%
G04 APERTURE END LIST*
D10*
X104719619Y-91130380D02*
X104386285Y-90654190D01*
X104148190Y-91130380D02*
X104148190Y-90130380D01*
X104529142Y-90130380D01*
X104624380Y-90178000D01*
X104672000Y-90225619D01*
X104719619Y-90320857D01*
X104719619Y-90463714D01*
X104672000Y-90558952D01*
X104624380Y-90606571D01*
X104529142Y-90654190D01*
X104148190Y-90654190D01*
X105148190Y-90606571D02*
X105481523Y-90606571D01*
X105624380Y-91130380D02*
X105148190Y-91130380D01*
X105148190Y-90130380D01*
X105624380Y-90130380D01*
X106005333Y-91082761D02*
X106148190Y-91130380D01*
X106386285Y-91130380D01*
X106481523Y-91082761D01*
X106529142Y-91035142D01*
X106576761Y-90939904D01*
X106576761Y-90844666D01*
X106529142Y-90749428D01*
X106481523Y-90701809D01*
X106386285Y-90654190D01*
X106195809Y-90606571D01*
X106100571Y-90558952D01*
X106052952Y-90511333D01*
X106005333Y-90416095D01*
X106005333Y-90320857D01*
X106052952Y-90225619D01*
X106100571Y-90178000D01*
X106195809Y-90130380D01*
X106433904Y-90130380D01*
X106576761Y-90178000D01*
X107005333Y-90606571D02*
X107338666Y-90606571D01*
X107481523Y-91130380D02*
X107005333Y-91130380D01*
X107005333Y-90130380D01*
X107481523Y-90130380D01*
X107767238Y-90130380D02*
X108338666Y-90130380D01*
X108052952Y-91130380D02*
X108052952Y-90130380D01*
X97366071Y-75876476D02*
X97366071Y-74626476D01*
X97782738Y-75519333D01*
X98199404Y-74626476D01*
X98199404Y-75876476D01*
X98675595Y-75043142D02*
X98973214Y-75876476D01*
X99270833Y-75043142D02*
X98973214Y-75876476D01*
X98854166Y-76174095D01*
X98794642Y-76233619D01*
X98675595Y-76293142D01*
X99687500Y-75519333D02*
X100282738Y-75519333D01*
X99568452Y-75876476D02*
X99985119Y-74626476D01*
X100401785Y-75876476D01*
X100818452Y-75876476D02*
X100818452Y-75043142D01*
X100818452Y-75281238D02*
X100877976Y-75162190D01*
X100937500Y-75102666D01*
X101056547Y-75043142D01*
X101175595Y-75043142D01*
X102127976Y-75876476D02*
X102127976Y-74626476D01*
X102127976Y-75816952D02*
X102008928Y-75876476D01*
X101770833Y-75876476D01*
X101651785Y-75816952D01*
X101592261Y-75757428D01*
X101532738Y-75638380D01*
X101532738Y-75281238D01*
X101592261Y-75162190D01*
X101651785Y-75102666D01*
X101770833Y-75043142D01*
X102008928Y-75043142D01*
X102127976Y-75102666D01*
X103258928Y-75043142D02*
X103258928Y-75876476D01*
X102723214Y-75043142D02*
X102723214Y-75697904D01*
X102782738Y-75816952D01*
X102901785Y-75876476D01*
X103080357Y-75876476D01*
X103199404Y-75816952D01*
X103258928Y-75757428D01*
X103854166Y-75876476D02*
X103854166Y-75043142D01*
X103854166Y-74626476D02*
X103794642Y-74686000D01*
X103854166Y-74745523D01*
X103913690Y-74686000D01*
X103854166Y-74626476D01*
X103854166Y-74745523D01*
X104449404Y-75043142D02*
X104449404Y-75876476D01*
X104449404Y-75162190D02*
X104508928Y-75102666D01*
X104627976Y-75043142D01*
X104806547Y-75043142D01*
X104925595Y-75102666D01*
X104985119Y-75221714D01*
X104985119Y-75876476D01*
X105758928Y-75876476D02*
X105639880Y-75816952D01*
X105580357Y-75757428D01*
X105520833Y-75638380D01*
X105520833Y-75281238D01*
X105580357Y-75162190D01*
X105639880Y-75102666D01*
X105758928Y-75043142D01*
X105937500Y-75043142D01*
X106056547Y-75102666D01*
X106116071Y-75162190D01*
X106175595Y-75281238D01*
X106175595Y-75638380D01*
X106116071Y-75757428D01*
X106056547Y-75816952D01*
X105937500Y-75876476D01*
X105758928Y-75876476D01*
X108318452Y-75876476D02*
X107604166Y-75876476D01*
X107961309Y-75876476D02*
X107961309Y-74626476D01*
X107842261Y-74805047D01*
X107723214Y-74924095D01*
X107604166Y-74983619D01*
X108854166Y-75757428D02*
X108913690Y-75816952D01*
X108854166Y-75876476D01*
X108794642Y-75816952D01*
X108854166Y-75757428D01*
X108854166Y-75876476D01*
X109687500Y-74626476D02*
X109806547Y-74626476D01*
X109925595Y-74686000D01*
X109985119Y-74745523D01*
X110044642Y-74864571D01*
X110104166Y-75102666D01*
X110104166Y-75400285D01*
X110044642Y-75638380D01*
X109985119Y-75757428D01*
X109925595Y-75816952D01*
X109806547Y-75876476D01*
X109687500Y-75876476D01*
X109568452Y-75816952D01*
X109508928Y-75757428D01*
X109449404Y-75638380D01*
X109389880Y-75400285D01*
X109389880Y-75102666D01*
X109449404Y-74864571D01*
X109508928Y-74745523D01*
X109568452Y-74686000D01*
X109687500Y-74626476D01*
X111592261Y-75400285D02*
X112544642Y-75400285D01*
X114508928Y-75221714D02*
X114687500Y-75281238D01*
X114747023Y-75340761D01*
X114806547Y-75459809D01*
X114806547Y-75638380D01*
X114747023Y-75757428D01*
X114687500Y-75816952D01*
X114568452Y-75876476D01*
X114092261Y-75876476D01*
X114092261Y-74626476D01*
X114508928Y-74626476D01*
X114627976Y-74686000D01*
X114687500Y-74745523D01*
X114747023Y-74864571D01*
X114747023Y-74983619D01*
X114687500Y-75102666D01*
X114627976Y-75162190D01*
X114508928Y-75221714D01*
X114092261Y-75221714D01*
X115818452Y-75816952D02*
X115699404Y-75876476D01*
X115461309Y-75876476D01*
X115342261Y-75816952D01*
X115282738Y-75697904D01*
X115282738Y-75221714D01*
X115342261Y-75102666D01*
X115461309Y-75043142D01*
X115699404Y-75043142D01*
X115818452Y-75102666D01*
X115877976Y-75221714D01*
X115877976Y-75340761D01*
X115282738Y-75459809D01*
X116413690Y-75876476D02*
X116413690Y-75043142D01*
X116413690Y-75281238D02*
X116473214Y-75162190D01*
X116532738Y-75102666D01*
X116651785Y-75043142D01*
X116770833Y-75043142D01*
X117187500Y-75043142D02*
X117187500Y-75876476D01*
X117187500Y-75162190D02*
X117247023Y-75102666D01*
X117366071Y-75043142D01*
X117544642Y-75043142D01*
X117663690Y-75102666D01*
X117723214Y-75221714D01*
X117723214Y-75876476D01*
X118854166Y-75876476D02*
X118854166Y-74626476D01*
X118854166Y-75816952D02*
X118735119Y-75876476D01*
X118497023Y-75876476D01*
X118377976Y-75816952D01*
X118318452Y-75757428D01*
X118258928Y-75638380D01*
X118258928Y-75281238D01*
X118318452Y-75162190D01*
X118377976Y-75102666D01*
X118497023Y-75043142D01*
X118735119Y-75043142D01*
X118854166Y-75102666D01*
X120342261Y-75816952D02*
X120520833Y-75876476D01*
X120818452Y-75876476D01*
X120937500Y-75816952D01*
X120997023Y-75757428D01*
X121056547Y-75638380D01*
X121056547Y-75519333D01*
X120997023Y-75400285D01*
X120937500Y-75340761D01*
X120818452Y-75281238D01*
X120580357Y-75221714D01*
X120461309Y-75162190D01*
X120401785Y-75102666D01*
X120342261Y-74983619D01*
X120342261Y-74864571D01*
X120401785Y-74745523D01*
X120461309Y-74686000D01*
X120580357Y-74626476D01*
X120877976Y-74626476D01*
X121056547Y-74686000D01*
X121413690Y-75043142D02*
X121889880Y-75043142D01*
X121592261Y-74626476D02*
X121592261Y-75697904D01*
X121651785Y-75816952D01*
X121770833Y-75876476D01*
X121889880Y-75876476D01*
X122306547Y-75876476D02*
X122306547Y-75043142D01*
X122306547Y-75281238D02*
X122366071Y-75162190D01*
X122425595Y-75102666D01*
X122544642Y-75043142D01*
X122663690Y-75043142D01*
X123258928Y-75876476D02*
X123139880Y-75816952D01*
X123080357Y-75757428D01*
X123020833Y-75638380D01*
X123020833Y-75281238D01*
X123080357Y-75162190D01*
X123139880Y-75102666D01*
X123258928Y-75043142D01*
X123437500Y-75043142D01*
X123556547Y-75102666D01*
X123616071Y-75162190D01*
X123675595Y-75281238D01*
X123675595Y-75638380D01*
X123616071Y-75757428D01*
X123556547Y-75816952D01*
X123437500Y-75876476D01*
X123258928Y-75876476D01*
X124211309Y-75876476D02*
X124211309Y-74626476D01*
X124211309Y-75102666D02*
X124330357Y-75043142D01*
X124568452Y-75043142D01*
X124687500Y-75102666D01*
X124747023Y-75162190D01*
X124806547Y-75281238D01*
X124806547Y-75638380D01*
X124747023Y-75757428D01*
X124687500Y-75816952D01*
X124568452Y-75876476D01*
X124330357Y-75876476D01*
X124211309Y-75816952D01*
X125818452Y-75816952D02*
X125699404Y-75876476D01*
X125461309Y-75876476D01*
X125342261Y-75816952D01*
X125282738Y-75697904D01*
X125282738Y-75221714D01*
X125342261Y-75102666D01*
X125461309Y-75043142D01*
X125699404Y-75043142D01*
X125818452Y-75102666D01*
X125877976Y-75221714D01*
X125877976Y-75340761D01*
X125282738Y-75459809D01*
X126592261Y-75876476D02*
X126473214Y-75816952D01*
X126413690Y-75697904D01*
X126413690Y-74626476D01*
X127127976Y-75816952D02*
X127127976Y-75876476D01*
X127068452Y-75995523D01*
X127008928Y-76055047D01*
X128556547Y-74745523D02*
X128616071Y-74686000D01*
X128735119Y-74626476D01*
X129032738Y-74626476D01*
X129151785Y-74686000D01*
X129211309Y-74745523D01*
X129270833Y-74864571D01*
X129270833Y-74983619D01*
X129211309Y-75162190D01*
X128497023Y-75876476D01*
X129270833Y-75876476D01*
X130461309Y-75876476D02*
X129747023Y-75876476D01*
X130104166Y-75876476D02*
X130104166Y-74626476D01*
X129985119Y-74805047D01*
X129866071Y-74924095D01*
X129747023Y-74983619D01*
X132306547Y-74626476D02*
X132306547Y-75519333D01*
X132247023Y-75697904D01*
X132127976Y-75816952D01*
X131949404Y-75876476D01*
X131830357Y-75876476D01*
X133437500Y-75043142D02*
X133437500Y-75876476D01*
X132901785Y-75043142D02*
X132901785Y-75697904D01*
X132961309Y-75816952D01*
X133080357Y-75876476D01*
X133258928Y-75876476D01*
X133377976Y-75816952D01*
X133437500Y-75757428D01*
X134211309Y-75876476D02*
X134092261Y-75816952D01*
X134032738Y-75697904D01*
X134032738Y-74626476D01*
X134568452Y-75043142D02*
X134866071Y-75876476D01*
X135163690Y-75043142D02*
X134866071Y-75876476D01*
X134747023Y-76174095D01*
X134687500Y-76233619D01*
X134568452Y-76293142D01*
X136532738Y-74745523D02*
X136592261Y-74686000D01*
X136711309Y-74626476D01*
X137008928Y-74626476D01*
X137127976Y-74686000D01*
X137187500Y-74745523D01*
X137247023Y-74864571D01*
X137247023Y-74983619D01*
X137187500Y-75162190D01*
X136473214Y-75876476D01*
X137247023Y-75876476D01*
X138020833Y-74626476D02*
X138139880Y-74626476D01*
X138258928Y-74686000D01*
X138318452Y-74745523D01*
X138377976Y-74864571D01*
X138437500Y-75102666D01*
X138437500Y-75400285D01*
X138377976Y-75638380D01*
X138318452Y-75757428D01*
X138258928Y-75816952D01*
X138139880Y-75876476D01*
X138020833Y-75876476D01*
X137901785Y-75816952D01*
X137842261Y-75757428D01*
X137782738Y-75638380D01*
X137723214Y-75400285D01*
X137723214Y-75102666D01*
X137782738Y-74864571D01*
X137842261Y-74745523D01*
X137901785Y-74686000D01*
X138020833Y-74626476D01*
X139627976Y-75876476D02*
X138913690Y-75876476D01*
X139270833Y-75876476D02*
X139270833Y-74626476D01*
X139151785Y-74805047D01*
X139032738Y-74924095D01*
X138913690Y-74983619D01*
X140223214Y-75876476D02*
X140461309Y-75876476D01*
X140580357Y-75816952D01*
X140639880Y-75757428D01*
X140758928Y-75578857D01*
X140818452Y-75340761D01*
X140818452Y-74864571D01*
X140758928Y-74745523D01*
X140699404Y-74686000D01*
X140580357Y-74626476D01*
X140342261Y-74626476D01*
X140223214Y-74686000D01*
X140163690Y-74745523D01*
X140104166Y-74864571D01*
X140104166Y-75162190D01*
X140163690Y-75281238D01*
X140223214Y-75340761D01*
X140342261Y-75400285D01*
X140580357Y-75400285D01*
X140699404Y-75340761D01*
X140758928Y-75281238D01*
X140818452Y-75162190D01*
D11*
X95631000Y-97790000D02*
X101092000Y-97790000D01*
X95631000Y-95250000D02*
X101092000Y-95250000D01*
X95631000Y-92710000D02*
X101092000Y-92710000D01*
X95631000Y-90170000D02*
X101092000Y-90170000D01*
X95631000Y-87630000D02*
X101092000Y-87630000D01*
X95631000Y-85090000D02*
X101092000Y-85090000D01*
X95631000Y-82550000D02*
X101092000Y-82550000D01*
X136144000Y-81280000D02*
X141605000Y-81280000D01*
X136144000Y-83820000D02*
X141605000Y-83820000D01*
X136144000Y-86360000D02*
X141605000Y-86360000D01*
X136144000Y-88900000D02*
X141605000Y-88900000D01*
X136144000Y-91440000D02*
X141605000Y-91440000D01*
X136144000Y-119380000D02*
X141605000Y-119380000D01*
X136144000Y-116840000D02*
X141605000Y-116840000D01*
X136144000Y-114300000D02*
X141605000Y-114300000D01*
X136144000Y-111760000D02*
X141605000Y-111760000D01*
X136144000Y-109220000D02*
X141605000Y-109220000D01*
X136144000Y-106680000D02*
X141605000Y-106680000D01*
X136144000Y-104140000D02*
X141605000Y-104140000D01*
X136144000Y-98806000D02*
X141605000Y-98806000D01*
X136144000Y-101473000D02*
X141605000Y-101473000D01*
D10*
X131897380Y-88034476D02*
X130897380Y-88034476D01*
X131897380Y-87034476D02*
X131897380Y-87605904D01*
X131897380Y-87320190D02*
X130897380Y-87320190D01*
X131040238Y-87415428D01*
X131135476Y-87510666D01*
X131183095Y-87605904D01*
X130897380Y-86701142D02*
X130897380Y-86082095D01*
X131278333Y-86415428D01*
X131278333Y-86272571D01*
X131325952Y-86177333D01*
X131373571Y-86129714D01*
X131468809Y-86082095D01*
X131706904Y-86082095D01*
X131802142Y-86129714D01*
X131849761Y-86177333D01*
X131897380Y-86272571D01*
X131897380Y-86558285D01*
X131849761Y-86653523D01*
X131802142Y-86701142D01*
X131992619Y-85891619D02*
X131992619Y-85129714D01*
X131897380Y-84415428D02*
X131897380Y-84891619D01*
X130897380Y-84891619D01*
X131373571Y-84082095D02*
X131373571Y-83748761D01*
X131897380Y-83605904D02*
X131897380Y-84082095D01*
X130897380Y-84082095D01*
X130897380Y-83605904D01*
X131897380Y-83177333D02*
X130897380Y-83177333D01*
X130897380Y-82939238D01*
X130945000Y-82796380D01*
X131040238Y-82701142D01*
X131135476Y-82653523D01*
X131325952Y-82605904D01*
X131468809Y-82605904D01*
X131659285Y-82653523D01*
X131754523Y-82701142D01*
X131849761Y-82796380D01*
X131897380Y-82939238D01*
X131897380Y-83177333D01*
X128087380Y-114958428D02*
X127087380Y-114958428D01*
X127087380Y-114577476D01*
X127135000Y-114482238D01*
X127182619Y-114434619D01*
X127277857Y-114387000D01*
X127420714Y-114387000D01*
X127515952Y-114434619D01*
X127563571Y-114482238D01*
X127611190Y-114577476D01*
X127611190Y-114958428D01*
X127087380Y-114053666D02*
X128087380Y-113815571D01*
X127373095Y-113625095D01*
X128087380Y-113434619D01*
X127087380Y-113196523D01*
X128087380Y-112244142D02*
X127611190Y-112577476D01*
X128087380Y-112815571D02*
X127087380Y-112815571D01*
X127087380Y-112434619D01*
X127135000Y-112339380D01*
X127182619Y-112291761D01*
X127277857Y-112244142D01*
X127420714Y-112244142D01*
X127515952Y-112291761D01*
X127563571Y-112339380D01*
X127611190Y-112434619D01*
X127611190Y-112815571D01*
X128182619Y-112053666D02*
X128182619Y-111291761D01*
X128087380Y-110577476D02*
X128087380Y-111053666D01*
X127087380Y-111053666D01*
X127563571Y-110244142D02*
X127563571Y-109910809D01*
X128087380Y-109767952D02*
X128087380Y-110244142D01*
X127087380Y-110244142D01*
X127087380Y-109767952D01*
X128087380Y-109339380D02*
X127087380Y-109339380D01*
X127087380Y-109101285D01*
X127135000Y-108958428D01*
X127230238Y-108863190D01*
X127325476Y-108815571D01*
X127515952Y-108767952D01*
X127658809Y-108767952D01*
X127849285Y-108815571D01*
X127944523Y-108863190D01*
X128039761Y-108958428D01*
X128087380Y-109101285D01*
X128087380Y-109339380D01*
X138969904Y-121102380D02*
X138969904Y-120102380D01*
X139350857Y-120102380D01*
X139446095Y-120150000D01*
X139493714Y-120197619D01*
X139541333Y-120292857D01*
X139541333Y-120435714D01*
X139493714Y-120530952D01*
X139446095Y-120578571D01*
X139350857Y-120626190D01*
X138969904Y-120626190D01*
X140303238Y-120578571D02*
X140446095Y-120626190D01*
X140493714Y-120673809D01*
X140541333Y-120769047D01*
X140541333Y-120911904D01*
X140493714Y-121007142D01*
X140446095Y-121054761D01*
X140350857Y-121102380D01*
X139969904Y-121102380D01*
X139969904Y-120102380D01*
X140303238Y-120102380D01*
X140398476Y-120150000D01*
X140446095Y-120197619D01*
X140493714Y-120292857D01*
X140493714Y-120388095D01*
X140446095Y-120483333D01*
X140398476Y-120530952D01*
X140303238Y-120578571D01*
X139969904Y-120578571D01*
X140874666Y-120102380D02*
X141541333Y-120102380D01*
X141112761Y-121102380D01*
X138969904Y-118562380D02*
X138969904Y-117562380D01*
X139350857Y-117562380D01*
X139446095Y-117610000D01*
X139493714Y-117657619D01*
X139541333Y-117752857D01*
X139541333Y-117895714D01*
X139493714Y-117990952D01*
X139446095Y-118038571D01*
X139350857Y-118086190D01*
X138969904Y-118086190D01*
X140303238Y-118038571D02*
X140446095Y-118086190D01*
X140493714Y-118133809D01*
X140541333Y-118229047D01*
X140541333Y-118371904D01*
X140493714Y-118467142D01*
X140446095Y-118514761D01*
X140350857Y-118562380D01*
X139969904Y-118562380D01*
X139969904Y-117562380D01*
X140303238Y-117562380D01*
X140398476Y-117610000D01*
X140446095Y-117657619D01*
X140493714Y-117752857D01*
X140493714Y-117848095D01*
X140446095Y-117943333D01*
X140398476Y-117990952D01*
X140303238Y-118038571D01*
X139969904Y-118038571D01*
X141398476Y-117562380D02*
X141208000Y-117562380D01*
X141112761Y-117610000D01*
X141065142Y-117657619D01*
X140969904Y-117800476D01*
X140922285Y-117990952D01*
X140922285Y-118371904D01*
X140969904Y-118467142D01*
X141017523Y-118514761D01*
X141112761Y-118562380D01*
X141303238Y-118562380D01*
X141398476Y-118514761D01*
X141446095Y-118467142D01*
X141493714Y-118371904D01*
X141493714Y-118133809D01*
X141446095Y-118038571D01*
X141398476Y-117990952D01*
X141303238Y-117943333D01*
X141112761Y-117943333D01*
X141017523Y-117990952D01*
X140969904Y-118038571D01*
X140922285Y-118133809D01*
X138207952Y-115736666D02*
X138684142Y-115736666D01*
X138112714Y-116022380D02*
X138446047Y-115022380D01*
X138779380Y-116022380D01*
X139684142Y-116022380D02*
X139350809Y-115546190D01*
X139112714Y-116022380D02*
X139112714Y-115022380D01*
X139493666Y-115022380D01*
X139588904Y-115070000D01*
X139636523Y-115117619D01*
X139684142Y-115212857D01*
X139684142Y-115355714D01*
X139636523Y-115450952D01*
X139588904Y-115498571D01*
X139493666Y-115546190D01*
X139112714Y-115546190D01*
X140112714Y-115498571D02*
X140446047Y-115498571D01*
X140588904Y-116022380D02*
X140112714Y-116022380D01*
X140112714Y-115022380D01*
X140588904Y-115022380D01*
X141350809Y-115498571D02*
X141017476Y-115498571D01*
X141017476Y-116022380D02*
X141017476Y-115022380D01*
X141493666Y-115022380D01*
X139446095Y-112530000D02*
X139350857Y-112482380D01*
X139208000Y-112482380D01*
X139065142Y-112530000D01*
X138969904Y-112625238D01*
X138922285Y-112720476D01*
X138874666Y-112910952D01*
X138874666Y-113053809D01*
X138922285Y-113244285D01*
X138969904Y-113339523D01*
X139065142Y-113434761D01*
X139208000Y-113482380D01*
X139303238Y-113482380D01*
X139446095Y-113434761D01*
X139493714Y-113387142D01*
X139493714Y-113053809D01*
X139303238Y-113053809D01*
X139922285Y-113482380D02*
X139922285Y-112482380D01*
X140493714Y-113482380D01*
X140493714Y-112482380D01*
X140969904Y-113482380D02*
X140969904Y-112482380D01*
X141208000Y-112482380D01*
X141350857Y-112530000D01*
X141446095Y-112625238D01*
X141493714Y-112720476D01*
X141541333Y-112910952D01*
X141541333Y-113053809D01*
X141493714Y-113244285D01*
X141446095Y-113339523D01*
X141350857Y-113434761D01*
X141208000Y-113482380D01*
X140969904Y-113482380D01*
X136596714Y-110191785D02*
X136596714Y-109441785D01*
X137346714Y-110191785D02*
X136918142Y-110191785D01*
X137132428Y-110191785D02*
X137132428Y-109441785D01*
X137061000Y-109548928D01*
X136989571Y-109620357D01*
X136918142Y-109656071D01*
X137596714Y-109441785D02*
X138061000Y-109441785D01*
X137811000Y-109727500D01*
X137918142Y-109727500D01*
X137989571Y-109763214D01*
X138025285Y-109798928D01*
X138061000Y-109870357D01*
X138061000Y-110048928D01*
X138025285Y-110120357D01*
X137989571Y-110156071D01*
X137918142Y-110191785D01*
X137703857Y-110191785D01*
X137632428Y-110156071D01*
X137596714Y-110120357D01*
X138918142Y-109406071D02*
X138275285Y-110370357D01*
X139168142Y-110191785D02*
X139168142Y-109441785D01*
X139453857Y-109441785D01*
X139525285Y-109477500D01*
X139561000Y-109513214D01*
X139596714Y-109584642D01*
X139596714Y-109691785D01*
X139561000Y-109763214D01*
X139525285Y-109798928D01*
X139453857Y-109834642D01*
X139168142Y-109834642D01*
X140168142Y-109798928D02*
X140275285Y-109834642D01*
X140311000Y-109870357D01*
X140346714Y-109941785D01*
X140346714Y-110048928D01*
X140311000Y-110120357D01*
X140275285Y-110156071D01*
X140203857Y-110191785D01*
X139918142Y-110191785D01*
X139918142Y-109441785D01*
X140168142Y-109441785D01*
X140239571Y-109477500D01*
X140275285Y-109513214D01*
X140311000Y-109584642D01*
X140311000Y-109656071D01*
X140275285Y-109727500D01*
X140239571Y-109763214D01*
X140168142Y-109798928D01*
X139918142Y-109798928D01*
X141025285Y-109441785D02*
X140668142Y-109441785D01*
X140632428Y-109798928D01*
X140668142Y-109763214D01*
X140739571Y-109727500D01*
X140918142Y-109727500D01*
X140989571Y-109763214D01*
X141025285Y-109798928D01*
X141061000Y-109870357D01*
X141061000Y-110048928D01*
X141025285Y-110120357D01*
X140989571Y-110156071D01*
X140918142Y-110191785D01*
X140739571Y-110191785D01*
X140668142Y-110156071D01*
X140632428Y-110120357D01*
X137846714Y-111431071D02*
X137953857Y-111466785D01*
X138132428Y-111466785D01*
X138203857Y-111431071D01*
X138239571Y-111395357D01*
X138275285Y-111323928D01*
X138275285Y-111252500D01*
X138239571Y-111181071D01*
X138203857Y-111145357D01*
X138132428Y-111109642D01*
X137989571Y-111073928D01*
X137918142Y-111038214D01*
X137882428Y-111002500D01*
X137846714Y-110931071D01*
X137846714Y-110859642D01*
X137882428Y-110788214D01*
X137918142Y-110752500D01*
X137989571Y-110716785D01*
X138168142Y-110716785D01*
X138275285Y-110752500D01*
X139025285Y-111395357D02*
X138989571Y-111431071D01*
X138882428Y-111466785D01*
X138811000Y-111466785D01*
X138703857Y-111431071D01*
X138632428Y-111359642D01*
X138596714Y-111288214D01*
X138561000Y-111145357D01*
X138561000Y-111038214D01*
X138596714Y-110895357D01*
X138632428Y-110823928D01*
X138703857Y-110752500D01*
X138811000Y-110716785D01*
X138882428Y-110716785D01*
X138989571Y-110752500D01*
X139025285Y-110788214D01*
X139346714Y-111466785D02*
X139346714Y-110716785D01*
X139775285Y-111466785D02*
X139453857Y-111038214D01*
X139775285Y-110716785D02*
X139346714Y-111145357D01*
X136596714Y-107651785D02*
X136596714Y-106901785D01*
X137346714Y-107651785D02*
X136918142Y-107651785D01*
X137132428Y-107651785D02*
X137132428Y-106901785D01*
X137061000Y-107008928D01*
X136989571Y-107080357D01*
X136918142Y-107116071D01*
X137632428Y-106973214D02*
X137668142Y-106937500D01*
X137739571Y-106901785D01*
X137918142Y-106901785D01*
X137989571Y-106937500D01*
X138025285Y-106973214D01*
X138061000Y-107044642D01*
X138061000Y-107116071D01*
X138025285Y-107223214D01*
X137596714Y-107651785D01*
X138061000Y-107651785D01*
X138918142Y-106866071D02*
X138275285Y-107830357D01*
X139168142Y-107651785D02*
X139168142Y-106901785D01*
X139453857Y-106901785D01*
X139525285Y-106937500D01*
X139561000Y-106973214D01*
X139596714Y-107044642D01*
X139596714Y-107151785D01*
X139561000Y-107223214D01*
X139525285Y-107258928D01*
X139453857Y-107294642D01*
X139168142Y-107294642D01*
X140168142Y-107258928D02*
X140275285Y-107294642D01*
X140311000Y-107330357D01*
X140346714Y-107401785D01*
X140346714Y-107508928D01*
X140311000Y-107580357D01*
X140275285Y-107616071D01*
X140203857Y-107651785D01*
X139918142Y-107651785D01*
X139918142Y-106901785D01*
X140168142Y-106901785D01*
X140239571Y-106937500D01*
X140275285Y-106973214D01*
X140311000Y-107044642D01*
X140311000Y-107116071D01*
X140275285Y-107187500D01*
X140239571Y-107223214D01*
X140168142Y-107258928D01*
X139918142Y-107258928D01*
X140989571Y-107151785D02*
X140989571Y-107651785D01*
X140811000Y-106866071D02*
X140632428Y-107401785D01*
X141096714Y-107401785D01*
X137632428Y-108926785D02*
X137632428Y-108176785D01*
X137882428Y-108712500D01*
X138132428Y-108176785D01*
X138132428Y-108926785D01*
X138489571Y-108926785D02*
X138489571Y-108176785D01*
X138811000Y-108891071D02*
X138918142Y-108926785D01*
X139096714Y-108926785D01*
X139168142Y-108891071D01*
X139203857Y-108855357D01*
X139239571Y-108783928D01*
X139239571Y-108712500D01*
X139203857Y-108641071D01*
X139168142Y-108605357D01*
X139096714Y-108569642D01*
X138953857Y-108533928D01*
X138882428Y-108498214D01*
X138846714Y-108462500D01*
X138811000Y-108391071D01*
X138811000Y-108319642D01*
X138846714Y-108248214D01*
X138882428Y-108212500D01*
X138953857Y-108176785D01*
X139132428Y-108176785D01*
X139239571Y-108212500D01*
X139703857Y-108176785D02*
X139846714Y-108176785D01*
X139918142Y-108212500D01*
X139989571Y-108283928D01*
X140025285Y-108426785D01*
X140025285Y-108676785D01*
X139989571Y-108819642D01*
X139918142Y-108891071D01*
X139846714Y-108926785D01*
X139703857Y-108926785D01*
X139632428Y-108891071D01*
X139561000Y-108819642D01*
X139525285Y-108676785D01*
X139525285Y-108426785D01*
X139561000Y-108283928D01*
X139632428Y-108212500D01*
X139703857Y-108176785D01*
X136596714Y-105111785D02*
X136596714Y-104361785D01*
X137346714Y-105111785D02*
X136918142Y-105111785D01*
X137132428Y-105111785D02*
X137132428Y-104361785D01*
X137061000Y-104468928D01*
X136989571Y-104540357D01*
X136918142Y-104576071D01*
X138061000Y-105111785D02*
X137632428Y-105111785D01*
X137846714Y-105111785D02*
X137846714Y-104361785D01*
X137775285Y-104468928D01*
X137703857Y-104540357D01*
X137632428Y-104576071D01*
X138918142Y-104326071D02*
X138275285Y-105290357D01*
X139168142Y-105111785D02*
X139168142Y-104361785D01*
X139453857Y-104361785D01*
X139525285Y-104397500D01*
X139561000Y-104433214D01*
X139596714Y-104504642D01*
X139596714Y-104611785D01*
X139561000Y-104683214D01*
X139525285Y-104718928D01*
X139453857Y-104754642D01*
X139168142Y-104754642D01*
X140168142Y-104718928D02*
X140275285Y-104754642D01*
X140311000Y-104790357D01*
X140346714Y-104861785D01*
X140346714Y-104968928D01*
X140311000Y-105040357D01*
X140275285Y-105076071D01*
X140203857Y-105111785D01*
X139918142Y-105111785D01*
X139918142Y-104361785D01*
X140168142Y-104361785D01*
X140239571Y-104397500D01*
X140275285Y-104433214D01*
X140311000Y-104504642D01*
X140311000Y-104576071D01*
X140275285Y-104647500D01*
X140239571Y-104683214D01*
X140168142Y-104718928D01*
X139918142Y-104718928D01*
X140596714Y-104361785D02*
X141061000Y-104361785D01*
X140811000Y-104647500D01*
X140918142Y-104647500D01*
X140989571Y-104683214D01*
X141025285Y-104718928D01*
X141061000Y-104790357D01*
X141061000Y-104968928D01*
X141025285Y-105040357D01*
X140989571Y-105076071D01*
X140918142Y-105111785D01*
X140703857Y-105111785D01*
X140632428Y-105076071D01*
X140596714Y-105040357D01*
X136221714Y-106386785D02*
X136221714Y-105636785D01*
X136471714Y-106172500D01*
X136721714Y-105636785D01*
X136721714Y-106386785D01*
X137221714Y-105636785D02*
X137364571Y-105636785D01*
X137436000Y-105672500D01*
X137507428Y-105743928D01*
X137543142Y-105886785D01*
X137543142Y-106136785D01*
X137507428Y-106279642D01*
X137436000Y-106351071D01*
X137364571Y-106386785D01*
X137221714Y-106386785D01*
X137150285Y-106351071D01*
X137078857Y-106279642D01*
X137043142Y-106136785D01*
X137043142Y-105886785D01*
X137078857Y-105743928D01*
X137150285Y-105672500D01*
X137221714Y-105636785D01*
X137828857Y-106351071D02*
X137936000Y-106386785D01*
X138114571Y-106386785D01*
X138186000Y-106351071D01*
X138221714Y-106315357D01*
X138257428Y-106243928D01*
X138257428Y-106172500D01*
X138221714Y-106101071D01*
X138186000Y-106065357D01*
X138114571Y-106029642D01*
X137971714Y-105993928D01*
X137900285Y-105958214D01*
X137864571Y-105922500D01*
X137828857Y-105851071D01*
X137828857Y-105779642D01*
X137864571Y-105708214D01*
X137900285Y-105672500D01*
X137971714Y-105636785D01*
X138150285Y-105636785D01*
X138257428Y-105672500D01*
X138578857Y-106386785D02*
X138578857Y-105636785D01*
X138971714Y-106351071D02*
X138971714Y-106386785D01*
X138936000Y-106458214D01*
X138900285Y-106493928D01*
X139293142Y-106386785D02*
X139293142Y-105636785D01*
X139578857Y-105636785D01*
X139650285Y-105672500D01*
X139686000Y-105708214D01*
X139721714Y-105779642D01*
X139721714Y-105886785D01*
X139686000Y-105958214D01*
X139650285Y-105993928D01*
X139578857Y-106029642D01*
X139293142Y-106029642D01*
X139971714Y-105636785D02*
X140150285Y-106386785D01*
X140293142Y-105851071D01*
X140436000Y-106386785D01*
X140614571Y-105636785D01*
X140900285Y-106386785D02*
X140900285Y-105636785D01*
X141150285Y-106172500D01*
X141400285Y-105636785D01*
X141400285Y-106386785D01*
X137080857Y-99904785D02*
X137080857Y-99154785D01*
X137473714Y-99904785D02*
X137616571Y-99904785D01*
X137688000Y-99869071D01*
X137723714Y-99833357D01*
X137795142Y-99726214D01*
X137830857Y-99583357D01*
X137830857Y-99297642D01*
X137795142Y-99226214D01*
X137759428Y-99190500D01*
X137688000Y-99154785D01*
X137545142Y-99154785D01*
X137473714Y-99190500D01*
X137438000Y-99226214D01*
X137402285Y-99297642D01*
X137402285Y-99476214D01*
X137438000Y-99547642D01*
X137473714Y-99583357D01*
X137545142Y-99619071D01*
X137688000Y-99619071D01*
X137759428Y-99583357D01*
X137795142Y-99547642D01*
X137830857Y-99476214D01*
X138688000Y-99119071D02*
X138045142Y-100083357D01*
X138938000Y-99904785D02*
X138938000Y-99154785D01*
X139223714Y-99154785D01*
X139295142Y-99190500D01*
X139330857Y-99226214D01*
X139366571Y-99297642D01*
X139366571Y-99404785D01*
X139330857Y-99476214D01*
X139295142Y-99511928D01*
X139223714Y-99547642D01*
X138938000Y-99547642D01*
X139938000Y-99511928D02*
X140045142Y-99547642D01*
X140080857Y-99583357D01*
X140116571Y-99654785D01*
X140116571Y-99761928D01*
X140080857Y-99833357D01*
X140045142Y-99869071D01*
X139973714Y-99904785D01*
X139688000Y-99904785D01*
X139688000Y-99154785D01*
X139938000Y-99154785D01*
X140009428Y-99190500D01*
X140045142Y-99226214D01*
X140080857Y-99297642D01*
X140080857Y-99369071D01*
X140045142Y-99440500D01*
X140009428Y-99476214D01*
X139938000Y-99511928D01*
X139688000Y-99511928D01*
X140830857Y-99904785D02*
X140402285Y-99904785D01*
X140616571Y-99904785D02*
X140616571Y-99154785D01*
X140545142Y-99261928D01*
X140473714Y-99333357D01*
X140402285Y-99369071D01*
X137884428Y-101179785D02*
X137884428Y-100429785D01*
X138170142Y-100429785D01*
X138241571Y-100465500D01*
X138277285Y-100501214D01*
X138313000Y-100572642D01*
X138313000Y-100679785D01*
X138277285Y-100751214D01*
X138241571Y-100786928D01*
X138170142Y-100822642D01*
X137884428Y-100822642D01*
X138563000Y-100429785D02*
X138741571Y-101179785D01*
X138884428Y-100644071D01*
X139027285Y-101179785D01*
X139205857Y-100429785D01*
X139491571Y-101179785D02*
X139491571Y-100429785D01*
X139741571Y-100965500D01*
X139991571Y-100429785D01*
X139991571Y-101179785D01*
X136334809Y-98242380D02*
X136334809Y-97242380D01*
X136953857Y-97670952D02*
X136858619Y-97623333D01*
X136811000Y-97575714D01*
X136763380Y-97480476D01*
X136763380Y-97432857D01*
X136811000Y-97337619D01*
X136858619Y-97290000D01*
X136953857Y-97242380D01*
X137144333Y-97242380D01*
X137239571Y-97290000D01*
X137287190Y-97337619D01*
X137334809Y-97432857D01*
X137334809Y-97480476D01*
X137287190Y-97575714D01*
X137239571Y-97623333D01*
X137144333Y-97670952D01*
X136953857Y-97670952D01*
X136858619Y-97718571D01*
X136811000Y-97766190D01*
X136763380Y-97861428D01*
X136763380Y-98051904D01*
X136811000Y-98147142D01*
X136858619Y-98194761D01*
X136953857Y-98242380D01*
X137144333Y-98242380D01*
X137239571Y-98194761D01*
X137287190Y-98147142D01*
X137334809Y-98051904D01*
X137334809Y-97861428D01*
X137287190Y-97766190D01*
X137239571Y-97718571D01*
X137144333Y-97670952D01*
X138477666Y-97194761D02*
X137620523Y-98480476D01*
X138811000Y-98242380D02*
X138811000Y-97242380D01*
X139191952Y-97242380D01*
X139287190Y-97290000D01*
X139334809Y-97337619D01*
X139382428Y-97432857D01*
X139382428Y-97575714D01*
X139334809Y-97670952D01*
X139287190Y-97718571D01*
X139191952Y-97766190D01*
X138811000Y-97766190D01*
X140144333Y-97718571D02*
X140287190Y-97766190D01*
X140334809Y-97813809D01*
X140382428Y-97909047D01*
X140382428Y-98051904D01*
X140334809Y-98147142D01*
X140287190Y-98194761D01*
X140191952Y-98242380D01*
X139811000Y-98242380D01*
X139811000Y-97242380D01*
X140144333Y-97242380D01*
X140239571Y-97290000D01*
X140287190Y-97337619D01*
X140334809Y-97432857D01*
X140334809Y-97528095D01*
X140287190Y-97623333D01*
X140239571Y-97670952D01*
X140144333Y-97718571D01*
X139811000Y-97718571D01*
X141001476Y-97242380D02*
X141096714Y-97242380D01*
X141191952Y-97290000D01*
X141239571Y-97337619D01*
X141287190Y-97432857D01*
X141334809Y-97623333D01*
X141334809Y-97861428D01*
X141287190Y-98051904D01*
X141239571Y-98147142D01*
X141191952Y-98194761D01*
X141096714Y-98242380D01*
X141001476Y-98242380D01*
X140906238Y-98194761D01*
X140858619Y-98147142D01*
X140811000Y-98051904D01*
X140763380Y-97861428D01*
X140763380Y-97623333D01*
X140811000Y-97432857D01*
X140858619Y-97337619D01*
X140906238Y-97290000D01*
X141001476Y-97242380D01*
X136596714Y-102571785D02*
X136596714Y-101821785D01*
X137346714Y-102571785D02*
X136918142Y-102571785D01*
X137132428Y-102571785D02*
X137132428Y-101821785D01*
X137061000Y-101928928D01*
X136989571Y-102000357D01*
X136918142Y-102036071D01*
X137811000Y-101821785D02*
X137882428Y-101821785D01*
X137953857Y-101857500D01*
X137989571Y-101893214D01*
X138025285Y-101964642D01*
X138061000Y-102107500D01*
X138061000Y-102286071D01*
X138025285Y-102428928D01*
X137989571Y-102500357D01*
X137953857Y-102536071D01*
X137882428Y-102571785D01*
X137811000Y-102571785D01*
X137739571Y-102536071D01*
X137703857Y-102500357D01*
X137668142Y-102428928D01*
X137632428Y-102286071D01*
X137632428Y-102107500D01*
X137668142Y-101964642D01*
X137703857Y-101893214D01*
X137739571Y-101857500D01*
X137811000Y-101821785D01*
X138918142Y-101786071D02*
X138275285Y-102750357D01*
X139168142Y-102571785D02*
X139168142Y-101821785D01*
X139453857Y-101821785D01*
X139525285Y-101857500D01*
X139561000Y-101893214D01*
X139596714Y-101964642D01*
X139596714Y-102071785D01*
X139561000Y-102143214D01*
X139525285Y-102178928D01*
X139453857Y-102214642D01*
X139168142Y-102214642D01*
X140168142Y-102178928D02*
X140275285Y-102214642D01*
X140311000Y-102250357D01*
X140346714Y-102321785D01*
X140346714Y-102428928D01*
X140311000Y-102500357D01*
X140275285Y-102536071D01*
X140203857Y-102571785D01*
X139918142Y-102571785D01*
X139918142Y-101821785D01*
X140168142Y-101821785D01*
X140239571Y-101857500D01*
X140275285Y-101893214D01*
X140311000Y-101964642D01*
X140311000Y-102036071D01*
X140275285Y-102107500D01*
X140239571Y-102143214D01*
X140168142Y-102178928D01*
X139918142Y-102178928D01*
X140632428Y-101893214D02*
X140668142Y-101857500D01*
X140739571Y-101821785D01*
X140918142Y-101821785D01*
X140989571Y-101857500D01*
X141025285Y-101893214D01*
X141061000Y-101964642D01*
X141061000Y-102036071D01*
X141025285Y-102143214D01*
X140596714Y-102571785D01*
X141061000Y-102571785D01*
X136828857Y-103811071D02*
X136936000Y-103846785D01*
X137114571Y-103846785D01*
X137186000Y-103811071D01*
X137221714Y-103775357D01*
X137257428Y-103703928D01*
X137257428Y-103632500D01*
X137221714Y-103561071D01*
X137186000Y-103525357D01*
X137114571Y-103489642D01*
X136971714Y-103453928D01*
X136900285Y-103418214D01*
X136864571Y-103382500D01*
X136828857Y-103311071D01*
X136828857Y-103239642D01*
X136864571Y-103168214D01*
X136900285Y-103132500D01*
X136971714Y-103096785D01*
X137150285Y-103096785D01*
X137257428Y-103132500D01*
X137543142Y-103811071D02*
X137650285Y-103846785D01*
X137828857Y-103846785D01*
X137900285Y-103811071D01*
X137936000Y-103775357D01*
X137971714Y-103703928D01*
X137971714Y-103632500D01*
X137936000Y-103561071D01*
X137900285Y-103525357D01*
X137828857Y-103489642D01*
X137686000Y-103453928D01*
X137614571Y-103418214D01*
X137578857Y-103382500D01*
X137543142Y-103311071D01*
X137543142Y-103239642D01*
X137578857Y-103168214D01*
X137614571Y-103132500D01*
X137686000Y-103096785D01*
X137864571Y-103096785D01*
X137971714Y-103132500D01*
X138328857Y-103811071D02*
X138328857Y-103846785D01*
X138293142Y-103918214D01*
X138257428Y-103953928D01*
X138650285Y-103846785D02*
X138650285Y-103096785D01*
X138936000Y-103096785D01*
X139007428Y-103132500D01*
X139043142Y-103168214D01*
X139078857Y-103239642D01*
X139078857Y-103346785D01*
X139043142Y-103418214D01*
X139007428Y-103453928D01*
X138936000Y-103489642D01*
X138650285Y-103489642D01*
X139328857Y-103096785D02*
X139507428Y-103846785D01*
X139650285Y-103311071D01*
X139793142Y-103846785D01*
X139971714Y-103096785D01*
X140257428Y-103846785D02*
X140257428Y-103096785D01*
X140507428Y-103632500D01*
X140757428Y-103096785D01*
X140757428Y-103846785D01*
X136350714Y-92876666D02*
X136826904Y-92876666D01*
X136255476Y-93162380D02*
X136588809Y-92162380D01*
X136922142Y-93162380D01*
X137445952Y-92162380D02*
X137541190Y-92162380D01*
X137636428Y-92210000D01*
X137684047Y-92257619D01*
X137731666Y-92352857D01*
X137779285Y-92543333D01*
X137779285Y-92781428D01*
X137731666Y-92971904D01*
X137684047Y-93067142D01*
X137636428Y-93114761D01*
X137541190Y-93162380D01*
X137445952Y-93162380D01*
X137350714Y-93114761D01*
X137303095Y-93067142D01*
X137255476Y-92971904D01*
X137207857Y-92781428D01*
X137207857Y-92543333D01*
X137255476Y-92352857D01*
X137303095Y-92257619D01*
X137350714Y-92210000D01*
X137445952Y-92162380D01*
X138922142Y-92114761D02*
X138065000Y-93400476D01*
X139255476Y-93162380D02*
X139255476Y-92162380D01*
X139636428Y-92162380D01*
X139731666Y-92210000D01*
X139779285Y-92257619D01*
X139826904Y-92352857D01*
X139826904Y-92495714D01*
X139779285Y-92590952D01*
X139731666Y-92638571D01*
X139636428Y-92686190D01*
X139255476Y-92686190D01*
X140826904Y-93067142D02*
X140779285Y-93114761D01*
X140636428Y-93162380D01*
X140541190Y-93162380D01*
X140398333Y-93114761D01*
X140303095Y-93019523D01*
X140255476Y-92924285D01*
X140207857Y-92733809D01*
X140207857Y-92590952D01*
X140255476Y-92400476D01*
X140303095Y-92305238D01*
X140398333Y-92210000D01*
X140541190Y-92162380D01*
X140636428Y-92162380D01*
X140779285Y-92210000D01*
X140826904Y-92257619D01*
X141445952Y-92162380D02*
X141541190Y-92162380D01*
X141636428Y-92210000D01*
X141684047Y-92257619D01*
X141731666Y-92352857D01*
X141779285Y-92543333D01*
X141779285Y-92781428D01*
X141731666Y-92971904D01*
X141684047Y-93067142D01*
X141636428Y-93114761D01*
X141541190Y-93162380D01*
X141445952Y-93162380D01*
X141350714Y-93114761D01*
X141303095Y-93067142D01*
X141255476Y-92971904D01*
X141207857Y-92781428D01*
X141207857Y-92543333D01*
X141255476Y-92352857D01*
X141303095Y-92257619D01*
X141350714Y-92210000D01*
X141445952Y-92162380D01*
X136350714Y-90336666D02*
X136826904Y-90336666D01*
X136255476Y-90622380D02*
X136588809Y-89622380D01*
X136922142Y-90622380D01*
X137779285Y-90622380D02*
X137207857Y-90622380D01*
X137493571Y-90622380D02*
X137493571Y-89622380D01*
X137398333Y-89765238D01*
X137303095Y-89860476D01*
X137207857Y-89908095D01*
X138922142Y-89574761D02*
X138065000Y-90860476D01*
X139255476Y-90622380D02*
X139255476Y-89622380D01*
X139636428Y-89622380D01*
X139731666Y-89670000D01*
X139779285Y-89717619D01*
X139826904Y-89812857D01*
X139826904Y-89955714D01*
X139779285Y-90050952D01*
X139731666Y-90098571D01*
X139636428Y-90146190D01*
X139255476Y-90146190D01*
X140826904Y-90527142D02*
X140779285Y-90574761D01*
X140636428Y-90622380D01*
X140541190Y-90622380D01*
X140398333Y-90574761D01*
X140303095Y-90479523D01*
X140255476Y-90384285D01*
X140207857Y-90193809D01*
X140207857Y-90050952D01*
X140255476Y-89860476D01*
X140303095Y-89765238D01*
X140398333Y-89670000D01*
X140541190Y-89622380D01*
X140636428Y-89622380D01*
X140779285Y-89670000D01*
X140826904Y-89717619D01*
X141779285Y-90622380D02*
X141207857Y-90622380D01*
X141493571Y-90622380D02*
X141493571Y-89622380D01*
X141398333Y-89765238D01*
X141303095Y-89860476D01*
X141207857Y-89908095D01*
X136350714Y-87796666D02*
X136826904Y-87796666D01*
X136255476Y-88082380D02*
X136588809Y-87082380D01*
X136922142Y-88082380D01*
X137207857Y-87177619D02*
X137255476Y-87130000D01*
X137350714Y-87082380D01*
X137588809Y-87082380D01*
X137684047Y-87130000D01*
X137731666Y-87177619D01*
X137779285Y-87272857D01*
X137779285Y-87368095D01*
X137731666Y-87510952D01*
X137160238Y-88082380D01*
X137779285Y-88082380D01*
X138922142Y-87034761D02*
X138065000Y-88320476D01*
X139255476Y-88082380D02*
X139255476Y-87082380D01*
X139636428Y-87082380D01*
X139731666Y-87130000D01*
X139779285Y-87177619D01*
X139826904Y-87272857D01*
X139826904Y-87415714D01*
X139779285Y-87510952D01*
X139731666Y-87558571D01*
X139636428Y-87606190D01*
X139255476Y-87606190D01*
X140826904Y-87987142D02*
X140779285Y-88034761D01*
X140636428Y-88082380D01*
X140541190Y-88082380D01*
X140398333Y-88034761D01*
X140303095Y-87939523D01*
X140255476Y-87844285D01*
X140207857Y-87653809D01*
X140207857Y-87510952D01*
X140255476Y-87320476D01*
X140303095Y-87225238D01*
X140398333Y-87130000D01*
X140541190Y-87082380D01*
X140636428Y-87082380D01*
X140779285Y-87130000D01*
X140826904Y-87177619D01*
X141207857Y-87177619D02*
X141255476Y-87130000D01*
X141350714Y-87082380D01*
X141588809Y-87082380D01*
X141684047Y-87130000D01*
X141731666Y-87177619D01*
X141779285Y-87272857D01*
X141779285Y-87368095D01*
X141731666Y-87510952D01*
X141160238Y-88082380D01*
X141779285Y-88082380D01*
X136350714Y-85256666D02*
X136826904Y-85256666D01*
X136255476Y-85542380D02*
X136588809Y-84542380D01*
X136922142Y-85542380D01*
X137160238Y-84542380D02*
X137779285Y-84542380D01*
X137445952Y-84923333D01*
X137588809Y-84923333D01*
X137684047Y-84970952D01*
X137731666Y-85018571D01*
X137779285Y-85113809D01*
X137779285Y-85351904D01*
X137731666Y-85447142D01*
X137684047Y-85494761D01*
X137588809Y-85542380D01*
X137303095Y-85542380D01*
X137207857Y-85494761D01*
X137160238Y-85447142D01*
X138922142Y-84494761D02*
X138065000Y-85780476D01*
X139255476Y-85542380D02*
X139255476Y-84542380D01*
X139636428Y-84542380D01*
X139731666Y-84590000D01*
X139779285Y-84637619D01*
X139826904Y-84732857D01*
X139826904Y-84875714D01*
X139779285Y-84970952D01*
X139731666Y-85018571D01*
X139636428Y-85066190D01*
X139255476Y-85066190D01*
X140826904Y-85447142D02*
X140779285Y-85494761D01*
X140636428Y-85542380D01*
X140541190Y-85542380D01*
X140398333Y-85494761D01*
X140303095Y-85399523D01*
X140255476Y-85304285D01*
X140207857Y-85113809D01*
X140207857Y-84970952D01*
X140255476Y-84780476D01*
X140303095Y-84685238D01*
X140398333Y-84590000D01*
X140541190Y-84542380D01*
X140636428Y-84542380D01*
X140779285Y-84590000D01*
X140826904Y-84637619D01*
X141160238Y-84542380D02*
X141779285Y-84542380D01*
X141445952Y-84923333D01*
X141588809Y-84923333D01*
X141684047Y-84970952D01*
X141731666Y-85018571D01*
X141779285Y-85113809D01*
X141779285Y-85351904D01*
X141731666Y-85447142D01*
X141684047Y-85494761D01*
X141588809Y-85542380D01*
X141303095Y-85542380D01*
X141207857Y-85494761D01*
X141160238Y-85447142D01*
X137664285Y-82037500D02*
X138021428Y-82037500D01*
X137592857Y-82251785D02*
X137842857Y-81501785D01*
X138092857Y-82251785D01*
X138664285Y-81751785D02*
X138664285Y-82251785D01*
X138485714Y-81466071D02*
X138307142Y-82001785D01*
X138771428Y-82001785D01*
X139592857Y-81466071D02*
X138950000Y-82430357D01*
X139842857Y-82251785D02*
X139842857Y-81501785D01*
X140128571Y-81501785D01*
X140200000Y-81537500D01*
X140235714Y-81573214D01*
X140271428Y-81644642D01*
X140271428Y-81751785D01*
X140235714Y-81823214D01*
X140200000Y-81858928D01*
X140128571Y-81894642D01*
X139842857Y-81894642D01*
X141021428Y-82180357D02*
X140985714Y-82216071D01*
X140878571Y-82251785D01*
X140807142Y-82251785D01*
X140700000Y-82216071D01*
X140628571Y-82144642D01*
X140592857Y-82073214D01*
X140557142Y-81930357D01*
X140557142Y-81823214D01*
X140592857Y-81680357D01*
X140628571Y-81608928D01*
X140700000Y-81537500D01*
X140807142Y-81501785D01*
X140878571Y-81501785D01*
X140985714Y-81537500D01*
X141021428Y-81573214D01*
X141664285Y-81751785D02*
X141664285Y-82251785D01*
X141485714Y-81466071D02*
X141307142Y-82001785D01*
X141771428Y-82001785D01*
X138789285Y-83491071D02*
X138896428Y-83526785D01*
X139075000Y-83526785D01*
X139146428Y-83491071D01*
X139182142Y-83455357D01*
X139217857Y-83383928D01*
X139217857Y-83312500D01*
X139182142Y-83241071D01*
X139146428Y-83205357D01*
X139075000Y-83169642D01*
X138932142Y-83133928D01*
X138860714Y-83098214D01*
X138825000Y-83062500D01*
X138789285Y-82991071D01*
X138789285Y-82919642D01*
X138825000Y-82848214D01*
X138860714Y-82812500D01*
X138932142Y-82776785D01*
X139110714Y-82776785D01*
X139217857Y-82812500D01*
X139539285Y-83526785D02*
X139539285Y-82776785D01*
X139717857Y-82776785D01*
X139825000Y-82812500D01*
X139896428Y-82883928D01*
X139932142Y-82955357D01*
X139967857Y-83098214D01*
X139967857Y-83205357D01*
X139932142Y-83348214D01*
X139896428Y-83419642D01*
X139825000Y-83491071D01*
X139717857Y-83526785D01*
X139539285Y-83526785D01*
X140253571Y-83312500D02*
X140610714Y-83312500D01*
X140182142Y-83526785D02*
X140432142Y-82776785D01*
X140682142Y-83526785D01*
X137664285Y-79497500D02*
X138021428Y-79497500D01*
X137592857Y-79711785D02*
X137842857Y-78961785D01*
X138092857Y-79711785D01*
X138700000Y-78961785D02*
X138342857Y-78961785D01*
X138307142Y-79318928D01*
X138342857Y-79283214D01*
X138414285Y-79247500D01*
X138592857Y-79247500D01*
X138664285Y-79283214D01*
X138700000Y-79318928D01*
X138735714Y-79390357D01*
X138735714Y-79568928D01*
X138700000Y-79640357D01*
X138664285Y-79676071D01*
X138592857Y-79711785D01*
X138414285Y-79711785D01*
X138342857Y-79676071D01*
X138307142Y-79640357D01*
X139592857Y-78926071D02*
X138950000Y-79890357D01*
X139842857Y-79711785D02*
X139842857Y-78961785D01*
X140128571Y-78961785D01*
X140200000Y-78997500D01*
X140235714Y-79033214D01*
X140271428Y-79104642D01*
X140271428Y-79211785D01*
X140235714Y-79283214D01*
X140200000Y-79318928D01*
X140128571Y-79354642D01*
X139842857Y-79354642D01*
X141021428Y-79640357D02*
X140985714Y-79676071D01*
X140878571Y-79711785D01*
X140807142Y-79711785D01*
X140700000Y-79676071D01*
X140628571Y-79604642D01*
X140592857Y-79533214D01*
X140557142Y-79390357D01*
X140557142Y-79283214D01*
X140592857Y-79140357D01*
X140628571Y-79068928D01*
X140700000Y-78997500D01*
X140807142Y-78961785D01*
X140878571Y-78961785D01*
X140985714Y-78997500D01*
X141021428Y-79033214D01*
X141700000Y-78961785D02*
X141342857Y-78961785D01*
X141307142Y-79318928D01*
X141342857Y-79283214D01*
X141414285Y-79247500D01*
X141592857Y-79247500D01*
X141664285Y-79283214D01*
X141700000Y-79318928D01*
X141735714Y-79390357D01*
X141735714Y-79568928D01*
X141700000Y-79640357D01*
X141664285Y-79676071D01*
X141592857Y-79711785D01*
X141414285Y-79711785D01*
X141342857Y-79676071D01*
X141307142Y-79640357D01*
X138807142Y-80951071D02*
X138914285Y-80986785D01*
X139092857Y-80986785D01*
X139164285Y-80951071D01*
X139200000Y-80915357D01*
X139235714Y-80843928D01*
X139235714Y-80772500D01*
X139200000Y-80701071D01*
X139164285Y-80665357D01*
X139092857Y-80629642D01*
X138950000Y-80593928D01*
X138878571Y-80558214D01*
X138842857Y-80522500D01*
X138807142Y-80451071D01*
X138807142Y-80379642D01*
X138842857Y-80308214D01*
X138878571Y-80272500D01*
X138950000Y-80236785D01*
X139128571Y-80236785D01*
X139235714Y-80272500D01*
X139985714Y-80915357D02*
X139950000Y-80951071D01*
X139842857Y-80986785D01*
X139771428Y-80986785D01*
X139664285Y-80951071D01*
X139592857Y-80879642D01*
X139557142Y-80808214D01*
X139521428Y-80665357D01*
X139521428Y-80558214D01*
X139557142Y-80415357D01*
X139592857Y-80343928D01*
X139664285Y-80272500D01*
X139771428Y-80236785D01*
X139842857Y-80236785D01*
X139950000Y-80272500D01*
X139985714Y-80308214D01*
X140664285Y-80986785D02*
X140307142Y-80986785D01*
X140307142Y-80236785D01*
X101481000Y-119506904D02*
X101433380Y-119602142D01*
X101433380Y-119745000D01*
X101481000Y-119887857D01*
X101576238Y-119983095D01*
X101671476Y-120030714D01*
X101861952Y-120078333D01*
X102004809Y-120078333D01*
X102195285Y-120030714D01*
X102290523Y-119983095D01*
X102385761Y-119887857D01*
X102433380Y-119745000D01*
X102433380Y-119649761D01*
X102385761Y-119506904D01*
X102338142Y-119459285D01*
X102004809Y-119459285D01*
X102004809Y-119649761D01*
X102433380Y-119030714D02*
X101433380Y-119030714D01*
X102433380Y-118459285D01*
X101433380Y-118459285D01*
X102433380Y-117983095D02*
X101433380Y-117983095D01*
X101433380Y-117745000D01*
X101481000Y-117602142D01*
X101576238Y-117506904D01*
X101671476Y-117459285D01*
X101861952Y-117411666D01*
X102004809Y-117411666D01*
X102195285Y-117459285D01*
X102290523Y-117506904D01*
X102385761Y-117602142D01*
X102433380Y-117745000D01*
X102433380Y-117983095D01*
X104846380Y-119014809D02*
X103846380Y-119014809D01*
X104846380Y-118538619D02*
X103846380Y-118538619D01*
X104846380Y-117967190D01*
X103846380Y-117967190D01*
X106386380Y-119872000D02*
X106386380Y-119681523D01*
X106434000Y-119586285D01*
X106529238Y-119491047D01*
X106719714Y-119443428D01*
X107053047Y-119443428D01*
X107243523Y-119491047D01*
X107338761Y-119586285D01*
X107386380Y-119681523D01*
X107386380Y-119872000D01*
X107338761Y-119967238D01*
X107243523Y-120062476D01*
X107053047Y-120110095D01*
X106719714Y-120110095D01*
X106529238Y-120062476D01*
X106434000Y-119967238D01*
X106386380Y-119872000D01*
X106386380Y-119014857D02*
X107195904Y-119014857D01*
X107291142Y-118967238D01*
X107338761Y-118919619D01*
X107386380Y-118824380D01*
X107386380Y-118633904D01*
X107338761Y-118538666D01*
X107291142Y-118491047D01*
X107195904Y-118443428D01*
X106386380Y-118443428D01*
X106386380Y-118110095D02*
X106386380Y-117538666D01*
X107386380Y-117824380D02*
X106386380Y-117824380D01*
X109640666Y-135358047D02*
X109640666Y-134881857D01*
X109926380Y-135453285D02*
X108926380Y-135119952D01*
X109926380Y-134786619D01*
X109926380Y-134453285D02*
X108926380Y-134453285D01*
X108926380Y-134215190D01*
X108974000Y-134072333D01*
X109069238Y-133977095D01*
X109164476Y-133929476D01*
X109354952Y-133881857D01*
X109497809Y-133881857D01*
X109688285Y-133929476D01*
X109783523Y-133977095D01*
X109878761Y-134072333D01*
X109926380Y-134215190D01*
X109926380Y-134453285D01*
X108926380Y-133167571D02*
X109640666Y-133167571D01*
X109783523Y-133215190D01*
X109878761Y-133310428D01*
X109926380Y-133453285D01*
X109926380Y-133548523D01*
X106386380Y-135239000D02*
X106386380Y-135048523D01*
X106434000Y-134953285D01*
X106529238Y-134858047D01*
X106719714Y-134810428D01*
X107053047Y-134810428D01*
X107243523Y-134858047D01*
X107338761Y-134953285D01*
X107386380Y-135048523D01*
X107386380Y-135239000D01*
X107338761Y-135334238D01*
X107243523Y-135429476D01*
X107053047Y-135477095D01*
X106719714Y-135477095D01*
X106529238Y-135429476D01*
X106434000Y-135334238D01*
X106386380Y-135239000D01*
X106386380Y-134381857D02*
X107195904Y-134381857D01*
X107291142Y-134334238D01*
X107338761Y-134286619D01*
X107386380Y-134191380D01*
X107386380Y-134000904D01*
X107338761Y-133905666D01*
X107291142Y-133858047D01*
X107195904Y-133810428D01*
X106386380Y-133810428D01*
X106386380Y-133477095D02*
X106386380Y-132905666D01*
X107386380Y-133191380D02*
X106386380Y-133191380D01*
X104846380Y-135397809D02*
X103846380Y-135397809D01*
X104846380Y-134921619D02*
X103846380Y-134921619D01*
X104846380Y-134350190D01*
X103846380Y-134350190D01*
X95551809Y-136612380D02*
X95885142Y-137612380D01*
X96218476Y-136612380D01*
X96313714Y-137707619D02*
X97075619Y-137707619D01*
X97313714Y-137612380D02*
X97313714Y-136612380D01*
X97789904Y-137612380D02*
X97789904Y-136612380D01*
X98361333Y-137612380D01*
X98361333Y-136612380D01*
X95567666Y-131532380D02*
X95901000Y-132532380D01*
X96234333Y-131532380D01*
X97139095Y-132437142D02*
X97091476Y-132484761D01*
X96948619Y-132532380D01*
X96853380Y-132532380D01*
X96710523Y-132484761D01*
X96615285Y-132389523D01*
X96567666Y-132294285D01*
X96520047Y-132103809D01*
X96520047Y-131960952D01*
X96567666Y-131770476D01*
X96615285Y-131675238D01*
X96710523Y-131580000D01*
X96853380Y-131532380D01*
X96948619Y-131532380D01*
X97091476Y-131580000D01*
X97139095Y-131627619D01*
X98139095Y-132437142D02*
X98091476Y-132484761D01*
X97948619Y-132532380D01*
X97853380Y-132532380D01*
X97710523Y-132484761D01*
X97615285Y-132389523D01*
X97567666Y-132294285D01*
X97520047Y-132103809D01*
X97520047Y-131960952D01*
X97567666Y-131770476D01*
X97615285Y-131675238D01*
X97710523Y-131580000D01*
X97853380Y-131532380D01*
X97948619Y-131532380D01*
X98091476Y-131580000D01*
X98139095Y-131627619D01*
X96139095Y-134120000D02*
X96043857Y-134072380D01*
X95901000Y-134072380D01*
X95758142Y-134120000D01*
X95662904Y-134215238D01*
X95615285Y-134310476D01*
X95567666Y-134500952D01*
X95567666Y-134643809D01*
X95615285Y-134834285D01*
X95662904Y-134929523D01*
X95758142Y-135024761D01*
X95901000Y-135072380D01*
X95996238Y-135072380D01*
X96139095Y-135024761D01*
X96186714Y-134977142D01*
X96186714Y-134643809D01*
X95996238Y-134643809D01*
X96615285Y-135072380D02*
X96615285Y-134072380D01*
X97186714Y-135072380D01*
X97186714Y-134072380D01*
X97662904Y-135072380D02*
X97662904Y-134072380D01*
X97901000Y-134072380D01*
X98043857Y-134120000D01*
X98139095Y-134215238D01*
X98186714Y-134310476D01*
X98234333Y-134500952D01*
X98234333Y-134643809D01*
X98186714Y-134834285D01*
X98139095Y-134929523D01*
X98043857Y-135024761D01*
X97901000Y-135072380D01*
X97662904Y-135072380D01*
X134945380Y-128452380D02*
X134469190Y-128785714D01*
X134945380Y-129023809D02*
X133945380Y-129023809D01*
X133945380Y-128642857D01*
X133993000Y-128547619D01*
X134040619Y-128500000D01*
X134135857Y-128452380D01*
X134278714Y-128452380D01*
X134373952Y-128500000D01*
X134421571Y-128547619D01*
X134469190Y-128642857D01*
X134469190Y-129023809D01*
X134421571Y-128023809D02*
X134421571Y-127690476D01*
X134945380Y-127547619D02*
X134945380Y-128023809D01*
X133945380Y-128023809D01*
X133945380Y-127547619D01*
X134897761Y-127166666D02*
X134945380Y-127023809D01*
X134945380Y-126785714D01*
X134897761Y-126690476D01*
X134850142Y-126642857D01*
X134754904Y-126595238D01*
X134659666Y-126595238D01*
X134564428Y-126642857D01*
X134516809Y-126690476D01*
X134469190Y-126785714D01*
X134421571Y-126976190D01*
X134373952Y-127071428D01*
X134326333Y-127119047D01*
X134231095Y-127166666D01*
X134135857Y-127166666D01*
X134040619Y-127119047D01*
X133993000Y-127071428D01*
X133945380Y-126976190D01*
X133945380Y-126738095D01*
X133993000Y-126595238D01*
X134421571Y-126166666D02*
X134421571Y-125833333D01*
X134945380Y-125690476D02*
X134945380Y-126166666D01*
X133945380Y-126166666D01*
X133945380Y-125690476D01*
X133945380Y-125404761D02*
X133945380Y-124833333D01*
X134945380Y-125119047D02*
X133945380Y-125119047D01*
X129865380Y-128063428D02*
X128865380Y-128063428D01*
X129579666Y-127730095D01*
X128865380Y-127396761D01*
X129865380Y-127396761D01*
X129865380Y-126920571D02*
X128865380Y-126920571D01*
X129817761Y-126492000D02*
X129865380Y-126349142D01*
X129865380Y-126111047D01*
X129817761Y-126015809D01*
X129770142Y-125968190D01*
X129674904Y-125920571D01*
X129579666Y-125920571D01*
X129484428Y-125968190D01*
X129436809Y-126015809D01*
X129389190Y-126111047D01*
X129341571Y-126301523D01*
X129293952Y-126396761D01*
X129246333Y-126444380D01*
X129151095Y-126492000D01*
X129055857Y-126492000D01*
X128960619Y-126444380D01*
X128913000Y-126396761D01*
X128865380Y-126301523D01*
X128865380Y-126063428D01*
X128913000Y-125920571D01*
X128865380Y-125301523D02*
X128865380Y-125111047D01*
X128913000Y-125015809D01*
X129008238Y-124920571D01*
X129198714Y-124872952D01*
X129532047Y-124872952D01*
X129722523Y-124920571D01*
X129817761Y-125015809D01*
X129865380Y-125111047D01*
X129865380Y-125301523D01*
X129817761Y-125396761D01*
X129722523Y-125492000D01*
X129532047Y-125539619D01*
X129198714Y-125539619D01*
X129008238Y-125492000D01*
X128913000Y-125396761D01*
X128865380Y-125301523D01*
X132405380Y-118919428D02*
X131405380Y-118919428D01*
X132119666Y-118586095D01*
X131405380Y-118252761D01*
X132405380Y-118252761D01*
X131405380Y-117586095D02*
X131405380Y-117395619D01*
X131453000Y-117300380D01*
X131548238Y-117205142D01*
X131738714Y-117157523D01*
X132072047Y-117157523D01*
X132262523Y-117205142D01*
X132357761Y-117300380D01*
X132405380Y-117395619D01*
X132405380Y-117586095D01*
X132357761Y-117681333D01*
X132262523Y-117776571D01*
X132072047Y-117824190D01*
X131738714Y-117824190D01*
X131548238Y-117776571D01*
X131453000Y-117681333D01*
X131405380Y-117586095D01*
X132357761Y-116776571D02*
X132405380Y-116633714D01*
X132405380Y-116395619D01*
X132357761Y-116300380D01*
X132310142Y-116252761D01*
X132214904Y-116205142D01*
X132119666Y-116205142D01*
X132024428Y-116252761D01*
X131976809Y-116300380D01*
X131929190Y-116395619D01*
X131881571Y-116586095D01*
X131833952Y-116681333D01*
X131786333Y-116728952D01*
X131691095Y-116776571D01*
X131595857Y-116776571D01*
X131500619Y-116728952D01*
X131453000Y-116681333D01*
X131405380Y-116586095D01*
X131405380Y-116348000D01*
X131453000Y-116205142D01*
X132405380Y-115776571D02*
X131405380Y-115776571D01*
X132357761Y-127523714D02*
X132405380Y-127380857D01*
X132405380Y-127142761D01*
X132357761Y-127047523D01*
X132310142Y-126999904D01*
X132214904Y-126952285D01*
X132119666Y-126952285D01*
X132024428Y-126999904D01*
X131976809Y-127047523D01*
X131929190Y-127142761D01*
X131881571Y-127333238D01*
X131833952Y-127428476D01*
X131786333Y-127476095D01*
X131691095Y-127523714D01*
X131595857Y-127523714D01*
X131500619Y-127476095D01*
X131453000Y-127428476D01*
X131405380Y-127333238D01*
X131405380Y-127095142D01*
X131453000Y-126952285D01*
X132310142Y-125952285D02*
X132357761Y-125999904D01*
X132405380Y-126142761D01*
X132405380Y-126238000D01*
X132357761Y-126380857D01*
X132262523Y-126476095D01*
X132167285Y-126523714D01*
X131976809Y-126571333D01*
X131833952Y-126571333D01*
X131643476Y-126523714D01*
X131548238Y-126476095D01*
X131453000Y-126380857D01*
X131405380Y-126238000D01*
X131405380Y-126142761D01*
X131453000Y-125999904D01*
X131500619Y-125952285D01*
X132405380Y-125523714D02*
X131405380Y-125523714D01*
X132405380Y-124952285D02*
X131833952Y-125380857D01*
X131405380Y-124952285D02*
X131976809Y-125523714D01*
X133993000Y-118363904D02*
X133945380Y-118459142D01*
X133945380Y-118602000D01*
X133993000Y-118744857D01*
X134088238Y-118840095D01*
X134183476Y-118887714D01*
X134373952Y-118935333D01*
X134516809Y-118935333D01*
X134707285Y-118887714D01*
X134802523Y-118840095D01*
X134897761Y-118744857D01*
X134945380Y-118602000D01*
X134945380Y-118506761D01*
X134897761Y-118363904D01*
X134850142Y-118316285D01*
X134516809Y-118316285D01*
X134516809Y-118506761D01*
X134945380Y-117887714D02*
X133945380Y-117887714D01*
X134945380Y-117316285D01*
X133945380Y-117316285D01*
X134945380Y-116840095D02*
X133945380Y-116840095D01*
X133945380Y-116602000D01*
X133993000Y-116459142D01*
X134088238Y-116363904D01*
X134183476Y-116316285D01*
X134373952Y-116268666D01*
X134516809Y-116268666D01*
X134707285Y-116316285D01*
X134802523Y-116363904D01*
X134897761Y-116459142D01*
X134945380Y-116602000D01*
X134945380Y-116840095D01*
X128865380Y-118935333D02*
X129865380Y-118602000D01*
X128865380Y-118268666D01*
X129770142Y-117363904D02*
X129817761Y-117411523D01*
X129865380Y-117554380D01*
X129865380Y-117649619D01*
X129817761Y-117792476D01*
X129722523Y-117887714D01*
X129627285Y-117935333D01*
X129436809Y-117982952D01*
X129293952Y-117982952D01*
X129103476Y-117935333D01*
X129008238Y-117887714D01*
X128913000Y-117792476D01*
X128865380Y-117649619D01*
X128865380Y-117554380D01*
X128913000Y-117411523D01*
X128960619Y-117363904D01*
X129770142Y-116363904D02*
X129817761Y-116411523D01*
X129865380Y-116554380D01*
X129865380Y-116649619D01*
X129817761Y-116792476D01*
X129722523Y-116887714D01*
X129627285Y-116935333D01*
X129436809Y-116982952D01*
X129293952Y-116982952D01*
X129103476Y-116935333D01*
X129008238Y-116887714D01*
X128913000Y-116792476D01*
X128865380Y-116649619D01*
X128865380Y-116554380D01*
X128913000Y-116411523D01*
X128960619Y-116363904D01*
X127452380Y-121499190D02*
X126452380Y-121499190D01*
X127404761Y-121070619D02*
X127452380Y-120927761D01*
X127452380Y-120689666D01*
X127404761Y-120594428D01*
X127357142Y-120546809D01*
X127261904Y-120499190D01*
X127166666Y-120499190D01*
X127071428Y-120546809D01*
X127023809Y-120594428D01*
X126976190Y-120689666D01*
X126928571Y-120880142D01*
X126880952Y-120975380D01*
X126833333Y-121023000D01*
X126738095Y-121070619D01*
X126642857Y-121070619D01*
X126547619Y-121023000D01*
X126500000Y-120975380D01*
X126452380Y-120880142D01*
X126452380Y-120642047D01*
X126500000Y-120499190D01*
X127452380Y-120070619D02*
X126452380Y-120070619D01*
X126452380Y-119689666D01*
X126500000Y-119594428D01*
X126547619Y-119546809D01*
X126642857Y-119499190D01*
X126785714Y-119499190D01*
X126880952Y-119546809D01*
X126928571Y-119594428D01*
X126976190Y-119689666D01*
X126976190Y-120070619D01*
X96139095Y-118880000D02*
X96043857Y-118832380D01*
X95901000Y-118832380D01*
X95758142Y-118880000D01*
X95662904Y-118975238D01*
X95615285Y-119070476D01*
X95567666Y-119260952D01*
X95567666Y-119403809D01*
X95615285Y-119594285D01*
X95662904Y-119689523D01*
X95758142Y-119784761D01*
X95901000Y-119832380D01*
X95996238Y-119832380D01*
X96139095Y-119784761D01*
X96186714Y-119737142D01*
X96186714Y-119403809D01*
X95996238Y-119403809D01*
X96615285Y-119832380D02*
X96615285Y-118832380D01*
X97186714Y-119832380D01*
X97186714Y-118832380D01*
X97662904Y-119832380D02*
X97662904Y-118832380D01*
X97901000Y-118832380D01*
X98043857Y-118880000D01*
X98139095Y-118975238D01*
X98186714Y-119070476D01*
X98234333Y-119260952D01*
X98234333Y-119403809D01*
X98186714Y-119594285D01*
X98139095Y-119689523D01*
X98043857Y-119784761D01*
X97901000Y-119832380D01*
X97662904Y-119832380D01*
X96139095Y-116340000D02*
X96043857Y-116292380D01*
X95901000Y-116292380D01*
X95758142Y-116340000D01*
X95662904Y-116435238D01*
X95615285Y-116530476D01*
X95567666Y-116720952D01*
X95567666Y-116863809D01*
X95615285Y-117054285D01*
X95662904Y-117149523D01*
X95758142Y-117244761D01*
X95901000Y-117292380D01*
X95996238Y-117292380D01*
X96139095Y-117244761D01*
X96186714Y-117197142D01*
X96186714Y-116863809D01*
X95996238Y-116863809D01*
X96615285Y-117292380D02*
X96615285Y-116292380D01*
X97186714Y-117292380D01*
X97186714Y-116292380D01*
X97662904Y-117292380D02*
X97662904Y-116292380D01*
X97901000Y-116292380D01*
X98043857Y-116340000D01*
X98139095Y-116435238D01*
X98186714Y-116530476D01*
X98234333Y-116720952D01*
X98234333Y-116863809D01*
X98186714Y-117054285D01*
X98139095Y-117149523D01*
X98043857Y-117244761D01*
X97901000Y-117292380D01*
X97662904Y-117292380D01*
X96139095Y-113800000D02*
X96043857Y-113752380D01*
X95901000Y-113752380D01*
X95758142Y-113800000D01*
X95662904Y-113895238D01*
X95615285Y-113990476D01*
X95567666Y-114180952D01*
X95567666Y-114323809D01*
X95615285Y-114514285D01*
X95662904Y-114609523D01*
X95758142Y-114704761D01*
X95901000Y-114752380D01*
X95996238Y-114752380D01*
X96139095Y-114704761D01*
X96186714Y-114657142D01*
X96186714Y-114323809D01*
X95996238Y-114323809D01*
X96615285Y-114752380D02*
X96615285Y-113752380D01*
X97186714Y-114752380D01*
X97186714Y-113752380D01*
X97662904Y-114752380D02*
X97662904Y-113752380D01*
X97901000Y-113752380D01*
X98043857Y-113800000D01*
X98139095Y-113895238D01*
X98186714Y-113990476D01*
X98234333Y-114180952D01*
X98234333Y-114323809D01*
X98186714Y-114514285D01*
X98139095Y-114609523D01*
X98043857Y-114704761D01*
X97901000Y-114752380D01*
X97662904Y-114752380D01*
X95567666Y-108672380D02*
X95901000Y-109672380D01*
X96234333Y-108672380D01*
X97139095Y-109577142D02*
X97091476Y-109624761D01*
X96948619Y-109672380D01*
X96853380Y-109672380D01*
X96710523Y-109624761D01*
X96615285Y-109529523D01*
X96567666Y-109434285D01*
X96520047Y-109243809D01*
X96520047Y-109100952D01*
X96567666Y-108910476D01*
X96615285Y-108815238D01*
X96710523Y-108720000D01*
X96853380Y-108672380D01*
X96948619Y-108672380D01*
X97091476Y-108720000D01*
X97139095Y-108767619D01*
X98139095Y-109577142D02*
X98091476Y-109624761D01*
X97948619Y-109672380D01*
X97853380Y-109672380D01*
X97710523Y-109624761D01*
X97615285Y-109529523D01*
X97567666Y-109434285D01*
X97520047Y-109243809D01*
X97520047Y-109100952D01*
X97567666Y-108910476D01*
X97615285Y-108815238D01*
X97710523Y-108720000D01*
X97853380Y-108672380D01*
X97948619Y-108672380D01*
X98091476Y-108720000D01*
X98139095Y-108767619D01*
X95567666Y-103719380D02*
X95901000Y-104719380D01*
X96234333Y-103719380D01*
X97139095Y-104624142D02*
X97091476Y-104671761D01*
X96948619Y-104719380D01*
X96853380Y-104719380D01*
X96710523Y-104671761D01*
X96615285Y-104576523D01*
X96567666Y-104481285D01*
X96520047Y-104290809D01*
X96520047Y-104147952D01*
X96567666Y-103957476D01*
X96615285Y-103862238D01*
X96710523Y-103767000D01*
X96853380Y-103719380D01*
X96948619Y-103719380D01*
X97091476Y-103767000D01*
X97139095Y-103814619D01*
X98139095Y-104624142D02*
X98091476Y-104671761D01*
X97948619Y-104719380D01*
X97853380Y-104719380D01*
X97710523Y-104671761D01*
X97615285Y-104576523D01*
X97567666Y-104481285D01*
X97520047Y-104290809D01*
X97520047Y-104147952D01*
X97567666Y-103957476D01*
X97615285Y-103862238D01*
X97710523Y-103767000D01*
X97853380Y-103719380D01*
X97948619Y-103719380D01*
X98091476Y-103767000D01*
X98139095Y-103814619D01*
X95567666Y-106259380D02*
X95901000Y-107259380D01*
X96234333Y-106259380D01*
X97139095Y-107164142D02*
X97091476Y-107211761D01*
X96948619Y-107259380D01*
X96853380Y-107259380D01*
X96710523Y-107211761D01*
X96615285Y-107116523D01*
X96567666Y-107021285D01*
X96520047Y-106830809D01*
X96520047Y-106687952D01*
X96567666Y-106497476D01*
X96615285Y-106402238D01*
X96710523Y-106307000D01*
X96853380Y-106259380D01*
X96948619Y-106259380D01*
X97091476Y-106307000D01*
X97139095Y-106354619D01*
X98139095Y-107164142D02*
X98091476Y-107211761D01*
X97948619Y-107259380D01*
X97853380Y-107259380D01*
X97710523Y-107211761D01*
X97615285Y-107116523D01*
X97567666Y-107021285D01*
X97520047Y-106830809D01*
X97520047Y-106687952D01*
X97567666Y-106497476D01*
X97615285Y-106402238D01*
X97710523Y-106307000D01*
X97853380Y-106259380D01*
X97948619Y-106259380D01*
X98091476Y-106307000D01*
X98139095Y-106354619D01*
X95599619Y-99639380D02*
X95599619Y-98639380D01*
X96266285Y-98639380D02*
X96361523Y-98639380D01*
X96456761Y-98687000D01*
X96504380Y-98734619D01*
X96552000Y-98829857D01*
X96599619Y-99020333D01*
X96599619Y-99258428D01*
X96552000Y-99448904D01*
X96504380Y-99544142D01*
X96456761Y-99591761D01*
X96361523Y-99639380D01*
X96266285Y-99639380D01*
X96171047Y-99591761D01*
X96123428Y-99544142D01*
X96075809Y-99448904D01*
X96028190Y-99258428D01*
X96028190Y-99020333D01*
X96075809Y-98829857D01*
X96123428Y-98734619D01*
X96171047Y-98687000D01*
X96266285Y-98639380D01*
X96932952Y-98639380D02*
X97599619Y-98639380D01*
X97171047Y-99639380D01*
X98694857Y-98591761D02*
X97837714Y-99877476D01*
X99028190Y-99639380D02*
X99028190Y-98639380D01*
X99409142Y-98639380D01*
X99504380Y-98687000D01*
X99552000Y-98734619D01*
X99599619Y-98829857D01*
X99599619Y-98972714D01*
X99552000Y-99067952D01*
X99504380Y-99115571D01*
X99409142Y-99163190D01*
X99028190Y-99163190D01*
X100028190Y-99639380D02*
X100028190Y-98639380D01*
X100266285Y-98639380D01*
X100409142Y-98687000D01*
X100504380Y-98782238D01*
X100552000Y-98877476D01*
X100599619Y-99067952D01*
X100599619Y-99210809D01*
X100552000Y-99401285D01*
X100504380Y-99496523D01*
X100409142Y-99591761D01*
X100266285Y-99639380D01*
X100028190Y-99639380D01*
X100932952Y-98639380D02*
X101599619Y-98639380D01*
X101171047Y-99639380D01*
X96337714Y-96221785D02*
X96337714Y-95471785D01*
X96837714Y-95471785D02*
X96909142Y-95471785D01*
X96980571Y-95507500D01*
X97016285Y-95543214D01*
X97052000Y-95614642D01*
X97087714Y-95757500D01*
X97087714Y-95936071D01*
X97052000Y-96078928D01*
X97016285Y-96150357D01*
X96980571Y-96186071D01*
X96909142Y-96221785D01*
X96837714Y-96221785D01*
X96766285Y-96186071D01*
X96730571Y-96150357D01*
X96694857Y-96078928D01*
X96659142Y-95936071D01*
X96659142Y-95757500D01*
X96694857Y-95614642D01*
X96730571Y-95543214D01*
X96766285Y-95507500D01*
X96837714Y-95471785D01*
X97730571Y-95471785D02*
X97587714Y-95471785D01*
X97516285Y-95507500D01*
X97480571Y-95543214D01*
X97409142Y-95650357D01*
X97373428Y-95793214D01*
X97373428Y-96078928D01*
X97409142Y-96150357D01*
X97444857Y-96186071D01*
X97516285Y-96221785D01*
X97659142Y-96221785D01*
X97730571Y-96186071D01*
X97766285Y-96150357D01*
X97802000Y-96078928D01*
X97802000Y-95900357D01*
X97766285Y-95828928D01*
X97730571Y-95793214D01*
X97659142Y-95757500D01*
X97516285Y-95757500D01*
X97444857Y-95793214D01*
X97409142Y-95828928D01*
X97373428Y-95900357D01*
X98659142Y-95436071D02*
X98016285Y-96400357D01*
X98909142Y-96221785D02*
X98909142Y-95471785D01*
X99194857Y-95471785D01*
X99266285Y-95507500D01*
X99302000Y-95543214D01*
X99337714Y-95614642D01*
X99337714Y-95721785D01*
X99302000Y-95793214D01*
X99266285Y-95828928D01*
X99194857Y-95864642D01*
X98909142Y-95864642D01*
X99659142Y-96221785D02*
X99659142Y-95471785D01*
X99837714Y-95471785D01*
X99944857Y-95507500D01*
X100016285Y-95578928D01*
X100052000Y-95650357D01*
X100087714Y-95793214D01*
X100087714Y-95900357D01*
X100052000Y-96043214D01*
X100016285Y-96114642D01*
X99944857Y-96186071D01*
X99837714Y-96221785D01*
X99659142Y-96221785D01*
X100730571Y-95471785D02*
X100587714Y-95471785D01*
X100516285Y-95507500D01*
X100480571Y-95543214D01*
X100409142Y-95650357D01*
X100373428Y-95793214D01*
X100373428Y-96078928D01*
X100409142Y-96150357D01*
X100444857Y-96186071D01*
X100516285Y-96221785D01*
X100659142Y-96221785D01*
X100730571Y-96186071D01*
X100766285Y-96150357D01*
X100802000Y-96078928D01*
X100802000Y-95900357D01*
X100766285Y-95828928D01*
X100730571Y-95793214D01*
X100659142Y-95757500D01*
X100516285Y-95757500D01*
X100444857Y-95793214D01*
X100409142Y-95828928D01*
X100373428Y-95900357D01*
X97498428Y-97496785D02*
X97498428Y-96746785D01*
X97784142Y-96746785D01*
X97855571Y-96782500D01*
X97891285Y-96818214D01*
X97927000Y-96889642D01*
X97927000Y-96996785D01*
X97891285Y-97068214D01*
X97855571Y-97103928D01*
X97784142Y-97139642D01*
X97498428Y-97139642D01*
X98177000Y-96746785D02*
X98355571Y-97496785D01*
X98498428Y-96961071D01*
X98641285Y-97496785D01*
X98819857Y-96746785D01*
X99105571Y-97496785D02*
X99105571Y-96746785D01*
X99355571Y-97282500D01*
X99605571Y-96746785D01*
X99605571Y-97496785D01*
X96337714Y-93681785D02*
X96337714Y-92931785D01*
X96837714Y-92931785D02*
X96909142Y-92931785D01*
X96980571Y-92967500D01*
X97016285Y-93003214D01*
X97052000Y-93074642D01*
X97087714Y-93217500D01*
X97087714Y-93396071D01*
X97052000Y-93538928D01*
X97016285Y-93610357D01*
X96980571Y-93646071D01*
X96909142Y-93681785D01*
X96837714Y-93681785D01*
X96766285Y-93646071D01*
X96730571Y-93610357D01*
X96694857Y-93538928D01*
X96659142Y-93396071D01*
X96659142Y-93217500D01*
X96694857Y-93074642D01*
X96730571Y-93003214D01*
X96766285Y-92967500D01*
X96837714Y-92931785D01*
X97766285Y-92931785D02*
X97409142Y-92931785D01*
X97373428Y-93288928D01*
X97409142Y-93253214D01*
X97480571Y-93217500D01*
X97659142Y-93217500D01*
X97730571Y-93253214D01*
X97766285Y-93288928D01*
X97802000Y-93360357D01*
X97802000Y-93538928D01*
X97766285Y-93610357D01*
X97730571Y-93646071D01*
X97659142Y-93681785D01*
X97480571Y-93681785D01*
X97409142Y-93646071D01*
X97373428Y-93610357D01*
X98659142Y-92896071D02*
X98016285Y-93860357D01*
X98909142Y-93681785D02*
X98909142Y-92931785D01*
X99194857Y-92931785D01*
X99266285Y-92967500D01*
X99302000Y-93003214D01*
X99337714Y-93074642D01*
X99337714Y-93181785D01*
X99302000Y-93253214D01*
X99266285Y-93288928D01*
X99194857Y-93324642D01*
X98909142Y-93324642D01*
X99659142Y-93681785D02*
X99659142Y-92931785D01*
X99837714Y-92931785D01*
X99944857Y-92967500D01*
X100016285Y-93038928D01*
X100052000Y-93110357D01*
X100087714Y-93253214D01*
X100087714Y-93360357D01*
X100052000Y-93503214D01*
X100016285Y-93574642D01*
X99944857Y-93646071D01*
X99837714Y-93681785D01*
X99659142Y-93681785D01*
X100766285Y-92931785D02*
X100409142Y-92931785D01*
X100373428Y-93288928D01*
X100409142Y-93253214D01*
X100480571Y-93217500D01*
X100659142Y-93217500D01*
X100730571Y-93253214D01*
X100766285Y-93288928D01*
X100802000Y-93360357D01*
X100802000Y-93538928D01*
X100766285Y-93610357D01*
X100730571Y-93646071D01*
X100659142Y-93681785D01*
X100480571Y-93681785D01*
X100409142Y-93646071D01*
X100373428Y-93610357D01*
X97498428Y-94956785D02*
X97498428Y-94206785D01*
X97784142Y-94206785D01*
X97855571Y-94242500D01*
X97891285Y-94278214D01*
X97927000Y-94349642D01*
X97927000Y-94456785D01*
X97891285Y-94528214D01*
X97855571Y-94563928D01*
X97784142Y-94599642D01*
X97498428Y-94599642D01*
X98177000Y-94206785D02*
X98355571Y-94956785D01*
X98498428Y-94421071D01*
X98641285Y-94956785D01*
X98819857Y-94206785D01*
X99105571Y-94956785D02*
X99105571Y-94206785D01*
X99355571Y-94742500D01*
X99605571Y-94206785D01*
X99605571Y-94956785D01*
X95599619Y-91892380D02*
X95599619Y-90892380D01*
X96266285Y-90892380D02*
X96361523Y-90892380D01*
X96456761Y-90940000D01*
X96504380Y-90987619D01*
X96552000Y-91082857D01*
X96599619Y-91273333D01*
X96599619Y-91511428D01*
X96552000Y-91701904D01*
X96504380Y-91797142D01*
X96456761Y-91844761D01*
X96361523Y-91892380D01*
X96266285Y-91892380D01*
X96171047Y-91844761D01*
X96123428Y-91797142D01*
X96075809Y-91701904D01*
X96028190Y-91511428D01*
X96028190Y-91273333D01*
X96075809Y-91082857D01*
X96123428Y-90987619D01*
X96171047Y-90940000D01*
X96266285Y-90892380D01*
X97456761Y-91225714D02*
X97456761Y-91892380D01*
X97218666Y-90844761D02*
X96980571Y-91559047D01*
X97599619Y-91559047D01*
X98694857Y-90844761D02*
X97837714Y-92130476D01*
X99028190Y-91892380D02*
X99028190Y-90892380D01*
X99409142Y-90892380D01*
X99504380Y-90940000D01*
X99552000Y-90987619D01*
X99599619Y-91082857D01*
X99599619Y-91225714D01*
X99552000Y-91320952D01*
X99504380Y-91368571D01*
X99409142Y-91416190D01*
X99028190Y-91416190D01*
X100028190Y-91892380D02*
X100028190Y-90892380D01*
X100266285Y-90892380D01*
X100409142Y-90940000D01*
X100504380Y-91035238D01*
X100552000Y-91130476D01*
X100599619Y-91320952D01*
X100599619Y-91463809D01*
X100552000Y-91654285D01*
X100504380Y-91749523D01*
X100409142Y-91844761D01*
X100266285Y-91892380D01*
X100028190Y-91892380D01*
X101456761Y-91225714D02*
X101456761Y-91892380D01*
X101218666Y-90844761D02*
X100980571Y-91559047D01*
X101599619Y-91559047D01*
X96337714Y-88601785D02*
X96337714Y-87851785D01*
X96837714Y-87851785D02*
X96909142Y-87851785D01*
X96980571Y-87887500D01*
X97016285Y-87923214D01*
X97052000Y-87994642D01*
X97087714Y-88137500D01*
X97087714Y-88316071D01*
X97052000Y-88458928D01*
X97016285Y-88530357D01*
X96980571Y-88566071D01*
X96909142Y-88601785D01*
X96837714Y-88601785D01*
X96766285Y-88566071D01*
X96730571Y-88530357D01*
X96694857Y-88458928D01*
X96659142Y-88316071D01*
X96659142Y-88137500D01*
X96694857Y-87994642D01*
X96730571Y-87923214D01*
X96766285Y-87887500D01*
X96837714Y-87851785D01*
X97337714Y-87851785D02*
X97802000Y-87851785D01*
X97552000Y-88137500D01*
X97659142Y-88137500D01*
X97730571Y-88173214D01*
X97766285Y-88208928D01*
X97802000Y-88280357D01*
X97802000Y-88458928D01*
X97766285Y-88530357D01*
X97730571Y-88566071D01*
X97659142Y-88601785D01*
X97444857Y-88601785D01*
X97373428Y-88566071D01*
X97337714Y-88530357D01*
X98659142Y-87816071D02*
X98016285Y-88780357D01*
X98909142Y-88601785D02*
X98909142Y-87851785D01*
X99194857Y-87851785D01*
X99266285Y-87887500D01*
X99302000Y-87923214D01*
X99337714Y-87994642D01*
X99337714Y-88101785D01*
X99302000Y-88173214D01*
X99266285Y-88208928D01*
X99194857Y-88244642D01*
X98909142Y-88244642D01*
X99659142Y-88601785D02*
X99659142Y-87851785D01*
X99837714Y-87851785D01*
X99944857Y-87887500D01*
X100016285Y-87958928D01*
X100052000Y-88030357D01*
X100087714Y-88173214D01*
X100087714Y-88280357D01*
X100052000Y-88423214D01*
X100016285Y-88494642D01*
X99944857Y-88566071D01*
X99837714Y-88601785D01*
X99659142Y-88601785D01*
X100337714Y-87851785D02*
X100802000Y-87851785D01*
X100552000Y-88137500D01*
X100659142Y-88137500D01*
X100730571Y-88173214D01*
X100766285Y-88208928D01*
X100802000Y-88280357D01*
X100802000Y-88458928D01*
X100766285Y-88530357D01*
X100730571Y-88566071D01*
X100659142Y-88601785D01*
X100444857Y-88601785D01*
X100373428Y-88566071D01*
X100337714Y-88530357D01*
X96105571Y-89876785D02*
X96105571Y-89126785D01*
X96462714Y-89876785D02*
X96462714Y-89126785D01*
X96891285Y-89876785D01*
X96891285Y-89126785D01*
X97141285Y-89126785D02*
X97569857Y-89126785D01*
X97355571Y-89876785D02*
X97355571Y-89126785D01*
X98212714Y-89876785D02*
X97784142Y-89876785D01*
X97998428Y-89876785D02*
X97998428Y-89126785D01*
X97927000Y-89233928D01*
X97855571Y-89305357D01*
X97784142Y-89341071D01*
X98569857Y-89841071D02*
X98569857Y-89876785D01*
X98534142Y-89948214D01*
X98498428Y-89983928D01*
X98891285Y-89876785D02*
X98891285Y-89126785D01*
X99177000Y-89126785D01*
X99248428Y-89162500D01*
X99284142Y-89198214D01*
X99319857Y-89269642D01*
X99319857Y-89376785D01*
X99284142Y-89448214D01*
X99248428Y-89483928D01*
X99177000Y-89519642D01*
X98891285Y-89519642D01*
X99569857Y-89126785D02*
X99748428Y-89876785D01*
X99891285Y-89341071D01*
X100034142Y-89876785D01*
X100212714Y-89126785D01*
X100498428Y-89876785D02*
X100498428Y-89126785D01*
X100748428Y-89662500D01*
X100998428Y-89126785D01*
X100998428Y-89876785D01*
X96337714Y-86061785D02*
X96337714Y-85311785D01*
X96837714Y-85311785D02*
X96909142Y-85311785D01*
X96980571Y-85347500D01*
X97016285Y-85383214D01*
X97052000Y-85454642D01*
X97087714Y-85597500D01*
X97087714Y-85776071D01*
X97052000Y-85918928D01*
X97016285Y-85990357D01*
X96980571Y-86026071D01*
X96909142Y-86061785D01*
X96837714Y-86061785D01*
X96766285Y-86026071D01*
X96730571Y-85990357D01*
X96694857Y-85918928D01*
X96659142Y-85776071D01*
X96659142Y-85597500D01*
X96694857Y-85454642D01*
X96730571Y-85383214D01*
X96766285Y-85347500D01*
X96837714Y-85311785D01*
X97373428Y-85383214D02*
X97409142Y-85347500D01*
X97480571Y-85311785D01*
X97659142Y-85311785D01*
X97730571Y-85347500D01*
X97766285Y-85383214D01*
X97802000Y-85454642D01*
X97802000Y-85526071D01*
X97766285Y-85633214D01*
X97337714Y-86061785D01*
X97802000Y-86061785D01*
X98659142Y-85276071D02*
X98016285Y-86240357D01*
X98909142Y-86061785D02*
X98909142Y-85311785D01*
X99194857Y-85311785D01*
X99266285Y-85347500D01*
X99302000Y-85383214D01*
X99337714Y-85454642D01*
X99337714Y-85561785D01*
X99302000Y-85633214D01*
X99266285Y-85668928D01*
X99194857Y-85704642D01*
X98909142Y-85704642D01*
X99659142Y-86061785D02*
X99659142Y-85311785D01*
X99837714Y-85311785D01*
X99944857Y-85347500D01*
X100016285Y-85418928D01*
X100052000Y-85490357D01*
X100087714Y-85633214D01*
X100087714Y-85740357D01*
X100052000Y-85883214D01*
X100016285Y-85954642D01*
X99944857Y-86026071D01*
X99837714Y-86061785D01*
X99659142Y-86061785D01*
X100373428Y-85383214D02*
X100409142Y-85347500D01*
X100480571Y-85311785D01*
X100659142Y-85311785D01*
X100730571Y-85347500D01*
X100766285Y-85383214D01*
X100802000Y-85454642D01*
X100802000Y-85526071D01*
X100766285Y-85633214D01*
X100337714Y-86061785D01*
X100802000Y-86061785D01*
X97516285Y-87336785D02*
X97516285Y-86586785D01*
X97873428Y-87336785D02*
X97873428Y-86586785D01*
X98302000Y-87336785D01*
X98302000Y-86586785D01*
X98552000Y-86586785D02*
X98980571Y-86586785D01*
X98766285Y-87336785D02*
X98766285Y-86586785D01*
X99373428Y-86586785D02*
X99444857Y-86586785D01*
X99516285Y-86622500D01*
X99552000Y-86658214D01*
X99587714Y-86729642D01*
X99623428Y-86872500D01*
X99623428Y-87051071D01*
X99587714Y-87193928D01*
X99552000Y-87265357D01*
X99516285Y-87301071D01*
X99444857Y-87336785D01*
X99373428Y-87336785D01*
X99302000Y-87301071D01*
X99266285Y-87265357D01*
X99230571Y-87193928D01*
X99194857Y-87051071D01*
X99194857Y-86872500D01*
X99230571Y-86729642D01*
X99266285Y-86658214D01*
X99302000Y-86622500D01*
X99373428Y-86586785D01*
X96337714Y-80981785D02*
X96337714Y-80231785D01*
X96837714Y-80231785D02*
X96909142Y-80231785D01*
X96980571Y-80267500D01*
X97016285Y-80303214D01*
X97052000Y-80374642D01*
X97087714Y-80517500D01*
X97087714Y-80696071D01*
X97052000Y-80838928D01*
X97016285Y-80910357D01*
X96980571Y-80946071D01*
X96909142Y-80981785D01*
X96837714Y-80981785D01*
X96766285Y-80946071D01*
X96730571Y-80910357D01*
X96694857Y-80838928D01*
X96659142Y-80696071D01*
X96659142Y-80517500D01*
X96694857Y-80374642D01*
X96730571Y-80303214D01*
X96766285Y-80267500D01*
X96837714Y-80231785D01*
X97552000Y-80231785D02*
X97623428Y-80231785D01*
X97694857Y-80267500D01*
X97730571Y-80303214D01*
X97766285Y-80374642D01*
X97802000Y-80517500D01*
X97802000Y-80696071D01*
X97766285Y-80838928D01*
X97730571Y-80910357D01*
X97694857Y-80946071D01*
X97623428Y-80981785D01*
X97552000Y-80981785D01*
X97480571Y-80946071D01*
X97444857Y-80910357D01*
X97409142Y-80838928D01*
X97373428Y-80696071D01*
X97373428Y-80517500D01*
X97409142Y-80374642D01*
X97444857Y-80303214D01*
X97480571Y-80267500D01*
X97552000Y-80231785D01*
X98659142Y-80196071D02*
X98016285Y-81160357D01*
X98909142Y-80981785D02*
X98909142Y-80231785D01*
X99194857Y-80231785D01*
X99266285Y-80267500D01*
X99302000Y-80303214D01*
X99337714Y-80374642D01*
X99337714Y-80481785D01*
X99302000Y-80553214D01*
X99266285Y-80588928D01*
X99194857Y-80624642D01*
X98909142Y-80624642D01*
X99659142Y-80981785D02*
X99659142Y-80231785D01*
X99837714Y-80231785D01*
X99944857Y-80267500D01*
X100016285Y-80338928D01*
X100052000Y-80410357D01*
X100087714Y-80553214D01*
X100087714Y-80660357D01*
X100052000Y-80803214D01*
X100016285Y-80874642D01*
X99944857Y-80946071D01*
X99837714Y-80981785D01*
X99659142Y-80981785D01*
X100552000Y-80231785D02*
X100623428Y-80231785D01*
X100694857Y-80267500D01*
X100730571Y-80303214D01*
X100766285Y-80374642D01*
X100802000Y-80517500D01*
X100802000Y-80696071D01*
X100766285Y-80838928D01*
X100730571Y-80910357D01*
X100694857Y-80946071D01*
X100623428Y-80981785D01*
X100552000Y-80981785D01*
X100480571Y-80946071D01*
X100444857Y-80910357D01*
X100409142Y-80838928D01*
X100373428Y-80696071D01*
X100373428Y-80517500D01*
X100409142Y-80374642D01*
X100444857Y-80303214D01*
X100480571Y-80267500D01*
X100552000Y-80231785D01*
X98427000Y-82256785D02*
X98177000Y-81899642D01*
X97998428Y-82256785D02*
X97998428Y-81506785D01*
X98284142Y-81506785D01*
X98355571Y-81542500D01*
X98391285Y-81578214D01*
X98427000Y-81649642D01*
X98427000Y-81756785D01*
X98391285Y-81828214D01*
X98355571Y-81863928D01*
X98284142Y-81899642D01*
X97998428Y-81899642D01*
X98677000Y-81506785D02*
X99177000Y-82256785D01*
X99177000Y-81506785D02*
X98677000Y-82256785D01*
X96337714Y-83521785D02*
X96337714Y-82771785D01*
X96837714Y-82771785D02*
X96909142Y-82771785D01*
X96980571Y-82807500D01*
X97016285Y-82843214D01*
X97052000Y-82914642D01*
X97087714Y-83057500D01*
X97087714Y-83236071D01*
X97052000Y-83378928D01*
X97016285Y-83450357D01*
X96980571Y-83486071D01*
X96909142Y-83521785D01*
X96837714Y-83521785D01*
X96766285Y-83486071D01*
X96730571Y-83450357D01*
X96694857Y-83378928D01*
X96659142Y-83236071D01*
X96659142Y-83057500D01*
X96694857Y-82914642D01*
X96730571Y-82843214D01*
X96766285Y-82807500D01*
X96837714Y-82771785D01*
X97802000Y-83521785D02*
X97373428Y-83521785D01*
X97587714Y-83521785D02*
X97587714Y-82771785D01*
X97516285Y-82878928D01*
X97444857Y-82950357D01*
X97373428Y-82986071D01*
X98659142Y-82736071D02*
X98016285Y-83700357D01*
X98909142Y-83521785D02*
X98909142Y-82771785D01*
X99194857Y-82771785D01*
X99266285Y-82807500D01*
X99302000Y-82843214D01*
X99337714Y-82914642D01*
X99337714Y-83021785D01*
X99302000Y-83093214D01*
X99266285Y-83128928D01*
X99194857Y-83164642D01*
X98909142Y-83164642D01*
X99659142Y-83521785D02*
X99659142Y-82771785D01*
X99837714Y-82771785D01*
X99944857Y-82807500D01*
X100016285Y-82878928D01*
X100052000Y-82950357D01*
X100087714Y-83093214D01*
X100087714Y-83200357D01*
X100052000Y-83343214D01*
X100016285Y-83414642D01*
X99944857Y-83486071D01*
X99837714Y-83521785D01*
X99659142Y-83521785D01*
X100802000Y-83521785D02*
X100373428Y-83521785D01*
X100587714Y-83521785D02*
X100587714Y-82771785D01*
X100516285Y-82878928D01*
X100444857Y-82950357D01*
X100373428Y-82986071D01*
X97980571Y-84046785D02*
X98409142Y-84046785D01*
X98194857Y-84796785D02*
X98194857Y-84046785D01*
X98587714Y-84046785D02*
X99087714Y-84796785D01*
X99087714Y-84046785D02*
X98587714Y-84796785D01*
D11*
X133350000Y-103100000D02*
X133350000Y-102330000D01*
X133350000Y-95020000D02*
X133350000Y-95790000D01*
X134720000Y-102330000D02*
X134720000Y-95790000D01*
X131980000Y-102330000D02*
X134720000Y-102330000D01*
X131980000Y-95790000D02*
X131980000Y-102330000D01*
X134720000Y-95790000D02*
X131980000Y-95790000D01*
X110434000Y-114085000D02*
X110434000Y-114100000D01*
X110434000Y-111960000D02*
X110434000Y-111975000D01*
X105894000Y-114085000D02*
X105894000Y-114100000D01*
X105894000Y-111960000D02*
X105894000Y-111975000D01*
X105894000Y-114100000D02*
X110434000Y-114100000D01*
X105894000Y-111960000D02*
X110434000Y-111960000D01*
X106949000Y-108445000D02*
G75*
G03X111999000Y-108445000I2525000J0D01*
G01*
X106949000Y-102195000D02*
G75*
G02X111999000Y-102195000I2525000J0D01*
G01*
X106949000Y-102195000D02*
X106949000Y-108445000D01*
X111999000Y-102195000D02*
X111999000Y-108445000D01*
X123346789Y-82430000D02*
X113066789Y-82430000D01*
X123346789Y-118230000D02*
X123346789Y-82430000D01*
X113066789Y-118230000D02*
X123346789Y-118230000D01*
X113066789Y-82430000D02*
X113066789Y-118230000D01*
X120856789Y-82490000D02*
X119206789Y-82490000D01*
X120856789Y-118170000D02*
X120856789Y-82490000D01*
X115556789Y-118170000D02*
X120856789Y-118170000D01*
X115556789Y-82490000D02*
X115556789Y-118170000D01*
X117206789Y-82490000D02*
X115556789Y-82490000D01*
X119206789Y-82490000D02*
G75*
G02X117206789Y-82490000I-1000000J0D01*
G01*
X105083000Y-140430000D02*
X105083000Y-138920000D01*
X108784000Y-140430000D02*
X108784000Y-138920000D01*
X112054000Y-138920000D02*
X101814000Y-138920000D01*
X101814000Y-140430000D02*
X101814000Y-135789000D01*
X112054000Y-140430000D02*
X112054000Y-135789000D01*
X112054000Y-135789000D02*
X101814000Y-135789000D01*
X112054000Y-140430000D02*
X101814000Y-140430000D01*
X106232478Y-123758478D02*
G75*
G03X104394000Y-119320000I-1838478J1838478D01*
G01*
X102555522Y-123758478D02*
G75*
G02X104394000Y-119320000I1838478J1838478D01*
G01*
X102594000Y-123770000D02*
X106194000Y-123770000D01*
X109747000Y-86820000D02*
X109747000Y-85320000D01*
X108497000Y-82820000D02*
X103997000Y-82820000D01*
X102747000Y-85320000D02*
X102747000Y-86820000D01*
X103997000Y-89320000D02*
X108497000Y-89320000D01*
X145339000Y-138496000D02*
X144580000Y-138496000D01*
X143820000Y-139710000D02*
X143820000Y-137281000D01*
X145339000Y-139710000D02*
X145339000Y-137281000D01*
X145339000Y-137281000D02*
X143820000Y-137281000D01*
X145339000Y-139710000D02*
X143820000Y-139710000D01*
X133549000Y-139886000D02*
X133549000Y-130116000D01*
X143819000Y-139886000D02*
X143819000Y-130116000D01*
X143819000Y-130116000D02*
X133549000Y-130116000D01*
X143819000Y-139886000D02*
X133549000Y-139886000D01*
X114197000Y-80137000D02*
X114967000Y-80137000D01*
X122277000Y-80137000D02*
X121507000Y-80137000D01*
X114967000Y-81507000D02*
X121507000Y-81507000D01*
X114967000Y-78767000D02*
X114967000Y-81507000D01*
X121507000Y-78767000D02*
X114967000Y-78767000D01*
X121507000Y-81507000D02*
X121507000Y-78767000D01*
X130175000Y-95020000D02*
X130175000Y-95790000D01*
X130175000Y-103100000D02*
X130175000Y-102330000D01*
X128805000Y-95790000D02*
X128805000Y-102330000D01*
X131545000Y-95790000D02*
X128805000Y-95790000D01*
X131545000Y-102330000D02*
X131545000Y-95790000D01*
X128805000Y-102330000D02*
X131545000Y-102330000D01*
X114554000Y-129310000D02*
X114554000Y-130080000D01*
X114554000Y-137390000D02*
X114554000Y-136620000D01*
X113184000Y-130080000D02*
X113184000Y-136620000D01*
X115924000Y-130080000D02*
X113184000Y-130080000D01*
X115924000Y-136620000D02*
X115924000Y-130080000D01*
X113184000Y-136620000D02*
X115924000Y-136620000D01*
X92650000Y-79950000D02*
X93980000Y-79950000D01*
X92650000Y-81280000D02*
X92650000Y-79950000D01*
X92650000Y-82550000D02*
X95310000Y-82550000D01*
X95310000Y-82550000D02*
X95310000Y-100390000D01*
X92650000Y-82550000D02*
X92650000Y-100390000D01*
X92650000Y-100390000D02*
X95310000Y-100390000D01*
X144840000Y-94040000D02*
X143510000Y-94040000D01*
X144840000Y-92710000D02*
X144840000Y-94040000D01*
X144840000Y-91440000D02*
X142180000Y-91440000D01*
X142180000Y-91440000D02*
X142180000Y-78680000D01*
X144840000Y-91440000D02*
X144840000Y-78680000D01*
X144840000Y-78680000D02*
X142180000Y-78680000D01*
X142180000Y-96460000D02*
X143510000Y-96460000D01*
X142180000Y-97790000D02*
X142180000Y-96460000D01*
X142180000Y-99060000D02*
X144840000Y-99060000D01*
X144840000Y-99060000D02*
X144840000Y-121980000D01*
X142180000Y-99060000D02*
X142180000Y-121980000D01*
X142180000Y-121980000D02*
X144840000Y-121980000D01*
X92650000Y-112970000D02*
X93980000Y-112970000D01*
X92650000Y-114300000D02*
X92650000Y-112970000D01*
X92650000Y-115570000D02*
X95310000Y-115570000D01*
X95310000Y-115570000D02*
X95310000Y-120710000D01*
X92650000Y-115570000D02*
X92650000Y-120710000D01*
X92650000Y-120710000D02*
X95310000Y-120710000D01*
X92650000Y-102810000D02*
X93980000Y-102810000D01*
X92650000Y-104140000D02*
X92650000Y-102810000D01*
X92650000Y-105410000D02*
X95310000Y-105410000D01*
X95310000Y-105410000D02*
X95310000Y-110550000D01*
X92650000Y-105410000D02*
X92650000Y-110550000D01*
X92650000Y-110550000D02*
X95310000Y-110550000D01*
X128083000Y-124520000D02*
X128083000Y-123190000D01*
X129413000Y-124520000D02*
X128083000Y-124520000D01*
X128083000Y-121920000D02*
X128083000Y-119320000D01*
X130683000Y-121920000D02*
X128083000Y-121920000D01*
X130683000Y-124520000D02*
X130683000Y-121920000D01*
X128083000Y-119320000D02*
X135823000Y-119320000D01*
X130683000Y-124520000D02*
X135823000Y-124520000D01*
X135823000Y-124520000D02*
X135823000Y-119320000D01*
X92650000Y-130750000D02*
X93980000Y-130750000D01*
X92650000Y-132080000D02*
X92650000Y-130750000D01*
X92650000Y-133350000D02*
X95310000Y-133350000D01*
X95310000Y-133350000D02*
X95310000Y-138490000D01*
X92650000Y-133350000D02*
X92650000Y-138490000D01*
X92650000Y-138490000D02*
X95310000Y-138490000D01*
X134303000Y-91730000D02*
X134459000Y-91730000D01*
X131987000Y-91730000D02*
X132143000Y-91730000D01*
X134302837Y-89128870D02*
G75*
G02X134303000Y-91210961I-1079837J-1041130D01*
G01*
X132143163Y-89128870D02*
G75*
G03X132143000Y-91210961I1079837J-1041130D01*
G01*
X134301608Y-88497665D02*
G75*
G02X134458516Y-91730000I-1078608J-1672335D01*
G01*
X132144392Y-88497665D02*
G75*
G03X131987484Y-91730000I1078608J-1672335D01*
G01*
X128968000Y-106390000D02*
X128812000Y-106390000D01*
X131284000Y-106390000D02*
X131128000Y-106390000D01*
X128968163Y-108991130D02*
G75*
G02X128968000Y-106909039I1079837J1041130D01*
G01*
X131127837Y-108991130D02*
G75*
G03X131128000Y-106909039I-1079837J1041130D01*
G01*
X128969392Y-109622335D02*
G75*
G02X128812484Y-106390000I1078608J1672335D01*
G01*
X131126608Y-109622335D02*
G75*
G03X131283516Y-106390000I-1078608J1672335D01*
G01*
X110434000Y-98845000D02*
X110434000Y-98860000D01*
X110434000Y-96720000D02*
X110434000Y-96735000D01*
X105894000Y-98845000D02*
X105894000Y-98860000D01*
X105894000Y-96720000D02*
X105894000Y-96735000D01*
X105894000Y-98860000D02*
X110434000Y-98860000D01*
X105894000Y-96720000D02*
X110434000Y-96720000D01*
X128436000Y-99370000D02*
X128451000Y-99370000D01*
X126311000Y-99370000D02*
X126326000Y-99370000D01*
X128436000Y-103910000D02*
X128451000Y-103910000D01*
X126311000Y-103910000D02*
X126326000Y-103910000D01*
X128451000Y-103910000D02*
X128451000Y-99370000D01*
X126311000Y-103910000D02*
X126311000Y-99370000D01*
X125896000Y-99370000D02*
X125911000Y-99370000D01*
X123771000Y-99370000D02*
X123786000Y-99370000D01*
X125896000Y-103910000D02*
X125911000Y-103910000D01*
X123771000Y-103910000D02*
X123786000Y-103910000D01*
X125911000Y-103910000D02*
X125911000Y-99370000D01*
X123771000Y-103910000D02*
X123771000Y-99370000D01*
X118496000Y-136301241D02*
X119126000Y-136301241D01*
X118811000Y-136616241D02*
X118811000Y-135986241D01*
X120248000Y-129875000D02*
X121052000Y-129875000D01*
X120017000Y-129915000D02*
X121283000Y-129915000D01*
X119848000Y-129955000D02*
X121452000Y-129955000D01*
X119710000Y-129995000D02*
X121590000Y-129995000D01*
X119591000Y-130035000D02*
X121709000Y-130035000D01*
X119485000Y-130075000D02*
X121815000Y-130075000D01*
X119388000Y-130115000D02*
X121912000Y-130115000D01*
X119300000Y-130155000D02*
X122000000Y-130155000D01*
X119218000Y-130195000D02*
X122082000Y-130195000D01*
X119141000Y-130235000D02*
X122159000Y-130235000D01*
X119069000Y-130275000D02*
X122231000Y-130275000D01*
X119000000Y-130315000D02*
X122300000Y-130315000D01*
X118936000Y-130355000D02*
X122364000Y-130355000D01*
X118874000Y-130395000D02*
X122426000Y-130395000D01*
X118816000Y-130435000D02*
X122484000Y-130435000D01*
X118760000Y-130475000D02*
X122540000Y-130475000D01*
X118706000Y-130515000D02*
X122594000Y-130515000D01*
X118655000Y-130555000D02*
X122645000Y-130555000D01*
X118606000Y-130595000D02*
X122694000Y-130595000D01*
X118558000Y-130635000D02*
X122742000Y-130635000D01*
X118513000Y-130675000D02*
X122787000Y-130675000D01*
X118468000Y-130715000D02*
X122832000Y-130715000D01*
X118426000Y-130755000D02*
X122874000Y-130755000D01*
X118385000Y-130795000D02*
X122915000Y-130795000D01*
X121690000Y-130835000D02*
X122955000Y-130835000D01*
X118345000Y-130835000D02*
X119610000Y-130835000D01*
X121690000Y-130875000D02*
X122993000Y-130875000D01*
X118307000Y-130875000D02*
X119610000Y-130875000D01*
X121690000Y-130915000D02*
X123030000Y-130915000D01*
X118270000Y-130915000D02*
X119610000Y-130915000D01*
X121690000Y-130955000D02*
X123066000Y-130955000D01*
X118234000Y-130955000D02*
X119610000Y-130955000D01*
X121690000Y-130995000D02*
X123100000Y-130995000D01*
X118200000Y-130995000D02*
X119610000Y-130995000D01*
X121690000Y-131035000D02*
X123134000Y-131035000D01*
X118166000Y-131035000D02*
X119610000Y-131035000D01*
X121690000Y-131075000D02*
X123166000Y-131075000D01*
X118134000Y-131075000D02*
X119610000Y-131075000D01*
X121690000Y-131115000D02*
X123198000Y-131115000D01*
X118102000Y-131115000D02*
X119610000Y-131115000D01*
X121690000Y-131155000D02*
X123228000Y-131155000D01*
X118072000Y-131155000D02*
X119610000Y-131155000D01*
X121690000Y-131195000D02*
X123257000Y-131195000D01*
X118043000Y-131195000D02*
X119610000Y-131195000D01*
X121690000Y-131235000D02*
X123286000Y-131235000D01*
X118014000Y-131235000D02*
X119610000Y-131235000D01*
X121690000Y-131275000D02*
X123314000Y-131275000D01*
X117986000Y-131275000D02*
X119610000Y-131275000D01*
X121690000Y-131315000D02*
X123340000Y-131315000D01*
X117960000Y-131315000D02*
X119610000Y-131315000D01*
X121690000Y-131355000D02*
X123366000Y-131355000D01*
X117934000Y-131355000D02*
X119610000Y-131355000D01*
X121690000Y-131395000D02*
X123392000Y-131395000D01*
X117908000Y-131395000D02*
X119610000Y-131395000D01*
X121690000Y-131435000D02*
X123416000Y-131435000D01*
X117884000Y-131435000D02*
X119610000Y-131435000D01*
X121690000Y-131475000D02*
X123440000Y-131475000D01*
X117860000Y-131475000D02*
X119610000Y-131475000D01*
X121690000Y-131515000D02*
X123462000Y-131515000D01*
X117838000Y-131515000D02*
X119610000Y-131515000D01*
X121690000Y-131555000D02*
X123484000Y-131555000D01*
X117816000Y-131555000D02*
X119610000Y-131555000D01*
X121690000Y-131595000D02*
X123506000Y-131595000D01*
X117794000Y-131595000D02*
X119610000Y-131595000D01*
X121690000Y-131635000D02*
X123526000Y-131635000D01*
X117774000Y-131635000D02*
X119610000Y-131635000D01*
X121690000Y-131675000D02*
X123546000Y-131675000D01*
X117754000Y-131675000D02*
X119610000Y-131675000D01*
X121690000Y-131715000D02*
X123566000Y-131715000D01*
X117734000Y-131715000D02*
X119610000Y-131715000D01*
X121690000Y-131755000D02*
X123584000Y-131755000D01*
X117716000Y-131755000D02*
X119610000Y-131755000D01*
X121690000Y-131795000D02*
X123602000Y-131795000D01*
X117698000Y-131795000D02*
X119610000Y-131795000D01*
X121690000Y-131835000D02*
X123620000Y-131835000D01*
X117680000Y-131835000D02*
X119610000Y-131835000D01*
X121690000Y-131875000D02*
X123636000Y-131875000D01*
X117664000Y-131875000D02*
X119610000Y-131875000D01*
X121690000Y-131915000D02*
X123652000Y-131915000D01*
X117648000Y-131915000D02*
X119610000Y-131915000D01*
X121690000Y-131955000D02*
X123668000Y-131955000D01*
X117632000Y-131955000D02*
X119610000Y-131955000D01*
X121690000Y-131995000D02*
X123683000Y-131995000D01*
X117617000Y-131995000D02*
X119610000Y-131995000D01*
X121690000Y-132035000D02*
X123697000Y-132035000D01*
X117603000Y-132035000D02*
X119610000Y-132035000D01*
X121690000Y-132075000D02*
X123711000Y-132075000D01*
X117589000Y-132075000D02*
X119610000Y-132075000D01*
X121690000Y-132115000D02*
X123724000Y-132115000D01*
X117576000Y-132115000D02*
X119610000Y-132115000D01*
X121690000Y-132155000D02*
X123736000Y-132155000D01*
X117564000Y-132155000D02*
X119610000Y-132155000D01*
X121690000Y-132195000D02*
X123748000Y-132195000D01*
X117552000Y-132195000D02*
X119610000Y-132195000D01*
X121690000Y-132235000D02*
X123760000Y-132235000D01*
X117540000Y-132235000D02*
X119610000Y-132235000D01*
X121690000Y-132275000D02*
X123771000Y-132275000D01*
X117529000Y-132275000D02*
X119610000Y-132275000D01*
X121690000Y-132315000D02*
X123781000Y-132315000D01*
X117519000Y-132315000D02*
X119610000Y-132315000D01*
X121690000Y-132355000D02*
X123791000Y-132355000D01*
X117509000Y-132355000D02*
X119610000Y-132355000D01*
X121690000Y-132395000D02*
X123800000Y-132395000D01*
X117500000Y-132395000D02*
X119610000Y-132395000D01*
X121690000Y-132436000D02*
X123809000Y-132436000D01*
X117491000Y-132436000D02*
X119610000Y-132436000D01*
X121690000Y-132476000D02*
X123817000Y-132476000D01*
X117483000Y-132476000D02*
X119610000Y-132476000D01*
X121690000Y-132516000D02*
X123825000Y-132516000D01*
X117475000Y-132516000D02*
X119610000Y-132516000D01*
X121690000Y-132556000D02*
X123832000Y-132556000D01*
X117468000Y-132556000D02*
X119610000Y-132556000D01*
X121690000Y-132596000D02*
X123839000Y-132596000D01*
X117461000Y-132596000D02*
X119610000Y-132596000D01*
X121690000Y-132636000D02*
X123845000Y-132636000D01*
X117455000Y-132636000D02*
X119610000Y-132636000D01*
X121690000Y-132676000D02*
X123851000Y-132676000D01*
X117449000Y-132676000D02*
X119610000Y-132676000D01*
X121690000Y-132716000D02*
X123856000Y-132716000D01*
X117444000Y-132716000D02*
X119610000Y-132716000D01*
X121690000Y-132756000D02*
X123861000Y-132756000D01*
X117439000Y-132756000D02*
X119610000Y-132756000D01*
X121690000Y-132796000D02*
X123865000Y-132796000D01*
X117435000Y-132796000D02*
X119610000Y-132796000D01*
X121690000Y-132836000D02*
X123868000Y-132836000D01*
X117432000Y-132836000D02*
X119610000Y-132836000D01*
X121690000Y-132876000D02*
X123872000Y-132876000D01*
X117428000Y-132876000D02*
X119610000Y-132876000D01*
X117426000Y-132916000D02*
X123874000Y-132916000D01*
X117423000Y-132956000D02*
X123877000Y-132956000D01*
X117422000Y-132996000D02*
X123878000Y-132996000D01*
X117420000Y-133036000D02*
X123880000Y-133036000D01*
X117420000Y-133076000D02*
X123880000Y-133076000D01*
X117420000Y-133116000D02*
X123880000Y-133116000D01*
X123920000Y-133116000D02*
G75*
G03X123920000Y-133116000I-3270000J0D01*
G01*
X111799000Y-118420000D02*
X111814000Y-118420000D01*
X109674000Y-118420000D02*
X109689000Y-118420000D01*
X111799000Y-122960000D02*
X111814000Y-122960000D01*
X109674000Y-122960000D02*
X109689000Y-122960000D01*
X111814000Y-122960000D02*
X111814000Y-118420000D01*
X109674000Y-122960000D02*
X109674000Y-118420000D01*
X126116000Y-136301241D02*
X126746000Y-136301241D01*
X126431000Y-136616241D02*
X126431000Y-135986241D01*
X127868000Y-129875000D02*
X128672000Y-129875000D01*
X127637000Y-129915000D02*
X128903000Y-129915000D01*
X127468000Y-129955000D02*
X129072000Y-129955000D01*
X127330000Y-129995000D02*
X129210000Y-129995000D01*
X127211000Y-130035000D02*
X129329000Y-130035000D01*
X127105000Y-130075000D02*
X129435000Y-130075000D01*
X127008000Y-130115000D02*
X129532000Y-130115000D01*
X126920000Y-130155000D02*
X129620000Y-130155000D01*
X126838000Y-130195000D02*
X129702000Y-130195000D01*
X126761000Y-130235000D02*
X129779000Y-130235000D01*
X126689000Y-130275000D02*
X129851000Y-130275000D01*
X126620000Y-130315000D02*
X129920000Y-130315000D01*
X126556000Y-130355000D02*
X129984000Y-130355000D01*
X126494000Y-130395000D02*
X130046000Y-130395000D01*
X126436000Y-130435000D02*
X130104000Y-130435000D01*
X126380000Y-130475000D02*
X130160000Y-130475000D01*
X126326000Y-130515000D02*
X130214000Y-130515000D01*
X126275000Y-130555000D02*
X130265000Y-130555000D01*
X126226000Y-130595000D02*
X130314000Y-130595000D01*
X126178000Y-130635000D02*
X130362000Y-130635000D01*
X126133000Y-130675000D02*
X130407000Y-130675000D01*
X126088000Y-130715000D02*
X130452000Y-130715000D01*
X126046000Y-130755000D02*
X130494000Y-130755000D01*
X126005000Y-130795000D02*
X130535000Y-130795000D01*
X129310000Y-130835000D02*
X130575000Y-130835000D01*
X125965000Y-130835000D02*
X127230000Y-130835000D01*
X129310000Y-130875000D02*
X130613000Y-130875000D01*
X125927000Y-130875000D02*
X127230000Y-130875000D01*
X129310000Y-130915000D02*
X130650000Y-130915000D01*
X125890000Y-130915000D02*
X127230000Y-130915000D01*
X129310000Y-130955000D02*
X130686000Y-130955000D01*
X125854000Y-130955000D02*
X127230000Y-130955000D01*
X129310000Y-130995000D02*
X130720000Y-130995000D01*
X125820000Y-130995000D02*
X127230000Y-130995000D01*
X129310000Y-131035000D02*
X130754000Y-131035000D01*
X125786000Y-131035000D02*
X127230000Y-131035000D01*
X129310000Y-131075000D02*
X130786000Y-131075000D01*
X125754000Y-131075000D02*
X127230000Y-131075000D01*
X129310000Y-131115000D02*
X130818000Y-131115000D01*
X125722000Y-131115000D02*
X127230000Y-131115000D01*
X129310000Y-131155000D02*
X130848000Y-131155000D01*
X125692000Y-131155000D02*
X127230000Y-131155000D01*
X129310000Y-131195000D02*
X130877000Y-131195000D01*
X125663000Y-131195000D02*
X127230000Y-131195000D01*
X129310000Y-131235000D02*
X130906000Y-131235000D01*
X125634000Y-131235000D02*
X127230000Y-131235000D01*
X129310000Y-131275000D02*
X130934000Y-131275000D01*
X125606000Y-131275000D02*
X127230000Y-131275000D01*
X129310000Y-131315000D02*
X130960000Y-131315000D01*
X125580000Y-131315000D02*
X127230000Y-131315000D01*
X129310000Y-131355000D02*
X130986000Y-131355000D01*
X125554000Y-131355000D02*
X127230000Y-131355000D01*
X129310000Y-131395000D02*
X131012000Y-131395000D01*
X125528000Y-131395000D02*
X127230000Y-131395000D01*
X129310000Y-131435000D02*
X131036000Y-131435000D01*
X125504000Y-131435000D02*
X127230000Y-131435000D01*
X129310000Y-131475000D02*
X131060000Y-131475000D01*
X125480000Y-131475000D02*
X127230000Y-131475000D01*
X129310000Y-131515000D02*
X131082000Y-131515000D01*
X125458000Y-131515000D02*
X127230000Y-131515000D01*
X129310000Y-131555000D02*
X131104000Y-131555000D01*
X125436000Y-131555000D02*
X127230000Y-131555000D01*
X129310000Y-131595000D02*
X131126000Y-131595000D01*
X125414000Y-131595000D02*
X127230000Y-131595000D01*
X129310000Y-131635000D02*
X131146000Y-131635000D01*
X125394000Y-131635000D02*
X127230000Y-131635000D01*
X129310000Y-131675000D02*
X131166000Y-131675000D01*
X125374000Y-131675000D02*
X127230000Y-131675000D01*
X129310000Y-131715000D02*
X131186000Y-131715000D01*
X125354000Y-131715000D02*
X127230000Y-131715000D01*
X129310000Y-131755000D02*
X131204000Y-131755000D01*
X125336000Y-131755000D02*
X127230000Y-131755000D01*
X129310000Y-131795000D02*
X131222000Y-131795000D01*
X125318000Y-131795000D02*
X127230000Y-131795000D01*
X129310000Y-131835000D02*
X131240000Y-131835000D01*
X125300000Y-131835000D02*
X127230000Y-131835000D01*
X129310000Y-131875000D02*
X131256000Y-131875000D01*
X125284000Y-131875000D02*
X127230000Y-131875000D01*
X129310000Y-131915000D02*
X131272000Y-131915000D01*
X125268000Y-131915000D02*
X127230000Y-131915000D01*
X129310000Y-131955000D02*
X131288000Y-131955000D01*
X125252000Y-131955000D02*
X127230000Y-131955000D01*
X129310000Y-131995000D02*
X131303000Y-131995000D01*
X125237000Y-131995000D02*
X127230000Y-131995000D01*
X129310000Y-132035000D02*
X131317000Y-132035000D01*
X125223000Y-132035000D02*
X127230000Y-132035000D01*
X129310000Y-132075000D02*
X131331000Y-132075000D01*
X125209000Y-132075000D02*
X127230000Y-132075000D01*
X129310000Y-132115000D02*
X131344000Y-132115000D01*
X125196000Y-132115000D02*
X127230000Y-132115000D01*
X129310000Y-132155000D02*
X131356000Y-132155000D01*
X125184000Y-132155000D02*
X127230000Y-132155000D01*
X129310000Y-132195000D02*
X131368000Y-132195000D01*
X125172000Y-132195000D02*
X127230000Y-132195000D01*
X129310000Y-132235000D02*
X131380000Y-132235000D01*
X125160000Y-132235000D02*
X127230000Y-132235000D01*
X129310000Y-132275000D02*
X131391000Y-132275000D01*
X125149000Y-132275000D02*
X127230000Y-132275000D01*
X129310000Y-132315000D02*
X131401000Y-132315000D01*
X125139000Y-132315000D02*
X127230000Y-132315000D01*
X129310000Y-132355000D02*
X131411000Y-132355000D01*
X125129000Y-132355000D02*
X127230000Y-132355000D01*
X129310000Y-132395000D02*
X131420000Y-132395000D01*
X125120000Y-132395000D02*
X127230000Y-132395000D01*
X129310000Y-132436000D02*
X131429000Y-132436000D01*
X125111000Y-132436000D02*
X127230000Y-132436000D01*
X129310000Y-132476000D02*
X131437000Y-132476000D01*
X125103000Y-132476000D02*
X127230000Y-132476000D01*
X129310000Y-132516000D02*
X131445000Y-132516000D01*
X125095000Y-132516000D02*
X127230000Y-132516000D01*
X129310000Y-132556000D02*
X131452000Y-132556000D01*
X125088000Y-132556000D02*
X127230000Y-132556000D01*
X129310000Y-132596000D02*
X131459000Y-132596000D01*
X125081000Y-132596000D02*
X127230000Y-132596000D01*
X129310000Y-132636000D02*
X131465000Y-132636000D01*
X125075000Y-132636000D02*
X127230000Y-132636000D01*
X129310000Y-132676000D02*
X131471000Y-132676000D01*
X125069000Y-132676000D02*
X127230000Y-132676000D01*
X129310000Y-132716000D02*
X131476000Y-132716000D01*
X125064000Y-132716000D02*
X127230000Y-132716000D01*
X129310000Y-132756000D02*
X131481000Y-132756000D01*
X125059000Y-132756000D02*
X127230000Y-132756000D01*
X129310000Y-132796000D02*
X131485000Y-132796000D01*
X125055000Y-132796000D02*
X127230000Y-132796000D01*
X129310000Y-132836000D02*
X131488000Y-132836000D01*
X125052000Y-132836000D02*
X127230000Y-132836000D01*
X129310000Y-132876000D02*
X131492000Y-132876000D01*
X125048000Y-132876000D02*
X127230000Y-132876000D01*
X125046000Y-132916000D02*
X131494000Y-132916000D01*
X125043000Y-132956000D02*
X131497000Y-132956000D01*
X125042000Y-132996000D02*
X131498000Y-132996000D01*
X125040000Y-133036000D02*
X131500000Y-133036000D01*
X125040000Y-133076000D02*
X131500000Y-133076000D01*
X125040000Y-133116000D02*
X131500000Y-133116000D01*
X131540000Y-133116000D02*
G75*
G03X131540000Y-133116000I-3270000J0D01*
G01*
X111799000Y-126040000D02*
X111814000Y-126040000D01*
X109674000Y-126040000D02*
X109689000Y-126040000D01*
X111799000Y-130580000D02*
X111814000Y-130580000D01*
X109674000Y-130580000D02*
X109689000Y-130580000D01*
X111814000Y-130580000D02*
X111814000Y-126040000D01*
X109674000Y-130580000D02*
X109674000Y-126040000D01*
X101844000Y-132057211D02*
X102594000Y-132057211D01*
X102219000Y-132432211D02*
X102219000Y-131682211D01*
X103953000Y-124449000D02*
X104835000Y-124449000D01*
X103701000Y-124489000D02*
X105087000Y-124489000D01*
X103517000Y-124529000D02*
X105271000Y-124529000D01*
X103366000Y-124569000D02*
X105422000Y-124569000D01*
X103236000Y-124609000D02*
X105552000Y-124609000D01*
X103119000Y-124649000D02*
X105669000Y-124649000D01*
X103013000Y-124689000D02*
X105775000Y-124689000D01*
X102916000Y-124729000D02*
X105872000Y-124729000D01*
X102825000Y-124769000D02*
X105963000Y-124769000D01*
X102740000Y-124809000D02*
X106048000Y-124809000D01*
X102661000Y-124849000D02*
X106127000Y-124849000D01*
X102585000Y-124889000D02*
X106203000Y-124889000D01*
X102513000Y-124929000D02*
X106275000Y-124929000D01*
X102445000Y-124969000D02*
X106343000Y-124969000D01*
X102380000Y-125009000D02*
X106408000Y-125009000D01*
X102317000Y-125049000D02*
X106471000Y-125049000D01*
X102257000Y-125089000D02*
X106531000Y-125089000D01*
X102199000Y-125129000D02*
X106589000Y-125129000D01*
X102144000Y-125169000D02*
X106644000Y-125169000D01*
X102090000Y-125209000D02*
X106698000Y-125209000D01*
X102039000Y-125249000D02*
X106749000Y-125249000D01*
X101989000Y-125289000D02*
X106799000Y-125289000D01*
X101940000Y-125329000D02*
X106848000Y-125329000D01*
X101894000Y-125369000D02*
X106894000Y-125369000D01*
X101848000Y-125409000D02*
X106940000Y-125409000D01*
X101805000Y-125449000D02*
X106983000Y-125449000D01*
X101762000Y-125489000D02*
X107026000Y-125489000D01*
X101721000Y-125529000D02*
X107067000Y-125529000D01*
X101681000Y-125569000D02*
X107107000Y-125569000D01*
X101642000Y-125609000D02*
X107146000Y-125609000D01*
X101604000Y-125649000D02*
X107184000Y-125649000D01*
X101567000Y-125689000D02*
X107221000Y-125689000D01*
X101531000Y-125729000D02*
X107257000Y-125729000D01*
X101496000Y-125769000D02*
X107292000Y-125769000D01*
X101463000Y-125809000D02*
X107325000Y-125809000D01*
X101430000Y-125849000D02*
X107358000Y-125849000D01*
X101398000Y-125889000D02*
X107390000Y-125889000D01*
X101366000Y-125929000D02*
X107422000Y-125929000D01*
X101336000Y-125969000D02*
X107452000Y-125969000D01*
X105434000Y-126009000D02*
X107482000Y-126009000D01*
X101306000Y-126009000D02*
X103354000Y-126009000D01*
X105434000Y-126049000D02*
X107510000Y-126049000D01*
X101278000Y-126049000D02*
X103354000Y-126049000D01*
X105434000Y-126089000D02*
X107538000Y-126089000D01*
X101250000Y-126089000D02*
X103354000Y-126089000D01*
X105434000Y-126129000D02*
X107566000Y-126129000D01*
X101222000Y-126129000D02*
X103354000Y-126129000D01*
X105434000Y-126169000D02*
X107592000Y-126169000D01*
X101196000Y-126169000D02*
X103354000Y-126169000D01*
X105434000Y-126209000D02*
X107618000Y-126209000D01*
X101170000Y-126209000D02*
X103354000Y-126209000D01*
X105434000Y-126249000D02*
X107643000Y-126249000D01*
X101145000Y-126249000D02*
X103354000Y-126249000D01*
X105434000Y-126289000D02*
X107668000Y-126289000D01*
X101120000Y-126289000D02*
X103354000Y-126289000D01*
X105434000Y-126329000D02*
X107691000Y-126329000D01*
X101097000Y-126329000D02*
X103354000Y-126329000D01*
X105434000Y-126369000D02*
X107715000Y-126369000D01*
X101073000Y-126369000D02*
X103354000Y-126369000D01*
X105434000Y-126409000D02*
X107737000Y-126409000D01*
X101051000Y-126409000D02*
X103354000Y-126409000D01*
X105434000Y-126449000D02*
X107759000Y-126449000D01*
X101029000Y-126449000D02*
X103354000Y-126449000D01*
X105434000Y-126489000D02*
X107780000Y-126489000D01*
X101008000Y-126489000D02*
X103354000Y-126489000D01*
X105434000Y-126529000D02*
X107801000Y-126529000D01*
X100987000Y-126529000D02*
X103354000Y-126529000D01*
X105434000Y-126569000D02*
X107821000Y-126569000D01*
X100967000Y-126569000D02*
X103354000Y-126569000D01*
X105434000Y-126609000D02*
X107841000Y-126609000D01*
X100947000Y-126609000D02*
X103354000Y-126609000D01*
X105434000Y-126649000D02*
X107860000Y-126649000D01*
X100928000Y-126649000D02*
X103354000Y-126649000D01*
X105434000Y-126689000D02*
X107878000Y-126689000D01*
X100910000Y-126689000D02*
X103354000Y-126689000D01*
X105434000Y-126729000D02*
X107896000Y-126729000D01*
X100892000Y-126729000D02*
X103354000Y-126729000D01*
X105434000Y-126769000D02*
X107914000Y-126769000D01*
X100874000Y-126769000D02*
X103354000Y-126769000D01*
X105434000Y-126809000D02*
X107930000Y-126809000D01*
X100858000Y-126809000D02*
X103354000Y-126809000D01*
X105434000Y-126849000D02*
X107947000Y-126849000D01*
X100841000Y-126849000D02*
X103354000Y-126849000D01*
X105434000Y-126889000D02*
X107962000Y-126889000D01*
X100826000Y-126889000D02*
X103354000Y-126889000D01*
X105434000Y-126929000D02*
X107978000Y-126929000D01*
X100810000Y-126929000D02*
X103354000Y-126929000D01*
X105434000Y-126969000D02*
X107992000Y-126969000D01*
X100796000Y-126969000D02*
X103354000Y-126969000D01*
X105434000Y-127009000D02*
X108007000Y-127009000D01*
X100781000Y-127009000D02*
X103354000Y-127009000D01*
X105434000Y-127049000D02*
X108020000Y-127049000D01*
X100768000Y-127049000D02*
X103354000Y-127049000D01*
X105434000Y-127089000D02*
X108034000Y-127089000D01*
X100754000Y-127089000D02*
X103354000Y-127089000D01*
X105434000Y-127129000D02*
X108047000Y-127129000D01*
X100741000Y-127129000D02*
X103354000Y-127129000D01*
X105434000Y-127169000D02*
X108059000Y-127169000D01*
X100729000Y-127169000D02*
X103354000Y-127169000D01*
X105434000Y-127209000D02*
X108071000Y-127209000D01*
X100717000Y-127209000D02*
X103354000Y-127209000D01*
X105434000Y-127249000D02*
X108082000Y-127249000D01*
X100706000Y-127249000D02*
X103354000Y-127249000D01*
X105434000Y-127289000D02*
X108093000Y-127289000D01*
X100695000Y-127289000D02*
X103354000Y-127289000D01*
X105434000Y-127329000D02*
X108104000Y-127329000D01*
X100684000Y-127329000D02*
X103354000Y-127329000D01*
X105434000Y-127369000D02*
X108114000Y-127369000D01*
X100674000Y-127369000D02*
X103354000Y-127369000D01*
X105434000Y-127409000D02*
X108123000Y-127409000D01*
X100665000Y-127409000D02*
X103354000Y-127409000D01*
X105434000Y-127449000D02*
X108132000Y-127449000D01*
X100656000Y-127449000D02*
X103354000Y-127449000D01*
X105434000Y-127489000D02*
X108141000Y-127489000D01*
X100647000Y-127489000D02*
X103354000Y-127489000D01*
X105434000Y-127529000D02*
X108149000Y-127529000D01*
X100639000Y-127529000D02*
X103354000Y-127529000D01*
X105434000Y-127569000D02*
X108157000Y-127569000D01*
X100631000Y-127569000D02*
X103354000Y-127569000D01*
X105434000Y-127610000D02*
X108164000Y-127610000D01*
X100624000Y-127610000D02*
X103354000Y-127610000D01*
X105434000Y-127650000D02*
X108171000Y-127650000D01*
X100617000Y-127650000D02*
X103354000Y-127650000D01*
X105434000Y-127690000D02*
X108178000Y-127690000D01*
X100610000Y-127690000D02*
X103354000Y-127690000D01*
X105434000Y-127730000D02*
X108184000Y-127730000D01*
X100604000Y-127730000D02*
X103354000Y-127730000D01*
X105434000Y-127770000D02*
X108189000Y-127770000D01*
X100599000Y-127770000D02*
X103354000Y-127770000D01*
X105434000Y-127810000D02*
X108195000Y-127810000D01*
X100593000Y-127810000D02*
X103354000Y-127810000D01*
X105434000Y-127850000D02*
X108199000Y-127850000D01*
X100589000Y-127850000D02*
X103354000Y-127850000D01*
X105434000Y-127890000D02*
X108204000Y-127890000D01*
X100584000Y-127890000D02*
X103354000Y-127890000D01*
X105434000Y-127930000D02*
X108208000Y-127930000D01*
X100580000Y-127930000D02*
X103354000Y-127930000D01*
X105434000Y-127970000D02*
X108211000Y-127970000D01*
X100577000Y-127970000D02*
X103354000Y-127970000D01*
X105434000Y-128010000D02*
X108214000Y-128010000D01*
X100574000Y-128010000D02*
X103354000Y-128010000D01*
X105434000Y-128050000D02*
X108217000Y-128050000D01*
X100571000Y-128050000D02*
X103354000Y-128050000D01*
X100569000Y-128090000D02*
X108219000Y-128090000D01*
X100567000Y-128130000D02*
X108221000Y-128130000D01*
X100565000Y-128170000D02*
X108223000Y-128170000D01*
X100564000Y-128210000D02*
X108224000Y-128210000D01*
X100564000Y-128250000D02*
X108224000Y-128250000D01*
X100564000Y-128290000D02*
X108224000Y-128290000D01*
X108264000Y-128290000D02*
G75*
G03X108264000Y-128290000I-3870000J0D01*
G01*
D10*
X136088380Y-95289666D02*
X135612190Y-95623000D01*
X136088380Y-95861095D02*
X135088380Y-95861095D01*
X135088380Y-95480142D01*
X135136000Y-95384904D01*
X135183619Y-95337285D01*
X135278857Y-95289666D01*
X135421714Y-95289666D01*
X135516952Y-95337285D01*
X135564571Y-95384904D01*
X135612190Y-95480142D01*
X135612190Y-95861095D01*
X135088380Y-94956333D02*
X135088380Y-94337285D01*
X135469333Y-94670619D01*
X135469333Y-94527761D01*
X135516952Y-94432523D01*
X135564571Y-94384904D01*
X135659809Y-94337285D01*
X135897904Y-94337285D01*
X135993142Y-94384904D01*
X136040761Y-94432523D01*
X136088380Y-94527761D01*
X136088380Y-94813476D01*
X136040761Y-94908714D01*
X135993142Y-94956333D01*
X108037333Y-115419142D02*
X107989714Y-115466761D01*
X107846857Y-115514380D01*
X107751619Y-115514380D01*
X107608761Y-115466761D01*
X107513523Y-115371523D01*
X107465904Y-115276285D01*
X107418285Y-115085809D01*
X107418285Y-114942952D01*
X107465904Y-114752476D01*
X107513523Y-114657238D01*
X107608761Y-114562000D01*
X107751619Y-114514380D01*
X107846857Y-114514380D01*
X107989714Y-114562000D01*
X108037333Y-114609619D01*
X108513523Y-115514380D02*
X108704000Y-115514380D01*
X108799238Y-115466761D01*
X108846857Y-115419142D01*
X108942095Y-115276285D01*
X108989714Y-115085809D01*
X108989714Y-114704857D01*
X108942095Y-114609619D01*
X108894476Y-114562000D01*
X108799238Y-114514380D01*
X108608761Y-114514380D01*
X108513523Y-114562000D01*
X108465904Y-114609619D01*
X108418285Y-114704857D01*
X108418285Y-114942952D01*
X108465904Y-115038190D01*
X108513523Y-115085809D01*
X108608761Y-115133428D01*
X108799238Y-115133428D01*
X108894476Y-115085809D01*
X108942095Y-115038190D01*
X108989714Y-114942952D01*
X105690990Y-105835390D02*
X106167180Y-105835390D01*
X105167180Y-106168723D02*
X105690990Y-105835390D01*
X105167180Y-105502057D01*
X106167180Y-104644914D02*
X106167180Y-105216342D01*
X106167180Y-104930628D02*
X105167180Y-104930628D01*
X105310038Y-105025866D01*
X105405276Y-105121104D01*
X105452895Y-105216342D01*
X124015595Y-82510380D02*
X124015595Y-83319904D01*
X124063214Y-83415142D01*
X124110833Y-83462761D01*
X124206071Y-83510380D01*
X124396547Y-83510380D01*
X124491785Y-83462761D01*
X124539404Y-83415142D01*
X124587023Y-83319904D01*
X124587023Y-82510380D01*
X124967976Y-82510380D02*
X125587023Y-82510380D01*
X125253690Y-82891333D01*
X125396547Y-82891333D01*
X125491785Y-82938952D01*
X125539404Y-82986571D01*
X125587023Y-83081809D01*
X125587023Y-83319904D01*
X125539404Y-83415142D01*
X125491785Y-83462761D01*
X125396547Y-83510380D01*
X125110833Y-83510380D01*
X125015595Y-83462761D01*
X124967976Y-83415142D01*
X99949095Y-137501380D02*
X99949095Y-138310904D01*
X99996714Y-138406142D01*
X100044333Y-138453761D01*
X100139571Y-138501380D01*
X100330047Y-138501380D01*
X100425285Y-138453761D01*
X100472904Y-138406142D01*
X100520523Y-138310904D01*
X100520523Y-137501380D01*
X100949095Y-137596619D02*
X100996714Y-137549000D01*
X101091952Y-137501380D01*
X101330047Y-137501380D01*
X101425285Y-137549000D01*
X101472904Y-137596619D01*
X101520523Y-137691857D01*
X101520523Y-137787095D01*
X101472904Y-137929952D01*
X100901476Y-138501380D01*
X101520523Y-138501380D01*
X100457095Y-123277380D02*
X100457095Y-124086904D01*
X100504714Y-124182142D01*
X100552333Y-124229761D01*
X100647571Y-124277380D01*
X100838047Y-124277380D01*
X100933285Y-124229761D01*
X100980904Y-124182142D01*
X101028523Y-124086904D01*
X101028523Y-123277380D01*
X102028523Y-124277380D02*
X101457095Y-124277380D01*
X101742809Y-124277380D02*
X101742809Y-123277380D01*
X101647571Y-123420238D01*
X101552333Y-123515476D01*
X101457095Y-123563095D01*
X104913666Y-82224761D02*
X105056523Y-82272380D01*
X105294619Y-82272380D01*
X105389857Y-82224761D01*
X105437476Y-82177142D01*
X105485095Y-82081904D01*
X105485095Y-81986666D01*
X105437476Y-81891428D01*
X105389857Y-81843809D01*
X105294619Y-81796190D01*
X105104142Y-81748571D01*
X105008904Y-81700952D01*
X104961285Y-81653333D01*
X104913666Y-81558095D01*
X104913666Y-81462857D01*
X104961285Y-81367619D01*
X105008904Y-81320000D01*
X105104142Y-81272380D01*
X105342238Y-81272380D01*
X105485095Y-81320000D01*
X105818428Y-81272380D02*
X106056523Y-82272380D01*
X106247000Y-81558095D01*
X106437476Y-82272380D01*
X106675571Y-81272380D01*
X107580333Y-82272380D02*
X107008904Y-82272380D01*
X107294619Y-82272380D02*
X107294619Y-81272380D01*
X107199380Y-81415238D01*
X107104142Y-81510476D01*
X107008904Y-81558095D01*
X138037961Y-129535180D02*
X137704628Y-129058990D01*
X137466533Y-129535180D02*
X137466533Y-128535180D01*
X137847485Y-128535180D01*
X137942723Y-128582800D01*
X137990342Y-128630419D01*
X138037961Y-128725657D01*
X138037961Y-128868514D01*
X137990342Y-128963752D01*
X137942723Y-129011371D01*
X137847485Y-129058990D01*
X137466533Y-129058990D01*
X138323676Y-128535180D02*
X138657009Y-129535180D01*
X138990342Y-128535180D01*
X139847485Y-129535180D02*
X139276057Y-129535180D01*
X139561771Y-129535180D02*
X139561771Y-128535180D01*
X139466533Y-128678038D01*
X139371295Y-128773276D01*
X139276057Y-128820895D01*
X120483333Y-78557380D02*
X120150000Y-78081190D01*
X119911904Y-78557380D02*
X119911904Y-77557380D01*
X120292857Y-77557380D01*
X120388095Y-77605000D01*
X120435714Y-77652619D01*
X120483333Y-77747857D01*
X120483333Y-77890714D01*
X120435714Y-77985952D01*
X120388095Y-78033571D01*
X120292857Y-78081190D01*
X119911904Y-78081190D01*
X121340476Y-77890714D02*
X121340476Y-78557380D01*
X121102380Y-77509761D02*
X120864285Y-78224047D01*
X121483333Y-78224047D01*
X128341380Y-95289666D02*
X127865190Y-95623000D01*
X128341380Y-95861095D02*
X127341380Y-95861095D01*
X127341380Y-95480142D01*
X127389000Y-95384904D01*
X127436619Y-95337285D01*
X127531857Y-95289666D01*
X127674714Y-95289666D01*
X127769952Y-95337285D01*
X127817571Y-95384904D01*
X127865190Y-95480142D01*
X127865190Y-95861095D01*
X127436619Y-94908714D02*
X127389000Y-94861095D01*
X127341380Y-94765857D01*
X127341380Y-94527761D01*
X127389000Y-94432523D01*
X127436619Y-94384904D01*
X127531857Y-94337285D01*
X127627095Y-94337285D01*
X127769952Y-94384904D01*
X128341380Y-94956333D01*
X128341380Y-94337285D01*
X112636380Y-133516666D02*
X112160190Y-133850000D01*
X112636380Y-134088095D02*
X111636380Y-134088095D01*
X111636380Y-133707142D01*
X111684000Y-133611904D01*
X111731619Y-133564285D01*
X111826857Y-133516666D01*
X111969714Y-133516666D01*
X112064952Y-133564285D01*
X112112571Y-133611904D01*
X112160190Y-133707142D01*
X112160190Y-134088095D01*
X112636380Y-132564285D02*
X112636380Y-133135714D01*
X112636380Y-132850000D02*
X111636380Y-132850000D01*
X111779238Y-132945238D01*
X111874476Y-133040476D01*
X111922095Y-133135714D01*
X95869166Y-78763880D02*
X95869166Y-79478166D01*
X95821547Y-79621023D01*
X95726309Y-79716261D01*
X95583452Y-79763880D01*
X95488214Y-79763880D01*
X96250119Y-78763880D02*
X96916785Y-78763880D01*
X96488214Y-79763880D01*
X140509666Y-77303380D02*
X140509666Y-78017666D01*
X140462047Y-78160523D01*
X140366809Y-78255761D01*
X140223952Y-78303380D01*
X140128714Y-78303380D01*
X141414428Y-77303380D02*
X141223952Y-77303380D01*
X141128714Y-77351000D01*
X141081095Y-77398619D01*
X140985857Y-77541476D01*
X140938238Y-77731952D01*
X140938238Y-78112904D01*
X140985857Y-78208142D01*
X141033476Y-78255761D01*
X141128714Y-78303380D01*
X141319190Y-78303380D01*
X141414428Y-78255761D01*
X141462047Y-78208142D01*
X141509666Y-78112904D01*
X141509666Y-77874809D01*
X141462047Y-77779571D01*
X141414428Y-77731952D01*
X141319190Y-77684333D01*
X141128714Y-77684333D01*
X141033476Y-77731952D01*
X140985857Y-77779571D01*
X140938238Y-77874809D01*
X140687466Y-95210380D02*
X140687466Y-95924666D01*
X140639847Y-96067523D01*
X140544609Y-96162761D01*
X140401752Y-96210380D01*
X140306514Y-96210380D01*
X141639847Y-95210380D02*
X141163657Y-95210380D01*
X141116038Y-95686571D01*
X141163657Y-95638952D01*
X141258895Y-95591333D01*
X141496990Y-95591333D01*
X141592228Y-95638952D01*
X141639847Y-95686571D01*
X141687466Y-95781809D01*
X141687466Y-96019904D01*
X141639847Y-96115142D01*
X141592228Y-96162761D01*
X141496990Y-96210380D01*
X141258895Y-96210380D01*
X141163657Y-96162761D01*
X141116038Y-96115142D01*
X93646666Y-111422380D02*
X93646666Y-112136666D01*
X93599047Y-112279523D01*
X93503809Y-112374761D01*
X93360952Y-112422380D01*
X93265714Y-112422380D01*
X94551428Y-111755714D02*
X94551428Y-112422380D01*
X94313333Y-111374761D02*
X94075238Y-112089047D01*
X94694285Y-112089047D01*
X93646666Y-101262380D02*
X93646666Y-101976666D01*
X93599047Y-102119523D01*
X93503809Y-102214761D01*
X93360952Y-102262380D01*
X93265714Y-102262380D01*
X94027619Y-101262380D02*
X94646666Y-101262380D01*
X94313333Y-101643333D01*
X94456190Y-101643333D01*
X94551428Y-101690952D01*
X94599047Y-101738571D01*
X94646666Y-101833809D01*
X94646666Y-102071904D01*
X94599047Y-102167142D01*
X94551428Y-102214761D01*
X94456190Y-102262380D01*
X94170476Y-102262380D01*
X94075238Y-102214761D01*
X94027619Y-102167142D01*
X126452380Y-124031333D02*
X127166666Y-124031333D01*
X127309523Y-124078952D01*
X127404761Y-124174190D01*
X127452380Y-124317047D01*
X127452380Y-124412285D01*
X126547619Y-123602761D02*
X126500000Y-123555142D01*
X126452380Y-123459904D01*
X126452380Y-123221809D01*
X126500000Y-123126571D01*
X126547619Y-123078952D01*
X126642857Y-123031333D01*
X126738095Y-123031333D01*
X126880952Y-123078952D01*
X127452380Y-123650380D01*
X127452380Y-123031333D01*
X93646666Y-129202380D02*
X93646666Y-129916666D01*
X93599047Y-130059523D01*
X93503809Y-130154761D01*
X93360952Y-130202380D01*
X93265714Y-130202380D01*
X94646666Y-130202380D02*
X94075238Y-130202380D01*
X94360952Y-130202380D02*
X94360952Y-129202380D01*
X94265714Y-129345238D01*
X94170476Y-129440476D01*
X94075238Y-129488095D01*
X130715380Y-90908095D02*
X129715380Y-90908095D01*
X129715380Y-90670000D01*
X129763000Y-90527142D01*
X129858238Y-90431904D01*
X129953476Y-90384285D01*
X130143952Y-90336666D01*
X130286809Y-90336666D01*
X130477285Y-90384285D01*
X130572523Y-90431904D01*
X130667761Y-90527142D01*
X130715380Y-90670000D01*
X130715380Y-90908095D01*
X129810619Y-89955714D02*
X129763000Y-89908095D01*
X129715380Y-89812857D01*
X129715380Y-89574761D01*
X129763000Y-89479523D01*
X129810619Y-89431904D01*
X129905857Y-89384285D01*
X130001095Y-89384285D01*
X130143952Y-89431904D01*
X130715380Y-90003333D01*
X130715380Y-89384285D01*
X133460380Y-108688095D02*
X132460380Y-108688095D01*
X132460380Y-108450000D01*
X132508000Y-108307142D01*
X132603238Y-108211904D01*
X132698476Y-108164285D01*
X132888952Y-108116666D01*
X133031809Y-108116666D01*
X133222285Y-108164285D01*
X133317523Y-108211904D01*
X133412761Y-108307142D01*
X133460380Y-108450000D01*
X133460380Y-108688095D01*
X133460380Y-107164285D02*
X133460380Y-107735714D01*
X133460380Y-107450000D02*
X132460380Y-107450000D01*
X132603238Y-107545238D01*
X132698476Y-107640476D01*
X132746095Y-107735714D01*
X107997333Y-95947142D02*
X107949714Y-95994761D01*
X107806857Y-96042380D01*
X107711619Y-96042380D01*
X107568761Y-95994761D01*
X107473523Y-95899523D01*
X107425904Y-95804285D01*
X107378285Y-95613809D01*
X107378285Y-95470952D01*
X107425904Y-95280476D01*
X107473523Y-95185238D01*
X107568761Y-95090000D01*
X107711619Y-95042380D01*
X107806857Y-95042380D01*
X107949714Y-95090000D01*
X107997333Y-95137619D01*
X108568761Y-95470952D02*
X108473523Y-95423333D01*
X108425904Y-95375714D01*
X108378285Y-95280476D01*
X108378285Y-95232857D01*
X108425904Y-95137619D01*
X108473523Y-95090000D01*
X108568761Y-95042380D01*
X108759238Y-95042380D01*
X108854476Y-95090000D01*
X108902095Y-95137619D01*
X108949714Y-95232857D01*
X108949714Y-95280476D01*
X108902095Y-95375714D01*
X108854476Y-95423333D01*
X108759238Y-95470952D01*
X108568761Y-95470952D01*
X108473523Y-95518571D01*
X108425904Y-95566190D01*
X108378285Y-95661428D01*
X108378285Y-95851904D01*
X108425904Y-95947142D01*
X108473523Y-95994761D01*
X108568761Y-96042380D01*
X108759238Y-96042380D01*
X108854476Y-95994761D01*
X108902095Y-95947142D01*
X108949714Y-95851904D01*
X108949714Y-95661428D01*
X108902095Y-95566190D01*
X108854476Y-95518571D01*
X108759238Y-95470952D01*
X127814342Y-106338666D02*
X127861961Y-106386285D01*
X127909580Y-106529142D01*
X127909580Y-106624380D01*
X127861961Y-106767238D01*
X127766723Y-106862476D01*
X127671485Y-106910095D01*
X127481009Y-106957714D01*
X127338152Y-106957714D01*
X127147676Y-106910095D01*
X127052438Y-106862476D01*
X126957200Y-106767238D01*
X126909580Y-106624380D01*
X126909580Y-106529142D01*
X126957200Y-106386285D01*
X127004819Y-106338666D01*
X126909580Y-106005333D02*
X126909580Y-105338666D01*
X127909580Y-105767238D01*
X125325142Y-106440266D02*
X125372761Y-106487885D01*
X125420380Y-106630742D01*
X125420380Y-106725980D01*
X125372761Y-106868838D01*
X125277523Y-106964076D01*
X125182285Y-107011695D01*
X124991809Y-107059314D01*
X124848952Y-107059314D01*
X124658476Y-107011695D01*
X124563238Y-106964076D01*
X124468000Y-106868838D01*
X124420380Y-106725980D01*
X124420380Y-106630742D01*
X124468000Y-106487885D01*
X124515619Y-106440266D01*
X124420380Y-105583123D02*
X124420380Y-105773600D01*
X124468000Y-105868838D01*
X124515619Y-105916457D01*
X124658476Y-106011695D01*
X124848952Y-106059314D01*
X125229904Y-106059314D01*
X125325142Y-106011695D01*
X125372761Y-105964076D01*
X125420380Y-105868838D01*
X125420380Y-105678361D01*
X125372761Y-105583123D01*
X125325142Y-105535504D01*
X125229904Y-105487885D01*
X124991809Y-105487885D01*
X124896571Y-105535504D01*
X124848952Y-105583123D01*
X124801333Y-105678361D01*
X124801333Y-105868838D01*
X124848952Y-105964076D01*
X124896571Y-106011695D01*
X124991809Y-106059314D01*
X121159542Y-128690666D02*
X121207161Y-128738285D01*
X121254780Y-128881142D01*
X121254780Y-128976380D01*
X121207161Y-129119238D01*
X121111923Y-129214476D01*
X121016685Y-129262095D01*
X120826209Y-129309714D01*
X120683352Y-129309714D01*
X120492876Y-129262095D01*
X120397638Y-129214476D01*
X120302400Y-129119238D01*
X120254780Y-128976380D01*
X120254780Y-128881142D01*
X120302400Y-128738285D01*
X120350019Y-128690666D01*
X120254780Y-127785904D02*
X120254780Y-128262095D01*
X120730971Y-128309714D01*
X120683352Y-128262095D01*
X120635733Y-128166857D01*
X120635733Y-127928761D01*
X120683352Y-127833523D01*
X120730971Y-127785904D01*
X120826209Y-127738285D01*
X121064304Y-127738285D01*
X121159542Y-127785904D01*
X121207161Y-127833523D01*
X121254780Y-127928761D01*
X121254780Y-128166857D01*
X121207161Y-128262095D01*
X121159542Y-128309714D01*
X113285542Y-120918266D02*
X113333161Y-120965885D01*
X113380780Y-121108742D01*
X113380780Y-121203980D01*
X113333161Y-121346838D01*
X113237923Y-121442076D01*
X113142685Y-121489695D01*
X112952209Y-121537314D01*
X112809352Y-121537314D01*
X112618876Y-121489695D01*
X112523638Y-121442076D01*
X112428400Y-121346838D01*
X112380780Y-121203980D01*
X112380780Y-121108742D01*
X112428400Y-120965885D01*
X112476019Y-120918266D01*
X112714114Y-120061123D02*
X113380780Y-120061123D01*
X112333161Y-120299219D02*
X113047447Y-120537314D01*
X113047447Y-119918266D01*
X126722142Y-128690666D02*
X126769761Y-128738285D01*
X126817380Y-128881142D01*
X126817380Y-128976380D01*
X126769761Y-129119238D01*
X126674523Y-129214476D01*
X126579285Y-129262095D01*
X126388809Y-129309714D01*
X126245952Y-129309714D01*
X126055476Y-129262095D01*
X125960238Y-129214476D01*
X125865000Y-129119238D01*
X125817380Y-128976380D01*
X125817380Y-128881142D01*
X125865000Y-128738285D01*
X125912619Y-128690666D01*
X125817380Y-128357333D02*
X125817380Y-127738285D01*
X126198333Y-128071619D01*
X126198333Y-127928761D01*
X126245952Y-127833523D01*
X126293571Y-127785904D01*
X126388809Y-127738285D01*
X126626904Y-127738285D01*
X126722142Y-127785904D01*
X126769761Y-127833523D01*
X126817380Y-127928761D01*
X126817380Y-128214476D01*
X126769761Y-128309714D01*
X126722142Y-128357333D01*
X113285542Y-125947466D02*
X113333161Y-125995085D01*
X113380780Y-126137942D01*
X113380780Y-126233180D01*
X113333161Y-126376038D01*
X113237923Y-126471276D01*
X113142685Y-126518895D01*
X112952209Y-126566514D01*
X112809352Y-126566514D01*
X112618876Y-126518895D01*
X112523638Y-126471276D01*
X112428400Y-126376038D01*
X112380780Y-126233180D01*
X112380780Y-126137942D01*
X112428400Y-125995085D01*
X112476019Y-125947466D01*
X112476019Y-125566514D02*
X112428400Y-125518895D01*
X112380780Y-125423657D01*
X112380780Y-125185561D01*
X112428400Y-125090323D01*
X112476019Y-125042704D01*
X112571257Y-124995085D01*
X112666495Y-124995085D01*
X112809352Y-125042704D01*
X113380780Y-125614133D01*
X113380780Y-124995085D01*
X99751142Y-128456666D02*
X99798761Y-128504285D01*
X99846380Y-128647142D01*
X99846380Y-128742380D01*
X99798761Y-128885238D01*
X99703523Y-128980476D01*
X99608285Y-129028095D01*
X99417809Y-129075714D01*
X99274952Y-129075714D01*
X99084476Y-129028095D01*
X98989238Y-128980476D01*
X98894000Y-128885238D01*
X98846380Y-128742380D01*
X98846380Y-128647142D01*
X98894000Y-128504285D01*
X98941619Y-128456666D01*
X99846380Y-127504285D02*
X99846380Y-128075714D01*
X99846380Y-127790000D02*
X98846380Y-127790000D01*
X98989238Y-127885238D01*
X99084476Y-127980476D01*
X99132095Y-128075714D01*
M02*
