M48
; DRILL file {KiCad (5.1.2)-2} date 21/07/2019 13:36:22
; FORMAT={-:-/ absolute / inch / decimal}
; #@! TF.CreationDate,2019-07-21T13:36:22+02:00
; #@! TF.GenerationSoftware,Kicad,Pcbnew,(5.1.2)-2
; #@! TF.FileFunction,Plated,1,2,PTH
FMAT,2
INCH
T1C0.0157
T2C0.0295
T3C0.0315
T4C0.0354
T5C0.0394
T6C0.0433
T7C0.1063
%
G90
G05
T1
X4.675Y-3.825
X5.025Y-4.6
X5.25Y-3.9
X5.26Y-4.48
X5.2748Y-4.4248
X5.4Y-3.8285
X5.4Y-4.1
T2
X4.06Y-4.8
X4.11Y-4.8
X4.16Y-4.8
T3
X4.455Y-3.155
X4.855Y-3.155
X4.915Y-3.9031
X4.915Y-4.1
X4.36Y-4.6531
X4.36Y-4.85
X5.015Y-3.9031
X5.015Y-4.1
X4.75Y-5.1916
X4.75Y-5.29
X4.51Y-5.05
X4.51Y-5.45
X4.16Y-3.85
X4.3569Y-3.85
X5.125Y-3.7
X5.125Y-4.1
X4.31Y-4.05
X4.31Y-4.2429
X5.25Y-3.7
X5.25Y-4.1
X5.05Y-5.1916
X5.05Y-5.29
X4.5038Y-3.3
X4.5038Y-3.4
X4.5038Y-3.5
X4.5038Y-3.6
X4.5038Y-3.7
X4.5038Y-3.8
X4.5038Y-3.9
X4.5038Y-4.0
X4.5038Y-4.1
X4.5038Y-4.2
X4.5038Y-4.3
X4.5038Y-4.4
X4.5038Y-4.5
X4.5038Y-4.6
X4.8038Y-3.3
X4.8038Y-3.4
X4.8038Y-3.5
X4.8038Y-3.6
X4.8038Y-3.7
X4.8038Y-3.8
X4.8038Y-3.9
X4.8038Y-4.0
X4.8038Y-4.1
X4.8038Y-4.2
X4.8038Y-4.3
X4.8038Y-4.4
X4.8038Y-4.5
X4.8038Y-4.6
X4.11Y-5.0016
X4.11Y-5.1
X4.16Y-4.45
X4.3569Y-4.45
X5.46Y-5.215
X5.46Y-5.415
X5.56Y-5.315
X4.36Y-4.9531
X4.36Y-5.15
T4
X5.12Y-4.2
X5.12Y-4.3
X5.245Y-3.5
X5.245Y-3.6
T5
X5.65Y-3.85
X5.65Y-3.95
X5.65Y-4.05
X5.65Y-4.15
X5.65Y-4.25
X5.65Y-4.35
X5.65Y-4.45
X5.65Y-4.55
X5.65Y-4.65
X5.65Y-4.75
X5.095Y-4.75
X5.095Y-4.85
X5.195Y-4.75
X5.195Y-4.85
X5.295Y-4.75
X5.295Y-4.85
X3.7Y-3.2
X3.7Y-3.3
X3.7Y-3.4
X3.7Y-3.5
X3.7Y-3.6
X3.7Y-3.7
X3.7Y-3.8
X3.7Y-3.9
X3.7Y-4.1
X3.7Y-4.2
X3.7Y-4.3
X5.65Y-3.15
X5.65Y-3.25
X5.65Y-3.35
X5.65Y-3.45
X5.65Y-3.55
X5.65Y-3.65
X3.7Y-4.5
X3.7Y-4.6
X3.7Y-4.7
X3.7Y-5.2
X3.7Y-5.3
X3.7Y-5.4
T6
X4.055Y-3.3
X4.055Y-3.4772
X4.3109Y-3.3
X4.3109Y-3.4772
X4.11Y-5.4
X4.21Y-5.4
X4.31Y-5.4
T7
X5.6693Y-4.9606
X5.6693Y-2.9528
X3.7008Y-4.9567
X3.7Y-2.95
T0
M30
