G04 #@! TF.GenerationSoftware,KiCad,Pcbnew,(5.1.2)-2*
G04 #@! TF.CreationDate,2019-07-21T13:35:31+02:00*
G04 #@! TF.ProjectId,MyArduino,4d794172-6475-4696-9e6f-2e6b69636164,rev?*
G04 #@! TF.SameCoordinates,Original*
G04 #@! TF.FileFunction,Copper,L2,Bot*
G04 #@! TF.FilePolarity,Positive*
%FSLAX46Y46*%
G04 Gerber Fmt 4.6, Leading zero omitted, Abs format (unit mm)*
G04 Created by KiCad (PCBNEW (5.1.2)-2) date 2019-07-21 13:35:31*
%MOMM*%
%LPD*%
G04 APERTURE LIST*
%ADD10O,1.600000X1.600000*%
%ADD11C,1.600000*%
%ADD12C,4.700000*%
%ADD13C,1.500000*%
%ADD14R,1.600000X1.600000*%
%ADD15O,1.905000X2.000000*%
%ADD16R,1.905000X2.000000*%
%ADD17R,1.050000X1.500000*%
%ADD18O,1.050000X1.500000*%
%ADD19C,2.000000*%
%ADD20C,1.440000*%
%ADD21O,1.700000X1.700000*%
%ADD22R,1.700000X1.700000*%
%ADD23C,1.800000*%
%ADD24R,1.800000X1.800000*%
%ADD25C,0.800000*%
%ADD26C,0.350000*%
%ADD27C,0.250000*%
%ADD28C,0.254000*%
G04 APERTURE END LIST*
D10*
X133350000Y-104140000D03*
D11*
X133350000Y-93980000D03*
X110664000Y-113030000D03*
X105664000Y-113030000D03*
D12*
X144000000Y-126000000D03*
X144000000Y-75000000D03*
X94000000Y-125900000D03*
X93980000Y-74930000D03*
D13*
X109474000Y-107770000D03*
X109474000Y-102870000D03*
D10*
X122016789Y-83820000D03*
X114396789Y-116840000D03*
X122016789Y-86360000D03*
X114396789Y-114300000D03*
X122016789Y-88900000D03*
X114396789Y-111760000D03*
X122016789Y-91440000D03*
X114396789Y-109220000D03*
X122016789Y-93980000D03*
X114396789Y-106680000D03*
X122016789Y-96520000D03*
X114396789Y-104140000D03*
X122016789Y-99060000D03*
X114396789Y-101600000D03*
X122016789Y-101600000D03*
X114396789Y-99060000D03*
X122016789Y-104140000D03*
X114396789Y-96520000D03*
X122016789Y-106680000D03*
X114396789Y-93980000D03*
X122016789Y-109220000D03*
X114396789Y-91440000D03*
X122016789Y-111760000D03*
X114396789Y-88900000D03*
X122016789Y-114300000D03*
X114396789Y-86360000D03*
X122016789Y-116840000D03*
D14*
X114396789Y-83820000D03*
D15*
X104394000Y-137160000D03*
X106934000Y-137160000D03*
D16*
X109474000Y-137160000D03*
D17*
X103124000Y-121920000D03*
D18*
X105664000Y-121920000D03*
X104394000Y-121920000D03*
D19*
X109497000Y-83820000D03*
X109497000Y-88320000D03*
X102997000Y-83820000D03*
X102997000Y-88320000D03*
D20*
X138684000Y-132461000D03*
X141224000Y-135001000D03*
X138684000Y-137541000D03*
D10*
X113157000Y-80137000D03*
D11*
X123317000Y-80137000D03*
D10*
X130175000Y-93980000D03*
D11*
X130175000Y-104140000D03*
D10*
X114554000Y-128270000D03*
D11*
X114554000Y-138430000D03*
D21*
X93980000Y-99060000D03*
X93980000Y-96520000D03*
X93980000Y-93980000D03*
X93980000Y-91440000D03*
X93980000Y-88900000D03*
X93980000Y-86360000D03*
X93980000Y-83820000D03*
D22*
X93980000Y-81280000D03*
D21*
X143510000Y-80010000D03*
X143510000Y-82550000D03*
X143510000Y-85090000D03*
X143510000Y-87630000D03*
X143510000Y-90170000D03*
D22*
X143510000Y-92710000D03*
D21*
X143510000Y-120650000D03*
X143510000Y-118110000D03*
X143510000Y-115570000D03*
X143510000Y-113030000D03*
X143510000Y-110490000D03*
X143510000Y-107950000D03*
X143510000Y-105410000D03*
X143510000Y-102870000D03*
X143510000Y-100330000D03*
D22*
X143510000Y-97790000D03*
D21*
X93980000Y-119380000D03*
X93980000Y-116840000D03*
D22*
X93980000Y-114300000D03*
D21*
X93980000Y-109220000D03*
X93980000Y-106680000D03*
D22*
X93980000Y-104140000D03*
D21*
X134493000Y-120650000D03*
X134493000Y-123190000D03*
X131953000Y-120650000D03*
X131953000Y-123190000D03*
X129413000Y-120650000D03*
D22*
X129413000Y-123190000D03*
D21*
X93980000Y-137160000D03*
X93980000Y-134620000D03*
D22*
X93980000Y-132080000D03*
D23*
X133223000Y-88900000D03*
D24*
X133223000Y-91440000D03*
D23*
X130048000Y-109220000D03*
D24*
X130048000Y-106680000D03*
D11*
X110664000Y-97790000D03*
X105664000Y-97790000D03*
X127381000Y-99140000D03*
X127381000Y-104140000D03*
X124841000Y-99140000D03*
X124841000Y-104140000D03*
X120650000Y-131866000D03*
D14*
X120650000Y-134366000D03*
D11*
X110744000Y-118190000D03*
X110744000Y-123190000D03*
X128270000Y-131866000D03*
D14*
X128270000Y-134366000D03*
D11*
X110744000Y-125810000D03*
X110744000Y-130810000D03*
X104394000Y-127040000D03*
D14*
X104394000Y-129540000D03*
D25*
X133350000Y-99060000D03*
X118745000Y-97155000D03*
X137160000Y-104140000D03*
X137160000Y-97245000D03*
X133604000Y-113792000D03*
X133980347Y-112390347D03*
X127635000Y-116840000D03*
D26*
X124761000Y-99060000D02*
X124841000Y-99140000D01*
X122016789Y-99060000D02*
X124761000Y-99060000D01*
X124841000Y-99140000D02*
X127381000Y-99140000D01*
X127381000Y-99140000D02*
X128825000Y-99140000D01*
X114396789Y-99060000D02*
X116840000Y-99060000D01*
X116840000Y-99060000D02*
X118745000Y-97155000D01*
X118745000Y-84709000D02*
X123317000Y-80137000D01*
X118745000Y-97155000D02*
X118745000Y-84709000D01*
X124968000Y-104140000D02*
X124841000Y-104140000D01*
X130048000Y-109220000D02*
X124968000Y-104140000D01*
X124841000Y-104140000D02*
X122016789Y-104140000D01*
X130048000Y-109220000D02*
X132080000Y-109220000D01*
X132080000Y-109220000D02*
X137160000Y-104140000D01*
X119144999Y-97554999D02*
X118745000Y-97155000D01*
X119285001Y-97695001D02*
X119144999Y-97554999D01*
X136144314Y-97695001D02*
X119285001Y-97695001D01*
X136594315Y-97245000D02*
X136144314Y-97695001D01*
X137160000Y-97245000D02*
X136594315Y-97245000D01*
D27*
X116459000Y-104140000D02*
X114396789Y-104140000D01*
X118872000Y-106553000D02*
X116459000Y-104140000D01*
X118872000Y-108615211D02*
X118872000Y-106553000D01*
X118929990Y-108673201D02*
X118872000Y-108615211D01*
X118929990Y-122612990D02*
X118929990Y-108673201D01*
X139446000Y-118110000D02*
X137668000Y-119888000D01*
X137668000Y-119888000D02*
X137668000Y-124333000D01*
X137668000Y-124333000D02*
X136017000Y-125984000D01*
X136017000Y-125984000D02*
X122301000Y-125984000D01*
X143510000Y-118110000D02*
X139446000Y-118110000D01*
X122301000Y-125984000D02*
X118929990Y-122612990D01*
X118110000Y-123190000D02*
X118110000Y-107315000D01*
X139700000Y-120650000D02*
X138430000Y-121920000D01*
X143510000Y-120650000D02*
X139700000Y-120650000D01*
X117475000Y-106680000D02*
X114396789Y-106680000D01*
X138430000Y-121920000D02*
X138430000Y-125095000D01*
X138430000Y-125095000D02*
X136525000Y-127000000D01*
X136525000Y-127000000D02*
X121920000Y-127000000D01*
X118110000Y-107315000D02*
X117475000Y-106680000D01*
X121920000Y-127000000D02*
X118110000Y-123190000D01*
X131953000Y-115443000D02*
X131953000Y-120650000D01*
X133604000Y-113792000D02*
X131953000Y-115443000D01*
X122016789Y-109220000D02*
X124968000Y-109220000D01*
X124968000Y-109220000D02*
X125984000Y-110236000D01*
X127254000Y-123190000D02*
X129413000Y-123190000D01*
X125984000Y-121920000D02*
X127254000Y-123190000D01*
X139005919Y-111252000D02*
X125984000Y-111252000D01*
X142307919Y-107950000D02*
X139005919Y-111252000D01*
X143510000Y-107950000D02*
X142307919Y-107950000D01*
X125984000Y-110236000D02*
X125984000Y-111252000D01*
X125984000Y-111252000D02*
X125984000Y-121920000D01*
X133763001Y-100474999D02*
X120505001Y-100474999D01*
X143510000Y-102870000D02*
X136158002Y-102870000D01*
X136158002Y-102870000D02*
X133763001Y-100474999D01*
X120505001Y-100474999D02*
X119380000Y-101600000D01*
X119380000Y-101600000D02*
X119380000Y-112776000D01*
X119380000Y-112776000D02*
X120904000Y-114300000D01*
X120904000Y-114300000D02*
X122016789Y-114300000D01*
X133980347Y-112390347D02*
X127639653Y-112390347D01*
X127639653Y-112390347D02*
X127635000Y-112395000D01*
X127635000Y-112395000D02*
X127635000Y-116840000D01*
D28*
G36*
X92063137Y-72833532D02*
G01*
X93980000Y-74750395D01*
X95896863Y-72833532D01*
X95693894Y-72517000D01*
X142330992Y-72517000D01*
X142083137Y-72903532D01*
X144000000Y-74820395D01*
X145916863Y-72903532D01*
X145669008Y-72517000D01*
X146263097Y-72517000D01*
X146279000Y-72668306D01*
X146279000Y-73200181D01*
X146096468Y-73083137D01*
X144179605Y-75000000D01*
X146096468Y-76916863D01*
X146279000Y-76799819D01*
X146279001Y-124200182D01*
X146096468Y-124083137D01*
X144179605Y-126000000D01*
X146096468Y-127916863D01*
X146279001Y-127799818D01*
X146279001Y-138905713D01*
X146259441Y-139105204D01*
X146210881Y-139266040D01*
X146132008Y-139414378D01*
X146025822Y-139544575D01*
X145991462Y-139573000D01*
X115426311Y-139573000D01*
X115468759Y-139544637D01*
X115668637Y-139344759D01*
X115825680Y-139109727D01*
X115933853Y-138848574D01*
X115989000Y-138571335D01*
X115989000Y-138288665D01*
X115933853Y-138011426D01*
X115825680Y-137750273D01*
X115668637Y-137515241D01*
X115560940Y-137407544D01*
X137329000Y-137407544D01*
X137329000Y-137674456D01*
X137381072Y-137936239D01*
X137483215Y-138182833D01*
X137631503Y-138404762D01*
X137820238Y-138593497D01*
X138042167Y-138741785D01*
X138288761Y-138843928D01*
X138550544Y-138896000D01*
X138817456Y-138896000D01*
X139079239Y-138843928D01*
X139325833Y-138741785D01*
X139547762Y-138593497D01*
X139736497Y-138404762D01*
X139884785Y-138182833D01*
X139986928Y-137936239D01*
X140039000Y-137674456D01*
X140039000Y-137407544D01*
X139986928Y-137145761D01*
X139884785Y-136899167D01*
X139736497Y-136677238D01*
X139547762Y-136488503D01*
X139325833Y-136340215D01*
X139079239Y-136238072D01*
X138817456Y-136186000D01*
X138550544Y-136186000D01*
X138288761Y-136238072D01*
X138042167Y-136340215D01*
X137820238Y-136488503D01*
X137631503Y-136677238D01*
X137483215Y-136899167D01*
X137381072Y-137145761D01*
X137329000Y-137407544D01*
X115560940Y-137407544D01*
X115468759Y-137315363D01*
X115233727Y-137158320D01*
X114972574Y-137050147D01*
X114695335Y-136995000D01*
X114412665Y-136995000D01*
X114135426Y-137050147D01*
X113874273Y-137158320D01*
X113639241Y-137315363D01*
X113439363Y-137515241D01*
X113282320Y-137750273D01*
X113174147Y-138011426D01*
X113119000Y-138288665D01*
X113119000Y-138571335D01*
X113174147Y-138848574D01*
X113282320Y-139109727D01*
X113439363Y-139344759D01*
X113639241Y-139544637D01*
X113681689Y-139573000D01*
X91879070Y-139573000D01*
X91849425Y-139548822D01*
X91742335Y-139419372D01*
X91662428Y-139271586D01*
X91612747Y-139111094D01*
X91592000Y-138913695D01*
X91592000Y-137160000D01*
X92487815Y-137160000D01*
X92516487Y-137451111D01*
X92601401Y-137731034D01*
X92739294Y-137989014D01*
X92924866Y-138215134D01*
X93150986Y-138400706D01*
X93408966Y-138538599D01*
X93688889Y-138623513D01*
X93907050Y-138645000D01*
X94052950Y-138645000D01*
X94271111Y-138623513D01*
X94551034Y-138538599D01*
X94809014Y-138400706D01*
X95035134Y-138215134D01*
X95220706Y-137989014D01*
X95358599Y-137731034D01*
X95443513Y-137451111D01*
X95472185Y-137160000D01*
X95459826Y-137034514D01*
X102806500Y-137034514D01*
X102806500Y-137285485D01*
X102829470Y-137518703D01*
X102920245Y-137817948D01*
X103067655Y-138093734D01*
X103266037Y-138335463D01*
X103507765Y-138533845D01*
X103783551Y-138681255D01*
X104082796Y-138772030D01*
X104394000Y-138802681D01*
X104705203Y-138772030D01*
X105004448Y-138681255D01*
X105280234Y-138533845D01*
X105521963Y-138335463D01*
X105664000Y-138162391D01*
X105806037Y-138335463D01*
X106047765Y-138533845D01*
X106323551Y-138681255D01*
X106622796Y-138772030D01*
X106934000Y-138802681D01*
X107245203Y-138772030D01*
X107544448Y-138681255D01*
X107820234Y-138533845D01*
X107946095Y-138430553D01*
X107990963Y-138514494D01*
X108070315Y-138611185D01*
X108167006Y-138690537D01*
X108277320Y-138749502D01*
X108397018Y-138785812D01*
X108521500Y-138798072D01*
X110426500Y-138798072D01*
X110550982Y-138785812D01*
X110670680Y-138749502D01*
X110780994Y-138690537D01*
X110877685Y-138611185D01*
X110957037Y-138514494D01*
X111016002Y-138404180D01*
X111052312Y-138284482D01*
X111064572Y-138160000D01*
X111064572Y-136160000D01*
X111052312Y-136035518D01*
X111022294Y-135936560D01*
X140468045Y-135936560D01*
X140529932Y-136172368D01*
X140771790Y-136285266D01*
X141031027Y-136348811D01*
X141297680Y-136360561D01*
X141561501Y-136320063D01*
X141812353Y-136228875D01*
X141918068Y-136172368D01*
X141979955Y-135936560D01*
X141224000Y-135180605D01*
X140468045Y-135936560D01*
X111022294Y-135936560D01*
X111016002Y-135915820D01*
X110957037Y-135805506D01*
X110877685Y-135708815D01*
X110780994Y-135629463D01*
X110670680Y-135570498D01*
X110550982Y-135534188D01*
X110426500Y-135521928D01*
X108521500Y-135521928D01*
X108397018Y-135534188D01*
X108277320Y-135570498D01*
X108167006Y-135629463D01*
X108070315Y-135708815D01*
X107990963Y-135805506D01*
X107946095Y-135889446D01*
X107820235Y-135786155D01*
X107544449Y-135638745D01*
X107245204Y-135547970D01*
X106934000Y-135517319D01*
X106622797Y-135547970D01*
X106323552Y-135638745D01*
X106047766Y-135786155D01*
X105806037Y-135984537D01*
X105664000Y-136157609D01*
X105521963Y-135984537D01*
X105280235Y-135786155D01*
X105004449Y-135638745D01*
X104705204Y-135547970D01*
X104394000Y-135517319D01*
X104082797Y-135547970D01*
X103783552Y-135638745D01*
X103507766Y-135786155D01*
X103266037Y-135984537D01*
X103067655Y-136226265D01*
X102920245Y-136502051D01*
X102829470Y-136801296D01*
X102806500Y-137034514D01*
X95459826Y-137034514D01*
X95443513Y-136868889D01*
X95358599Y-136588966D01*
X95220706Y-136330986D01*
X95035134Y-136104866D01*
X94809014Y-135919294D01*
X94744477Y-135884799D01*
X94861355Y-135815178D01*
X95077588Y-135620269D01*
X95251641Y-135386920D01*
X95376825Y-135124099D01*
X95421476Y-134976890D01*
X95300155Y-134747000D01*
X94107000Y-134747000D01*
X94107000Y-134767000D01*
X93853000Y-134767000D01*
X93853000Y-134747000D01*
X92659845Y-134747000D01*
X92538524Y-134976890D01*
X92583175Y-135124099D01*
X92708359Y-135386920D01*
X92882412Y-135620269D01*
X93098645Y-135815178D01*
X93215523Y-135884799D01*
X93150986Y-135919294D01*
X92924866Y-136104866D01*
X92739294Y-136330986D01*
X92601401Y-136588966D01*
X92516487Y-136868889D01*
X92487815Y-137160000D01*
X91592000Y-137160000D01*
X91592000Y-131230000D01*
X92491928Y-131230000D01*
X92491928Y-132930000D01*
X92504188Y-133054482D01*
X92540498Y-133174180D01*
X92599463Y-133284494D01*
X92678815Y-133381185D01*
X92775506Y-133460537D01*
X92885820Y-133519502D01*
X92966466Y-133543966D01*
X92882412Y-133619731D01*
X92708359Y-133853080D01*
X92583175Y-134115901D01*
X92538524Y-134263110D01*
X92659845Y-134493000D01*
X93853000Y-134493000D01*
X93853000Y-134473000D01*
X94107000Y-134473000D01*
X94107000Y-134493000D01*
X95300155Y-134493000D01*
X95421476Y-134263110D01*
X95376825Y-134115901D01*
X95251641Y-133853080D01*
X95077588Y-133619731D01*
X95017979Y-133566000D01*
X119211928Y-133566000D01*
X119211928Y-135166000D01*
X119224188Y-135290482D01*
X119260498Y-135410180D01*
X119319463Y-135520494D01*
X119398815Y-135617185D01*
X119495506Y-135696537D01*
X119605820Y-135755502D01*
X119725518Y-135791812D01*
X119850000Y-135804072D01*
X121450000Y-135804072D01*
X121574482Y-135791812D01*
X121694180Y-135755502D01*
X121804494Y-135696537D01*
X121901185Y-135617185D01*
X121980537Y-135520494D01*
X122039502Y-135410180D01*
X122075812Y-135290482D01*
X122088072Y-135166000D01*
X122088072Y-133566000D01*
X126831928Y-133566000D01*
X126831928Y-135166000D01*
X126844188Y-135290482D01*
X126880498Y-135410180D01*
X126939463Y-135520494D01*
X127018815Y-135617185D01*
X127115506Y-135696537D01*
X127225820Y-135755502D01*
X127345518Y-135791812D01*
X127470000Y-135804072D01*
X129070000Y-135804072D01*
X129194482Y-135791812D01*
X129314180Y-135755502D01*
X129424494Y-135696537D01*
X129521185Y-135617185D01*
X129600537Y-135520494D01*
X129659502Y-135410180D01*
X129695812Y-135290482D01*
X129708072Y-135166000D01*
X129708072Y-135074680D01*
X139864439Y-135074680D01*
X139904937Y-135338501D01*
X139996125Y-135589353D01*
X140052632Y-135695068D01*
X140288440Y-135756955D01*
X141044395Y-135001000D01*
X141403605Y-135001000D01*
X142159560Y-135756955D01*
X142395368Y-135695068D01*
X142508266Y-135453210D01*
X142571811Y-135193973D01*
X142583561Y-134927320D01*
X142543063Y-134663499D01*
X142451875Y-134412647D01*
X142395368Y-134306932D01*
X142159560Y-134245045D01*
X141403605Y-135001000D01*
X141044395Y-135001000D01*
X140288440Y-134245045D01*
X140052632Y-134306932D01*
X139939734Y-134548790D01*
X139876189Y-134808027D01*
X139864439Y-135074680D01*
X129708072Y-135074680D01*
X129708072Y-134065440D01*
X140468045Y-134065440D01*
X141224000Y-134821395D01*
X141979955Y-134065440D01*
X141918068Y-133829632D01*
X141676210Y-133716734D01*
X141416973Y-133653189D01*
X141150320Y-133641439D01*
X140886499Y-133681937D01*
X140635647Y-133773125D01*
X140529932Y-133829632D01*
X140468045Y-134065440D01*
X129708072Y-134065440D01*
X129708072Y-133566000D01*
X129695812Y-133441518D01*
X129682175Y-133396560D01*
X137928045Y-133396560D01*
X137989932Y-133632368D01*
X138231790Y-133745266D01*
X138491027Y-133808811D01*
X138757680Y-133820561D01*
X139021501Y-133780063D01*
X139272353Y-133688875D01*
X139378068Y-133632368D01*
X139439955Y-133396560D01*
X138684000Y-132640605D01*
X137928045Y-133396560D01*
X129682175Y-133396560D01*
X129659502Y-133321820D01*
X129600537Y-133211506D01*
X129521185Y-133114815D01*
X129424494Y-133035463D01*
X129314180Y-132976498D01*
X129194482Y-132940188D01*
X129070000Y-132927928D01*
X129062785Y-132927928D01*
X129083097Y-132858702D01*
X128270000Y-132045605D01*
X127456903Y-132858702D01*
X127477215Y-132927928D01*
X127470000Y-132927928D01*
X127345518Y-132940188D01*
X127225820Y-132976498D01*
X127115506Y-133035463D01*
X127018815Y-133114815D01*
X126939463Y-133211506D01*
X126880498Y-133321820D01*
X126844188Y-133441518D01*
X126831928Y-133566000D01*
X122088072Y-133566000D01*
X122075812Y-133441518D01*
X122039502Y-133321820D01*
X121980537Y-133211506D01*
X121901185Y-133114815D01*
X121804494Y-133035463D01*
X121694180Y-132976498D01*
X121574482Y-132940188D01*
X121450000Y-132927928D01*
X121442785Y-132927928D01*
X121463097Y-132858702D01*
X120650000Y-132045605D01*
X119836903Y-132858702D01*
X119857215Y-132927928D01*
X119850000Y-132927928D01*
X119725518Y-132940188D01*
X119605820Y-132976498D01*
X119495506Y-133035463D01*
X119398815Y-133114815D01*
X119319463Y-133211506D01*
X119260498Y-133321820D01*
X119224188Y-133441518D01*
X119211928Y-133566000D01*
X95017979Y-133566000D01*
X94993534Y-133543966D01*
X95074180Y-133519502D01*
X95184494Y-133460537D01*
X95281185Y-133381185D01*
X95360537Y-133284494D01*
X95419502Y-133174180D01*
X95455812Y-133054482D01*
X95468072Y-132930000D01*
X95468072Y-131230000D01*
X95455812Y-131105518D01*
X95419502Y-130985820D01*
X95360537Y-130875506D01*
X95281185Y-130778815D01*
X95184494Y-130699463D01*
X95074180Y-130640498D01*
X94954482Y-130604188D01*
X94830000Y-130591928D01*
X93130000Y-130591928D01*
X93005518Y-130604188D01*
X92885820Y-130640498D01*
X92775506Y-130699463D01*
X92678815Y-130778815D01*
X92599463Y-130875506D01*
X92540498Y-130985820D01*
X92504188Y-131105518D01*
X92491928Y-131230000D01*
X91592000Y-131230000D01*
X91592000Y-127996468D01*
X92083137Y-127996468D01*
X92341298Y-128399073D01*
X92860715Y-128674651D01*
X93423913Y-128843601D01*
X94009250Y-128899430D01*
X94594233Y-128839992D01*
X94920237Y-128740000D01*
X102955928Y-128740000D01*
X102955928Y-130340000D01*
X102968188Y-130464482D01*
X103004498Y-130584180D01*
X103063463Y-130694494D01*
X103142815Y-130791185D01*
X103239506Y-130870537D01*
X103349820Y-130929502D01*
X103469518Y-130965812D01*
X103594000Y-130978072D01*
X105194000Y-130978072D01*
X105318482Y-130965812D01*
X105438180Y-130929502D01*
X105548494Y-130870537D01*
X105645185Y-130791185D01*
X105724537Y-130694494D01*
X105738343Y-130668665D01*
X109309000Y-130668665D01*
X109309000Y-130951335D01*
X109364147Y-131228574D01*
X109472320Y-131489727D01*
X109629363Y-131724759D01*
X109829241Y-131924637D01*
X110064273Y-132081680D01*
X110325426Y-132189853D01*
X110602665Y-132245000D01*
X110885335Y-132245000D01*
X111162574Y-132189853D01*
X111423727Y-132081680D01*
X111640986Y-131936512D01*
X119209783Y-131936512D01*
X119251213Y-132216130D01*
X119346397Y-132482292D01*
X119413329Y-132607514D01*
X119657298Y-132679097D01*
X120470395Y-131866000D01*
X120829605Y-131866000D01*
X121642702Y-132679097D01*
X121886671Y-132607514D01*
X122007571Y-132352004D01*
X122076300Y-132077816D01*
X122083265Y-131936512D01*
X126829783Y-131936512D01*
X126871213Y-132216130D01*
X126966397Y-132482292D01*
X127033329Y-132607514D01*
X127277298Y-132679097D01*
X128090395Y-131866000D01*
X128449605Y-131866000D01*
X129262702Y-132679097D01*
X129506671Y-132607514D01*
X129541133Y-132534680D01*
X137324439Y-132534680D01*
X137364937Y-132798501D01*
X137456125Y-133049353D01*
X137512632Y-133155068D01*
X137748440Y-133216955D01*
X138504395Y-132461000D01*
X138863605Y-132461000D01*
X139619560Y-133216955D01*
X139855368Y-133155068D01*
X139968266Y-132913210D01*
X140031811Y-132653973D01*
X140043561Y-132387320D01*
X140003063Y-132123499D01*
X139911875Y-131872647D01*
X139855368Y-131766932D01*
X139619560Y-131705045D01*
X138863605Y-132461000D01*
X138504395Y-132461000D01*
X137748440Y-131705045D01*
X137512632Y-131766932D01*
X137399734Y-132008790D01*
X137336189Y-132268027D01*
X137324439Y-132534680D01*
X129541133Y-132534680D01*
X129627571Y-132352004D01*
X129696300Y-132077816D01*
X129710217Y-131795488D01*
X129670205Y-131525440D01*
X137928045Y-131525440D01*
X138684000Y-132281395D01*
X139439955Y-131525440D01*
X139378068Y-131289632D01*
X139136210Y-131176734D01*
X138876973Y-131113189D01*
X138610320Y-131101439D01*
X138346499Y-131141937D01*
X138095647Y-131233125D01*
X137989932Y-131289632D01*
X137928045Y-131525440D01*
X129670205Y-131525440D01*
X129668787Y-131515870D01*
X129573603Y-131249708D01*
X129506671Y-131124486D01*
X129262702Y-131052903D01*
X128449605Y-131866000D01*
X128090395Y-131866000D01*
X127277298Y-131052903D01*
X127033329Y-131124486D01*
X126912429Y-131379996D01*
X126843700Y-131654184D01*
X126829783Y-131936512D01*
X122083265Y-131936512D01*
X122090217Y-131795488D01*
X122048787Y-131515870D01*
X121953603Y-131249708D01*
X121886671Y-131124486D01*
X121642702Y-131052903D01*
X120829605Y-131866000D01*
X120470395Y-131866000D01*
X119657298Y-131052903D01*
X119413329Y-131124486D01*
X119292429Y-131379996D01*
X119223700Y-131654184D01*
X119209783Y-131936512D01*
X111640986Y-131936512D01*
X111658759Y-131924637D01*
X111858637Y-131724759D01*
X112015680Y-131489727D01*
X112123853Y-131228574D01*
X112179000Y-130951335D01*
X112179000Y-130873298D01*
X119836903Y-130873298D01*
X120650000Y-131686395D01*
X121463097Y-130873298D01*
X127456903Y-130873298D01*
X128270000Y-131686395D01*
X129083097Y-130873298D01*
X129011514Y-130629329D01*
X128756004Y-130508429D01*
X128481816Y-130439700D01*
X128199488Y-130425783D01*
X127919870Y-130467213D01*
X127653708Y-130562397D01*
X127528486Y-130629329D01*
X127456903Y-130873298D01*
X121463097Y-130873298D01*
X121391514Y-130629329D01*
X121136004Y-130508429D01*
X120861816Y-130439700D01*
X120579488Y-130425783D01*
X120299870Y-130467213D01*
X120033708Y-130562397D01*
X119908486Y-130629329D01*
X119836903Y-130873298D01*
X112179000Y-130873298D01*
X112179000Y-130668665D01*
X112123853Y-130391426D01*
X112015680Y-130130273D01*
X111858637Y-129895241D01*
X111658759Y-129695363D01*
X111423727Y-129538320D01*
X111162574Y-129430147D01*
X110885335Y-129375000D01*
X110602665Y-129375000D01*
X110325426Y-129430147D01*
X110064273Y-129538320D01*
X109829241Y-129695363D01*
X109629363Y-129895241D01*
X109472320Y-130130273D01*
X109364147Y-130391426D01*
X109309000Y-130668665D01*
X105738343Y-130668665D01*
X105783502Y-130584180D01*
X105819812Y-130464482D01*
X105832072Y-130340000D01*
X105832072Y-128740000D01*
X105819812Y-128615518D01*
X105783502Y-128495820D01*
X105724537Y-128385506D01*
X105645185Y-128288815D01*
X105622259Y-128270000D01*
X113112057Y-128270000D01*
X113139764Y-128551309D01*
X113221818Y-128821808D01*
X113355068Y-129071101D01*
X113534392Y-129289608D01*
X113752899Y-129468932D01*
X114002192Y-129602182D01*
X114272691Y-129684236D01*
X114483508Y-129705000D01*
X114624492Y-129705000D01*
X114835309Y-129684236D01*
X115105808Y-129602182D01*
X115355101Y-129468932D01*
X115573608Y-129289608D01*
X115752932Y-129071101D01*
X115886182Y-128821808D01*
X115968236Y-128551309D01*
X115995943Y-128270000D01*
X115978852Y-128096468D01*
X142083137Y-128096468D01*
X142341298Y-128499073D01*
X142860715Y-128774651D01*
X143423913Y-128943601D01*
X144009250Y-128999430D01*
X144594233Y-128939992D01*
X145156379Y-128767571D01*
X145658702Y-128499073D01*
X145916863Y-128096468D01*
X144000000Y-126179605D01*
X142083137Y-128096468D01*
X115978852Y-128096468D01*
X115968236Y-127988691D01*
X115886182Y-127718192D01*
X115752932Y-127468899D01*
X115573608Y-127250392D01*
X115355101Y-127071068D01*
X115105808Y-126937818D01*
X114835309Y-126855764D01*
X114624492Y-126835000D01*
X114483508Y-126835000D01*
X114272691Y-126855764D01*
X114002192Y-126937818D01*
X113752899Y-127071068D01*
X113534392Y-127250392D01*
X113355068Y-127468899D01*
X113221818Y-127718192D01*
X113139764Y-127988691D01*
X113112057Y-128270000D01*
X105622259Y-128270000D01*
X105548494Y-128209463D01*
X105438180Y-128150498D01*
X105318482Y-128114188D01*
X105194000Y-128101928D01*
X105186785Y-128101928D01*
X105207097Y-128032702D01*
X104394000Y-127219605D01*
X103580903Y-128032702D01*
X103601215Y-128101928D01*
X103594000Y-128101928D01*
X103469518Y-128114188D01*
X103349820Y-128150498D01*
X103239506Y-128209463D01*
X103142815Y-128288815D01*
X103063463Y-128385506D01*
X103004498Y-128495820D01*
X102968188Y-128615518D01*
X102955928Y-128740000D01*
X94920237Y-128740000D01*
X95156379Y-128667571D01*
X95658702Y-128399073D01*
X95916863Y-127996468D01*
X94000000Y-126079605D01*
X92083137Y-127996468D01*
X91592000Y-127996468D01*
X91592000Y-127617100D01*
X91903532Y-127816863D01*
X93820395Y-125900000D01*
X94179605Y-125900000D01*
X96096468Y-127816863D01*
X96499073Y-127558702D01*
X96736861Y-127110512D01*
X102953783Y-127110512D01*
X102995213Y-127390130D01*
X103090397Y-127656292D01*
X103157329Y-127781514D01*
X103401298Y-127853097D01*
X104214395Y-127040000D01*
X104573605Y-127040000D01*
X105386702Y-127853097D01*
X105630671Y-127781514D01*
X105751571Y-127526004D01*
X105820300Y-127251816D01*
X105834217Y-126969488D01*
X105809505Y-126802702D01*
X109930903Y-126802702D01*
X110002486Y-127046671D01*
X110257996Y-127167571D01*
X110532184Y-127236300D01*
X110814512Y-127250217D01*
X111094130Y-127208787D01*
X111360292Y-127113603D01*
X111485514Y-127046671D01*
X111557097Y-126802702D01*
X110744000Y-125989605D01*
X109930903Y-126802702D01*
X105809505Y-126802702D01*
X105792787Y-126689870D01*
X105697603Y-126423708D01*
X105630671Y-126298486D01*
X105386702Y-126226903D01*
X104573605Y-127040000D01*
X104214395Y-127040000D01*
X103401298Y-126226903D01*
X103157329Y-126298486D01*
X103036429Y-126553996D01*
X102967700Y-126828184D01*
X102953783Y-127110512D01*
X96736861Y-127110512D01*
X96774651Y-127039285D01*
X96943601Y-126476087D01*
X96984498Y-126047298D01*
X103580903Y-126047298D01*
X104394000Y-126860395D01*
X105207097Y-126047298D01*
X105158161Y-125880512D01*
X109303783Y-125880512D01*
X109345213Y-126160130D01*
X109440397Y-126426292D01*
X109507329Y-126551514D01*
X109751298Y-126623097D01*
X110564395Y-125810000D01*
X110923605Y-125810000D01*
X111736702Y-126623097D01*
X111980671Y-126551514D01*
X112101571Y-126296004D01*
X112170300Y-126021816D01*
X112184217Y-125739488D01*
X112142787Y-125459870D01*
X112047603Y-125193708D01*
X111980671Y-125068486D01*
X111736702Y-124996903D01*
X110923605Y-125810000D01*
X110564395Y-125810000D01*
X109751298Y-124996903D01*
X109507329Y-125068486D01*
X109386429Y-125323996D01*
X109317700Y-125598184D01*
X109303783Y-125880512D01*
X105158161Y-125880512D01*
X105135514Y-125803329D01*
X104880004Y-125682429D01*
X104605816Y-125613700D01*
X104323488Y-125599783D01*
X104043870Y-125641213D01*
X103777708Y-125736397D01*
X103652486Y-125803329D01*
X103580903Y-126047298D01*
X96984498Y-126047298D01*
X96999430Y-125890750D01*
X96939992Y-125305767D01*
X96767571Y-124743621D01*
X96499073Y-124241298D01*
X96096468Y-123983137D01*
X94179605Y-125900000D01*
X93820395Y-125900000D01*
X91903532Y-123983137D01*
X91592000Y-124182900D01*
X91592000Y-123803532D01*
X92083137Y-123803532D01*
X94000000Y-125720395D01*
X95916863Y-123803532D01*
X95658702Y-123400927D01*
X95139285Y-123125349D01*
X94576087Y-122956399D01*
X93990750Y-122900570D01*
X93405767Y-122960008D01*
X92843621Y-123132429D01*
X92341298Y-123400927D01*
X92083137Y-123803532D01*
X91592000Y-123803532D01*
X91592000Y-122670000D01*
X101960928Y-122670000D01*
X101973188Y-122794482D01*
X102009498Y-122914180D01*
X102068463Y-123024494D01*
X102147815Y-123121185D01*
X102244506Y-123200537D01*
X102354820Y-123259502D01*
X102474518Y-123295812D01*
X102599000Y-123308072D01*
X102838250Y-123305000D01*
X102997000Y-123146250D01*
X102997000Y-122047000D01*
X102122750Y-122047000D01*
X101964000Y-122205750D01*
X101960928Y-122670000D01*
X91592000Y-122670000D01*
X91592000Y-121170000D01*
X101960928Y-121170000D01*
X101964000Y-121634250D01*
X102122750Y-121793000D01*
X102997000Y-121793000D01*
X102997000Y-121638022D01*
X103234000Y-121638022D01*
X103234000Y-122201979D01*
X103250785Y-122372400D01*
X103251000Y-122373109D01*
X103251000Y-123146250D01*
X103409750Y-123305000D01*
X103649000Y-123308072D01*
X103773482Y-123295812D01*
X103893180Y-123259502D01*
X103957902Y-123224907D01*
X104166601Y-123288215D01*
X104394000Y-123310612D01*
X104621400Y-123288215D01*
X104840060Y-123221885D01*
X105029001Y-123120894D01*
X105217941Y-123221885D01*
X105436601Y-123288215D01*
X105664000Y-123310612D01*
X105891400Y-123288215D01*
X106110060Y-123221885D01*
X106311579Y-123114171D01*
X106391398Y-123048665D01*
X109309000Y-123048665D01*
X109309000Y-123331335D01*
X109364147Y-123608574D01*
X109472320Y-123869727D01*
X109629363Y-124104759D01*
X109829241Y-124304637D01*
X110064273Y-124461680D01*
X110151601Y-124497852D01*
X110127708Y-124506397D01*
X110002486Y-124573329D01*
X109930903Y-124817298D01*
X110744000Y-125630395D01*
X111557097Y-124817298D01*
X111485514Y-124573329D01*
X111330855Y-124500149D01*
X111423727Y-124461680D01*
X111658759Y-124304637D01*
X111858637Y-124104759D01*
X112015680Y-123869727D01*
X112123853Y-123608574D01*
X112179000Y-123331335D01*
X112179000Y-123048665D01*
X112123853Y-122771426D01*
X112015680Y-122510273D01*
X111858637Y-122275241D01*
X111658759Y-122075363D01*
X111423727Y-121918320D01*
X111162574Y-121810147D01*
X110885335Y-121755000D01*
X110602665Y-121755000D01*
X110325426Y-121810147D01*
X110064273Y-121918320D01*
X109829241Y-122075363D01*
X109629363Y-122275241D01*
X109472320Y-122510273D01*
X109364147Y-122771426D01*
X109309000Y-123048665D01*
X106391398Y-123048665D01*
X106488212Y-122969212D01*
X106633171Y-122792579D01*
X106740885Y-122591059D01*
X106807215Y-122372399D01*
X106824000Y-122201978D01*
X106824000Y-121638021D01*
X106807215Y-121467600D01*
X106740885Y-121248940D01*
X106633171Y-121047421D01*
X106488212Y-120870788D01*
X106311578Y-120725829D01*
X106110059Y-120618115D01*
X105891399Y-120551785D01*
X105664000Y-120529388D01*
X105436600Y-120551785D01*
X105217940Y-120618115D01*
X105029000Y-120719106D01*
X104840059Y-120618115D01*
X104621399Y-120551785D01*
X104394000Y-120529388D01*
X104166600Y-120551785D01*
X103957902Y-120615093D01*
X103893180Y-120580498D01*
X103773482Y-120544188D01*
X103649000Y-120531928D01*
X103409750Y-120535000D01*
X103251000Y-120693750D01*
X103251000Y-121466892D01*
X103250785Y-121467601D01*
X103234000Y-121638022D01*
X102997000Y-121638022D01*
X102997000Y-120693750D01*
X102838250Y-120535000D01*
X102599000Y-120531928D01*
X102474518Y-120544188D01*
X102354820Y-120580498D01*
X102244506Y-120639463D01*
X102147815Y-120718815D01*
X102068463Y-120815506D01*
X102009498Y-120925820D01*
X101973188Y-121045518D01*
X101960928Y-121170000D01*
X91592000Y-121170000D01*
X91592000Y-119736890D01*
X92538524Y-119736890D01*
X92583175Y-119884099D01*
X92708359Y-120146920D01*
X92882412Y-120380269D01*
X93098645Y-120575178D01*
X93348748Y-120724157D01*
X93623109Y-120821481D01*
X93853000Y-120700814D01*
X93853000Y-119507000D01*
X94107000Y-119507000D01*
X94107000Y-120700814D01*
X94336891Y-120821481D01*
X94611252Y-120724157D01*
X94861355Y-120575178D01*
X95077588Y-120380269D01*
X95251641Y-120146920D01*
X95376825Y-119884099D01*
X95421476Y-119736890D01*
X95300155Y-119507000D01*
X94107000Y-119507000D01*
X93853000Y-119507000D01*
X92659845Y-119507000D01*
X92538524Y-119736890D01*
X91592000Y-119736890D01*
X91592000Y-117196890D01*
X92538524Y-117196890D01*
X92583175Y-117344099D01*
X92708359Y-117606920D01*
X92882412Y-117840269D01*
X93098645Y-118035178D01*
X93224255Y-118110000D01*
X93098645Y-118184822D01*
X92882412Y-118379731D01*
X92708359Y-118613080D01*
X92583175Y-118875901D01*
X92538524Y-119023110D01*
X92659845Y-119253000D01*
X93853000Y-119253000D01*
X93853000Y-116967000D01*
X94107000Y-116967000D01*
X94107000Y-119253000D01*
X95300155Y-119253000D01*
X95337253Y-119182702D01*
X109930903Y-119182702D01*
X110002486Y-119426671D01*
X110257996Y-119547571D01*
X110532184Y-119616300D01*
X110814512Y-119630217D01*
X111094130Y-119588787D01*
X111360292Y-119493603D01*
X111485514Y-119426671D01*
X111557097Y-119182702D01*
X110744000Y-118369605D01*
X109930903Y-119182702D01*
X95337253Y-119182702D01*
X95421476Y-119023110D01*
X95376825Y-118875901D01*
X95251641Y-118613080D01*
X95077588Y-118379731D01*
X94945326Y-118260512D01*
X109303783Y-118260512D01*
X109345213Y-118540130D01*
X109440397Y-118806292D01*
X109507329Y-118931514D01*
X109751298Y-119003097D01*
X110564395Y-118190000D01*
X110923605Y-118190000D01*
X111736702Y-119003097D01*
X111980671Y-118931514D01*
X112101571Y-118676004D01*
X112170300Y-118401816D01*
X112184217Y-118119488D01*
X112142787Y-117839870D01*
X112047603Y-117573708D01*
X111980671Y-117448486D01*
X111736702Y-117376903D01*
X110923605Y-118190000D01*
X110564395Y-118190000D01*
X109751298Y-117376903D01*
X109507329Y-117448486D01*
X109386429Y-117703996D01*
X109317700Y-117978184D01*
X109303783Y-118260512D01*
X94945326Y-118260512D01*
X94861355Y-118184822D01*
X94735745Y-118110000D01*
X94861355Y-118035178D01*
X95077588Y-117840269D01*
X95251641Y-117606920D01*
X95376825Y-117344099D01*
X95421352Y-117197298D01*
X109930903Y-117197298D01*
X110744000Y-118010395D01*
X111557097Y-117197298D01*
X111485514Y-116953329D01*
X111230004Y-116832429D01*
X110955816Y-116763700D01*
X110673488Y-116749783D01*
X110393870Y-116791213D01*
X110127708Y-116886397D01*
X110002486Y-116953329D01*
X109930903Y-117197298D01*
X95421352Y-117197298D01*
X95421476Y-117196890D01*
X95300155Y-116967000D01*
X94107000Y-116967000D01*
X93853000Y-116967000D01*
X92659845Y-116967000D01*
X92538524Y-117196890D01*
X91592000Y-117196890D01*
X91592000Y-115150000D01*
X92491928Y-115150000D01*
X92504188Y-115274482D01*
X92540498Y-115394180D01*
X92599463Y-115504494D01*
X92678815Y-115601185D01*
X92775506Y-115680537D01*
X92885820Y-115739502D01*
X92966466Y-115763966D01*
X92882412Y-115839731D01*
X92708359Y-116073080D01*
X92583175Y-116335901D01*
X92538524Y-116483110D01*
X92659845Y-116713000D01*
X93853000Y-116713000D01*
X93853000Y-114427000D01*
X94107000Y-114427000D01*
X94107000Y-116713000D01*
X95300155Y-116713000D01*
X95421476Y-116483110D01*
X95376825Y-116335901D01*
X95251641Y-116073080D01*
X95077588Y-115839731D01*
X94993534Y-115763966D01*
X95074180Y-115739502D01*
X95184494Y-115680537D01*
X95281185Y-115601185D01*
X95360537Y-115504494D01*
X95419502Y-115394180D01*
X95455812Y-115274482D01*
X95468072Y-115150000D01*
X95465000Y-114585750D01*
X95306250Y-114427000D01*
X94107000Y-114427000D01*
X93853000Y-114427000D01*
X92653750Y-114427000D01*
X92495000Y-114585750D01*
X92491928Y-115150000D01*
X91592000Y-115150000D01*
X91592000Y-113450000D01*
X92491928Y-113450000D01*
X92495000Y-114014250D01*
X92653750Y-114173000D01*
X93853000Y-114173000D01*
X93853000Y-112973750D01*
X94107000Y-112973750D01*
X94107000Y-114173000D01*
X95306250Y-114173000D01*
X95465000Y-114014250D01*
X95468072Y-113450000D01*
X95455812Y-113325518D01*
X95419502Y-113205820D01*
X95360537Y-113095506D01*
X95281185Y-112998815D01*
X95184494Y-112919463D01*
X95126876Y-112888665D01*
X104229000Y-112888665D01*
X104229000Y-113171335D01*
X104284147Y-113448574D01*
X104392320Y-113709727D01*
X104549363Y-113944759D01*
X104749241Y-114144637D01*
X104984273Y-114301680D01*
X105245426Y-114409853D01*
X105522665Y-114465000D01*
X105805335Y-114465000D01*
X106082574Y-114409853D01*
X106343727Y-114301680D01*
X106578759Y-114144637D01*
X106700694Y-114022702D01*
X109850903Y-114022702D01*
X109922486Y-114266671D01*
X110177996Y-114387571D01*
X110452184Y-114456300D01*
X110734512Y-114470217D01*
X111014130Y-114428787D01*
X111280292Y-114333603D01*
X111405514Y-114266671D01*
X111477097Y-114022702D01*
X110664000Y-113209605D01*
X109850903Y-114022702D01*
X106700694Y-114022702D01*
X106778637Y-113944759D01*
X106935680Y-113709727D01*
X107043853Y-113448574D01*
X107099000Y-113171335D01*
X107099000Y-113100512D01*
X109223783Y-113100512D01*
X109265213Y-113380130D01*
X109360397Y-113646292D01*
X109427329Y-113771514D01*
X109671298Y-113843097D01*
X110484395Y-113030000D01*
X110843605Y-113030000D01*
X111656702Y-113843097D01*
X111900671Y-113771514D01*
X112021571Y-113516004D01*
X112090300Y-113241816D01*
X112104217Y-112959488D01*
X112062787Y-112679870D01*
X111967603Y-112413708D01*
X111900671Y-112288486D01*
X111656702Y-112216903D01*
X110843605Y-113030000D01*
X110484395Y-113030000D01*
X109671298Y-112216903D01*
X109427329Y-112288486D01*
X109306429Y-112543996D01*
X109237700Y-112818184D01*
X109223783Y-113100512D01*
X107099000Y-113100512D01*
X107099000Y-112888665D01*
X107043853Y-112611426D01*
X106935680Y-112350273D01*
X106778637Y-112115241D01*
X106700694Y-112037298D01*
X109850903Y-112037298D01*
X110664000Y-112850395D01*
X111477097Y-112037298D01*
X111405514Y-111793329D01*
X111150004Y-111672429D01*
X110875816Y-111603700D01*
X110593488Y-111589783D01*
X110313870Y-111631213D01*
X110047708Y-111726397D01*
X109922486Y-111793329D01*
X109850903Y-112037298D01*
X106700694Y-112037298D01*
X106578759Y-111915363D01*
X106343727Y-111758320D01*
X106082574Y-111650147D01*
X105805335Y-111595000D01*
X105522665Y-111595000D01*
X105245426Y-111650147D01*
X104984273Y-111758320D01*
X104749241Y-111915363D01*
X104549363Y-112115241D01*
X104392320Y-112350273D01*
X104284147Y-112611426D01*
X104229000Y-112888665D01*
X95126876Y-112888665D01*
X95074180Y-112860498D01*
X94954482Y-112824188D01*
X94830000Y-112811928D01*
X94265750Y-112815000D01*
X94107000Y-112973750D01*
X93853000Y-112973750D01*
X93694250Y-112815000D01*
X93130000Y-112811928D01*
X93005518Y-112824188D01*
X92885820Y-112860498D01*
X92775506Y-112919463D01*
X92678815Y-112998815D01*
X92599463Y-113095506D01*
X92540498Y-113205820D01*
X92504188Y-113325518D01*
X92491928Y-113450000D01*
X91592000Y-113450000D01*
X91592000Y-106680000D01*
X92487815Y-106680000D01*
X92516487Y-106971111D01*
X92601401Y-107251034D01*
X92739294Y-107509014D01*
X92924866Y-107735134D01*
X93150986Y-107920706D01*
X93205791Y-107950000D01*
X93150986Y-107979294D01*
X92924866Y-108164866D01*
X92739294Y-108390986D01*
X92601401Y-108648966D01*
X92516487Y-108928889D01*
X92487815Y-109220000D01*
X92516487Y-109511111D01*
X92601401Y-109791034D01*
X92739294Y-110049014D01*
X92924866Y-110275134D01*
X93150986Y-110460706D01*
X93408966Y-110598599D01*
X93688889Y-110683513D01*
X93907050Y-110705000D01*
X94052950Y-110705000D01*
X94271111Y-110683513D01*
X94551034Y-110598599D01*
X94809014Y-110460706D01*
X95035134Y-110275134D01*
X95220706Y-110049014D01*
X95358599Y-109791034D01*
X95443513Y-109511111D01*
X95472185Y-109220000D01*
X95443513Y-108928889D01*
X95358599Y-108648966D01*
X95220706Y-108390986D01*
X95035134Y-108164866D01*
X94809014Y-107979294D01*
X94754209Y-107950000D01*
X94809014Y-107920706D01*
X95035134Y-107735134D01*
X95118469Y-107633589D01*
X108089000Y-107633589D01*
X108089000Y-107906411D01*
X108142225Y-108173989D01*
X108246629Y-108426043D01*
X108398201Y-108652886D01*
X108591114Y-108845799D01*
X108817957Y-108997371D01*
X109070011Y-109101775D01*
X109337589Y-109155000D01*
X109610411Y-109155000D01*
X109877989Y-109101775D01*
X110130043Y-108997371D01*
X110356886Y-108845799D01*
X110549799Y-108652886D01*
X110701371Y-108426043D01*
X110805775Y-108173989D01*
X110859000Y-107906411D01*
X110859000Y-107633589D01*
X110805775Y-107366011D01*
X110701371Y-107113957D01*
X110549799Y-106887114D01*
X110356886Y-106694201D01*
X110130043Y-106542629D01*
X109877989Y-106438225D01*
X109610411Y-106385000D01*
X109337589Y-106385000D01*
X109070011Y-106438225D01*
X108817957Y-106542629D01*
X108591114Y-106694201D01*
X108398201Y-106887114D01*
X108246629Y-107113957D01*
X108142225Y-107366011D01*
X108089000Y-107633589D01*
X95118469Y-107633589D01*
X95220706Y-107509014D01*
X95358599Y-107251034D01*
X95443513Y-106971111D01*
X95472185Y-106680000D01*
X95443513Y-106388889D01*
X95358599Y-106108966D01*
X95220706Y-105850986D01*
X95035134Y-105624866D01*
X95005313Y-105600393D01*
X95074180Y-105579502D01*
X95184494Y-105520537D01*
X95281185Y-105441185D01*
X95360537Y-105344494D01*
X95419502Y-105234180D01*
X95455812Y-105114482D01*
X95468072Y-104990000D01*
X95468072Y-103290000D01*
X95455812Y-103165518D01*
X95419502Y-103045820D01*
X95360537Y-102935506D01*
X95281185Y-102838815D01*
X95184494Y-102759463D01*
X95136088Y-102733589D01*
X108089000Y-102733589D01*
X108089000Y-103006411D01*
X108142225Y-103273989D01*
X108246629Y-103526043D01*
X108398201Y-103752886D01*
X108591114Y-103945799D01*
X108817957Y-104097371D01*
X109070011Y-104201775D01*
X109337589Y-104255000D01*
X109610411Y-104255000D01*
X109877989Y-104201775D01*
X110130043Y-104097371D01*
X110356886Y-103945799D01*
X110549799Y-103752886D01*
X110701371Y-103526043D01*
X110805775Y-103273989D01*
X110859000Y-103006411D01*
X110859000Y-102733589D01*
X110805775Y-102466011D01*
X110701371Y-102213957D01*
X110549799Y-101987114D01*
X110356886Y-101794201D01*
X110130043Y-101642629D01*
X109877989Y-101538225D01*
X109610411Y-101485000D01*
X109337589Y-101485000D01*
X109070011Y-101538225D01*
X108817957Y-101642629D01*
X108591114Y-101794201D01*
X108398201Y-101987114D01*
X108246629Y-102213957D01*
X108142225Y-102466011D01*
X108089000Y-102733589D01*
X95136088Y-102733589D01*
X95074180Y-102700498D01*
X94954482Y-102664188D01*
X94830000Y-102651928D01*
X93130000Y-102651928D01*
X93005518Y-102664188D01*
X92885820Y-102700498D01*
X92775506Y-102759463D01*
X92678815Y-102838815D01*
X92599463Y-102935506D01*
X92540498Y-103045820D01*
X92504188Y-103165518D01*
X92491928Y-103290000D01*
X92491928Y-104990000D01*
X92504188Y-105114482D01*
X92540498Y-105234180D01*
X92599463Y-105344494D01*
X92678815Y-105441185D01*
X92775506Y-105520537D01*
X92885820Y-105579502D01*
X92954687Y-105600393D01*
X92924866Y-105624866D01*
X92739294Y-105850986D01*
X92601401Y-106108966D01*
X92516487Y-106388889D01*
X92487815Y-106680000D01*
X91592000Y-106680000D01*
X91592000Y-83820000D01*
X92487815Y-83820000D01*
X92516487Y-84111111D01*
X92601401Y-84391034D01*
X92739294Y-84649014D01*
X92924866Y-84875134D01*
X93150986Y-85060706D01*
X93205791Y-85090000D01*
X93150986Y-85119294D01*
X92924866Y-85304866D01*
X92739294Y-85530986D01*
X92601401Y-85788966D01*
X92516487Y-86068889D01*
X92487815Y-86360000D01*
X92516487Y-86651111D01*
X92601401Y-86931034D01*
X92739294Y-87189014D01*
X92924866Y-87415134D01*
X93150986Y-87600706D01*
X93205791Y-87630000D01*
X93150986Y-87659294D01*
X92924866Y-87844866D01*
X92739294Y-88070986D01*
X92601401Y-88328966D01*
X92516487Y-88608889D01*
X92487815Y-88900000D01*
X92516487Y-89191111D01*
X92601401Y-89471034D01*
X92739294Y-89729014D01*
X92924866Y-89955134D01*
X93150986Y-90140706D01*
X93205791Y-90170000D01*
X93150986Y-90199294D01*
X92924866Y-90384866D01*
X92739294Y-90610986D01*
X92601401Y-90868966D01*
X92516487Y-91148889D01*
X92487815Y-91440000D01*
X92516487Y-91731111D01*
X92601401Y-92011034D01*
X92739294Y-92269014D01*
X92924866Y-92495134D01*
X93150986Y-92680706D01*
X93205791Y-92710000D01*
X93150986Y-92739294D01*
X92924866Y-92924866D01*
X92739294Y-93150986D01*
X92601401Y-93408966D01*
X92516487Y-93688889D01*
X92487815Y-93980000D01*
X92516487Y-94271111D01*
X92601401Y-94551034D01*
X92739294Y-94809014D01*
X92924866Y-95035134D01*
X93150986Y-95220706D01*
X93205791Y-95250000D01*
X93150986Y-95279294D01*
X92924866Y-95464866D01*
X92739294Y-95690986D01*
X92601401Y-95948966D01*
X92516487Y-96228889D01*
X92487815Y-96520000D01*
X92516487Y-96811111D01*
X92601401Y-97091034D01*
X92739294Y-97349014D01*
X92924866Y-97575134D01*
X93150986Y-97760706D01*
X93205791Y-97790000D01*
X93150986Y-97819294D01*
X92924866Y-98004866D01*
X92739294Y-98230986D01*
X92601401Y-98488966D01*
X92516487Y-98768889D01*
X92487815Y-99060000D01*
X92516487Y-99351111D01*
X92601401Y-99631034D01*
X92739294Y-99889014D01*
X92924866Y-100115134D01*
X93150986Y-100300706D01*
X93408966Y-100438599D01*
X93688889Y-100523513D01*
X93907050Y-100545000D01*
X94052950Y-100545000D01*
X94271111Y-100523513D01*
X94551034Y-100438599D01*
X94809014Y-100300706D01*
X95035134Y-100115134D01*
X95220706Y-99889014D01*
X95358599Y-99631034D01*
X95443513Y-99351111D01*
X95472185Y-99060000D01*
X95443513Y-98768889D01*
X95358599Y-98488966D01*
X95220706Y-98230986D01*
X95035134Y-98004866D01*
X94809014Y-97819294D01*
X94754209Y-97790000D01*
X94809014Y-97760706D01*
X94945536Y-97648665D01*
X104229000Y-97648665D01*
X104229000Y-97931335D01*
X104284147Y-98208574D01*
X104392320Y-98469727D01*
X104549363Y-98704759D01*
X104749241Y-98904637D01*
X104984273Y-99061680D01*
X105245426Y-99169853D01*
X105522665Y-99225000D01*
X105805335Y-99225000D01*
X106082574Y-99169853D01*
X106343727Y-99061680D01*
X106578759Y-98904637D01*
X106700694Y-98782702D01*
X109850903Y-98782702D01*
X109922486Y-99026671D01*
X110177996Y-99147571D01*
X110452184Y-99216300D01*
X110734512Y-99230217D01*
X111014130Y-99188787D01*
X111280292Y-99093603D01*
X111405514Y-99026671D01*
X111477097Y-98782702D01*
X110664000Y-97969605D01*
X109850903Y-98782702D01*
X106700694Y-98782702D01*
X106778637Y-98704759D01*
X106935680Y-98469727D01*
X107043853Y-98208574D01*
X107099000Y-97931335D01*
X107099000Y-97860512D01*
X109223783Y-97860512D01*
X109265213Y-98140130D01*
X109360397Y-98406292D01*
X109427329Y-98531514D01*
X109671298Y-98603097D01*
X110484395Y-97790000D01*
X110843605Y-97790000D01*
X111656702Y-98603097D01*
X111900671Y-98531514D01*
X112021571Y-98276004D01*
X112090300Y-98001816D01*
X112104217Y-97719488D01*
X112062787Y-97439870D01*
X111967603Y-97173708D01*
X111900671Y-97048486D01*
X111656702Y-96976903D01*
X110843605Y-97790000D01*
X110484395Y-97790000D01*
X109671298Y-96976903D01*
X109427329Y-97048486D01*
X109306429Y-97303996D01*
X109237700Y-97578184D01*
X109223783Y-97860512D01*
X107099000Y-97860512D01*
X107099000Y-97648665D01*
X107043853Y-97371426D01*
X106935680Y-97110273D01*
X106778637Y-96875241D01*
X106700694Y-96797298D01*
X109850903Y-96797298D01*
X110664000Y-97610395D01*
X111477097Y-96797298D01*
X111405514Y-96553329D01*
X111150004Y-96432429D01*
X110875816Y-96363700D01*
X110593488Y-96349783D01*
X110313870Y-96391213D01*
X110047708Y-96486397D01*
X109922486Y-96553329D01*
X109850903Y-96797298D01*
X106700694Y-96797298D01*
X106578759Y-96675363D01*
X106343727Y-96518320D01*
X106082574Y-96410147D01*
X105805335Y-96355000D01*
X105522665Y-96355000D01*
X105245426Y-96410147D01*
X104984273Y-96518320D01*
X104749241Y-96675363D01*
X104549363Y-96875241D01*
X104392320Y-97110273D01*
X104284147Y-97371426D01*
X104229000Y-97648665D01*
X94945536Y-97648665D01*
X95035134Y-97575134D01*
X95220706Y-97349014D01*
X95358599Y-97091034D01*
X95443513Y-96811111D01*
X95472185Y-96520000D01*
X95443513Y-96228889D01*
X95358599Y-95948966D01*
X95220706Y-95690986D01*
X95035134Y-95464866D01*
X94809014Y-95279294D01*
X94754209Y-95250000D01*
X94809014Y-95220706D01*
X95035134Y-95035134D01*
X95220706Y-94809014D01*
X95358599Y-94551034D01*
X95443513Y-94271111D01*
X95472185Y-93980000D01*
X95443513Y-93688889D01*
X95358599Y-93408966D01*
X95220706Y-93150986D01*
X95035134Y-92924866D01*
X94809014Y-92739294D01*
X94754209Y-92710000D01*
X94809014Y-92680706D01*
X95035134Y-92495134D01*
X95220706Y-92269014D01*
X95358599Y-92011034D01*
X95443513Y-91731111D01*
X95472185Y-91440000D01*
X95443513Y-91148889D01*
X95358599Y-90868966D01*
X95220706Y-90610986D01*
X95035134Y-90384866D01*
X94809014Y-90199294D01*
X94754209Y-90170000D01*
X94809014Y-90140706D01*
X95035134Y-89955134D01*
X95220706Y-89729014D01*
X95358599Y-89471034D01*
X95363337Y-89455413D01*
X102041192Y-89455413D01*
X102136956Y-89719814D01*
X102426571Y-89860704D01*
X102738108Y-89942384D01*
X103059595Y-89961718D01*
X103378675Y-89917961D01*
X103683088Y-89812795D01*
X103857044Y-89719814D01*
X103952808Y-89455413D01*
X108541192Y-89455413D01*
X108636956Y-89719814D01*
X108926571Y-89860704D01*
X109238108Y-89942384D01*
X109559595Y-89961718D01*
X109878675Y-89917961D01*
X110183088Y-89812795D01*
X110357044Y-89719814D01*
X110452808Y-89455413D01*
X109497000Y-88499605D01*
X108541192Y-89455413D01*
X103952808Y-89455413D01*
X102997000Y-88499605D01*
X102041192Y-89455413D01*
X95363337Y-89455413D01*
X95443513Y-89191111D01*
X95472185Y-88900000D01*
X95443513Y-88608889D01*
X95374868Y-88382595D01*
X101355282Y-88382595D01*
X101399039Y-88701675D01*
X101504205Y-89006088D01*
X101597186Y-89180044D01*
X101861587Y-89275808D01*
X102817395Y-88320000D01*
X103176605Y-88320000D01*
X104132413Y-89275808D01*
X104396814Y-89180044D01*
X104537704Y-88890429D01*
X104619384Y-88578892D01*
X104631189Y-88382595D01*
X107855282Y-88382595D01*
X107899039Y-88701675D01*
X108004205Y-89006088D01*
X108097186Y-89180044D01*
X108361587Y-89275808D01*
X109317395Y-88320000D01*
X109676605Y-88320000D01*
X110632413Y-89275808D01*
X110896814Y-89180044D01*
X111037704Y-88890429D01*
X111119384Y-88578892D01*
X111138718Y-88257405D01*
X111094961Y-87938325D01*
X110989795Y-87633912D01*
X110896814Y-87459956D01*
X110632413Y-87364192D01*
X109676605Y-88320000D01*
X109317395Y-88320000D01*
X108361587Y-87364192D01*
X108097186Y-87459956D01*
X107956296Y-87749571D01*
X107874616Y-88061108D01*
X107855282Y-88382595D01*
X104631189Y-88382595D01*
X104638718Y-88257405D01*
X104594961Y-87938325D01*
X104489795Y-87633912D01*
X104396814Y-87459956D01*
X104132413Y-87364192D01*
X103176605Y-88320000D01*
X102817395Y-88320000D01*
X101861587Y-87364192D01*
X101597186Y-87459956D01*
X101456296Y-87749571D01*
X101374616Y-88061108D01*
X101355282Y-88382595D01*
X95374868Y-88382595D01*
X95358599Y-88328966D01*
X95220706Y-88070986D01*
X95035134Y-87844866D01*
X94809014Y-87659294D01*
X94754209Y-87630000D01*
X94809014Y-87600706D01*
X95035134Y-87415134D01*
X95220706Y-87189014D01*
X95223072Y-87184587D01*
X102041192Y-87184587D01*
X102997000Y-88140395D01*
X103952808Y-87184587D01*
X108541192Y-87184587D01*
X109497000Y-88140395D01*
X110452808Y-87184587D01*
X110357044Y-86920186D01*
X110067429Y-86779296D01*
X109755892Y-86697616D01*
X109434405Y-86678282D01*
X109115325Y-86722039D01*
X108810912Y-86827205D01*
X108636956Y-86920186D01*
X108541192Y-87184587D01*
X103952808Y-87184587D01*
X103857044Y-86920186D01*
X103567429Y-86779296D01*
X103255892Y-86697616D01*
X102934405Y-86678282D01*
X102615325Y-86722039D01*
X102310912Y-86827205D01*
X102136956Y-86920186D01*
X102041192Y-87184587D01*
X95223072Y-87184587D01*
X95358599Y-86931034D01*
X95443513Y-86651111D01*
X95472185Y-86360000D01*
X112954846Y-86360000D01*
X112982553Y-86641309D01*
X113064607Y-86911808D01*
X113197857Y-87161101D01*
X113377181Y-87379608D01*
X113595688Y-87558932D01*
X113728647Y-87630000D01*
X113595688Y-87701068D01*
X113377181Y-87880392D01*
X113197857Y-88098899D01*
X113064607Y-88348192D01*
X112982553Y-88618691D01*
X112954846Y-88900000D01*
X112982553Y-89181309D01*
X113064607Y-89451808D01*
X113197857Y-89701101D01*
X113377181Y-89919608D01*
X113595688Y-90098932D01*
X113728647Y-90170000D01*
X113595688Y-90241068D01*
X113377181Y-90420392D01*
X113197857Y-90638899D01*
X113064607Y-90888192D01*
X112982553Y-91158691D01*
X112954846Y-91440000D01*
X112982553Y-91721309D01*
X113064607Y-91991808D01*
X113197857Y-92241101D01*
X113377181Y-92459608D01*
X113595688Y-92638932D01*
X113728647Y-92710000D01*
X113595688Y-92781068D01*
X113377181Y-92960392D01*
X113197857Y-93178899D01*
X113064607Y-93428192D01*
X112982553Y-93698691D01*
X112954846Y-93980000D01*
X112982553Y-94261309D01*
X113064607Y-94531808D01*
X113197857Y-94781101D01*
X113377181Y-94999608D01*
X113595688Y-95178932D01*
X113728647Y-95250000D01*
X113595688Y-95321068D01*
X113377181Y-95500392D01*
X113197857Y-95718899D01*
X113064607Y-95968192D01*
X112982553Y-96238691D01*
X112954846Y-96520000D01*
X112982553Y-96801309D01*
X113064607Y-97071808D01*
X113197857Y-97321101D01*
X113377181Y-97539608D01*
X113595688Y-97718932D01*
X113728647Y-97790000D01*
X113595688Y-97861068D01*
X113377181Y-98040392D01*
X113197857Y-98258899D01*
X113064607Y-98508192D01*
X112982553Y-98778691D01*
X112954846Y-99060000D01*
X112982553Y-99341309D01*
X113064607Y-99611808D01*
X113197857Y-99861101D01*
X113377181Y-100079608D01*
X113595688Y-100258932D01*
X113733471Y-100332579D01*
X113541658Y-100447615D01*
X113333270Y-100636586D01*
X113165752Y-100862580D01*
X113045543Y-101116913D01*
X113004885Y-101250961D01*
X113126874Y-101473000D01*
X114269789Y-101473000D01*
X114269789Y-101453000D01*
X114523789Y-101453000D01*
X114523789Y-101473000D01*
X115666704Y-101473000D01*
X115788693Y-101250961D01*
X115748035Y-101116913D01*
X115627826Y-100862580D01*
X115460308Y-100636586D01*
X115251920Y-100447615D01*
X115060107Y-100332579D01*
X115197890Y-100258932D01*
X115416397Y-100079608D01*
X115588418Y-99870000D01*
X116800212Y-99870000D01*
X116840000Y-99873919D01*
X116879788Y-99870000D01*
X116879791Y-99870000D01*
X116998788Y-99858280D01*
X117151473Y-99811963D01*
X117292189Y-99736749D01*
X117415528Y-99635528D01*
X117440899Y-99604613D01*
X118745455Y-98300058D01*
X118832812Y-98371750D01*
X118973528Y-98446964D01*
X119126213Y-98493281D01*
X119245210Y-98505001D01*
X119245213Y-98505001D01*
X119285001Y-98508920D01*
X119324789Y-98505001D01*
X120699532Y-98505001D01*
X120665543Y-98576913D01*
X120624885Y-98710961D01*
X120746874Y-98933000D01*
X121889789Y-98933000D01*
X121889789Y-98913000D01*
X122143789Y-98913000D01*
X122143789Y-98933000D01*
X122163789Y-98933000D01*
X122163789Y-99187000D01*
X122143789Y-99187000D01*
X122143789Y-99207000D01*
X121889789Y-99207000D01*
X121889789Y-99187000D01*
X120746874Y-99187000D01*
X120624885Y-99409039D01*
X120665543Y-99543087D01*
X120746796Y-99714999D01*
X120542326Y-99714999D01*
X120505001Y-99711323D01*
X120467676Y-99714999D01*
X120467668Y-99714999D01*
X120356015Y-99725996D01*
X120212754Y-99769453D01*
X120080725Y-99840025D01*
X119965000Y-99934998D01*
X119941202Y-99963996D01*
X118869002Y-101036196D01*
X118839999Y-101059999D01*
X118798987Y-101109973D01*
X118745026Y-101175724D01*
X118719221Y-101224002D01*
X118674454Y-101307754D01*
X118630997Y-101451015D01*
X118620000Y-101562668D01*
X118620000Y-101562678D01*
X118616324Y-101600000D01*
X118620000Y-101637322D01*
X118620000Y-105226199D01*
X117022804Y-103629003D01*
X116999001Y-103599999D01*
X116883276Y-103505026D01*
X116751247Y-103434454D01*
X116607986Y-103390997D01*
X116496333Y-103380000D01*
X116496322Y-103380000D01*
X116459000Y-103376324D01*
X116421678Y-103380000D01*
X115617690Y-103380000D01*
X115595721Y-103338899D01*
X115416397Y-103120392D01*
X115197890Y-102941068D01*
X115060107Y-102867421D01*
X115251920Y-102752385D01*
X115460308Y-102563414D01*
X115627826Y-102337420D01*
X115748035Y-102083087D01*
X115788693Y-101949039D01*
X115666704Y-101727000D01*
X114523789Y-101727000D01*
X114523789Y-101747000D01*
X114269789Y-101747000D01*
X114269789Y-101727000D01*
X113126874Y-101727000D01*
X113004885Y-101949039D01*
X113045543Y-102083087D01*
X113165752Y-102337420D01*
X113333270Y-102563414D01*
X113541658Y-102752385D01*
X113733471Y-102867421D01*
X113595688Y-102941068D01*
X113377181Y-103120392D01*
X113197857Y-103338899D01*
X113064607Y-103588192D01*
X112982553Y-103858691D01*
X112954846Y-104140000D01*
X112982553Y-104421309D01*
X113064607Y-104691808D01*
X113197857Y-104941101D01*
X113377181Y-105159608D01*
X113595688Y-105338932D01*
X113728647Y-105410000D01*
X113595688Y-105481068D01*
X113377181Y-105660392D01*
X113197857Y-105878899D01*
X113064607Y-106128192D01*
X112982553Y-106398691D01*
X112954846Y-106680000D01*
X112982553Y-106961309D01*
X113064607Y-107231808D01*
X113197857Y-107481101D01*
X113377181Y-107699608D01*
X113595688Y-107878932D01*
X113728647Y-107950000D01*
X113595688Y-108021068D01*
X113377181Y-108200392D01*
X113197857Y-108418899D01*
X113064607Y-108668192D01*
X112982553Y-108938691D01*
X112954846Y-109220000D01*
X112982553Y-109501309D01*
X113064607Y-109771808D01*
X113197857Y-110021101D01*
X113377181Y-110239608D01*
X113595688Y-110418932D01*
X113728647Y-110490000D01*
X113595688Y-110561068D01*
X113377181Y-110740392D01*
X113197857Y-110958899D01*
X113064607Y-111208192D01*
X112982553Y-111478691D01*
X112954846Y-111760000D01*
X112982553Y-112041309D01*
X113064607Y-112311808D01*
X113197857Y-112561101D01*
X113377181Y-112779608D01*
X113595688Y-112958932D01*
X113728647Y-113030000D01*
X113595688Y-113101068D01*
X113377181Y-113280392D01*
X113197857Y-113498899D01*
X113064607Y-113748192D01*
X112982553Y-114018691D01*
X112954846Y-114300000D01*
X112982553Y-114581309D01*
X113064607Y-114851808D01*
X113197857Y-115101101D01*
X113377181Y-115319608D01*
X113595688Y-115498932D01*
X113728647Y-115570000D01*
X113595688Y-115641068D01*
X113377181Y-115820392D01*
X113197857Y-116038899D01*
X113064607Y-116288192D01*
X112982553Y-116558691D01*
X112954846Y-116840000D01*
X112982553Y-117121309D01*
X113064607Y-117391808D01*
X113197857Y-117641101D01*
X113377181Y-117859608D01*
X113595688Y-118038932D01*
X113844981Y-118172182D01*
X114115480Y-118254236D01*
X114326297Y-118275000D01*
X114467281Y-118275000D01*
X114678098Y-118254236D01*
X114948597Y-118172182D01*
X115197890Y-118038932D01*
X115416397Y-117859608D01*
X115595721Y-117641101D01*
X115728971Y-117391808D01*
X115811025Y-117121309D01*
X115838732Y-116840000D01*
X115811025Y-116558691D01*
X115728971Y-116288192D01*
X115595721Y-116038899D01*
X115416397Y-115820392D01*
X115197890Y-115641068D01*
X115064931Y-115570000D01*
X115197890Y-115498932D01*
X115416397Y-115319608D01*
X115595721Y-115101101D01*
X115728971Y-114851808D01*
X115811025Y-114581309D01*
X115838732Y-114300000D01*
X115811025Y-114018691D01*
X115728971Y-113748192D01*
X115595721Y-113498899D01*
X115416397Y-113280392D01*
X115197890Y-113101068D01*
X115064931Y-113030000D01*
X115197890Y-112958932D01*
X115416397Y-112779608D01*
X115595721Y-112561101D01*
X115728971Y-112311808D01*
X115811025Y-112041309D01*
X115838732Y-111760000D01*
X115811025Y-111478691D01*
X115728971Y-111208192D01*
X115595721Y-110958899D01*
X115416397Y-110740392D01*
X115197890Y-110561068D01*
X115064931Y-110490000D01*
X115197890Y-110418932D01*
X115416397Y-110239608D01*
X115595721Y-110021101D01*
X115728971Y-109771808D01*
X115811025Y-109501309D01*
X115838732Y-109220000D01*
X115811025Y-108938691D01*
X115728971Y-108668192D01*
X115595721Y-108418899D01*
X115416397Y-108200392D01*
X115197890Y-108021068D01*
X115064931Y-107950000D01*
X115197890Y-107878932D01*
X115416397Y-107699608D01*
X115595721Y-107481101D01*
X115617690Y-107440000D01*
X117160199Y-107440000D01*
X117350001Y-107629803D01*
X117350000Y-123152678D01*
X117346324Y-123190000D01*
X117350000Y-123227322D01*
X117350000Y-123227332D01*
X117360997Y-123338985D01*
X117372428Y-123376667D01*
X117404454Y-123482246D01*
X117475026Y-123614276D01*
X117514871Y-123662826D01*
X117569999Y-123730001D01*
X117599003Y-123753804D01*
X121356201Y-127511003D01*
X121379999Y-127540001D01*
X121495724Y-127634974D01*
X121627753Y-127705546D01*
X121771014Y-127749003D01*
X121882667Y-127760000D01*
X121882675Y-127760000D01*
X121920000Y-127763676D01*
X121957325Y-127760000D01*
X136487678Y-127760000D01*
X136525000Y-127763676D01*
X136562322Y-127760000D01*
X136562333Y-127760000D01*
X136673986Y-127749003D01*
X136817247Y-127705546D01*
X136949276Y-127634974D01*
X137065001Y-127540001D01*
X137088804Y-127510997D01*
X138590551Y-126009250D01*
X141000570Y-126009250D01*
X141060008Y-126594233D01*
X141232429Y-127156379D01*
X141500927Y-127658702D01*
X141903532Y-127916863D01*
X143820395Y-126000000D01*
X141903532Y-124083137D01*
X141500927Y-124341298D01*
X141225349Y-124860715D01*
X141056399Y-125423913D01*
X141000570Y-126009250D01*
X138590551Y-126009250D01*
X138941003Y-125658799D01*
X138970001Y-125635001D01*
X139064974Y-125519276D01*
X139135546Y-125387247D01*
X139179003Y-125243986D01*
X139190000Y-125132333D01*
X139190000Y-125132323D01*
X139193676Y-125095000D01*
X139190000Y-125057677D01*
X139190000Y-123903532D01*
X142083137Y-123903532D01*
X144000000Y-125820395D01*
X145916863Y-123903532D01*
X145658702Y-123500927D01*
X145139285Y-123225349D01*
X144576087Y-123056399D01*
X143990750Y-123000570D01*
X143405767Y-123060008D01*
X142843621Y-123232429D01*
X142341298Y-123500927D01*
X142083137Y-123903532D01*
X139190000Y-123903532D01*
X139190000Y-122234801D01*
X140014802Y-121410000D01*
X142232405Y-121410000D01*
X142269294Y-121479014D01*
X142454866Y-121705134D01*
X142680986Y-121890706D01*
X142938966Y-122028599D01*
X143218889Y-122113513D01*
X143437050Y-122135000D01*
X143582950Y-122135000D01*
X143801111Y-122113513D01*
X144081034Y-122028599D01*
X144339014Y-121890706D01*
X144565134Y-121705134D01*
X144750706Y-121479014D01*
X144888599Y-121221034D01*
X144973513Y-120941111D01*
X145002185Y-120650000D01*
X144973513Y-120358889D01*
X144888599Y-120078966D01*
X144750706Y-119820986D01*
X144565134Y-119594866D01*
X144339014Y-119409294D01*
X144284209Y-119380000D01*
X144339014Y-119350706D01*
X144565134Y-119165134D01*
X144750706Y-118939014D01*
X144888599Y-118681034D01*
X144973513Y-118401111D01*
X145002185Y-118110000D01*
X144973513Y-117818889D01*
X144888599Y-117538966D01*
X144750706Y-117280986D01*
X144565134Y-117054866D01*
X144339014Y-116869294D01*
X144284209Y-116840000D01*
X144339014Y-116810706D01*
X144565134Y-116625134D01*
X144750706Y-116399014D01*
X144888599Y-116141034D01*
X144973513Y-115861111D01*
X145002185Y-115570000D01*
X144973513Y-115278889D01*
X144888599Y-114998966D01*
X144750706Y-114740986D01*
X144565134Y-114514866D01*
X144339014Y-114329294D01*
X144274477Y-114294799D01*
X144391355Y-114225178D01*
X144607588Y-114030269D01*
X144781641Y-113796920D01*
X144906825Y-113534099D01*
X144951476Y-113386890D01*
X144830155Y-113157000D01*
X143637000Y-113157000D01*
X143637000Y-113177000D01*
X143383000Y-113177000D01*
X143383000Y-113157000D01*
X142189845Y-113157000D01*
X142068524Y-113386890D01*
X142113175Y-113534099D01*
X142238359Y-113796920D01*
X142412412Y-114030269D01*
X142628645Y-114225178D01*
X142745523Y-114294799D01*
X142680986Y-114329294D01*
X142454866Y-114514866D01*
X142269294Y-114740986D01*
X142131401Y-114998966D01*
X142046487Y-115278889D01*
X142017815Y-115570000D01*
X142046487Y-115861111D01*
X142131401Y-116141034D01*
X142269294Y-116399014D01*
X142454866Y-116625134D01*
X142680986Y-116810706D01*
X142735791Y-116840000D01*
X142680986Y-116869294D01*
X142454866Y-117054866D01*
X142269294Y-117280986D01*
X142232405Y-117350000D01*
X139483325Y-117350000D01*
X139446000Y-117346324D01*
X139408675Y-117350000D01*
X139408667Y-117350000D01*
X139297014Y-117360997D01*
X139153753Y-117404454D01*
X139021724Y-117475026D01*
X138905999Y-117569999D01*
X138882201Y-117598997D01*
X137157003Y-119324196D01*
X137127999Y-119347999D01*
X137077696Y-119409294D01*
X137033026Y-119463724D01*
X136988209Y-119547571D01*
X136962454Y-119595754D01*
X136918997Y-119739015D01*
X136908000Y-119850668D01*
X136908000Y-119850678D01*
X136904324Y-119888000D01*
X136908000Y-119925323D01*
X136908001Y-124018197D01*
X135702199Y-125224000D01*
X122615802Y-125224000D01*
X119689990Y-122298189D01*
X119689990Y-114160792D01*
X120340205Y-114811008D01*
X120363999Y-114840001D01*
X120392992Y-114863795D01*
X120392996Y-114863799D01*
X120440762Y-114902999D01*
X120479724Y-114934974D01*
X120611753Y-115005546D01*
X120755014Y-115049003D01*
X120791955Y-115052641D01*
X120817857Y-115101101D01*
X120997181Y-115319608D01*
X121215688Y-115498932D01*
X121348647Y-115570000D01*
X121215688Y-115641068D01*
X120997181Y-115820392D01*
X120817857Y-116038899D01*
X120684607Y-116288192D01*
X120602553Y-116558691D01*
X120574846Y-116840000D01*
X120602553Y-117121309D01*
X120684607Y-117391808D01*
X120817857Y-117641101D01*
X120997181Y-117859608D01*
X121215688Y-118038932D01*
X121464981Y-118172182D01*
X121735480Y-118254236D01*
X121946297Y-118275000D01*
X122087281Y-118275000D01*
X122298098Y-118254236D01*
X122568597Y-118172182D01*
X122817890Y-118038932D01*
X123036397Y-117859608D01*
X123215721Y-117641101D01*
X123348971Y-117391808D01*
X123431025Y-117121309D01*
X123458732Y-116840000D01*
X123431025Y-116558691D01*
X123348971Y-116288192D01*
X123215721Y-116038899D01*
X123036397Y-115820392D01*
X122817890Y-115641068D01*
X122684931Y-115570000D01*
X122817890Y-115498932D01*
X123036397Y-115319608D01*
X123215721Y-115101101D01*
X123348971Y-114851808D01*
X123431025Y-114581309D01*
X123458732Y-114300000D01*
X123431025Y-114018691D01*
X123348971Y-113748192D01*
X123215721Y-113498899D01*
X123036397Y-113280392D01*
X122817890Y-113101068D01*
X122684931Y-113030000D01*
X122817890Y-112958932D01*
X123036397Y-112779608D01*
X123215721Y-112561101D01*
X123348971Y-112311808D01*
X123431025Y-112041309D01*
X123458732Y-111760000D01*
X123431025Y-111478691D01*
X123348971Y-111208192D01*
X123215721Y-110958899D01*
X123036397Y-110740392D01*
X122817890Y-110561068D01*
X122684931Y-110490000D01*
X122817890Y-110418932D01*
X123036397Y-110239608D01*
X123215721Y-110021101D01*
X123237690Y-109980000D01*
X124653199Y-109980000D01*
X125224000Y-110550802D01*
X125224001Y-111214658D01*
X125220323Y-111252000D01*
X125224000Y-111289333D01*
X125224001Y-121882667D01*
X125220324Y-121920000D01*
X125224001Y-121957333D01*
X125234998Y-122068986D01*
X125241820Y-122091476D01*
X125278454Y-122212246D01*
X125349026Y-122344276D01*
X125416362Y-122426324D01*
X125444000Y-122460001D01*
X125472998Y-122483799D01*
X126690200Y-123701002D01*
X126713999Y-123730001D01*
X126829724Y-123824974D01*
X126961753Y-123895546D01*
X127105014Y-123939003D01*
X127216667Y-123950000D01*
X127216676Y-123950000D01*
X127253999Y-123953676D01*
X127291322Y-123950000D01*
X127924928Y-123950000D01*
X127924928Y-124040000D01*
X127937188Y-124164482D01*
X127973498Y-124284180D01*
X128032463Y-124394494D01*
X128111815Y-124491185D01*
X128208506Y-124570537D01*
X128318820Y-124629502D01*
X128438518Y-124665812D01*
X128563000Y-124678072D01*
X130263000Y-124678072D01*
X130387482Y-124665812D01*
X130507180Y-124629502D01*
X130617494Y-124570537D01*
X130714185Y-124491185D01*
X130793537Y-124394494D01*
X130852502Y-124284180D01*
X130873393Y-124215313D01*
X130897866Y-124245134D01*
X131123986Y-124430706D01*
X131381966Y-124568599D01*
X131661889Y-124653513D01*
X131880050Y-124675000D01*
X132025950Y-124675000D01*
X132244111Y-124653513D01*
X132524034Y-124568599D01*
X132782014Y-124430706D01*
X133008134Y-124245134D01*
X133193706Y-124019014D01*
X133223000Y-123964209D01*
X133252294Y-124019014D01*
X133437866Y-124245134D01*
X133663986Y-124430706D01*
X133921966Y-124568599D01*
X134201889Y-124653513D01*
X134420050Y-124675000D01*
X134565950Y-124675000D01*
X134784111Y-124653513D01*
X135064034Y-124568599D01*
X135322014Y-124430706D01*
X135548134Y-124245134D01*
X135733706Y-124019014D01*
X135871599Y-123761034D01*
X135956513Y-123481111D01*
X135985185Y-123190000D01*
X135956513Y-122898889D01*
X135871599Y-122618966D01*
X135733706Y-122360986D01*
X135548134Y-122134866D01*
X135322014Y-121949294D01*
X135264244Y-121918416D01*
X135493269Y-121747588D01*
X135688178Y-121531355D01*
X135837157Y-121281252D01*
X135934481Y-121006891D01*
X135813814Y-120777000D01*
X134620000Y-120777000D01*
X134620000Y-120797000D01*
X134366000Y-120797000D01*
X134366000Y-120777000D01*
X134346000Y-120777000D01*
X134346000Y-120523000D01*
X134366000Y-120523000D01*
X134366000Y-119329845D01*
X134620000Y-119329845D01*
X134620000Y-120523000D01*
X135813814Y-120523000D01*
X135934481Y-120293109D01*
X135837157Y-120018748D01*
X135688178Y-119768645D01*
X135493269Y-119552412D01*
X135259920Y-119378359D01*
X134997099Y-119253175D01*
X134849890Y-119208524D01*
X134620000Y-119329845D01*
X134366000Y-119329845D01*
X134136110Y-119208524D01*
X133988901Y-119253175D01*
X133726080Y-119378359D01*
X133492731Y-119552412D01*
X133297822Y-119768645D01*
X133228201Y-119885523D01*
X133193706Y-119820986D01*
X133008134Y-119594866D01*
X132782014Y-119409294D01*
X132713000Y-119372405D01*
X132713000Y-115757801D01*
X133643802Y-114827000D01*
X133705939Y-114827000D01*
X133905898Y-114787226D01*
X134094256Y-114709205D01*
X134263774Y-114595937D01*
X134407937Y-114451774D01*
X134521205Y-114282256D01*
X134599226Y-114093898D01*
X134639000Y-113893939D01*
X134639000Y-113690061D01*
X134599226Y-113490102D01*
X134521205Y-113301744D01*
X134508269Y-113282384D01*
X134640121Y-113194284D01*
X134784284Y-113050121D01*
X134897552Y-112880603D01*
X134975573Y-112692245D01*
X135015347Y-112492286D01*
X135015347Y-112288408D01*
X134975573Y-112088449D01*
X134943907Y-112012000D01*
X138968597Y-112012000D01*
X139005919Y-112015676D01*
X139043241Y-112012000D01*
X139043252Y-112012000D01*
X139154905Y-112001003D01*
X139298166Y-111957546D01*
X139430195Y-111886974D01*
X139545920Y-111792001D01*
X139569723Y-111762997D01*
X142397494Y-108935226D01*
X142454866Y-109005134D01*
X142680986Y-109190706D01*
X142735791Y-109220000D01*
X142680986Y-109249294D01*
X142454866Y-109434866D01*
X142269294Y-109660986D01*
X142131401Y-109918966D01*
X142046487Y-110198889D01*
X142017815Y-110490000D01*
X142046487Y-110781111D01*
X142131401Y-111061034D01*
X142269294Y-111319014D01*
X142454866Y-111545134D01*
X142680986Y-111730706D01*
X142745523Y-111765201D01*
X142628645Y-111834822D01*
X142412412Y-112029731D01*
X142238359Y-112263080D01*
X142113175Y-112525901D01*
X142068524Y-112673110D01*
X142189845Y-112903000D01*
X143383000Y-112903000D01*
X143383000Y-112883000D01*
X143637000Y-112883000D01*
X143637000Y-112903000D01*
X144830155Y-112903000D01*
X144951476Y-112673110D01*
X144906825Y-112525901D01*
X144781641Y-112263080D01*
X144607588Y-112029731D01*
X144391355Y-111834822D01*
X144274477Y-111765201D01*
X144339014Y-111730706D01*
X144565134Y-111545134D01*
X144750706Y-111319014D01*
X144888599Y-111061034D01*
X144973513Y-110781111D01*
X145002185Y-110490000D01*
X144973513Y-110198889D01*
X144888599Y-109918966D01*
X144750706Y-109660986D01*
X144565134Y-109434866D01*
X144339014Y-109249294D01*
X144284209Y-109220000D01*
X144339014Y-109190706D01*
X144565134Y-109005134D01*
X144750706Y-108779014D01*
X144888599Y-108521034D01*
X144973513Y-108241111D01*
X145002185Y-107950000D01*
X144973513Y-107658889D01*
X144888599Y-107378966D01*
X144750706Y-107120986D01*
X144565134Y-106894866D01*
X144339014Y-106709294D01*
X144284209Y-106680000D01*
X144339014Y-106650706D01*
X144565134Y-106465134D01*
X144750706Y-106239014D01*
X144888599Y-105981034D01*
X144973513Y-105701111D01*
X145002185Y-105410000D01*
X144973513Y-105118889D01*
X144888599Y-104838966D01*
X144750706Y-104580986D01*
X144565134Y-104354866D01*
X144339014Y-104169294D01*
X144284209Y-104140000D01*
X144339014Y-104110706D01*
X144565134Y-103925134D01*
X144750706Y-103699014D01*
X144888599Y-103441034D01*
X144973513Y-103161111D01*
X145002185Y-102870000D01*
X144973513Y-102578889D01*
X144888599Y-102298966D01*
X144750706Y-102040986D01*
X144565134Y-101814866D01*
X144339014Y-101629294D01*
X144284209Y-101600000D01*
X144339014Y-101570706D01*
X144565134Y-101385134D01*
X144750706Y-101159014D01*
X144888599Y-100901034D01*
X144973513Y-100621111D01*
X145002185Y-100330000D01*
X144973513Y-100038889D01*
X144888599Y-99758966D01*
X144750706Y-99500986D01*
X144565134Y-99274866D01*
X144535313Y-99250393D01*
X144604180Y-99229502D01*
X144714494Y-99170537D01*
X144811185Y-99091185D01*
X144890537Y-98994494D01*
X144949502Y-98884180D01*
X144985812Y-98764482D01*
X144998072Y-98640000D01*
X144998072Y-96940000D01*
X144985812Y-96815518D01*
X144949502Y-96695820D01*
X144890537Y-96585506D01*
X144811185Y-96488815D01*
X144714494Y-96409463D01*
X144604180Y-96350498D01*
X144484482Y-96314188D01*
X144360000Y-96301928D01*
X142660000Y-96301928D01*
X142535518Y-96314188D01*
X142415820Y-96350498D01*
X142305506Y-96409463D01*
X142208815Y-96488815D01*
X142129463Y-96585506D01*
X142070498Y-96695820D01*
X142034188Y-96815518D01*
X142021928Y-96940000D01*
X142021928Y-98640000D01*
X142034188Y-98764482D01*
X142070498Y-98884180D01*
X142129463Y-98994494D01*
X142208815Y-99091185D01*
X142305506Y-99170537D01*
X142415820Y-99229502D01*
X142484687Y-99250393D01*
X142454866Y-99274866D01*
X142269294Y-99500986D01*
X142131401Y-99758966D01*
X142046487Y-100038889D01*
X142017815Y-100330000D01*
X142046487Y-100621111D01*
X142131401Y-100901034D01*
X142269294Y-101159014D01*
X142454866Y-101385134D01*
X142680986Y-101570706D01*
X142735791Y-101600000D01*
X142680986Y-101629294D01*
X142454866Y-101814866D01*
X142269294Y-102040986D01*
X142232405Y-102110000D01*
X136472804Y-102110000D01*
X134326805Y-99964002D01*
X134303002Y-99934998D01*
X134187277Y-99840025D01*
X134055248Y-99769453D01*
X133911987Y-99725996D01*
X133800334Y-99714999D01*
X133800323Y-99714999D01*
X133763001Y-99711323D01*
X133725679Y-99714999D01*
X128696461Y-99714999D01*
X128738571Y-99626004D01*
X128807300Y-99351816D01*
X128821217Y-99069488D01*
X128779787Y-98789870D01*
X128684603Y-98523708D01*
X128674604Y-98505001D01*
X136104526Y-98505001D01*
X136144314Y-98508920D01*
X136184102Y-98505001D01*
X136184105Y-98505001D01*
X136303102Y-98493281D01*
X136455787Y-98446964D01*
X136596503Y-98371750D01*
X136719842Y-98270529D01*
X136745214Y-98239613D01*
X136777845Y-98206982D01*
X136858102Y-98240226D01*
X137058061Y-98280000D01*
X137261939Y-98280000D01*
X137461898Y-98240226D01*
X137650256Y-98162205D01*
X137819774Y-98048937D01*
X137963937Y-97904774D01*
X138077205Y-97735256D01*
X138155226Y-97546898D01*
X138195000Y-97346939D01*
X138195000Y-97143061D01*
X138155226Y-96943102D01*
X138077205Y-96754744D01*
X137963937Y-96585226D01*
X137819774Y-96441063D01*
X137650256Y-96327795D01*
X137461898Y-96249774D01*
X137261939Y-96210000D01*
X137058061Y-96210000D01*
X136858102Y-96249774D01*
X136669744Y-96327795D01*
X136501481Y-96440224D01*
X136435527Y-96446720D01*
X136282841Y-96493037D01*
X136212484Y-96530644D01*
X136142126Y-96568251D01*
X136018787Y-96669472D01*
X135993415Y-96700388D01*
X135808802Y-96885001D01*
X123405638Y-96885001D01*
X123431025Y-96801309D01*
X123458732Y-96520000D01*
X123431025Y-96238691D01*
X123348971Y-95968192D01*
X123215721Y-95718899D01*
X123036397Y-95500392D01*
X122817890Y-95321068D01*
X122684931Y-95250000D01*
X122817890Y-95178932D01*
X123036397Y-94999608D01*
X123215721Y-94781101D01*
X123348971Y-94531808D01*
X123410479Y-94329040D01*
X128783091Y-94329040D01*
X128877930Y-94593881D01*
X129022615Y-94835131D01*
X129211586Y-95043519D01*
X129437580Y-95211037D01*
X129691913Y-95331246D01*
X129825961Y-95371904D01*
X130048000Y-95249915D01*
X130048000Y-94107000D01*
X130302000Y-94107000D01*
X130302000Y-95249915D01*
X130524039Y-95371904D01*
X130658087Y-95331246D01*
X130912420Y-95211037D01*
X131138414Y-95043519D01*
X131327385Y-94835131D01*
X131472070Y-94593881D01*
X131566909Y-94329040D01*
X131445624Y-94107000D01*
X130302000Y-94107000D01*
X130048000Y-94107000D01*
X128904376Y-94107000D01*
X128783091Y-94329040D01*
X123410479Y-94329040D01*
X123431025Y-94261309D01*
X123458732Y-93980000D01*
X123431025Y-93698691D01*
X123410480Y-93630960D01*
X128783091Y-93630960D01*
X128904376Y-93853000D01*
X130048000Y-93853000D01*
X130048000Y-92710085D01*
X130302000Y-92710085D01*
X130302000Y-93853000D01*
X131445624Y-93853000D01*
X131566909Y-93630960D01*
X131472070Y-93366119D01*
X131327385Y-93124869D01*
X131138414Y-92916481D01*
X130912420Y-92748963D01*
X130658087Y-92628754D01*
X130524039Y-92588096D01*
X130302000Y-92710085D01*
X130048000Y-92710085D01*
X129825961Y-92588096D01*
X129691913Y-92628754D01*
X129437580Y-92748963D01*
X129211586Y-92916481D01*
X129022615Y-93124869D01*
X128877930Y-93366119D01*
X128783091Y-93630960D01*
X123410480Y-93630960D01*
X123348971Y-93428192D01*
X123215721Y-93178899D01*
X123036397Y-92960392D01*
X122817890Y-92781068D01*
X122684931Y-92710000D01*
X122817890Y-92638932D01*
X123036397Y-92459608D01*
X123215721Y-92241101D01*
X123348971Y-91991808D01*
X123431025Y-91721309D01*
X123458732Y-91440000D01*
X123431025Y-91158691D01*
X123348971Y-90888192D01*
X123215721Y-90638899D01*
X123134557Y-90540000D01*
X131684928Y-90540000D01*
X131684928Y-92340000D01*
X131697188Y-92464482D01*
X131733498Y-92584180D01*
X131792463Y-92694494D01*
X131871815Y-92791185D01*
X131968506Y-92870537D01*
X132078820Y-92929502D01*
X132198518Y-92965812D01*
X132322574Y-92978030D01*
X132235363Y-93065241D01*
X132078320Y-93300273D01*
X131970147Y-93561426D01*
X131915000Y-93838665D01*
X131915000Y-94121335D01*
X131970147Y-94398574D01*
X132078320Y-94659727D01*
X132235363Y-94894759D01*
X132435241Y-95094637D01*
X132670273Y-95251680D01*
X132931426Y-95359853D01*
X133208665Y-95415000D01*
X133491335Y-95415000D01*
X133768574Y-95359853D01*
X134029727Y-95251680D01*
X134264759Y-95094637D01*
X134464637Y-94894759D01*
X134621680Y-94659727D01*
X134729853Y-94398574D01*
X134785000Y-94121335D01*
X134785000Y-93838665D01*
X134729853Y-93561426D01*
X134621680Y-93300273D01*
X134464637Y-93065241D01*
X134337808Y-92938412D01*
X134367180Y-92929502D01*
X134477494Y-92870537D01*
X134574185Y-92791185D01*
X134653537Y-92694494D01*
X134712502Y-92584180D01*
X134748812Y-92464482D01*
X134761072Y-92340000D01*
X134761072Y-90540000D01*
X134748812Y-90415518D01*
X134712502Y-90295820D01*
X134653537Y-90185506D01*
X134574185Y-90088815D01*
X134477494Y-90009463D01*
X134367180Y-89950498D01*
X134348873Y-89944944D01*
X134415312Y-89878505D01*
X134583299Y-89627095D01*
X134699011Y-89347743D01*
X134758000Y-89051184D01*
X134758000Y-88748816D01*
X134699011Y-88452257D01*
X134583299Y-88172905D01*
X134415312Y-87921495D01*
X134201505Y-87707688D01*
X133950095Y-87539701D01*
X133670743Y-87423989D01*
X133374184Y-87365000D01*
X133071816Y-87365000D01*
X132775257Y-87423989D01*
X132495905Y-87539701D01*
X132244495Y-87707688D01*
X132030688Y-87921495D01*
X131862701Y-88172905D01*
X131746989Y-88452257D01*
X131688000Y-88748816D01*
X131688000Y-89051184D01*
X131746989Y-89347743D01*
X131862701Y-89627095D01*
X132030688Y-89878505D01*
X132097127Y-89944944D01*
X132078820Y-89950498D01*
X131968506Y-90009463D01*
X131871815Y-90088815D01*
X131792463Y-90185506D01*
X131733498Y-90295820D01*
X131697188Y-90415518D01*
X131684928Y-90540000D01*
X123134557Y-90540000D01*
X123036397Y-90420392D01*
X122817890Y-90241068D01*
X122684931Y-90170000D01*
X122817890Y-90098932D01*
X123036397Y-89919608D01*
X123215721Y-89701101D01*
X123348971Y-89451808D01*
X123431025Y-89181309D01*
X123458732Y-88900000D01*
X123431025Y-88618691D01*
X123348971Y-88348192D01*
X123215721Y-88098899D01*
X123036397Y-87880392D01*
X122817890Y-87701068D01*
X122684931Y-87630000D01*
X122817890Y-87558932D01*
X123036397Y-87379608D01*
X123215721Y-87161101D01*
X123348971Y-86911808D01*
X123431025Y-86641309D01*
X123458732Y-86360000D01*
X123431025Y-86078691D01*
X123348971Y-85808192D01*
X123215721Y-85558899D01*
X123036397Y-85340392D01*
X122817890Y-85161068D01*
X122684931Y-85090000D01*
X122817890Y-85018932D01*
X123036397Y-84839608D01*
X123215721Y-84621101D01*
X123348971Y-84371808D01*
X123431025Y-84101309D01*
X123458732Y-83820000D01*
X123431025Y-83538691D01*
X123348971Y-83268192D01*
X123215721Y-83018899D01*
X123036397Y-82800392D01*
X122817890Y-82621068D01*
X122568597Y-82487818D01*
X122298098Y-82405764D01*
X122203105Y-82396408D01*
X123052093Y-81547420D01*
X123175665Y-81572000D01*
X123458335Y-81572000D01*
X123735574Y-81516853D01*
X123996727Y-81408680D01*
X124231759Y-81251637D01*
X124431637Y-81051759D01*
X124588680Y-80816727D01*
X124696853Y-80555574D01*
X124752000Y-80278335D01*
X124752000Y-80010000D01*
X142017815Y-80010000D01*
X142046487Y-80301111D01*
X142131401Y-80581034D01*
X142269294Y-80839014D01*
X142454866Y-81065134D01*
X142680986Y-81250706D01*
X142735791Y-81280000D01*
X142680986Y-81309294D01*
X142454866Y-81494866D01*
X142269294Y-81720986D01*
X142131401Y-81978966D01*
X142046487Y-82258889D01*
X142017815Y-82550000D01*
X142046487Y-82841111D01*
X142131401Y-83121034D01*
X142269294Y-83379014D01*
X142454866Y-83605134D01*
X142680986Y-83790706D01*
X142735791Y-83820000D01*
X142680986Y-83849294D01*
X142454866Y-84034866D01*
X142269294Y-84260986D01*
X142131401Y-84518966D01*
X142046487Y-84798889D01*
X142017815Y-85090000D01*
X142046487Y-85381111D01*
X142131401Y-85661034D01*
X142269294Y-85919014D01*
X142454866Y-86145134D01*
X142680986Y-86330706D01*
X142735791Y-86360000D01*
X142680986Y-86389294D01*
X142454866Y-86574866D01*
X142269294Y-86800986D01*
X142131401Y-87058966D01*
X142046487Y-87338889D01*
X142017815Y-87630000D01*
X142046487Y-87921111D01*
X142131401Y-88201034D01*
X142269294Y-88459014D01*
X142454866Y-88685134D01*
X142680986Y-88870706D01*
X142735791Y-88900000D01*
X142680986Y-88929294D01*
X142454866Y-89114866D01*
X142269294Y-89340986D01*
X142131401Y-89598966D01*
X142046487Y-89878889D01*
X142017815Y-90170000D01*
X142046487Y-90461111D01*
X142131401Y-90741034D01*
X142269294Y-90999014D01*
X142454866Y-91225134D01*
X142484687Y-91249607D01*
X142415820Y-91270498D01*
X142305506Y-91329463D01*
X142208815Y-91408815D01*
X142129463Y-91505506D01*
X142070498Y-91615820D01*
X142034188Y-91735518D01*
X142021928Y-91860000D01*
X142021928Y-93560000D01*
X142034188Y-93684482D01*
X142070498Y-93804180D01*
X142129463Y-93914494D01*
X142208815Y-94011185D01*
X142305506Y-94090537D01*
X142415820Y-94149502D01*
X142535518Y-94185812D01*
X142660000Y-94198072D01*
X144360000Y-94198072D01*
X144484482Y-94185812D01*
X144604180Y-94149502D01*
X144714494Y-94090537D01*
X144811185Y-94011185D01*
X144890537Y-93914494D01*
X144949502Y-93804180D01*
X144985812Y-93684482D01*
X144998072Y-93560000D01*
X144998072Y-91860000D01*
X144985812Y-91735518D01*
X144949502Y-91615820D01*
X144890537Y-91505506D01*
X144811185Y-91408815D01*
X144714494Y-91329463D01*
X144604180Y-91270498D01*
X144535313Y-91249607D01*
X144565134Y-91225134D01*
X144750706Y-90999014D01*
X144888599Y-90741034D01*
X144973513Y-90461111D01*
X145002185Y-90170000D01*
X144973513Y-89878889D01*
X144888599Y-89598966D01*
X144750706Y-89340986D01*
X144565134Y-89114866D01*
X144339014Y-88929294D01*
X144284209Y-88900000D01*
X144339014Y-88870706D01*
X144565134Y-88685134D01*
X144750706Y-88459014D01*
X144888599Y-88201034D01*
X144973513Y-87921111D01*
X145002185Y-87630000D01*
X144973513Y-87338889D01*
X144888599Y-87058966D01*
X144750706Y-86800986D01*
X144565134Y-86574866D01*
X144339014Y-86389294D01*
X144284209Y-86360000D01*
X144339014Y-86330706D01*
X144565134Y-86145134D01*
X144750706Y-85919014D01*
X144888599Y-85661034D01*
X144973513Y-85381111D01*
X145002185Y-85090000D01*
X144973513Y-84798889D01*
X144888599Y-84518966D01*
X144750706Y-84260986D01*
X144565134Y-84034866D01*
X144339014Y-83849294D01*
X144284209Y-83820000D01*
X144339014Y-83790706D01*
X144565134Y-83605134D01*
X144750706Y-83379014D01*
X144888599Y-83121034D01*
X144973513Y-82841111D01*
X145002185Y-82550000D01*
X144973513Y-82258889D01*
X144888599Y-81978966D01*
X144750706Y-81720986D01*
X144565134Y-81494866D01*
X144339014Y-81309294D01*
X144284209Y-81280000D01*
X144339014Y-81250706D01*
X144565134Y-81065134D01*
X144750706Y-80839014D01*
X144888599Y-80581034D01*
X144973513Y-80301111D01*
X145002185Y-80010000D01*
X144973513Y-79718889D01*
X144888599Y-79438966D01*
X144750706Y-79180986D01*
X144565134Y-78954866D01*
X144339014Y-78769294D01*
X144081034Y-78631401D01*
X143801111Y-78546487D01*
X143582950Y-78525000D01*
X143437050Y-78525000D01*
X143218889Y-78546487D01*
X142938966Y-78631401D01*
X142680986Y-78769294D01*
X142454866Y-78954866D01*
X142269294Y-79180986D01*
X142131401Y-79438966D01*
X142046487Y-79718889D01*
X142017815Y-80010000D01*
X124752000Y-80010000D01*
X124752000Y-79995665D01*
X124696853Y-79718426D01*
X124588680Y-79457273D01*
X124431637Y-79222241D01*
X124231759Y-79022363D01*
X123996727Y-78865320D01*
X123735574Y-78757147D01*
X123458335Y-78702000D01*
X123175665Y-78702000D01*
X122898426Y-78757147D01*
X122637273Y-78865320D01*
X122402241Y-79022363D01*
X122202363Y-79222241D01*
X122045320Y-79457273D01*
X121937147Y-79718426D01*
X121882000Y-79995665D01*
X121882000Y-80278335D01*
X121906580Y-80401907D01*
X118200383Y-84108105D01*
X118169473Y-84133472D01*
X118144108Y-84164380D01*
X118068251Y-84256811D01*
X118006785Y-84371808D01*
X117993038Y-84397527D01*
X117956200Y-84518966D01*
X117946721Y-84550213D01*
X117931081Y-84709000D01*
X117935001Y-84748798D01*
X117935000Y-96504300D01*
X117827795Y-96664744D01*
X117749774Y-96853102D01*
X117712129Y-97042358D01*
X116504488Y-98250000D01*
X115588418Y-98250000D01*
X115416397Y-98040392D01*
X115197890Y-97861068D01*
X115064931Y-97790000D01*
X115197890Y-97718932D01*
X115416397Y-97539608D01*
X115595721Y-97321101D01*
X115728971Y-97071808D01*
X115811025Y-96801309D01*
X115838732Y-96520000D01*
X115811025Y-96238691D01*
X115728971Y-95968192D01*
X115595721Y-95718899D01*
X115416397Y-95500392D01*
X115197890Y-95321068D01*
X115064931Y-95250000D01*
X115197890Y-95178932D01*
X115416397Y-94999608D01*
X115595721Y-94781101D01*
X115728971Y-94531808D01*
X115811025Y-94261309D01*
X115838732Y-93980000D01*
X115811025Y-93698691D01*
X115728971Y-93428192D01*
X115595721Y-93178899D01*
X115416397Y-92960392D01*
X115197890Y-92781068D01*
X115064931Y-92710000D01*
X115197890Y-92638932D01*
X115416397Y-92459608D01*
X115595721Y-92241101D01*
X115728971Y-91991808D01*
X115811025Y-91721309D01*
X115838732Y-91440000D01*
X115811025Y-91158691D01*
X115728971Y-90888192D01*
X115595721Y-90638899D01*
X115416397Y-90420392D01*
X115197890Y-90241068D01*
X115064931Y-90170000D01*
X115197890Y-90098932D01*
X115416397Y-89919608D01*
X115595721Y-89701101D01*
X115728971Y-89451808D01*
X115811025Y-89181309D01*
X115838732Y-88900000D01*
X115811025Y-88618691D01*
X115728971Y-88348192D01*
X115595721Y-88098899D01*
X115416397Y-87880392D01*
X115197890Y-87701068D01*
X115064931Y-87630000D01*
X115197890Y-87558932D01*
X115416397Y-87379608D01*
X115595721Y-87161101D01*
X115728971Y-86911808D01*
X115811025Y-86641309D01*
X115838732Y-86360000D01*
X115811025Y-86078691D01*
X115728971Y-85808192D01*
X115595721Y-85558899D01*
X115416397Y-85340392D01*
X115303307Y-85247581D01*
X115321271Y-85245812D01*
X115440969Y-85209502D01*
X115551283Y-85150537D01*
X115647974Y-85071185D01*
X115727326Y-84974494D01*
X115786291Y-84864180D01*
X115822601Y-84744482D01*
X115834861Y-84620000D01*
X115834861Y-83020000D01*
X115822601Y-82895518D01*
X115786291Y-82775820D01*
X115727326Y-82665506D01*
X115647974Y-82568815D01*
X115551283Y-82489463D01*
X115440969Y-82430498D01*
X115321271Y-82394188D01*
X115196789Y-82381928D01*
X113596789Y-82381928D01*
X113472307Y-82394188D01*
X113352609Y-82430498D01*
X113242295Y-82489463D01*
X113145604Y-82568815D01*
X113066252Y-82665506D01*
X113007287Y-82775820D01*
X112970977Y-82895518D01*
X112958717Y-83020000D01*
X112958717Y-84620000D01*
X112970977Y-84744482D01*
X113007287Y-84864180D01*
X113066252Y-84974494D01*
X113145604Y-85071185D01*
X113242295Y-85150537D01*
X113352609Y-85209502D01*
X113472307Y-85245812D01*
X113490271Y-85247581D01*
X113377181Y-85340392D01*
X113197857Y-85558899D01*
X113064607Y-85808192D01*
X112982553Y-86078691D01*
X112954846Y-86360000D01*
X95472185Y-86360000D01*
X95443513Y-86068889D01*
X95358599Y-85788966D01*
X95220706Y-85530986D01*
X95035134Y-85304866D01*
X94809014Y-85119294D01*
X94754209Y-85090000D01*
X94809014Y-85060706D01*
X95035134Y-84875134D01*
X95220706Y-84649014D01*
X95358599Y-84391034D01*
X95443513Y-84111111D01*
X95472185Y-83820000D01*
X95456325Y-83658967D01*
X101362000Y-83658967D01*
X101362000Y-83981033D01*
X101424832Y-84296912D01*
X101548082Y-84594463D01*
X101727013Y-84862252D01*
X101954748Y-85089987D01*
X102222537Y-85268918D01*
X102520088Y-85392168D01*
X102835967Y-85455000D01*
X103158033Y-85455000D01*
X103473912Y-85392168D01*
X103771463Y-85268918D01*
X104039252Y-85089987D01*
X104266987Y-84862252D01*
X104445918Y-84594463D01*
X104569168Y-84296912D01*
X104632000Y-83981033D01*
X104632000Y-83658967D01*
X107862000Y-83658967D01*
X107862000Y-83981033D01*
X107924832Y-84296912D01*
X108048082Y-84594463D01*
X108227013Y-84862252D01*
X108454748Y-85089987D01*
X108722537Y-85268918D01*
X109020088Y-85392168D01*
X109335967Y-85455000D01*
X109658033Y-85455000D01*
X109973912Y-85392168D01*
X110271463Y-85268918D01*
X110539252Y-85089987D01*
X110766987Y-84862252D01*
X110945918Y-84594463D01*
X111069168Y-84296912D01*
X111132000Y-83981033D01*
X111132000Y-83658967D01*
X111069168Y-83343088D01*
X110945918Y-83045537D01*
X110766987Y-82777748D01*
X110539252Y-82550013D01*
X110271463Y-82371082D01*
X109973912Y-82247832D01*
X109658033Y-82185000D01*
X109335967Y-82185000D01*
X109020088Y-82247832D01*
X108722537Y-82371082D01*
X108454748Y-82550013D01*
X108227013Y-82777748D01*
X108048082Y-83045537D01*
X107924832Y-83343088D01*
X107862000Y-83658967D01*
X104632000Y-83658967D01*
X104569168Y-83343088D01*
X104445918Y-83045537D01*
X104266987Y-82777748D01*
X104039252Y-82550013D01*
X103771463Y-82371082D01*
X103473912Y-82247832D01*
X103158033Y-82185000D01*
X102835967Y-82185000D01*
X102520088Y-82247832D01*
X102222537Y-82371082D01*
X101954748Y-82550013D01*
X101727013Y-82777748D01*
X101548082Y-83045537D01*
X101424832Y-83343088D01*
X101362000Y-83658967D01*
X95456325Y-83658967D01*
X95443513Y-83528889D01*
X95358599Y-83248966D01*
X95220706Y-82990986D01*
X95035134Y-82764866D01*
X95005313Y-82740393D01*
X95074180Y-82719502D01*
X95184494Y-82660537D01*
X95281185Y-82581185D01*
X95360537Y-82484494D01*
X95419502Y-82374180D01*
X95455812Y-82254482D01*
X95468072Y-82130000D01*
X95468072Y-80430000D01*
X95455812Y-80305518D01*
X95419502Y-80185820D01*
X95393407Y-80137000D01*
X111715057Y-80137000D01*
X111742764Y-80418309D01*
X111824818Y-80688808D01*
X111958068Y-80938101D01*
X112137392Y-81156608D01*
X112355899Y-81335932D01*
X112605192Y-81469182D01*
X112875691Y-81551236D01*
X113086508Y-81572000D01*
X113227492Y-81572000D01*
X113438309Y-81551236D01*
X113708808Y-81469182D01*
X113958101Y-81335932D01*
X114176608Y-81156608D01*
X114355932Y-80938101D01*
X114489182Y-80688808D01*
X114571236Y-80418309D01*
X114598943Y-80137000D01*
X114571236Y-79855691D01*
X114489182Y-79585192D01*
X114355932Y-79335899D01*
X114176608Y-79117392D01*
X113958101Y-78938068D01*
X113708808Y-78804818D01*
X113438309Y-78722764D01*
X113227492Y-78702000D01*
X113086508Y-78702000D01*
X112875691Y-78722764D01*
X112605192Y-78804818D01*
X112355899Y-78938068D01*
X112137392Y-79117392D01*
X111958068Y-79335899D01*
X111824818Y-79585192D01*
X111742764Y-79855691D01*
X111715057Y-80137000D01*
X95393407Y-80137000D01*
X95360537Y-80075506D01*
X95281185Y-79978815D01*
X95184494Y-79899463D01*
X95074180Y-79840498D01*
X94954482Y-79804188D01*
X94830000Y-79791928D01*
X93130000Y-79791928D01*
X93005518Y-79804188D01*
X92885820Y-79840498D01*
X92775506Y-79899463D01*
X92678815Y-79978815D01*
X92599463Y-80075506D01*
X92540498Y-80185820D01*
X92504188Y-80305518D01*
X92491928Y-80430000D01*
X92491928Y-82130000D01*
X92504188Y-82254482D01*
X92540498Y-82374180D01*
X92599463Y-82484494D01*
X92678815Y-82581185D01*
X92775506Y-82660537D01*
X92885820Y-82719502D01*
X92954687Y-82740393D01*
X92924866Y-82764866D01*
X92739294Y-82990986D01*
X92601401Y-83248966D01*
X92516487Y-83528889D01*
X92487815Y-83820000D01*
X91592000Y-83820000D01*
X91592000Y-77026468D01*
X92063137Y-77026468D01*
X92321298Y-77429073D01*
X92840715Y-77704651D01*
X93403913Y-77873601D01*
X93989250Y-77929430D01*
X94574233Y-77869992D01*
X95136379Y-77697571D01*
X95638702Y-77429073D01*
X95851977Y-77096468D01*
X142083137Y-77096468D01*
X142341298Y-77499073D01*
X142860715Y-77774651D01*
X143423913Y-77943601D01*
X144009250Y-77999430D01*
X144594233Y-77939992D01*
X145156379Y-77767571D01*
X145658702Y-77499073D01*
X145916863Y-77096468D01*
X144000000Y-75179605D01*
X142083137Y-77096468D01*
X95851977Y-77096468D01*
X95896863Y-77026468D01*
X93980000Y-75109605D01*
X92063137Y-77026468D01*
X91592000Y-77026468D01*
X91592000Y-76659925D01*
X91883532Y-76846863D01*
X93800395Y-74930000D01*
X94159605Y-74930000D01*
X96076468Y-76846863D01*
X96479073Y-76588702D01*
X96754651Y-76069285D01*
X96923601Y-75506087D01*
X96970988Y-75009250D01*
X141000570Y-75009250D01*
X141060008Y-75594233D01*
X141232429Y-76156379D01*
X141500927Y-76658702D01*
X141903532Y-76916863D01*
X143820395Y-75000000D01*
X141903532Y-73083137D01*
X141500927Y-73341298D01*
X141225349Y-73860715D01*
X141056399Y-74423913D01*
X141000570Y-75009250D01*
X96970988Y-75009250D01*
X96979430Y-74920750D01*
X96919992Y-74335767D01*
X96747571Y-73773621D01*
X96479073Y-73271298D01*
X96076468Y-73013137D01*
X94159605Y-74930000D01*
X93800395Y-74930000D01*
X91883532Y-73013137D01*
X91592000Y-73200075D01*
X91592000Y-72676277D01*
X91607617Y-72517000D01*
X92266106Y-72517000D01*
X92063137Y-72833532D01*
X92063137Y-72833532D01*
G37*
X92063137Y-72833532D02*
X93980000Y-74750395D01*
X95896863Y-72833532D01*
X95693894Y-72517000D01*
X142330992Y-72517000D01*
X142083137Y-72903532D01*
X144000000Y-74820395D01*
X145916863Y-72903532D01*
X145669008Y-72517000D01*
X146263097Y-72517000D01*
X146279000Y-72668306D01*
X146279000Y-73200181D01*
X146096468Y-73083137D01*
X144179605Y-75000000D01*
X146096468Y-76916863D01*
X146279000Y-76799819D01*
X146279001Y-124200182D01*
X146096468Y-124083137D01*
X144179605Y-126000000D01*
X146096468Y-127916863D01*
X146279001Y-127799818D01*
X146279001Y-138905713D01*
X146259441Y-139105204D01*
X146210881Y-139266040D01*
X146132008Y-139414378D01*
X146025822Y-139544575D01*
X145991462Y-139573000D01*
X115426311Y-139573000D01*
X115468759Y-139544637D01*
X115668637Y-139344759D01*
X115825680Y-139109727D01*
X115933853Y-138848574D01*
X115989000Y-138571335D01*
X115989000Y-138288665D01*
X115933853Y-138011426D01*
X115825680Y-137750273D01*
X115668637Y-137515241D01*
X115560940Y-137407544D01*
X137329000Y-137407544D01*
X137329000Y-137674456D01*
X137381072Y-137936239D01*
X137483215Y-138182833D01*
X137631503Y-138404762D01*
X137820238Y-138593497D01*
X138042167Y-138741785D01*
X138288761Y-138843928D01*
X138550544Y-138896000D01*
X138817456Y-138896000D01*
X139079239Y-138843928D01*
X139325833Y-138741785D01*
X139547762Y-138593497D01*
X139736497Y-138404762D01*
X139884785Y-138182833D01*
X139986928Y-137936239D01*
X140039000Y-137674456D01*
X140039000Y-137407544D01*
X139986928Y-137145761D01*
X139884785Y-136899167D01*
X139736497Y-136677238D01*
X139547762Y-136488503D01*
X139325833Y-136340215D01*
X139079239Y-136238072D01*
X138817456Y-136186000D01*
X138550544Y-136186000D01*
X138288761Y-136238072D01*
X138042167Y-136340215D01*
X137820238Y-136488503D01*
X137631503Y-136677238D01*
X137483215Y-136899167D01*
X137381072Y-137145761D01*
X137329000Y-137407544D01*
X115560940Y-137407544D01*
X115468759Y-137315363D01*
X115233727Y-137158320D01*
X114972574Y-137050147D01*
X114695335Y-136995000D01*
X114412665Y-136995000D01*
X114135426Y-137050147D01*
X113874273Y-137158320D01*
X113639241Y-137315363D01*
X113439363Y-137515241D01*
X113282320Y-137750273D01*
X113174147Y-138011426D01*
X113119000Y-138288665D01*
X113119000Y-138571335D01*
X113174147Y-138848574D01*
X113282320Y-139109727D01*
X113439363Y-139344759D01*
X113639241Y-139544637D01*
X113681689Y-139573000D01*
X91879070Y-139573000D01*
X91849425Y-139548822D01*
X91742335Y-139419372D01*
X91662428Y-139271586D01*
X91612747Y-139111094D01*
X91592000Y-138913695D01*
X91592000Y-137160000D01*
X92487815Y-137160000D01*
X92516487Y-137451111D01*
X92601401Y-137731034D01*
X92739294Y-137989014D01*
X92924866Y-138215134D01*
X93150986Y-138400706D01*
X93408966Y-138538599D01*
X93688889Y-138623513D01*
X93907050Y-138645000D01*
X94052950Y-138645000D01*
X94271111Y-138623513D01*
X94551034Y-138538599D01*
X94809014Y-138400706D01*
X95035134Y-138215134D01*
X95220706Y-137989014D01*
X95358599Y-137731034D01*
X95443513Y-137451111D01*
X95472185Y-137160000D01*
X95459826Y-137034514D01*
X102806500Y-137034514D01*
X102806500Y-137285485D01*
X102829470Y-137518703D01*
X102920245Y-137817948D01*
X103067655Y-138093734D01*
X103266037Y-138335463D01*
X103507765Y-138533845D01*
X103783551Y-138681255D01*
X104082796Y-138772030D01*
X104394000Y-138802681D01*
X104705203Y-138772030D01*
X105004448Y-138681255D01*
X105280234Y-138533845D01*
X105521963Y-138335463D01*
X105664000Y-138162391D01*
X105806037Y-138335463D01*
X106047765Y-138533845D01*
X106323551Y-138681255D01*
X106622796Y-138772030D01*
X106934000Y-138802681D01*
X107245203Y-138772030D01*
X107544448Y-138681255D01*
X107820234Y-138533845D01*
X107946095Y-138430553D01*
X107990963Y-138514494D01*
X108070315Y-138611185D01*
X108167006Y-138690537D01*
X108277320Y-138749502D01*
X108397018Y-138785812D01*
X108521500Y-138798072D01*
X110426500Y-138798072D01*
X110550982Y-138785812D01*
X110670680Y-138749502D01*
X110780994Y-138690537D01*
X110877685Y-138611185D01*
X110957037Y-138514494D01*
X111016002Y-138404180D01*
X111052312Y-138284482D01*
X111064572Y-138160000D01*
X111064572Y-136160000D01*
X111052312Y-136035518D01*
X111022294Y-135936560D01*
X140468045Y-135936560D01*
X140529932Y-136172368D01*
X140771790Y-136285266D01*
X141031027Y-136348811D01*
X141297680Y-136360561D01*
X141561501Y-136320063D01*
X141812353Y-136228875D01*
X141918068Y-136172368D01*
X141979955Y-135936560D01*
X141224000Y-135180605D01*
X140468045Y-135936560D01*
X111022294Y-135936560D01*
X111016002Y-135915820D01*
X110957037Y-135805506D01*
X110877685Y-135708815D01*
X110780994Y-135629463D01*
X110670680Y-135570498D01*
X110550982Y-135534188D01*
X110426500Y-135521928D01*
X108521500Y-135521928D01*
X108397018Y-135534188D01*
X108277320Y-135570498D01*
X108167006Y-135629463D01*
X108070315Y-135708815D01*
X107990963Y-135805506D01*
X107946095Y-135889446D01*
X107820235Y-135786155D01*
X107544449Y-135638745D01*
X107245204Y-135547970D01*
X106934000Y-135517319D01*
X106622797Y-135547970D01*
X106323552Y-135638745D01*
X106047766Y-135786155D01*
X105806037Y-135984537D01*
X105664000Y-136157609D01*
X105521963Y-135984537D01*
X105280235Y-135786155D01*
X105004449Y-135638745D01*
X104705204Y-135547970D01*
X104394000Y-135517319D01*
X104082797Y-135547970D01*
X103783552Y-135638745D01*
X103507766Y-135786155D01*
X103266037Y-135984537D01*
X103067655Y-136226265D01*
X102920245Y-136502051D01*
X102829470Y-136801296D01*
X102806500Y-137034514D01*
X95459826Y-137034514D01*
X95443513Y-136868889D01*
X95358599Y-136588966D01*
X95220706Y-136330986D01*
X95035134Y-136104866D01*
X94809014Y-135919294D01*
X94744477Y-135884799D01*
X94861355Y-135815178D01*
X95077588Y-135620269D01*
X95251641Y-135386920D01*
X95376825Y-135124099D01*
X95421476Y-134976890D01*
X95300155Y-134747000D01*
X94107000Y-134747000D01*
X94107000Y-134767000D01*
X93853000Y-134767000D01*
X93853000Y-134747000D01*
X92659845Y-134747000D01*
X92538524Y-134976890D01*
X92583175Y-135124099D01*
X92708359Y-135386920D01*
X92882412Y-135620269D01*
X93098645Y-135815178D01*
X93215523Y-135884799D01*
X93150986Y-135919294D01*
X92924866Y-136104866D01*
X92739294Y-136330986D01*
X92601401Y-136588966D01*
X92516487Y-136868889D01*
X92487815Y-137160000D01*
X91592000Y-137160000D01*
X91592000Y-131230000D01*
X92491928Y-131230000D01*
X92491928Y-132930000D01*
X92504188Y-133054482D01*
X92540498Y-133174180D01*
X92599463Y-133284494D01*
X92678815Y-133381185D01*
X92775506Y-133460537D01*
X92885820Y-133519502D01*
X92966466Y-133543966D01*
X92882412Y-133619731D01*
X92708359Y-133853080D01*
X92583175Y-134115901D01*
X92538524Y-134263110D01*
X92659845Y-134493000D01*
X93853000Y-134493000D01*
X93853000Y-134473000D01*
X94107000Y-134473000D01*
X94107000Y-134493000D01*
X95300155Y-134493000D01*
X95421476Y-134263110D01*
X95376825Y-134115901D01*
X95251641Y-133853080D01*
X95077588Y-133619731D01*
X95017979Y-133566000D01*
X119211928Y-133566000D01*
X119211928Y-135166000D01*
X119224188Y-135290482D01*
X119260498Y-135410180D01*
X119319463Y-135520494D01*
X119398815Y-135617185D01*
X119495506Y-135696537D01*
X119605820Y-135755502D01*
X119725518Y-135791812D01*
X119850000Y-135804072D01*
X121450000Y-135804072D01*
X121574482Y-135791812D01*
X121694180Y-135755502D01*
X121804494Y-135696537D01*
X121901185Y-135617185D01*
X121980537Y-135520494D01*
X122039502Y-135410180D01*
X122075812Y-135290482D01*
X122088072Y-135166000D01*
X122088072Y-133566000D01*
X126831928Y-133566000D01*
X126831928Y-135166000D01*
X126844188Y-135290482D01*
X126880498Y-135410180D01*
X126939463Y-135520494D01*
X127018815Y-135617185D01*
X127115506Y-135696537D01*
X127225820Y-135755502D01*
X127345518Y-135791812D01*
X127470000Y-135804072D01*
X129070000Y-135804072D01*
X129194482Y-135791812D01*
X129314180Y-135755502D01*
X129424494Y-135696537D01*
X129521185Y-135617185D01*
X129600537Y-135520494D01*
X129659502Y-135410180D01*
X129695812Y-135290482D01*
X129708072Y-135166000D01*
X129708072Y-135074680D01*
X139864439Y-135074680D01*
X139904937Y-135338501D01*
X139996125Y-135589353D01*
X140052632Y-135695068D01*
X140288440Y-135756955D01*
X141044395Y-135001000D01*
X141403605Y-135001000D01*
X142159560Y-135756955D01*
X142395368Y-135695068D01*
X142508266Y-135453210D01*
X142571811Y-135193973D01*
X142583561Y-134927320D01*
X142543063Y-134663499D01*
X142451875Y-134412647D01*
X142395368Y-134306932D01*
X142159560Y-134245045D01*
X141403605Y-135001000D01*
X141044395Y-135001000D01*
X140288440Y-134245045D01*
X140052632Y-134306932D01*
X139939734Y-134548790D01*
X139876189Y-134808027D01*
X139864439Y-135074680D01*
X129708072Y-135074680D01*
X129708072Y-134065440D01*
X140468045Y-134065440D01*
X141224000Y-134821395D01*
X141979955Y-134065440D01*
X141918068Y-133829632D01*
X141676210Y-133716734D01*
X141416973Y-133653189D01*
X141150320Y-133641439D01*
X140886499Y-133681937D01*
X140635647Y-133773125D01*
X140529932Y-133829632D01*
X140468045Y-134065440D01*
X129708072Y-134065440D01*
X129708072Y-133566000D01*
X129695812Y-133441518D01*
X129682175Y-133396560D01*
X137928045Y-133396560D01*
X137989932Y-133632368D01*
X138231790Y-133745266D01*
X138491027Y-133808811D01*
X138757680Y-133820561D01*
X139021501Y-133780063D01*
X139272353Y-133688875D01*
X139378068Y-133632368D01*
X139439955Y-133396560D01*
X138684000Y-132640605D01*
X137928045Y-133396560D01*
X129682175Y-133396560D01*
X129659502Y-133321820D01*
X129600537Y-133211506D01*
X129521185Y-133114815D01*
X129424494Y-133035463D01*
X129314180Y-132976498D01*
X129194482Y-132940188D01*
X129070000Y-132927928D01*
X129062785Y-132927928D01*
X129083097Y-132858702D01*
X128270000Y-132045605D01*
X127456903Y-132858702D01*
X127477215Y-132927928D01*
X127470000Y-132927928D01*
X127345518Y-132940188D01*
X127225820Y-132976498D01*
X127115506Y-133035463D01*
X127018815Y-133114815D01*
X126939463Y-133211506D01*
X126880498Y-133321820D01*
X126844188Y-133441518D01*
X126831928Y-133566000D01*
X122088072Y-133566000D01*
X122075812Y-133441518D01*
X122039502Y-133321820D01*
X121980537Y-133211506D01*
X121901185Y-133114815D01*
X121804494Y-133035463D01*
X121694180Y-132976498D01*
X121574482Y-132940188D01*
X121450000Y-132927928D01*
X121442785Y-132927928D01*
X121463097Y-132858702D01*
X120650000Y-132045605D01*
X119836903Y-132858702D01*
X119857215Y-132927928D01*
X119850000Y-132927928D01*
X119725518Y-132940188D01*
X119605820Y-132976498D01*
X119495506Y-133035463D01*
X119398815Y-133114815D01*
X119319463Y-133211506D01*
X119260498Y-133321820D01*
X119224188Y-133441518D01*
X119211928Y-133566000D01*
X95017979Y-133566000D01*
X94993534Y-133543966D01*
X95074180Y-133519502D01*
X95184494Y-133460537D01*
X95281185Y-133381185D01*
X95360537Y-133284494D01*
X95419502Y-133174180D01*
X95455812Y-133054482D01*
X95468072Y-132930000D01*
X95468072Y-131230000D01*
X95455812Y-131105518D01*
X95419502Y-130985820D01*
X95360537Y-130875506D01*
X95281185Y-130778815D01*
X95184494Y-130699463D01*
X95074180Y-130640498D01*
X94954482Y-130604188D01*
X94830000Y-130591928D01*
X93130000Y-130591928D01*
X93005518Y-130604188D01*
X92885820Y-130640498D01*
X92775506Y-130699463D01*
X92678815Y-130778815D01*
X92599463Y-130875506D01*
X92540498Y-130985820D01*
X92504188Y-131105518D01*
X92491928Y-131230000D01*
X91592000Y-131230000D01*
X91592000Y-127996468D01*
X92083137Y-127996468D01*
X92341298Y-128399073D01*
X92860715Y-128674651D01*
X93423913Y-128843601D01*
X94009250Y-128899430D01*
X94594233Y-128839992D01*
X94920237Y-128740000D01*
X102955928Y-128740000D01*
X102955928Y-130340000D01*
X102968188Y-130464482D01*
X103004498Y-130584180D01*
X103063463Y-130694494D01*
X103142815Y-130791185D01*
X103239506Y-130870537D01*
X103349820Y-130929502D01*
X103469518Y-130965812D01*
X103594000Y-130978072D01*
X105194000Y-130978072D01*
X105318482Y-130965812D01*
X105438180Y-130929502D01*
X105548494Y-130870537D01*
X105645185Y-130791185D01*
X105724537Y-130694494D01*
X105738343Y-130668665D01*
X109309000Y-130668665D01*
X109309000Y-130951335D01*
X109364147Y-131228574D01*
X109472320Y-131489727D01*
X109629363Y-131724759D01*
X109829241Y-131924637D01*
X110064273Y-132081680D01*
X110325426Y-132189853D01*
X110602665Y-132245000D01*
X110885335Y-132245000D01*
X111162574Y-132189853D01*
X111423727Y-132081680D01*
X111640986Y-131936512D01*
X119209783Y-131936512D01*
X119251213Y-132216130D01*
X119346397Y-132482292D01*
X119413329Y-132607514D01*
X119657298Y-132679097D01*
X120470395Y-131866000D01*
X120829605Y-131866000D01*
X121642702Y-132679097D01*
X121886671Y-132607514D01*
X122007571Y-132352004D01*
X122076300Y-132077816D01*
X122083265Y-131936512D01*
X126829783Y-131936512D01*
X126871213Y-132216130D01*
X126966397Y-132482292D01*
X127033329Y-132607514D01*
X127277298Y-132679097D01*
X128090395Y-131866000D01*
X128449605Y-131866000D01*
X129262702Y-132679097D01*
X129506671Y-132607514D01*
X129541133Y-132534680D01*
X137324439Y-132534680D01*
X137364937Y-132798501D01*
X137456125Y-133049353D01*
X137512632Y-133155068D01*
X137748440Y-133216955D01*
X138504395Y-132461000D01*
X138863605Y-132461000D01*
X139619560Y-133216955D01*
X139855368Y-133155068D01*
X139968266Y-132913210D01*
X140031811Y-132653973D01*
X140043561Y-132387320D01*
X140003063Y-132123499D01*
X139911875Y-131872647D01*
X139855368Y-131766932D01*
X139619560Y-131705045D01*
X138863605Y-132461000D01*
X138504395Y-132461000D01*
X137748440Y-131705045D01*
X137512632Y-131766932D01*
X137399734Y-132008790D01*
X137336189Y-132268027D01*
X137324439Y-132534680D01*
X129541133Y-132534680D01*
X129627571Y-132352004D01*
X129696300Y-132077816D01*
X129710217Y-131795488D01*
X129670205Y-131525440D01*
X137928045Y-131525440D01*
X138684000Y-132281395D01*
X139439955Y-131525440D01*
X139378068Y-131289632D01*
X139136210Y-131176734D01*
X138876973Y-131113189D01*
X138610320Y-131101439D01*
X138346499Y-131141937D01*
X138095647Y-131233125D01*
X137989932Y-131289632D01*
X137928045Y-131525440D01*
X129670205Y-131525440D01*
X129668787Y-131515870D01*
X129573603Y-131249708D01*
X129506671Y-131124486D01*
X129262702Y-131052903D01*
X128449605Y-131866000D01*
X128090395Y-131866000D01*
X127277298Y-131052903D01*
X127033329Y-131124486D01*
X126912429Y-131379996D01*
X126843700Y-131654184D01*
X126829783Y-131936512D01*
X122083265Y-131936512D01*
X122090217Y-131795488D01*
X122048787Y-131515870D01*
X121953603Y-131249708D01*
X121886671Y-131124486D01*
X121642702Y-131052903D01*
X120829605Y-131866000D01*
X120470395Y-131866000D01*
X119657298Y-131052903D01*
X119413329Y-131124486D01*
X119292429Y-131379996D01*
X119223700Y-131654184D01*
X119209783Y-131936512D01*
X111640986Y-131936512D01*
X111658759Y-131924637D01*
X111858637Y-131724759D01*
X112015680Y-131489727D01*
X112123853Y-131228574D01*
X112179000Y-130951335D01*
X112179000Y-130873298D01*
X119836903Y-130873298D01*
X120650000Y-131686395D01*
X121463097Y-130873298D01*
X127456903Y-130873298D01*
X128270000Y-131686395D01*
X129083097Y-130873298D01*
X129011514Y-130629329D01*
X128756004Y-130508429D01*
X128481816Y-130439700D01*
X128199488Y-130425783D01*
X127919870Y-130467213D01*
X127653708Y-130562397D01*
X127528486Y-130629329D01*
X127456903Y-130873298D01*
X121463097Y-130873298D01*
X121391514Y-130629329D01*
X121136004Y-130508429D01*
X120861816Y-130439700D01*
X120579488Y-130425783D01*
X120299870Y-130467213D01*
X120033708Y-130562397D01*
X119908486Y-130629329D01*
X119836903Y-130873298D01*
X112179000Y-130873298D01*
X112179000Y-130668665D01*
X112123853Y-130391426D01*
X112015680Y-130130273D01*
X111858637Y-129895241D01*
X111658759Y-129695363D01*
X111423727Y-129538320D01*
X111162574Y-129430147D01*
X110885335Y-129375000D01*
X110602665Y-129375000D01*
X110325426Y-129430147D01*
X110064273Y-129538320D01*
X109829241Y-129695363D01*
X109629363Y-129895241D01*
X109472320Y-130130273D01*
X109364147Y-130391426D01*
X109309000Y-130668665D01*
X105738343Y-130668665D01*
X105783502Y-130584180D01*
X105819812Y-130464482D01*
X105832072Y-130340000D01*
X105832072Y-128740000D01*
X105819812Y-128615518D01*
X105783502Y-128495820D01*
X105724537Y-128385506D01*
X105645185Y-128288815D01*
X105622259Y-128270000D01*
X113112057Y-128270000D01*
X113139764Y-128551309D01*
X113221818Y-128821808D01*
X113355068Y-129071101D01*
X113534392Y-129289608D01*
X113752899Y-129468932D01*
X114002192Y-129602182D01*
X114272691Y-129684236D01*
X114483508Y-129705000D01*
X114624492Y-129705000D01*
X114835309Y-129684236D01*
X115105808Y-129602182D01*
X115355101Y-129468932D01*
X115573608Y-129289608D01*
X115752932Y-129071101D01*
X115886182Y-128821808D01*
X115968236Y-128551309D01*
X115995943Y-128270000D01*
X115978852Y-128096468D01*
X142083137Y-128096468D01*
X142341298Y-128499073D01*
X142860715Y-128774651D01*
X143423913Y-128943601D01*
X144009250Y-128999430D01*
X144594233Y-128939992D01*
X145156379Y-128767571D01*
X145658702Y-128499073D01*
X145916863Y-128096468D01*
X144000000Y-126179605D01*
X142083137Y-128096468D01*
X115978852Y-128096468D01*
X115968236Y-127988691D01*
X115886182Y-127718192D01*
X115752932Y-127468899D01*
X115573608Y-127250392D01*
X115355101Y-127071068D01*
X115105808Y-126937818D01*
X114835309Y-126855764D01*
X114624492Y-126835000D01*
X114483508Y-126835000D01*
X114272691Y-126855764D01*
X114002192Y-126937818D01*
X113752899Y-127071068D01*
X113534392Y-127250392D01*
X113355068Y-127468899D01*
X113221818Y-127718192D01*
X113139764Y-127988691D01*
X113112057Y-128270000D01*
X105622259Y-128270000D01*
X105548494Y-128209463D01*
X105438180Y-128150498D01*
X105318482Y-128114188D01*
X105194000Y-128101928D01*
X105186785Y-128101928D01*
X105207097Y-128032702D01*
X104394000Y-127219605D01*
X103580903Y-128032702D01*
X103601215Y-128101928D01*
X103594000Y-128101928D01*
X103469518Y-128114188D01*
X103349820Y-128150498D01*
X103239506Y-128209463D01*
X103142815Y-128288815D01*
X103063463Y-128385506D01*
X103004498Y-128495820D01*
X102968188Y-128615518D01*
X102955928Y-128740000D01*
X94920237Y-128740000D01*
X95156379Y-128667571D01*
X95658702Y-128399073D01*
X95916863Y-127996468D01*
X94000000Y-126079605D01*
X92083137Y-127996468D01*
X91592000Y-127996468D01*
X91592000Y-127617100D01*
X91903532Y-127816863D01*
X93820395Y-125900000D01*
X94179605Y-125900000D01*
X96096468Y-127816863D01*
X96499073Y-127558702D01*
X96736861Y-127110512D01*
X102953783Y-127110512D01*
X102995213Y-127390130D01*
X103090397Y-127656292D01*
X103157329Y-127781514D01*
X103401298Y-127853097D01*
X104214395Y-127040000D01*
X104573605Y-127040000D01*
X105386702Y-127853097D01*
X105630671Y-127781514D01*
X105751571Y-127526004D01*
X105820300Y-127251816D01*
X105834217Y-126969488D01*
X105809505Y-126802702D01*
X109930903Y-126802702D01*
X110002486Y-127046671D01*
X110257996Y-127167571D01*
X110532184Y-127236300D01*
X110814512Y-127250217D01*
X111094130Y-127208787D01*
X111360292Y-127113603D01*
X111485514Y-127046671D01*
X111557097Y-126802702D01*
X110744000Y-125989605D01*
X109930903Y-126802702D01*
X105809505Y-126802702D01*
X105792787Y-126689870D01*
X105697603Y-126423708D01*
X105630671Y-126298486D01*
X105386702Y-126226903D01*
X104573605Y-127040000D01*
X104214395Y-127040000D01*
X103401298Y-126226903D01*
X103157329Y-126298486D01*
X103036429Y-126553996D01*
X102967700Y-126828184D01*
X102953783Y-127110512D01*
X96736861Y-127110512D01*
X96774651Y-127039285D01*
X96943601Y-126476087D01*
X96984498Y-126047298D01*
X103580903Y-126047298D01*
X104394000Y-126860395D01*
X105207097Y-126047298D01*
X105158161Y-125880512D01*
X109303783Y-125880512D01*
X109345213Y-126160130D01*
X109440397Y-126426292D01*
X109507329Y-126551514D01*
X109751298Y-126623097D01*
X110564395Y-125810000D01*
X110923605Y-125810000D01*
X111736702Y-126623097D01*
X111980671Y-126551514D01*
X112101571Y-126296004D01*
X112170300Y-126021816D01*
X112184217Y-125739488D01*
X112142787Y-125459870D01*
X112047603Y-125193708D01*
X111980671Y-125068486D01*
X111736702Y-124996903D01*
X110923605Y-125810000D01*
X110564395Y-125810000D01*
X109751298Y-124996903D01*
X109507329Y-125068486D01*
X109386429Y-125323996D01*
X109317700Y-125598184D01*
X109303783Y-125880512D01*
X105158161Y-125880512D01*
X105135514Y-125803329D01*
X104880004Y-125682429D01*
X104605816Y-125613700D01*
X104323488Y-125599783D01*
X104043870Y-125641213D01*
X103777708Y-125736397D01*
X103652486Y-125803329D01*
X103580903Y-126047298D01*
X96984498Y-126047298D01*
X96999430Y-125890750D01*
X96939992Y-125305767D01*
X96767571Y-124743621D01*
X96499073Y-124241298D01*
X96096468Y-123983137D01*
X94179605Y-125900000D01*
X93820395Y-125900000D01*
X91903532Y-123983137D01*
X91592000Y-124182900D01*
X91592000Y-123803532D01*
X92083137Y-123803532D01*
X94000000Y-125720395D01*
X95916863Y-123803532D01*
X95658702Y-123400927D01*
X95139285Y-123125349D01*
X94576087Y-122956399D01*
X93990750Y-122900570D01*
X93405767Y-122960008D01*
X92843621Y-123132429D01*
X92341298Y-123400927D01*
X92083137Y-123803532D01*
X91592000Y-123803532D01*
X91592000Y-122670000D01*
X101960928Y-122670000D01*
X101973188Y-122794482D01*
X102009498Y-122914180D01*
X102068463Y-123024494D01*
X102147815Y-123121185D01*
X102244506Y-123200537D01*
X102354820Y-123259502D01*
X102474518Y-123295812D01*
X102599000Y-123308072D01*
X102838250Y-123305000D01*
X102997000Y-123146250D01*
X102997000Y-122047000D01*
X102122750Y-122047000D01*
X101964000Y-122205750D01*
X101960928Y-122670000D01*
X91592000Y-122670000D01*
X91592000Y-121170000D01*
X101960928Y-121170000D01*
X101964000Y-121634250D01*
X102122750Y-121793000D01*
X102997000Y-121793000D01*
X102997000Y-121638022D01*
X103234000Y-121638022D01*
X103234000Y-122201979D01*
X103250785Y-122372400D01*
X103251000Y-122373109D01*
X103251000Y-123146250D01*
X103409750Y-123305000D01*
X103649000Y-123308072D01*
X103773482Y-123295812D01*
X103893180Y-123259502D01*
X103957902Y-123224907D01*
X104166601Y-123288215D01*
X104394000Y-123310612D01*
X104621400Y-123288215D01*
X104840060Y-123221885D01*
X105029001Y-123120894D01*
X105217941Y-123221885D01*
X105436601Y-123288215D01*
X105664000Y-123310612D01*
X105891400Y-123288215D01*
X106110060Y-123221885D01*
X106311579Y-123114171D01*
X106391398Y-123048665D01*
X109309000Y-123048665D01*
X109309000Y-123331335D01*
X109364147Y-123608574D01*
X109472320Y-123869727D01*
X109629363Y-124104759D01*
X109829241Y-124304637D01*
X110064273Y-124461680D01*
X110151601Y-124497852D01*
X110127708Y-124506397D01*
X110002486Y-124573329D01*
X109930903Y-124817298D01*
X110744000Y-125630395D01*
X111557097Y-124817298D01*
X111485514Y-124573329D01*
X111330855Y-124500149D01*
X111423727Y-124461680D01*
X111658759Y-124304637D01*
X111858637Y-124104759D01*
X112015680Y-123869727D01*
X112123853Y-123608574D01*
X112179000Y-123331335D01*
X112179000Y-123048665D01*
X112123853Y-122771426D01*
X112015680Y-122510273D01*
X111858637Y-122275241D01*
X111658759Y-122075363D01*
X111423727Y-121918320D01*
X111162574Y-121810147D01*
X110885335Y-121755000D01*
X110602665Y-121755000D01*
X110325426Y-121810147D01*
X110064273Y-121918320D01*
X109829241Y-122075363D01*
X109629363Y-122275241D01*
X109472320Y-122510273D01*
X109364147Y-122771426D01*
X109309000Y-123048665D01*
X106391398Y-123048665D01*
X106488212Y-122969212D01*
X106633171Y-122792579D01*
X106740885Y-122591059D01*
X106807215Y-122372399D01*
X106824000Y-122201978D01*
X106824000Y-121638021D01*
X106807215Y-121467600D01*
X106740885Y-121248940D01*
X106633171Y-121047421D01*
X106488212Y-120870788D01*
X106311578Y-120725829D01*
X106110059Y-120618115D01*
X105891399Y-120551785D01*
X105664000Y-120529388D01*
X105436600Y-120551785D01*
X105217940Y-120618115D01*
X105029000Y-120719106D01*
X104840059Y-120618115D01*
X104621399Y-120551785D01*
X104394000Y-120529388D01*
X104166600Y-120551785D01*
X103957902Y-120615093D01*
X103893180Y-120580498D01*
X103773482Y-120544188D01*
X103649000Y-120531928D01*
X103409750Y-120535000D01*
X103251000Y-120693750D01*
X103251000Y-121466892D01*
X103250785Y-121467601D01*
X103234000Y-121638022D01*
X102997000Y-121638022D01*
X102997000Y-120693750D01*
X102838250Y-120535000D01*
X102599000Y-120531928D01*
X102474518Y-120544188D01*
X102354820Y-120580498D01*
X102244506Y-120639463D01*
X102147815Y-120718815D01*
X102068463Y-120815506D01*
X102009498Y-120925820D01*
X101973188Y-121045518D01*
X101960928Y-121170000D01*
X91592000Y-121170000D01*
X91592000Y-119736890D01*
X92538524Y-119736890D01*
X92583175Y-119884099D01*
X92708359Y-120146920D01*
X92882412Y-120380269D01*
X93098645Y-120575178D01*
X93348748Y-120724157D01*
X93623109Y-120821481D01*
X93853000Y-120700814D01*
X93853000Y-119507000D01*
X94107000Y-119507000D01*
X94107000Y-120700814D01*
X94336891Y-120821481D01*
X94611252Y-120724157D01*
X94861355Y-120575178D01*
X95077588Y-120380269D01*
X95251641Y-120146920D01*
X95376825Y-119884099D01*
X95421476Y-119736890D01*
X95300155Y-119507000D01*
X94107000Y-119507000D01*
X93853000Y-119507000D01*
X92659845Y-119507000D01*
X92538524Y-119736890D01*
X91592000Y-119736890D01*
X91592000Y-117196890D01*
X92538524Y-117196890D01*
X92583175Y-117344099D01*
X92708359Y-117606920D01*
X92882412Y-117840269D01*
X93098645Y-118035178D01*
X93224255Y-118110000D01*
X93098645Y-118184822D01*
X92882412Y-118379731D01*
X92708359Y-118613080D01*
X92583175Y-118875901D01*
X92538524Y-119023110D01*
X92659845Y-119253000D01*
X93853000Y-119253000D01*
X93853000Y-116967000D01*
X94107000Y-116967000D01*
X94107000Y-119253000D01*
X95300155Y-119253000D01*
X95337253Y-119182702D01*
X109930903Y-119182702D01*
X110002486Y-119426671D01*
X110257996Y-119547571D01*
X110532184Y-119616300D01*
X110814512Y-119630217D01*
X111094130Y-119588787D01*
X111360292Y-119493603D01*
X111485514Y-119426671D01*
X111557097Y-119182702D01*
X110744000Y-118369605D01*
X109930903Y-119182702D01*
X95337253Y-119182702D01*
X95421476Y-119023110D01*
X95376825Y-118875901D01*
X95251641Y-118613080D01*
X95077588Y-118379731D01*
X94945326Y-118260512D01*
X109303783Y-118260512D01*
X109345213Y-118540130D01*
X109440397Y-118806292D01*
X109507329Y-118931514D01*
X109751298Y-119003097D01*
X110564395Y-118190000D01*
X110923605Y-118190000D01*
X111736702Y-119003097D01*
X111980671Y-118931514D01*
X112101571Y-118676004D01*
X112170300Y-118401816D01*
X112184217Y-118119488D01*
X112142787Y-117839870D01*
X112047603Y-117573708D01*
X111980671Y-117448486D01*
X111736702Y-117376903D01*
X110923605Y-118190000D01*
X110564395Y-118190000D01*
X109751298Y-117376903D01*
X109507329Y-117448486D01*
X109386429Y-117703996D01*
X109317700Y-117978184D01*
X109303783Y-118260512D01*
X94945326Y-118260512D01*
X94861355Y-118184822D01*
X94735745Y-118110000D01*
X94861355Y-118035178D01*
X95077588Y-117840269D01*
X95251641Y-117606920D01*
X95376825Y-117344099D01*
X95421352Y-117197298D01*
X109930903Y-117197298D01*
X110744000Y-118010395D01*
X111557097Y-117197298D01*
X111485514Y-116953329D01*
X111230004Y-116832429D01*
X110955816Y-116763700D01*
X110673488Y-116749783D01*
X110393870Y-116791213D01*
X110127708Y-116886397D01*
X110002486Y-116953329D01*
X109930903Y-117197298D01*
X95421352Y-117197298D01*
X95421476Y-117196890D01*
X95300155Y-116967000D01*
X94107000Y-116967000D01*
X93853000Y-116967000D01*
X92659845Y-116967000D01*
X92538524Y-117196890D01*
X91592000Y-117196890D01*
X91592000Y-115150000D01*
X92491928Y-115150000D01*
X92504188Y-115274482D01*
X92540498Y-115394180D01*
X92599463Y-115504494D01*
X92678815Y-115601185D01*
X92775506Y-115680537D01*
X92885820Y-115739502D01*
X92966466Y-115763966D01*
X92882412Y-115839731D01*
X92708359Y-116073080D01*
X92583175Y-116335901D01*
X92538524Y-116483110D01*
X92659845Y-116713000D01*
X93853000Y-116713000D01*
X93853000Y-114427000D01*
X94107000Y-114427000D01*
X94107000Y-116713000D01*
X95300155Y-116713000D01*
X95421476Y-116483110D01*
X95376825Y-116335901D01*
X95251641Y-116073080D01*
X95077588Y-115839731D01*
X94993534Y-115763966D01*
X95074180Y-115739502D01*
X95184494Y-115680537D01*
X95281185Y-115601185D01*
X95360537Y-115504494D01*
X95419502Y-115394180D01*
X95455812Y-115274482D01*
X95468072Y-115150000D01*
X95465000Y-114585750D01*
X95306250Y-114427000D01*
X94107000Y-114427000D01*
X93853000Y-114427000D01*
X92653750Y-114427000D01*
X92495000Y-114585750D01*
X92491928Y-115150000D01*
X91592000Y-115150000D01*
X91592000Y-113450000D01*
X92491928Y-113450000D01*
X92495000Y-114014250D01*
X92653750Y-114173000D01*
X93853000Y-114173000D01*
X93853000Y-112973750D01*
X94107000Y-112973750D01*
X94107000Y-114173000D01*
X95306250Y-114173000D01*
X95465000Y-114014250D01*
X95468072Y-113450000D01*
X95455812Y-113325518D01*
X95419502Y-113205820D01*
X95360537Y-113095506D01*
X95281185Y-112998815D01*
X95184494Y-112919463D01*
X95126876Y-112888665D01*
X104229000Y-112888665D01*
X104229000Y-113171335D01*
X104284147Y-113448574D01*
X104392320Y-113709727D01*
X104549363Y-113944759D01*
X104749241Y-114144637D01*
X104984273Y-114301680D01*
X105245426Y-114409853D01*
X105522665Y-114465000D01*
X105805335Y-114465000D01*
X106082574Y-114409853D01*
X106343727Y-114301680D01*
X106578759Y-114144637D01*
X106700694Y-114022702D01*
X109850903Y-114022702D01*
X109922486Y-114266671D01*
X110177996Y-114387571D01*
X110452184Y-114456300D01*
X110734512Y-114470217D01*
X111014130Y-114428787D01*
X111280292Y-114333603D01*
X111405514Y-114266671D01*
X111477097Y-114022702D01*
X110664000Y-113209605D01*
X109850903Y-114022702D01*
X106700694Y-114022702D01*
X106778637Y-113944759D01*
X106935680Y-113709727D01*
X107043853Y-113448574D01*
X107099000Y-113171335D01*
X107099000Y-113100512D01*
X109223783Y-113100512D01*
X109265213Y-113380130D01*
X109360397Y-113646292D01*
X109427329Y-113771514D01*
X109671298Y-113843097D01*
X110484395Y-113030000D01*
X110843605Y-113030000D01*
X111656702Y-113843097D01*
X111900671Y-113771514D01*
X112021571Y-113516004D01*
X112090300Y-113241816D01*
X112104217Y-112959488D01*
X112062787Y-112679870D01*
X111967603Y-112413708D01*
X111900671Y-112288486D01*
X111656702Y-112216903D01*
X110843605Y-113030000D01*
X110484395Y-113030000D01*
X109671298Y-112216903D01*
X109427329Y-112288486D01*
X109306429Y-112543996D01*
X109237700Y-112818184D01*
X109223783Y-113100512D01*
X107099000Y-113100512D01*
X107099000Y-112888665D01*
X107043853Y-112611426D01*
X106935680Y-112350273D01*
X106778637Y-112115241D01*
X106700694Y-112037298D01*
X109850903Y-112037298D01*
X110664000Y-112850395D01*
X111477097Y-112037298D01*
X111405514Y-111793329D01*
X111150004Y-111672429D01*
X110875816Y-111603700D01*
X110593488Y-111589783D01*
X110313870Y-111631213D01*
X110047708Y-111726397D01*
X109922486Y-111793329D01*
X109850903Y-112037298D01*
X106700694Y-112037298D01*
X106578759Y-111915363D01*
X106343727Y-111758320D01*
X106082574Y-111650147D01*
X105805335Y-111595000D01*
X105522665Y-111595000D01*
X105245426Y-111650147D01*
X104984273Y-111758320D01*
X104749241Y-111915363D01*
X104549363Y-112115241D01*
X104392320Y-112350273D01*
X104284147Y-112611426D01*
X104229000Y-112888665D01*
X95126876Y-112888665D01*
X95074180Y-112860498D01*
X94954482Y-112824188D01*
X94830000Y-112811928D01*
X94265750Y-112815000D01*
X94107000Y-112973750D01*
X93853000Y-112973750D01*
X93694250Y-112815000D01*
X93130000Y-112811928D01*
X93005518Y-112824188D01*
X92885820Y-112860498D01*
X92775506Y-112919463D01*
X92678815Y-112998815D01*
X92599463Y-113095506D01*
X92540498Y-113205820D01*
X92504188Y-113325518D01*
X92491928Y-113450000D01*
X91592000Y-113450000D01*
X91592000Y-106680000D01*
X92487815Y-106680000D01*
X92516487Y-106971111D01*
X92601401Y-107251034D01*
X92739294Y-107509014D01*
X92924866Y-107735134D01*
X93150986Y-107920706D01*
X93205791Y-107950000D01*
X93150986Y-107979294D01*
X92924866Y-108164866D01*
X92739294Y-108390986D01*
X92601401Y-108648966D01*
X92516487Y-108928889D01*
X92487815Y-109220000D01*
X92516487Y-109511111D01*
X92601401Y-109791034D01*
X92739294Y-110049014D01*
X92924866Y-110275134D01*
X93150986Y-110460706D01*
X93408966Y-110598599D01*
X93688889Y-110683513D01*
X93907050Y-110705000D01*
X94052950Y-110705000D01*
X94271111Y-110683513D01*
X94551034Y-110598599D01*
X94809014Y-110460706D01*
X95035134Y-110275134D01*
X95220706Y-110049014D01*
X95358599Y-109791034D01*
X95443513Y-109511111D01*
X95472185Y-109220000D01*
X95443513Y-108928889D01*
X95358599Y-108648966D01*
X95220706Y-108390986D01*
X95035134Y-108164866D01*
X94809014Y-107979294D01*
X94754209Y-107950000D01*
X94809014Y-107920706D01*
X95035134Y-107735134D01*
X95118469Y-107633589D01*
X108089000Y-107633589D01*
X108089000Y-107906411D01*
X108142225Y-108173989D01*
X108246629Y-108426043D01*
X108398201Y-108652886D01*
X108591114Y-108845799D01*
X108817957Y-108997371D01*
X109070011Y-109101775D01*
X109337589Y-109155000D01*
X109610411Y-109155000D01*
X109877989Y-109101775D01*
X110130043Y-108997371D01*
X110356886Y-108845799D01*
X110549799Y-108652886D01*
X110701371Y-108426043D01*
X110805775Y-108173989D01*
X110859000Y-107906411D01*
X110859000Y-107633589D01*
X110805775Y-107366011D01*
X110701371Y-107113957D01*
X110549799Y-106887114D01*
X110356886Y-106694201D01*
X110130043Y-106542629D01*
X109877989Y-106438225D01*
X109610411Y-106385000D01*
X109337589Y-106385000D01*
X109070011Y-106438225D01*
X108817957Y-106542629D01*
X108591114Y-106694201D01*
X108398201Y-106887114D01*
X108246629Y-107113957D01*
X108142225Y-107366011D01*
X108089000Y-107633589D01*
X95118469Y-107633589D01*
X95220706Y-107509014D01*
X95358599Y-107251034D01*
X95443513Y-106971111D01*
X95472185Y-106680000D01*
X95443513Y-106388889D01*
X95358599Y-106108966D01*
X95220706Y-105850986D01*
X95035134Y-105624866D01*
X95005313Y-105600393D01*
X95074180Y-105579502D01*
X95184494Y-105520537D01*
X95281185Y-105441185D01*
X95360537Y-105344494D01*
X95419502Y-105234180D01*
X95455812Y-105114482D01*
X95468072Y-104990000D01*
X95468072Y-103290000D01*
X95455812Y-103165518D01*
X95419502Y-103045820D01*
X95360537Y-102935506D01*
X95281185Y-102838815D01*
X95184494Y-102759463D01*
X95136088Y-102733589D01*
X108089000Y-102733589D01*
X108089000Y-103006411D01*
X108142225Y-103273989D01*
X108246629Y-103526043D01*
X108398201Y-103752886D01*
X108591114Y-103945799D01*
X108817957Y-104097371D01*
X109070011Y-104201775D01*
X109337589Y-104255000D01*
X109610411Y-104255000D01*
X109877989Y-104201775D01*
X110130043Y-104097371D01*
X110356886Y-103945799D01*
X110549799Y-103752886D01*
X110701371Y-103526043D01*
X110805775Y-103273989D01*
X110859000Y-103006411D01*
X110859000Y-102733589D01*
X110805775Y-102466011D01*
X110701371Y-102213957D01*
X110549799Y-101987114D01*
X110356886Y-101794201D01*
X110130043Y-101642629D01*
X109877989Y-101538225D01*
X109610411Y-101485000D01*
X109337589Y-101485000D01*
X109070011Y-101538225D01*
X108817957Y-101642629D01*
X108591114Y-101794201D01*
X108398201Y-101987114D01*
X108246629Y-102213957D01*
X108142225Y-102466011D01*
X108089000Y-102733589D01*
X95136088Y-102733589D01*
X95074180Y-102700498D01*
X94954482Y-102664188D01*
X94830000Y-102651928D01*
X93130000Y-102651928D01*
X93005518Y-102664188D01*
X92885820Y-102700498D01*
X92775506Y-102759463D01*
X92678815Y-102838815D01*
X92599463Y-102935506D01*
X92540498Y-103045820D01*
X92504188Y-103165518D01*
X92491928Y-103290000D01*
X92491928Y-104990000D01*
X92504188Y-105114482D01*
X92540498Y-105234180D01*
X92599463Y-105344494D01*
X92678815Y-105441185D01*
X92775506Y-105520537D01*
X92885820Y-105579502D01*
X92954687Y-105600393D01*
X92924866Y-105624866D01*
X92739294Y-105850986D01*
X92601401Y-106108966D01*
X92516487Y-106388889D01*
X92487815Y-106680000D01*
X91592000Y-106680000D01*
X91592000Y-83820000D01*
X92487815Y-83820000D01*
X92516487Y-84111111D01*
X92601401Y-84391034D01*
X92739294Y-84649014D01*
X92924866Y-84875134D01*
X93150986Y-85060706D01*
X93205791Y-85090000D01*
X93150986Y-85119294D01*
X92924866Y-85304866D01*
X92739294Y-85530986D01*
X92601401Y-85788966D01*
X92516487Y-86068889D01*
X92487815Y-86360000D01*
X92516487Y-86651111D01*
X92601401Y-86931034D01*
X92739294Y-87189014D01*
X92924866Y-87415134D01*
X93150986Y-87600706D01*
X93205791Y-87630000D01*
X93150986Y-87659294D01*
X92924866Y-87844866D01*
X92739294Y-88070986D01*
X92601401Y-88328966D01*
X92516487Y-88608889D01*
X92487815Y-88900000D01*
X92516487Y-89191111D01*
X92601401Y-89471034D01*
X92739294Y-89729014D01*
X92924866Y-89955134D01*
X93150986Y-90140706D01*
X93205791Y-90170000D01*
X93150986Y-90199294D01*
X92924866Y-90384866D01*
X92739294Y-90610986D01*
X92601401Y-90868966D01*
X92516487Y-91148889D01*
X92487815Y-91440000D01*
X92516487Y-91731111D01*
X92601401Y-92011034D01*
X92739294Y-92269014D01*
X92924866Y-92495134D01*
X93150986Y-92680706D01*
X93205791Y-92710000D01*
X93150986Y-92739294D01*
X92924866Y-92924866D01*
X92739294Y-93150986D01*
X92601401Y-93408966D01*
X92516487Y-93688889D01*
X92487815Y-93980000D01*
X92516487Y-94271111D01*
X92601401Y-94551034D01*
X92739294Y-94809014D01*
X92924866Y-95035134D01*
X93150986Y-95220706D01*
X93205791Y-95250000D01*
X93150986Y-95279294D01*
X92924866Y-95464866D01*
X92739294Y-95690986D01*
X92601401Y-95948966D01*
X92516487Y-96228889D01*
X92487815Y-96520000D01*
X92516487Y-96811111D01*
X92601401Y-97091034D01*
X92739294Y-97349014D01*
X92924866Y-97575134D01*
X93150986Y-97760706D01*
X93205791Y-97790000D01*
X93150986Y-97819294D01*
X92924866Y-98004866D01*
X92739294Y-98230986D01*
X92601401Y-98488966D01*
X92516487Y-98768889D01*
X92487815Y-99060000D01*
X92516487Y-99351111D01*
X92601401Y-99631034D01*
X92739294Y-99889014D01*
X92924866Y-100115134D01*
X93150986Y-100300706D01*
X93408966Y-100438599D01*
X93688889Y-100523513D01*
X93907050Y-100545000D01*
X94052950Y-100545000D01*
X94271111Y-100523513D01*
X94551034Y-100438599D01*
X94809014Y-100300706D01*
X95035134Y-100115134D01*
X95220706Y-99889014D01*
X95358599Y-99631034D01*
X95443513Y-99351111D01*
X95472185Y-99060000D01*
X95443513Y-98768889D01*
X95358599Y-98488966D01*
X95220706Y-98230986D01*
X95035134Y-98004866D01*
X94809014Y-97819294D01*
X94754209Y-97790000D01*
X94809014Y-97760706D01*
X94945536Y-97648665D01*
X104229000Y-97648665D01*
X104229000Y-97931335D01*
X104284147Y-98208574D01*
X104392320Y-98469727D01*
X104549363Y-98704759D01*
X104749241Y-98904637D01*
X104984273Y-99061680D01*
X105245426Y-99169853D01*
X105522665Y-99225000D01*
X105805335Y-99225000D01*
X106082574Y-99169853D01*
X106343727Y-99061680D01*
X106578759Y-98904637D01*
X106700694Y-98782702D01*
X109850903Y-98782702D01*
X109922486Y-99026671D01*
X110177996Y-99147571D01*
X110452184Y-99216300D01*
X110734512Y-99230217D01*
X111014130Y-99188787D01*
X111280292Y-99093603D01*
X111405514Y-99026671D01*
X111477097Y-98782702D01*
X110664000Y-97969605D01*
X109850903Y-98782702D01*
X106700694Y-98782702D01*
X106778637Y-98704759D01*
X106935680Y-98469727D01*
X107043853Y-98208574D01*
X107099000Y-97931335D01*
X107099000Y-97860512D01*
X109223783Y-97860512D01*
X109265213Y-98140130D01*
X109360397Y-98406292D01*
X109427329Y-98531514D01*
X109671298Y-98603097D01*
X110484395Y-97790000D01*
X110843605Y-97790000D01*
X111656702Y-98603097D01*
X111900671Y-98531514D01*
X112021571Y-98276004D01*
X112090300Y-98001816D01*
X112104217Y-97719488D01*
X112062787Y-97439870D01*
X111967603Y-97173708D01*
X111900671Y-97048486D01*
X111656702Y-96976903D01*
X110843605Y-97790000D01*
X110484395Y-97790000D01*
X109671298Y-96976903D01*
X109427329Y-97048486D01*
X109306429Y-97303996D01*
X109237700Y-97578184D01*
X109223783Y-97860512D01*
X107099000Y-97860512D01*
X107099000Y-97648665D01*
X107043853Y-97371426D01*
X106935680Y-97110273D01*
X106778637Y-96875241D01*
X106700694Y-96797298D01*
X109850903Y-96797298D01*
X110664000Y-97610395D01*
X111477097Y-96797298D01*
X111405514Y-96553329D01*
X111150004Y-96432429D01*
X110875816Y-96363700D01*
X110593488Y-96349783D01*
X110313870Y-96391213D01*
X110047708Y-96486397D01*
X109922486Y-96553329D01*
X109850903Y-96797298D01*
X106700694Y-96797298D01*
X106578759Y-96675363D01*
X106343727Y-96518320D01*
X106082574Y-96410147D01*
X105805335Y-96355000D01*
X105522665Y-96355000D01*
X105245426Y-96410147D01*
X104984273Y-96518320D01*
X104749241Y-96675363D01*
X104549363Y-96875241D01*
X104392320Y-97110273D01*
X104284147Y-97371426D01*
X104229000Y-97648665D01*
X94945536Y-97648665D01*
X95035134Y-97575134D01*
X95220706Y-97349014D01*
X95358599Y-97091034D01*
X95443513Y-96811111D01*
X95472185Y-96520000D01*
X95443513Y-96228889D01*
X95358599Y-95948966D01*
X95220706Y-95690986D01*
X95035134Y-95464866D01*
X94809014Y-95279294D01*
X94754209Y-95250000D01*
X94809014Y-95220706D01*
X95035134Y-95035134D01*
X95220706Y-94809014D01*
X95358599Y-94551034D01*
X95443513Y-94271111D01*
X95472185Y-93980000D01*
X95443513Y-93688889D01*
X95358599Y-93408966D01*
X95220706Y-93150986D01*
X95035134Y-92924866D01*
X94809014Y-92739294D01*
X94754209Y-92710000D01*
X94809014Y-92680706D01*
X95035134Y-92495134D01*
X95220706Y-92269014D01*
X95358599Y-92011034D01*
X95443513Y-91731111D01*
X95472185Y-91440000D01*
X95443513Y-91148889D01*
X95358599Y-90868966D01*
X95220706Y-90610986D01*
X95035134Y-90384866D01*
X94809014Y-90199294D01*
X94754209Y-90170000D01*
X94809014Y-90140706D01*
X95035134Y-89955134D01*
X95220706Y-89729014D01*
X95358599Y-89471034D01*
X95363337Y-89455413D01*
X102041192Y-89455413D01*
X102136956Y-89719814D01*
X102426571Y-89860704D01*
X102738108Y-89942384D01*
X103059595Y-89961718D01*
X103378675Y-89917961D01*
X103683088Y-89812795D01*
X103857044Y-89719814D01*
X103952808Y-89455413D01*
X108541192Y-89455413D01*
X108636956Y-89719814D01*
X108926571Y-89860704D01*
X109238108Y-89942384D01*
X109559595Y-89961718D01*
X109878675Y-89917961D01*
X110183088Y-89812795D01*
X110357044Y-89719814D01*
X110452808Y-89455413D01*
X109497000Y-88499605D01*
X108541192Y-89455413D01*
X103952808Y-89455413D01*
X102997000Y-88499605D01*
X102041192Y-89455413D01*
X95363337Y-89455413D01*
X95443513Y-89191111D01*
X95472185Y-88900000D01*
X95443513Y-88608889D01*
X95374868Y-88382595D01*
X101355282Y-88382595D01*
X101399039Y-88701675D01*
X101504205Y-89006088D01*
X101597186Y-89180044D01*
X101861587Y-89275808D01*
X102817395Y-88320000D01*
X103176605Y-88320000D01*
X104132413Y-89275808D01*
X104396814Y-89180044D01*
X104537704Y-88890429D01*
X104619384Y-88578892D01*
X104631189Y-88382595D01*
X107855282Y-88382595D01*
X107899039Y-88701675D01*
X108004205Y-89006088D01*
X108097186Y-89180044D01*
X108361587Y-89275808D01*
X109317395Y-88320000D01*
X109676605Y-88320000D01*
X110632413Y-89275808D01*
X110896814Y-89180044D01*
X111037704Y-88890429D01*
X111119384Y-88578892D01*
X111138718Y-88257405D01*
X111094961Y-87938325D01*
X110989795Y-87633912D01*
X110896814Y-87459956D01*
X110632413Y-87364192D01*
X109676605Y-88320000D01*
X109317395Y-88320000D01*
X108361587Y-87364192D01*
X108097186Y-87459956D01*
X107956296Y-87749571D01*
X107874616Y-88061108D01*
X107855282Y-88382595D01*
X104631189Y-88382595D01*
X104638718Y-88257405D01*
X104594961Y-87938325D01*
X104489795Y-87633912D01*
X104396814Y-87459956D01*
X104132413Y-87364192D01*
X103176605Y-88320000D01*
X102817395Y-88320000D01*
X101861587Y-87364192D01*
X101597186Y-87459956D01*
X101456296Y-87749571D01*
X101374616Y-88061108D01*
X101355282Y-88382595D01*
X95374868Y-88382595D01*
X95358599Y-88328966D01*
X95220706Y-88070986D01*
X95035134Y-87844866D01*
X94809014Y-87659294D01*
X94754209Y-87630000D01*
X94809014Y-87600706D01*
X95035134Y-87415134D01*
X95220706Y-87189014D01*
X95223072Y-87184587D01*
X102041192Y-87184587D01*
X102997000Y-88140395D01*
X103952808Y-87184587D01*
X108541192Y-87184587D01*
X109497000Y-88140395D01*
X110452808Y-87184587D01*
X110357044Y-86920186D01*
X110067429Y-86779296D01*
X109755892Y-86697616D01*
X109434405Y-86678282D01*
X109115325Y-86722039D01*
X108810912Y-86827205D01*
X108636956Y-86920186D01*
X108541192Y-87184587D01*
X103952808Y-87184587D01*
X103857044Y-86920186D01*
X103567429Y-86779296D01*
X103255892Y-86697616D01*
X102934405Y-86678282D01*
X102615325Y-86722039D01*
X102310912Y-86827205D01*
X102136956Y-86920186D01*
X102041192Y-87184587D01*
X95223072Y-87184587D01*
X95358599Y-86931034D01*
X95443513Y-86651111D01*
X95472185Y-86360000D01*
X112954846Y-86360000D01*
X112982553Y-86641309D01*
X113064607Y-86911808D01*
X113197857Y-87161101D01*
X113377181Y-87379608D01*
X113595688Y-87558932D01*
X113728647Y-87630000D01*
X113595688Y-87701068D01*
X113377181Y-87880392D01*
X113197857Y-88098899D01*
X113064607Y-88348192D01*
X112982553Y-88618691D01*
X112954846Y-88900000D01*
X112982553Y-89181309D01*
X113064607Y-89451808D01*
X113197857Y-89701101D01*
X113377181Y-89919608D01*
X113595688Y-90098932D01*
X113728647Y-90170000D01*
X113595688Y-90241068D01*
X113377181Y-90420392D01*
X113197857Y-90638899D01*
X113064607Y-90888192D01*
X112982553Y-91158691D01*
X112954846Y-91440000D01*
X112982553Y-91721309D01*
X113064607Y-91991808D01*
X113197857Y-92241101D01*
X113377181Y-92459608D01*
X113595688Y-92638932D01*
X113728647Y-92710000D01*
X113595688Y-92781068D01*
X113377181Y-92960392D01*
X113197857Y-93178899D01*
X113064607Y-93428192D01*
X112982553Y-93698691D01*
X112954846Y-93980000D01*
X112982553Y-94261309D01*
X113064607Y-94531808D01*
X113197857Y-94781101D01*
X113377181Y-94999608D01*
X113595688Y-95178932D01*
X113728647Y-95250000D01*
X113595688Y-95321068D01*
X113377181Y-95500392D01*
X113197857Y-95718899D01*
X113064607Y-95968192D01*
X112982553Y-96238691D01*
X112954846Y-96520000D01*
X112982553Y-96801309D01*
X113064607Y-97071808D01*
X113197857Y-97321101D01*
X113377181Y-97539608D01*
X113595688Y-97718932D01*
X113728647Y-97790000D01*
X113595688Y-97861068D01*
X113377181Y-98040392D01*
X113197857Y-98258899D01*
X113064607Y-98508192D01*
X112982553Y-98778691D01*
X112954846Y-99060000D01*
X112982553Y-99341309D01*
X113064607Y-99611808D01*
X113197857Y-99861101D01*
X113377181Y-100079608D01*
X113595688Y-100258932D01*
X113733471Y-100332579D01*
X113541658Y-100447615D01*
X113333270Y-100636586D01*
X113165752Y-100862580D01*
X113045543Y-101116913D01*
X113004885Y-101250961D01*
X113126874Y-101473000D01*
X114269789Y-101473000D01*
X114269789Y-101453000D01*
X114523789Y-101453000D01*
X114523789Y-101473000D01*
X115666704Y-101473000D01*
X115788693Y-101250961D01*
X115748035Y-101116913D01*
X115627826Y-100862580D01*
X115460308Y-100636586D01*
X115251920Y-100447615D01*
X115060107Y-100332579D01*
X115197890Y-100258932D01*
X115416397Y-100079608D01*
X115588418Y-99870000D01*
X116800212Y-99870000D01*
X116840000Y-99873919D01*
X116879788Y-99870000D01*
X116879791Y-99870000D01*
X116998788Y-99858280D01*
X117151473Y-99811963D01*
X117292189Y-99736749D01*
X117415528Y-99635528D01*
X117440899Y-99604613D01*
X118745455Y-98300058D01*
X118832812Y-98371750D01*
X118973528Y-98446964D01*
X119126213Y-98493281D01*
X119245210Y-98505001D01*
X119245213Y-98505001D01*
X119285001Y-98508920D01*
X119324789Y-98505001D01*
X120699532Y-98505001D01*
X120665543Y-98576913D01*
X120624885Y-98710961D01*
X120746874Y-98933000D01*
X121889789Y-98933000D01*
X121889789Y-98913000D01*
X122143789Y-98913000D01*
X122143789Y-98933000D01*
X122163789Y-98933000D01*
X122163789Y-99187000D01*
X122143789Y-99187000D01*
X122143789Y-99207000D01*
X121889789Y-99207000D01*
X121889789Y-99187000D01*
X120746874Y-99187000D01*
X120624885Y-99409039D01*
X120665543Y-99543087D01*
X120746796Y-99714999D01*
X120542326Y-99714999D01*
X120505001Y-99711323D01*
X120467676Y-99714999D01*
X120467668Y-99714999D01*
X120356015Y-99725996D01*
X120212754Y-99769453D01*
X120080725Y-99840025D01*
X119965000Y-99934998D01*
X119941202Y-99963996D01*
X118869002Y-101036196D01*
X118839999Y-101059999D01*
X118798987Y-101109973D01*
X118745026Y-101175724D01*
X118719221Y-101224002D01*
X118674454Y-101307754D01*
X118630997Y-101451015D01*
X118620000Y-101562668D01*
X118620000Y-101562678D01*
X118616324Y-101600000D01*
X118620000Y-101637322D01*
X118620000Y-105226199D01*
X117022804Y-103629003D01*
X116999001Y-103599999D01*
X116883276Y-103505026D01*
X116751247Y-103434454D01*
X116607986Y-103390997D01*
X116496333Y-103380000D01*
X116496322Y-103380000D01*
X116459000Y-103376324D01*
X116421678Y-103380000D01*
X115617690Y-103380000D01*
X115595721Y-103338899D01*
X115416397Y-103120392D01*
X115197890Y-102941068D01*
X115060107Y-102867421D01*
X115251920Y-102752385D01*
X115460308Y-102563414D01*
X115627826Y-102337420D01*
X115748035Y-102083087D01*
X115788693Y-101949039D01*
X115666704Y-101727000D01*
X114523789Y-101727000D01*
X114523789Y-101747000D01*
X114269789Y-101747000D01*
X114269789Y-101727000D01*
X113126874Y-101727000D01*
X113004885Y-101949039D01*
X113045543Y-102083087D01*
X113165752Y-102337420D01*
X113333270Y-102563414D01*
X113541658Y-102752385D01*
X113733471Y-102867421D01*
X113595688Y-102941068D01*
X113377181Y-103120392D01*
X113197857Y-103338899D01*
X113064607Y-103588192D01*
X112982553Y-103858691D01*
X112954846Y-104140000D01*
X112982553Y-104421309D01*
X113064607Y-104691808D01*
X113197857Y-104941101D01*
X113377181Y-105159608D01*
X113595688Y-105338932D01*
X113728647Y-105410000D01*
X113595688Y-105481068D01*
X113377181Y-105660392D01*
X113197857Y-105878899D01*
X113064607Y-106128192D01*
X112982553Y-106398691D01*
X112954846Y-106680000D01*
X112982553Y-106961309D01*
X113064607Y-107231808D01*
X113197857Y-107481101D01*
X113377181Y-107699608D01*
X113595688Y-107878932D01*
X113728647Y-107950000D01*
X113595688Y-108021068D01*
X113377181Y-108200392D01*
X113197857Y-108418899D01*
X113064607Y-108668192D01*
X112982553Y-108938691D01*
X112954846Y-109220000D01*
X112982553Y-109501309D01*
X113064607Y-109771808D01*
X113197857Y-110021101D01*
X113377181Y-110239608D01*
X113595688Y-110418932D01*
X113728647Y-110490000D01*
X113595688Y-110561068D01*
X113377181Y-110740392D01*
X113197857Y-110958899D01*
X113064607Y-111208192D01*
X112982553Y-111478691D01*
X112954846Y-111760000D01*
X112982553Y-112041309D01*
X113064607Y-112311808D01*
X113197857Y-112561101D01*
X113377181Y-112779608D01*
X113595688Y-112958932D01*
X113728647Y-113030000D01*
X113595688Y-113101068D01*
X113377181Y-113280392D01*
X113197857Y-113498899D01*
X113064607Y-113748192D01*
X112982553Y-114018691D01*
X112954846Y-114300000D01*
X112982553Y-114581309D01*
X113064607Y-114851808D01*
X113197857Y-115101101D01*
X113377181Y-115319608D01*
X113595688Y-115498932D01*
X113728647Y-115570000D01*
X113595688Y-115641068D01*
X113377181Y-115820392D01*
X113197857Y-116038899D01*
X113064607Y-116288192D01*
X112982553Y-116558691D01*
X112954846Y-116840000D01*
X112982553Y-117121309D01*
X113064607Y-117391808D01*
X113197857Y-117641101D01*
X113377181Y-117859608D01*
X113595688Y-118038932D01*
X113844981Y-118172182D01*
X114115480Y-118254236D01*
X114326297Y-118275000D01*
X114467281Y-118275000D01*
X114678098Y-118254236D01*
X114948597Y-118172182D01*
X115197890Y-118038932D01*
X115416397Y-117859608D01*
X115595721Y-117641101D01*
X115728971Y-117391808D01*
X115811025Y-117121309D01*
X115838732Y-116840000D01*
X115811025Y-116558691D01*
X115728971Y-116288192D01*
X115595721Y-116038899D01*
X115416397Y-115820392D01*
X115197890Y-115641068D01*
X115064931Y-115570000D01*
X115197890Y-115498932D01*
X115416397Y-115319608D01*
X115595721Y-115101101D01*
X115728971Y-114851808D01*
X115811025Y-114581309D01*
X115838732Y-114300000D01*
X115811025Y-114018691D01*
X115728971Y-113748192D01*
X115595721Y-113498899D01*
X115416397Y-113280392D01*
X115197890Y-113101068D01*
X115064931Y-113030000D01*
X115197890Y-112958932D01*
X115416397Y-112779608D01*
X115595721Y-112561101D01*
X115728971Y-112311808D01*
X115811025Y-112041309D01*
X115838732Y-111760000D01*
X115811025Y-111478691D01*
X115728971Y-111208192D01*
X115595721Y-110958899D01*
X115416397Y-110740392D01*
X115197890Y-110561068D01*
X115064931Y-110490000D01*
X115197890Y-110418932D01*
X115416397Y-110239608D01*
X115595721Y-110021101D01*
X115728971Y-109771808D01*
X115811025Y-109501309D01*
X115838732Y-109220000D01*
X115811025Y-108938691D01*
X115728971Y-108668192D01*
X115595721Y-108418899D01*
X115416397Y-108200392D01*
X115197890Y-108021068D01*
X115064931Y-107950000D01*
X115197890Y-107878932D01*
X115416397Y-107699608D01*
X115595721Y-107481101D01*
X115617690Y-107440000D01*
X117160199Y-107440000D01*
X117350001Y-107629803D01*
X117350000Y-123152678D01*
X117346324Y-123190000D01*
X117350000Y-123227322D01*
X117350000Y-123227332D01*
X117360997Y-123338985D01*
X117372428Y-123376667D01*
X117404454Y-123482246D01*
X117475026Y-123614276D01*
X117514871Y-123662826D01*
X117569999Y-123730001D01*
X117599003Y-123753804D01*
X121356201Y-127511003D01*
X121379999Y-127540001D01*
X121495724Y-127634974D01*
X121627753Y-127705546D01*
X121771014Y-127749003D01*
X121882667Y-127760000D01*
X121882675Y-127760000D01*
X121920000Y-127763676D01*
X121957325Y-127760000D01*
X136487678Y-127760000D01*
X136525000Y-127763676D01*
X136562322Y-127760000D01*
X136562333Y-127760000D01*
X136673986Y-127749003D01*
X136817247Y-127705546D01*
X136949276Y-127634974D01*
X137065001Y-127540001D01*
X137088804Y-127510997D01*
X138590551Y-126009250D01*
X141000570Y-126009250D01*
X141060008Y-126594233D01*
X141232429Y-127156379D01*
X141500927Y-127658702D01*
X141903532Y-127916863D01*
X143820395Y-126000000D01*
X141903532Y-124083137D01*
X141500927Y-124341298D01*
X141225349Y-124860715D01*
X141056399Y-125423913D01*
X141000570Y-126009250D01*
X138590551Y-126009250D01*
X138941003Y-125658799D01*
X138970001Y-125635001D01*
X139064974Y-125519276D01*
X139135546Y-125387247D01*
X139179003Y-125243986D01*
X139190000Y-125132333D01*
X139190000Y-125132323D01*
X139193676Y-125095000D01*
X139190000Y-125057677D01*
X139190000Y-123903532D01*
X142083137Y-123903532D01*
X144000000Y-125820395D01*
X145916863Y-123903532D01*
X145658702Y-123500927D01*
X145139285Y-123225349D01*
X144576087Y-123056399D01*
X143990750Y-123000570D01*
X143405767Y-123060008D01*
X142843621Y-123232429D01*
X142341298Y-123500927D01*
X142083137Y-123903532D01*
X139190000Y-123903532D01*
X139190000Y-122234801D01*
X140014802Y-121410000D01*
X142232405Y-121410000D01*
X142269294Y-121479014D01*
X142454866Y-121705134D01*
X142680986Y-121890706D01*
X142938966Y-122028599D01*
X143218889Y-122113513D01*
X143437050Y-122135000D01*
X143582950Y-122135000D01*
X143801111Y-122113513D01*
X144081034Y-122028599D01*
X144339014Y-121890706D01*
X144565134Y-121705134D01*
X144750706Y-121479014D01*
X144888599Y-121221034D01*
X144973513Y-120941111D01*
X145002185Y-120650000D01*
X144973513Y-120358889D01*
X144888599Y-120078966D01*
X144750706Y-119820986D01*
X144565134Y-119594866D01*
X144339014Y-119409294D01*
X144284209Y-119380000D01*
X144339014Y-119350706D01*
X144565134Y-119165134D01*
X144750706Y-118939014D01*
X144888599Y-118681034D01*
X144973513Y-118401111D01*
X145002185Y-118110000D01*
X144973513Y-117818889D01*
X144888599Y-117538966D01*
X144750706Y-117280986D01*
X144565134Y-117054866D01*
X144339014Y-116869294D01*
X144284209Y-116840000D01*
X144339014Y-116810706D01*
X144565134Y-116625134D01*
X144750706Y-116399014D01*
X144888599Y-116141034D01*
X144973513Y-115861111D01*
X145002185Y-115570000D01*
X144973513Y-115278889D01*
X144888599Y-114998966D01*
X144750706Y-114740986D01*
X144565134Y-114514866D01*
X144339014Y-114329294D01*
X144274477Y-114294799D01*
X144391355Y-114225178D01*
X144607588Y-114030269D01*
X144781641Y-113796920D01*
X144906825Y-113534099D01*
X144951476Y-113386890D01*
X144830155Y-113157000D01*
X143637000Y-113157000D01*
X143637000Y-113177000D01*
X143383000Y-113177000D01*
X143383000Y-113157000D01*
X142189845Y-113157000D01*
X142068524Y-113386890D01*
X142113175Y-113534099D01*
X142238359Y-113796920D01*
X142412412Y-114030269D01*
X142628645Y-114225178D01*
X142745523Y-114294799D01*
X142680986Y-114329294D01*
X142454866Y-114514866D01*
X142269294Y-114740986D01*
X142131401Y-114998966D01*
X142046487Y-115278889D01*
X142017815Y-115570000D01*
X142046487Y-115861111D01*
X142131401Y-116141034D01*
X142269294Y-116399014D01*
X142454866Y-116625134D01*
X142680986Y-116810706D01*
X142735791Y-116840000D01*
X142680986Y-116869294D01*
X142454866Y-117054866D01*
X142269294Y-117280986D01*
X142232405Y-117350000D01*
X139483325Y-117350000D01*
X139446000Y-117346324D01*
X139408675Y-117350000D01*
X139408667Y-117350000D01*
X139297014Y-117360997D01*
X139153753Y-117404454D01*
X139021724Y-117475026D01*
X138905999Y-117569999D01*
X138882201Y-117598997D01*
X137157003Y-119324196D01*
X137127999Y-119347999D01*
X137077696Y-119409294D01*
X137033026Y-119463724D01*
X136988209Y-119547571D01*
X136962454Y-119595754D01*
X136918997Y-119739015D01*
X136908000Y-119850668D01*
X136908000Y-119850678D01*
X136904324Y-119888000D01*
X136908000Y-119925323D01*
X136908001Y-124018197D01*
X135702199Y-125224000D01*
X122615802Y-125224000D01*
X119689990Y-122298189D01*
X119689990Y-114160792D01*
X120340205Y-114811008D01*
X120363999Y-114840001D01*
X120392992Y-114863795D01*
X120392996Y-114863799D01*
X120440762Y-114902999D01*
X120479724Y-114934974D01*
X120611753Y-115005546D01*
X120755014Y-115049003D01*
X120791955Y-115052641D01*
X120817857Y-115101101D01*
X120997181Y-115319608D01*
X121215688Y-115498932D01*
X121348647Y-115570000D01*
X121215688Y-115641068D01*
X120997181Y-115820392D01*
X120817857Y-116038899D01*
X120684607Y-116288192D01*
X120602553Y-116558691D01*
X120574846Y-116840000D01*
X120602553Y-117121309D01*
X120684607Y-117391808D01*
X120817857Y-117641101D01*
X120997181Y-117859608D01*
X121215688Y-118038932D01*
X121464981Y-118172182D01*
X121735480Y-118254236D01*
X121946297Y-118275000D01*
X122087281Y-118275000D01*
X122298098Y-118254236D01*
X122568597Y-118172182D01*
X122817890Y-118038932D01*
X123036397Y-117859608D01*
X123215721Y-117641101D01*
X123348971Y-117391808D01*
X123431025Y-117121309D01*
X123458732Y-116840000D01*
X123431025Y-116558691D01*
X123348971Y-116288192D01*
X123215721Y-116038899D01*
X123036397Y-115820392D01*
X122817890Y-115641068D01*
X122684931Y-115570000D01*
X122817890Y-115498932D01*
X123036397Y-115319608D01*
X123215721Y-115101101D01*
X123348971Y-114851808D01*
X123431025Y-114581309D01*
X123458732Y-114300000D01*
X123431025Y-114018691D01*
X123348971Y-113748192D01*
X123215721Y-113498899D01*
X123036397Y-113280392D01*
X122817890Y-113101068D01*
X122684931Y-113030000D01*
X122817890Y-112958932D01*
X123036397Y-112779608D01*
X123215721Y-112561101D01*
X123348971Y-112311808D01*
X123431025Y-112041309D01*
X123458732Y-111760000D01*
X123431025Y-111478691D01*
X123348971Y-111208192D01*
X123215721Y-110958899D01*
X123036397Y-110740392D01*
X122817890Y-110561068D01*
X122684931Y-110490000D01*
X122817890Y-110418932D01*
X123036397Y-110239608D01*
X123215721Y-110021101D01*
X123237690Y-109980000D01*
X124653199Y-109980000D01*
X125224000Y-110550802D01*
X125224001Y-111214658D01*
X125220323Y-111252000D01*
X125224000Y-111289333D01*
X125224001Y-121882667D01*
X125220324Y-121920000D01*
X125224001Y-121957333D01*
X125234998Y-122068986D01*
X125241820Y-122091476D01*
X125278454Y-122212246D01*
X125349026Y-122344276D01*
X125416362Y-122426324D01*
X125444000Y-122460001D01*
X125472998Y-122483799D01*
X126690200Y-123701002D01*
X126713999Y-123730001D01*
X126829724Y-123824974D01*
X126961753Y-123895546D01*
X127105014Y-123939003D01*
X127216667Y-123950000D01*
X127216676Y-123950000D01*
X127253999Y-123953676D01*
X127291322Y-123950000D01*
X127924928Y-123950000D01*
X127924928Y-124040000D01*
X127937188Y-124164482D01*
X127973498Y-124284180D01*
X128032463Y-124394494D01*
X128111815Y-124491185D01*
X128208506Y-124570537D01*
X128318820Y-124629502D01*
X128438518Y-124665812D01*
X128563000Y-124678072D01*
X130263000Y-124678072D01*
X130387482Y-124665812D01*
X130507180Y-124629502D01*
X130617494Y-124570537D01*
X130714185Y-124491185D01*
X130793537Y-124394494D01*
X130852502Y-124284180D01*
X130873393Y-124215313D01*
X130897866Y-124245134D01*
X131123986Y-124430706D01*
X131381966Y-124568599D01*
X131661889Y-124653513D01*
X131880050Y-124675000D01*
X132025950Y-124675000D01*
X132244111Y-124653513D01*
X132524034Y-124568599D01*
X132782014Y-124430706D01*
X133008134Y-124245134D01*
X133193706Y-124019014D01*
X133223000Y-123964209D01*
X133252294Y-124019014D01*
X133437866Y-124245134D01*
X133663986Y-124430706D01*
X133921966Y-124568599D01*
X134201889Y-124653513D01*
X134420050Y-124675000D01*
X134565950Y-124675000D01*
X134784111Y-124653513D01*
X135064034Y-124568599D01*
X135322014Y-124430706D01*
X135548134Y-124245134D01*
X135733706Y-124019014D01*
X135871599Y-123761034D01*
X135956513Y-123481111D01*
X135985185Y-123190000D01*
X135956513Y-122898889D01*
X135871599Y-122618966D01*
X135733706Y-122360986D01*
X135548134Y-122134866D01*
X135322014Y-121949294D01*
X135264244Y-121918416D01*
X135493269Y-121747588D01*
X135688178Y-121531355D01*
X135837157Y-121281252D01*
X135934481Y-121006891D01*
X135813814Y-120777000D01*
X134620000Y-120777000D01*
X134620000Y-120797000D01*
X134366000Y-120797000D01*
X134366000Y-120777000D01*
X134346000Y-120777000D01*
X134346000Y-120523000D01*
X134366000Y-120523000D01*
X134366000Y-119329845D01*
X134620000Y-119329845D01*
X134620000Y-120523000D01*
X135813814Y-120523000D01*
X135934481Y-120293109D01*
X135837157Y-120018748D01*
X135688178Y-119768645D01*
X135493269Y-119552412D01*
X135259920Y-119378359D01*
X134997099Y-119253175D01*
X134849890Y-119208524D01*
X134620000Y-119329845D01*
X134366000Y-119329845D01*
X134136110Y-119208524D01*
X133988901Y-119253175D01*
X133726080Y-119378359D01*
X133492731Y-119552412D01*
X133297822Y-119768645D01*
X133228201Y-119885523D01*
X133193706Y-119820986D01*
X133008134Y-119594866D01*
X132782014Y-119409294D01*
X132713000Y-119372405D01*
X132713000Y-115757801D01*
X133643802Y-114827000D01*
X133705939Y-114827000D01*
X133905898Y-114787226D01*
X134094256Y-114709205D01*
X134263774Y-114595937D01*
X134407937Y-114451774D01*
X134521205Y-114282256D01*
X134599226Y-114093898D01*
X134639000Y-113893939D01*
X134639000Y-113690061D01*
X134599226Y-113490102D01*
X134521205Y-113301744D01*
X134508269Y-113282384D01*
X134640121Y-113194284D01*
X134784284Y-113050121D01*
X134897552Y-112880603D01*
X134975573Y-112692245D01*
X135015347Y-112492286D01*
X135015347Y-112288408D01*
X134975573Y-112088449D01*
X134943907Y-112012000D01*
X138968597Y-112012000D01*
X139005919Y-112015676D01*
X139043241Y-112012000D01*
X139043252Y-112012000D01*
X139154905Y-112001003D01*
X139298166Y-111957546D01*
X139430195Y-111886974D01*
X139545920Y-111792001D01*
X139569723Y-111762997D01*
X142397494Y-108935226D01*
X142454866Y-109005134D01*
X142680986Y-109190706D01*
X142735791Y-109220000D01*
X142680986Y-109249294D01*
X142454866Y-109434866D01*
X142269294Y-109660986D01*
X142131401Y-109918966D01*
X142046487Y-110198889D01*
X142017815Y-110490000D01*
X142046487Y-110781111D01*
X142131401Y-111061034D01*
X142269294Y-111319014D01*
X142454866Y-111545134D01*
X142680986Y-111730706D01*
X142745523Y-111765201D01*
X142628645Y-111834822D01*
X142412412Y-112029731D01*
X142238359Y-112263080D01*
X142113175Y-112525901D01*
X142068524Y-112673110D01*
X142189845Y-112903000D01*
X143383000Y-112903000D01*
X143383000Y-112883000D01*
X143637000Y-112883000D01*
X143637000Y-112903000D01*
X144830155Y-112903000D01*
X144951476Y-112673110D01*
X144906825Y-112525901D01*
X144781641Y-112263080D01*
X144607588Y-112029731D01*
X144391355Y-111834822D01*
X144274477Y-111765201D01*
X144339014Y-111730706D01*
X144565134Y-111545134D01*
X144750706Y-111319014D01*
X144888599Y-111061034D01*
X144973513Y-110781111D01*
X145002185Y-110490000D01*
X144973513Y-110198889D01*
X144888599Y-109918966D01*
X144750706Y-109660986D01*
X144565134Y-109434866D01*
X144339014Y-109249294D01*
X144284209Y-109220000D01*
X144339014Y-109190706D01*
X144565134Y-109005134D01*
X144750706Y-108779014D01*
X144888599Y-108521034D01*
X144973513Y-108241111D01*
X145002185Y-107950000D01*
X144973513Y-107658889D01*
X144888599Y-107378966D01*
X144750706Y-107120986D01*
X144565134Y-106894866D01*
X144339014Y-106709294D01*
X144284209Y-106680000D01*
X144339014Y-106650706D01*
X144565134Y-106465134D01*
X144750706Y-106239014D01*
X144888599Y-105981034D01*
X144973513Y-105701111D01*
X145002185Y-105410000D01*
X144973513Y-105118889D01*
X144888599Y-104838966D01*
X144750706Y-104580986D01*
X144565134Y-104354866D01*
X144339014Y-104169294D01*
X144284209Y-104140000D01*
X144339014Y-104110706D01*
X144565134Y-103925134D01*
X144750706Y-103699014D01*
X144888599Y-103441034D01*
X144973513Y-103161111D01*
X145002185Y-102870000D01*
X144973513Y-102578889D01*
X144888599Y-102298966D01*
X144750706Y-102040986D01*
X144565134Y-101814866D01*
X144339014Y-101629294D01*
X144284209Y-101600000D01*
X144339014Y-101570706D01*
X144565134Y-101385134D01*
X144750706Y-101159014D01*
X144888599Y-100901034D01*
X144973513Y-100621111D01*
X145002185Y-100330000D01*
X144973513Y-100038889D01*
X144888599Y-99758966D01*
X144750706Y-99500986D01*
X144565134Y-99274866D01*
X144535313Y-99250393D01*
X144604180Y-99229502D01*
X144714494Y-99170537D01*
X144811185Y-99091185D01*
X144890537Y-98994494D01*
X144949502Y-98884180D01*
X144985812Y-98764482D01*
X144998072Y-98640000D01*
X144998072Y-96940000D01*
X144985812Y-96815518D01*
X144949502Y-96695820D01*
X144890537Y-96585506D01*
X144811185Y-96488815D01*
X144714494Y-96409463D01*
X144604180Y-96350498D01*
X144484482Y-96314188D01*
X144360000Y-96301928D01*
X142660000Y-96301928D01*
X142535518Y-96314188D01*
X142415820Y-96350498D01*
X142305506Y-96409463D01*
X142208815Y-96488815D01*
X142129463Y-96585506D01*
X142070498Y-96695820D01*
X142034188Y-96815518D01*
X142021928Y-96940000D01*
X142021928Y-98640000D01*
X142034188Y-98764482D01*
X142070498Y-98884180D01*
X142129463Y-98994494D01*
X142208815Y-99091185D01*
X142305506Y-99170537D01*
X142415820Y-99229502D01*
X142484687Y-99250393D01*
X142454866Y-99274866D01*
X142269294Y-99500986D01*
X142131401Y-99758966D01*
X142046487Y-100038889D01*
X142017815Y-100330000D01*
X142046487Y-100621111D01*
X142131401Y-100901034D01*
X142269294Y-101159014D01*
X142454866Y-101385134D01*
X142680986Y-101570706D01*
X142735791Y-101600000D01*
X142680986Y-101629294D01*
X142454866Y-101814866D01*
X142269294Y-102040986D01*
X142232405Y-102110000D01*
X136472804Y-102110000D01*
X134326805Y-99964002D01*
X134303002Y-99934998D01*
X134187277Y-99840025D01*
X134055248Y-99769453D01*
X133911987Y-99725996D01*
X133800334Y-99714999D01*
X133800323Y-99714999D01*
X133763001Y-99711323D01*
X133725679Y-99714999D01*
X128696461Y-99714999D01*
X128738571Y-99626004D01*
X128807300Y-99351816D01*
X128821217Y-99069488D01*
X128779787Y-98789870D01*
X128684603Y-98523708D01*
X128674604Y-98505001D01*
X136104526Y-98505001D01*
X136144314Y-98508920D01*
X136184102Y-98505001D01*
X136184105Y-98505001D01*
X136303102Y-98493281D01*
X136455787Y-98446964D01*
X136596503Y-98371750D01*
X136719842Y-98270529D01*
X136745214Y-98239613D01*
X136777845Y-98206982D01*
X136858102Y-98240226D01*
X137058061Y-98280000D01*
X137261939Y-98280000D01*
X137461898Y-98240226D01*
X137650256Y-98162205D01*
X137819774Y-98048937D01*
X137963937Y-97904774D01*
X138077205Y-97735256D01*
X138155226Y-97546898D01*
X138195000Y-97346939D01*
X138195000Y-97143061D01*
X138155226Y-96943102D01*
X138077205Y-96754744D01*
X137963937Y-96585226D01*
X137819774Y-96441063D01*
X137650256Y-96327795D01*
X137461898Y-96249774D01*
X137261939Y-96210000D01*
X137058061Y-96210000D01*
X136858102Y-96249774D01*
X136669744Y-96327795D01*
X136501481Y-96440224D01*
X136435527Y-96446720D01*
X136282841Y-96493037D01*
X136212484Y-96530644D01*
X136142126Y-96568251D01*
X136018787Y-96669472D01*
X135993415Y-96700388D01*
X135808802Y-96885001D01*
X123405638Y-96885001D01*
X123431025Y-96801309D01*
X123458732Y-96520000D01*
X123431025Y-96238691D01*
X123348971Y-95968192D01*
X123215721Y-95718899D01*
X123036397Y-95500392D01*
X122817890Y-95321068D01*
X122684931Y-95250000D01*
X122817890Y-95178932D01*
X123036397Y-94999608D01*
X123215721Y-94781101D01*
X123348971Y-94531808D01*
X123410479Y-94329040D01*
X128783091Y-94329040D01*
X128877930Y-94593881D01*
X129022615Y-94835131D01*
X129211586Y-95043519D01*
X129437580Y-95211037D01*
X129691913Y-95331246D01*
X129825961Y-95371904D01*
X130048000Y-95249915D01*
X130048000Y-94107000D01*
X130302000Y-94107000D01*
X130302000Y-95249915D01*
X130524039Y-95371904D01*
X130658087Y-95331246D01*
X130912420Y-95211037D01*
X131138414Y-95043519D01*
X131327385Y-94835131D01*
X131472070Y-94593881D01*
X131566909Y-94329040D01*
X131445624Y-94107000D01*
X130302000Y-94107000D01*
X130048000Y-94107000D01*
X128904376Y-94107000D01*
X128783091Y-94329040D01*
X123410479Y-94329040D01*
X123431025Y-94261309D01*
X123458732Y-93980000D01*
X123431025Y-93698691D01*
X123410480Y-93630960D01*
X128783091Y-93630960D01*
X128904376Y-93853000D01*
X130048000Y-93853000D01*
X130048000Y-92710085D01*
X130302000Y-92710085D01*
X130302000Y-93853000D01*
X131445624Y-93853000D01*
X131566909Y-93630960D01*
X131472070Y-93366119D01*
X131327385Y-93124869D01*
X131138414Y-92916481D01*
X130912420Y-92748963D01*
X130658087Y-92628754D01*
X130524039Y-92588096D01*
X130302000Y-92710085D01*
X130048000Y-92710085D01*
X129825961Y-92588096D01*
X129691913Y-92628754D01*
X129437580Y-92748963D01*
X129211586Y-92916481D01*
X129022615Y-93124869D01*
X128877930Y-93366119D01*
X128783091Y-93630960D01*
X123410480Y-93630960D01*
X123348971Y-93428192D01*
X123215721Y-93178899D01*
X123036397Y-92960392D01*
X122817890Y-92781068D01*
X122684931Y-92710000D01*
X122817890Y-92638932D01*
X123036397Y-92459608D01*
X123215721Y-92241101D01*
X123348971Y-91991808D01*
X123431025Y-91721309D01*
X123458732Y-91440000D01*
X123431025Y-91158691D01*
X123348971Y-90888192D01*
X123215721Y-90638899D01*
X123134557Y-90540000D01*
X131684928Y-90540000D01*
X131684928Y-92340000D01*
X131697188Y-92464482D01*
X131733498Y-92584180D01*
X131792463Y-92694494D01*
X131871815Y-92791185D01*
X131968506Y-92870537D01*
X132078820Y-92929502D01*
X132198518Y-92965812D01*
X132322574Y-92978030D01*
X132235363Y-93065241D01*
X132078320Y-93300273D01*
X131970147Y-93561426D01*
X131915000Y-93838665D01*
X131915000Y-94121335D01*
X131970147Y-94398574D01*
X132078320Y-94659727D01*
X132235363Y-94894759D01*
X132435241Y-95094637D01*
X132670273Y-95251680D01*
X132931426Y-95359853D01*
X133208665Y-95415000D01*
X133491335Y-95415000D01*
X133768574Y-95359853D01*
X134029727Y-95251680D01*
X134264759Y-95094637D01*
X134464637Y-94894759D01*
X134621680Y-94659727D01*
X134729853Y-94398574D01*
X134785000Y-94121335D01*
X134785000Y-93838665D01*
X134729853Y-93561426D01*
X134621680Y-93300273D01*
X134464637Y-93065241D01*
X134337808Y-92938412D01*
X134367180Y-92929502D01*
X134477494Y-92870537D01*
X134574185Y-92791185D01*
X134653537Y-92694494D01*
X134712502Y-92584180D01*
X134748812Y-92464482D01*
X134761072Y-92340000D01*
X134761072Y-90540000D01*
X134748812Y-90415518D01*
X134712502Y-90295820D01*
X134653537Y-90185506D01*
X134574185Y-90088815D01*
X134477494Y-90009463D01*
X134367180Y-89950498D01*
X134348873Y-89944944D01*
X134415312Y-89878505D01*
X134583299Y-89627095D01*
X134699011Y-89347743D01*
X134758000Y-89051184D01*
X134758000Y-88748816D01*
X134699011Y-88452257D01*
X134583299Y-88172905D01*
X134415312Y-87921495D01*
X134201505Y-87707688D01*
X133950095Y-87539701D01*
X133670743Y-87423989D01*
X133374184Y-87365000D01*
X133071816Y-87365000D01*
X132775257Y-87423989D01*
X132495905Y-87539701D01*
X132244495Y-87707688D01*
X132030688Y-87921495D01*
X131862701Y-88172905D01*
X131746989Y-88452257D01*
X131688000Y-88748816D01*
X131688000Y-89051184D01*
X131746989Y-89347743D01*
X131862701Y-89627095D01*
X132030688Y-89878505D01*
X132097127Y-89944944D01*
X132078820Y-89950498D01*
X131968506Y-90009463D01*
X131871815Y-90088815D01*
X131792463Y-90185506D01*
X131733498Y-90295820D01*
X131697188Y-90415518D01*
X131684928Y-90540000D01*
X123134557Y-90540000D01*
X123036397Y-90420392D01*
X122817890Y-90241068D01*
X122684931Y-90170000D01*
X122817890Y-90098932D01*
X123036397Y-89919608D01*
X123215721Y-89701101D01*
X123348971Y-89451808D01*
X123431025Y-89181309D01*
X123458732Y-88900000D01*
X123431025Y-88618691D01*
X123348971Y-88348192D01*
X123215721Y-88098899D01*
X123036397Y-87880392D01*
X122817890Y-87701068D01*
X122684931Y-87630000D01*
X122817890Y-87558932D01*
X123036397Y-87379608D01*
X123215721Y-87161101D01*
X123348971Y-86911808D01*
X123431025Y-86641309D01*
X123458732Y-86360000D01*
X123431025Y-86078691D01*
X123348971Y-85808192D01*
X123215721Y-85558899D01*
X123036397Y-85340392D01*
X122817890Y-85161068D01*
X122684931Y-85090000D01*
X122817890Y-85018932D01*
X123036397Y-84839608D01*
X123215721Y-84621101D01*
X123348971Y-84371808D01*
X123431025Y-84101309D01*
X123458732Y-83820000D01*
X123431025Y-83538691D01*
X123348971Y-83268192D01*
X123215721Y-83018899D01*
X123036397Y-82800392D01*
X122817890Y-82621068D01*
X122568597Y-82487818D01*
X122298098Y-82405764D01*
X122203105Y-82396408D01*
X123052093Y-81547420D01*
X123175665Y-81572000D01*
X123458335Y-81572000D01*
X123735574Y-81516853D01*
X123996727Y-81408680D01*
X124231759Y-81251637D01*
X124431637Y-81051759D01*
X124588680Y-80816727D01*
X124696853Y-80555574D01*
X124752000Y-80278335D01*
X124752000Y-80010000D01*
X142017815Y-80010000D01*
X142046487Y-80301111D01*
X142131401Y-80581034D01*
X142269294Y-80839014D01*
X142454866Y-81065134D01*
X142680986Y-81250706D01*
X142735791Y-81280000D01*
X142680986Y-81309294D01*
X142454866Y-81494866D01*
X142269294Y-81720986D01*
X142131401Y-81978966D01*
X142046487Y-82258889D01*
X142017815Y-82550000D01*
X142046487Y-82841111D01*
X142131401Y-83121034D01*
X142269294Y-83379014D01*
X142454866Y-83605134D01*
X142680986Y-83790706D01*
X142735791Y-83820000D01*
X142680986Y-83849294D01*
X142454866Y-84034866D01*
X142269294Y-84260986D01*
X142131401Y-84518966D01*
X142046487Y-84798889D01*
X142017815Y-85090000D01*
X142046487Y-85381111D01*
X142131401Y-85661034D01*
X142269294Y-85919014D01*
X142454866Y-86145134D01*
X142680986Y-86330706D01*
X142735791Y-86360000D01*
X142680986Y-86389294D01*
X142454866Y-86574866D01*
X142269294Y-86800986D01*
X142131401Y-87058966D01*
X142046487Y-87338889D01*
X142017815Y-87630000D01*
X142046487Y-87921111D01*
X142131401Y-88201034D01*
X142269294Y-88459014D01*
X142454866Y-88685134D01*
X142680986Y-88870706D01*
X142735791Y-88900000D01*
X142680986Y-88929294D01*
X142454866Y-89114866D01*
X142269294Y-89340986D01*
X142131401Y-89598966D01*
X142046487Y-89878889D01*
X142017815Y-90170000D01*
X142046487Y-90461111D01*
X142131401Y-90741034D01*
X142269294Y-90999014D01*
X142454866Y-91225134D01*
X142484687Y-91249607D01*
X142415820Y-91270498D01*
X142305506Y-91329463D01*
X142208815Y-91408815D01*
X142129463Y-91505506D01*
X142070498Y-91615820D01*
X142034188Y-91735518D01*
X142021928Y-91860000D01*
X142021928Y-93560000D01*
X142034188Y-93684482D01*
X142070498Y-93804180D01*
X142129463Y-93914494D01*
X142208815Y-94011185D01*
X142305506Y-94090537D01*
X142415820Y-94149502D01*
X142535518Y-94185812D01*
X142660000Y-94198072D01*
X144360000Y-94198072D01*
X144484482Y-94185812D01*
X144604180Y-94149502D01*
X144714494Y-94090537D01*
X144811185Y-94011185D01*
X144890537Y-93914494D01*
X144949502Y-93804180D01*
X144985812Y-93684482D01*
X144998072Y-93560000D01*
X144998072Y-91860000D01*
X144985812Y-91735518D01*
X144949502Y-91615820D01*
X144890537Y-91505506D01*
X144811185Y-91408815D01*
X144714494Y-91329463D01*
X144604180Y-91270498D01*
X144535313Y-91249607D01*
X144565134Y-91225134D01*
X144750706Y-90999014D01*
X144888599Y-90741034D01*
X144973513Y-90461111D01*
X145002185Y-90170000D01*
X144973513Y-89878889D01*
X144888599Y-89598966D01*
X144750706Y-89340986D01*
X144565134Y-89114866D01*
X144339014Y-88929294D01*
X144284209Y-88900000D01*
X144339014Y-88870706D01*
X144565134Y-88685134D01*
X144750706Y-88459014D01*
X144888599Y-88201034D01*
X144973513Y-87921111D01*
X145002185Y-87630000D01*
X144973513Y-87338889D01*
X144888599Y-87058966D01*
X144750706Y-86800986D01*
X144565134Y-86574866D01*
X144339014Y-86389294D01*
X144284209Y-86360000D01*
X144339014Y-86330706D01*
X144565134Y-86145134D01*
X144750706Y-85919014D01*
X144888599Y-85661034D01*
X144973513Y-85381111D01*
X145002185Y-85090000D01*
X144973513Y-84798889D01*
X144888599Y-84518966D01*
X144750706Y-84260986D01*
X144565134Y-84034866D01*
X144339014Y-83849294D01*
X144284209Y-83820000D01*
X144339014Y-83790706D01*
X144565134Y-83605134D01*
X144750706Y-83379014D01*
X144888599Y-83121034D01*
X144973513Y-82841111D01*
X145002185Y-82550000D01*
X144973513Y-82258889D01*
X144888599Y-81978966D01*
X144750706Y-81720986D01*
X144565134Y-81494866D01*
X144339014Y-81309294D01*
X144284209Y-81280000D01*
X144339014Y-81250706D01*
X144565134Y-81065134D01*
X144750706Y-80839014D01*
X144888599Y-80581034D01*
X144973513Y-80301111D01*
X145002185Y-80010000D01*
X144973513Y-79718889D01*
X144888599Y-79438966D01*
X144750706Y-79180986D01*
X144565134Y-78954866D01*
X144339014Y-78769294D01*
X144081034Y-78631401D01*
X143801111Y-78546487D01*
X143582950Y-78525000D01*
X143437050Y-78525000D01*
X143218889Y-78546487D01*
X142938966Y-78631401D01*
X142680986Y-78769294D01*
X142454866Y-78954866D01*
X142269294Y-79180986D01*
X142131401Y-79438966D01*
X142046487Y-79718889D01*
X142017815Y-80010000D01*
X124752000Y-80010000D01*
X124752000Y-79995665D01*
X124696853Y-79718426D01*
X124588680Y-79457273D01*
X124431637Y-79222241D01*
X124231759Y-79022363D01*
X123996727Y-78865320D01*
X123735574Y-78757147D01*
X123458335Y-78702000D01*
X123175665Y-78702000D01*
X122898426Y-78757147D01*
X122637273Y-78865320D01*
X122402241Y-79022363D01*
X122202363Y-79222241D01*
X122045320Y-79457273D01*
X121937147Y-79718426D01*
X121882000Y-79995665D01*
X121882000Y-80278335D01*
X121906580Y-80401907D01*
X118200383Y-84108105D01*
X118169473Y-84133472D01*
X118144108Y-84164380D01*
X118068251Y-84256811D01*
X118006785Y-84371808D01*
X117993038Y-84397527D01*
X117956200Y-84518966D01*
X117946721Y-84550213D01*
X117931081Y-84709000D01*
X117935001Y-84748798D01*
X117935000Y-96504300D01*
X117827795Y-96664744D01*
X117749774Y-96853102D01*
X117712129Y-97042358D01*
X116504488Y-98250000D01*
X115588418Y-98250000D01*
X115416397Y-98040392D01*
X115197890Y-97861068D01*
X115064931Y-97790000D01*
X115197890Y-97718932D01*
X115416397Y-97539608D01*
X115595721Y-97321101D01*
X115728971Y-97071808D01*
X115811025Y-96801309D01*
X115838732Y-96520000D01*
X115811025Y-96238691D01*
X115728971Y-95968192D01*
X115595721Y-95718899D01*
X115416397Y-95500392D01*
X115197890Y-95321068D01*
X115064931Y-95250000D01*
X115197890Y-95178932D01*
X115416397Y-94999608D01*
X115595721Y-94781101D01*
X115728971Y-94531808D01*
X115811025Y-94261309D01*
X115838732Y-93980000D01*
X115811025Y-93698691D01*
X115728971Y-93428192D01*
X115595721Y-93178899D01*
X115416397Y-92960392D01*
X115197890Y-92781068D01*
X115064931Y-92710000D01*
X115197890Y-92638932D01*
X115416397Y-92459608D01*
X115595721Y-92241101D01*
X115728971Y-91991808D01*
X115811025Y-91721309D01*
X115838732Y-91440000D01*
X115811025Y-91158691D01*
X115728971Y-90888192D01*
X115595721Y-90638899D01*
X115416397Y-90420392D01*
X115197890Y-90241068D01*
X115064931Y-90170000D01*
X115197890Y-90098932D01*
X115416397Y-89919608D01*
X115595721Y-89701101D01*
X115728971Y-89451808D01*
X115811025Y-89181309D01*
X115838732Y-88900000D01*
X115811025Y-88618691D01*
X115728971Y-88348192D01*
X115595721Y-88098899D01*
X115416397Y-87880392D01*
X115197890Y-87701068D01*
X115064931Y-87630000D01*
X115197890Y-87558932D01*
X115416397Y-87379608D01*
X115595721Y-87161101D01*
X115728971Y-86911808D01*
X115811025Y-86641309D01*
X115838732Y-86360000D01*
X115811025Y-86078691D01*
X115728971Y-85808192D01*
X115595721Y-85558899D01*
X115416397Y-85340392D01*
X115303307Y-85247581D01*
X115321271Y-85245812D01*
X115440969Y-85209502D01*
X115551283Y-85150537D01*
X115647974Y-85071185D01*
X115727326Y-84974494D01*
X115786291Y-84864180D01*
X115822601Y-84744482D01*
X115834861Y-84620000D01*
X115834861Y-83020000D01*
X115822601Y-82895518D01*
X115786291Y-82775820D01*
X115727326Y-82665506D01*
X115647974Y-82568815D01*
X115551283Y-82489463D01*
X115440969Y-82430498D01*
X115321271Y-82394188D01*
X115196789Y-82381928D01*
X113596789Y-82381928D01*
X113472307Y-82394188D01*
X113352609Y-82430498D01*
X113242295Y-82489463D01*
X113145604Y-82568815D01*
X113066252Y-82665506D01*
X113007287Y-82775820D01*
X112970977Y-82895518D01*
X112958717Y-83020000D01*
X112958717Y-84620000D01*
X112970977Y-84744482D01*
X113007287Y-84864180D01*
X113066252Y-84974494D01*
X113145604Y-85071185D01*
X113242295Y-85150537D01*
X113352609Y-85209502D01*
X113472307Y-85245812D01*
X113490271Y-85247581D01*
X113377181Y-85340392D01*
X113197857Y-85558899D01*
X113064607Y-85808192D01*
X112982553Y-86078691D01*
X112954846Y-86360000D01*
X95472185Y-86360000D01*
X95443513Y-86068889D01*
X95358599Y-85788966D01*
X95220706Y-85530986D01*
X95035134Y-85304866D01*
X94809014Y-85119294D01*
X94754209Y-85090000D01*
X94809014Y-85060706D01*
X95035134Y-84875134D01*
X95220706Y-84649014D01*
X95358599Y-84391034D01*
X95443513Y-84111111D01*
X95472185Y-83820000D01*
X95456325Y-83658967D01*
X101362000Y-83658967D01*
X101362000Y-83981033D01*
X101424832Y-84296912D01*
X101548082Y-84594463D01*
X101727013Y-84862252D01*
X101954748Y-85089987D01*
X102222537Y-85268918D01*
X102520088Y-85392168D01*
X102835967Y-85455000D01*
X103158033Y-85455000D01*
X103473912Y-85392168D01*
X103771463Y-85268918D01*
X104039252Y-85089987D01*
X104266987Y-84862252D01*
X104445918Y-84594463D01*
X104569168Y-84296912D01*
X104632000Y-83981033D01*
X104632000Y-83658967D01*
X107862000Y-83658967D01*
X107862000Y-83981033D01*
X107924832Y-84296912D01*
X108048082Y-84594463D01*
X108227013Y-84862252D01*
X108454748Y-85089987D01*
X108722537Y-85268918D01*
X109020088Y-85392168D01*
X109335967Y-85455000D01*
X109658033Y-85455000D01*
X109973912Y-85392168D01*
X110271463Y-85268918D01*
X110539252Y-85089987D01*
X110766987Y-84862252D01*
X110945918Y-84594463D01*
X111069168Y-84296912D01*
X111132000Y-83981033D01*
X111132000Y-83658967D01*
X111069168Y-83343088D01*
X110945918Y-83045537D01*
X110766987Y-82777748D01*
X110539252Y-82550013D01*
X110271463Y-82371082D01*
X109973912Y-82247832D01*
X109658033Y-82185000D01*
X109335967Y-82185000D01*
X109020088Y-82247832D01*
X108722537Y-82371082D01*
X108454748Y-82550013D01*
X108227013Y-82777748D01*
X108048082Y-83045537D01*
X107924832Y-83343088D01*
X107862000Y-83658967D01*
X104632000Y-83658967D01*
X104569168Y-83343088D01*
X104445918Y-83045537D01*
X104266987Y-82777748D01*
X104039252Y-82550013D01*
X103771463Y-82371082D01*
X103473912Y-82247832D01*
X103158033Y-82185000D01*
X102835967Y-82185000D01*
X102520088Y-82247832D01*
X102222537Y-82371082D01*
X101954748Y-82550013D01*
X101727013Y-82777748D01*
X101548082Y-83045537D01*
X101424832Y-83343088D01*
X101362000Y-83658967D01*
X95456325Y-83658967D01*
X95443513Y-83528889D01*
X95358599Y-83248966D01*
X95220706Y-82990986D01*
X95035134Y-82764866D01*
X95005313Y-82740393D01*
X95074180Y-82719502D01*
X95184494Y-82660537D01*
X95281185Y-82581185D01*
X95360537Y-82484494D01*
X95419502Y-82374180D01*
X95455812Y-82254482D01*
X95468072Y-82130000D01*
X95468072Y-80430000D01*
X95455812Y-80305518D01*
X95419502Y-80185820D01*
X95393407Y-80137000D01*
X111715057Y-80137000D01*
X111742764Y-80418309D01*
X111824818Y-80688808D01*
X111958068Y-80938101D01*
X112137392Y-81156608D01*
X112355899Y-81335932D01*
X112605192Y-81469182D01*
X112875691Y-81551236D01*
X113086508Y-81572000D01*
X113227492Y-81572000D01*
X113438309Y-81551236D01*
X113708808Y-81469182D01*
X113958101Y-81335932D01*
X114176608Y-81156608D01*
X114355932Y-80938101D01*
X114489182Y-80688808D01*
X114571236Y-80418309D01*
X114598943Y-80137000D01*
X114571236Y-79855691D01*
X114489182Y-79585192D01*
X114355932Y-79335899D01*
X114176608Y-79117392D01*
X113958101Y-78938068D01*
X113708808Y-78804818D01*
X113438309Y-78722764D01*
X113227492Y-78702000D01*
X113086508Y-78702000D01*
X112875691Y-78722764D01*
X112605192Y-78804818D01*
X112355899Y-78938068D01*
X112137392Y-79117392D01*
X111958068Y-79335899D01*
X111824818Y-79585192D01*
X111742764Y-79855691D01*
X111715057Y-80137000D01*
X95393407Y-80137000D01*
X95360537Y-80075506D01*
X95281185Y-79978815D01*
X95184494Y-79899463D01*
X95074180Y-79840498D01*
X94954482Y-79804188D01*
X94830000Y-79791928D01*
X93130000Y-79791928D01*
X93005518Y-79804188D01*
X92885820Y-79840498D01*
X92775506Y-79899463D01*
X92678815Y-79978815D01*
X92599463Y-80075506D01*
X92540498Y-80185820D01*
X92504188Y-80305518D01*
X92491928Y-80430000D01*
X92491928Y-82130000D01*
X92504188Y-82254482D01*
X92540498Y-82374180D01*
X92599463Y-82484494D01*
X92678815Y-82581185D01*
X92775506Y-82660537D01*
X92885820Y-82719502D01*
X92954687Y-82740393D01*
X92924866Y-82764866D01*
X92739294Y-82990986D01*
X92601401Y-83248966D01*
X92516487Y-83528889D01*
X92487815Y-83820000D01*
X91592000Y-83820000D01*
X91592000Y-77026468D01*
X92063137Y-77026468D01*
X92321298Y-77429073D01*
X92840715Y-77704651D01*
X93403913Y-77873601D01*
X93989250Y-77929430D01*
X94574233Y-77869992D01*
X95136379Y-77697571D01*
X95638702Y-77429073D01*
X95851977Y-77096468D01*
X142083137Y-77096468D01*
X142341298Y-77499073D01*
X142860715Y-77774651D01*
X143423913Y-77943601D01*
X144009250Y-77999430D01*
X144594233Y-77939992D01*
X145156379Y-77767571D01*
X145658702Y-77499073D01*
X145916863Y-77096468D01*
X144000000Y-75179605D01*
X142083137Y-77096468D01*
X95851977Y-77096468D01*
X95896863Y-77026468D01*
X93980000Y-75109605D01*
X92063137Y-77026468D01*
X91592000Y-77026468D01*
X91592000Y-76659925D01*
X91883532Y-76846863D01*
X93800395Y-74930000D01*
X94159605Y-74930000D01*
X96076468Y-76846863D01*
X96479073Y-76588702D01*
X96754651Y-76069285D01*
X96923601Y-75506087D01*
X96970988Y-75009250D01*
X141000570Y-75009250D01*
X141060008Y-75594233D01*
X141232429Y-76156379D01*
X141500927Y-76658702D01*
X141903532Y-76916863D01*
X143820395Y-75000000D01*
X141903532Y-73083137D01*
X141500927Y-73341298D01*
X141225349Y-73860715D01*
X141056399Y-74423913D01*
X141000570Y-75009250D01*
X96970988Y-75009250D01*
X96979430Y-74920750D01*
X96919992Y-74335767D01*
X96747571Y-73773621D01*
X96479073Y-73271298D01*
X96076468Y-73013137D01*
X94159605Y-74930000D01*
X93800395Y-74930000D01*
X91883532Y-73013137D01*
X91592000Y-73200075D01*
X91592000Y-72676277D01*
X91607617Y-72517000D01*
X92266106Y-72517000D01*
X92063137Y-72833532D01*
G36*
X135594203Y-103381003D02*
G01*
X135618001Y-103410001D01*
X135646999Y-103433799D01*
X135733725Y-103504974D01*
X135797583Y-103539107D01*
X135865755Y-103575546D01*
X136009016Y-103619003D01*
X136120669Y-103630000D01*
X136120679Y-103630000D01*
X136158002Y-103633676D01*
X136195325Y-103630000D01*
X136255987Y-103630000D01*
X136242795Y-103649744D01*
X136164774Y-103838102D01*
X136127129Y-104027358D01*
X131744488Y-108410000D01*
X131352904Y-108410000D01*
X131240312Y-108241495D01*
X131173873Y-108175056D01*
X131192180Y-108169502D01*
X131302494Y-108110537D01*
X131399185Y-108031185D01*
X131478537Y-107934494D01*
X131537502Y-107824180D01*
X131573812Y-107704482D01*
X131586072Y-107580000D01*
X131586072Y-105780000D01*
X131573812Y-105655518D01*
X131537502Y-105535820D01*
X131478537Y-105425506D01*
X131399185Y-105328815D01*
X131302494Y-105249463D01*
X131192180Y-105190498D01*
X131162808Y-105181588D01*
X131289637Y-105054759D01*
X131446680Y-104819727D01*
X131554853Y-104558574D01*
X131568684Y-104489040D01*
X131958091Y-104489040D01*
X132052930Y-104753881D01*
X132197615Y-104995131D01*
X132386586Y-105203519D01*
X132612580Y-105371037D01*
X132866913Y-105491246D01*
X133000961Y-105531904D01*
X133223000Y-105409915D01*
X133223000Y-104267000D01*
X133477000Y-104267000D01*
X133477000Y-105409915D01*
X133699039Y-105531904D01*
X133833087Y-105491246D01*
X134087420Y-105371037D01*
X134313414Y-105203519D01*
X134502385Y-104995131D01*
X134647070Y-104753881D01*
X134741909Y-104489040D01*
X134620624Y-104267000D01*
X133477000Y-104267000D01*
X133223000Y-104267000D01*
X132079376Y-104267000D01*
X131958091Y-104489040D01*
X131568684Y-104489040D01*
X131610000Y-104281335D01*
X131610000Y-103998665D01*
X131568685Y-103790960D01*
X131958091Y-103790960D01*
X132079376Y-104013000D01*
X133223000Y-104013000D01*
X133223000Y-102870085D01*
X133477000Y-102870085D01*
X133477000Y-104013000D01*
X134620624Y-104013000D01*
X134741909Y-103790960D01*
X134647070Y-103526119D01*
X134502385Y-103284869D01*
X134313414Y-103076481D01*
X134087420Y-102908963D01*
X133833087Y-102788754D01*
X133699039Y-102748096D01*
X133477000Y-102870085D01*
X133223000Y-102870085D01*
X133000961Y-102748096D01*
X132866913Y-102788754D01*
X132612580Y-102908963D01*
X132386586Y-103076481D01*
X132197615Y-103284869D01*
X132052930Y-103526119D01*
X131958091Y-103790960D01*
X131568685Y-103790960D01*
X131554853Y-103721426D01*
X131446680Y-103460273D01*
X131289637Y-103225241D01*
X131089759Y-103025363D01*
X130854727Y-102868320D01*
X130593574Y-102760147D01*
X130316335Y-102705000D01*
X130033665Y-102705000D01*
X129756426Y-102760147D01*
X129495273Y-102868320D01*
X129260241Y-103025363D01*
X129060363Y-103225241D01*
X128903320Y-103460273D01*
X128795147Y-103721426D01*
X128778000Y-103807629D01*
X128760853Y-103721426D01*
X128652680Y-103460273D01*
X128495637Y-103225241D01*
X128295759Y-103025363D01*
X128060727Y-102868320D01*
X127799574Y-102760147D01*
X127522335Y-102705000D01*
X127239665Y-102705000D01*
X126962426Y-102760147D01*
X126701273Y-102868320D01*
X126466241Y-103025363D01*
X126266363Y-103225241D01*
X126111000Y-103457759D01*
X125955637Y-103225241D01*
X125755759Y-103025363D01*
X125520727Y-102868320D01*
X125259574Y-102760147D01*
X124982335Y-102705000D01*
X124699665Y-102705000D01*
X124422426Y-102760147D01*
X124161273Y-102868320D01*
X123926241Y-103025363D01*
X123726363Y-103225241D01*
X123656365Y-103330000D01*
X123208418Y-103330000D01*
X123036397Y-103120392D01*
X122817890Y-102941068D01*
X122684931Y-102870000D01*
X122817890Y-102798932D01*
X123036397Y-102619608D01*
X123215721Y-102401101D01*
X123348971Y-102151808D01*
X123431025Y-101881309D01*
X123458732Y-101600000D01*
X123431025Y-101318691D01*
X123405638Y-101234999D01*
X133448200Y-101234999D01*
X135594203Y-103381003D01*
X135594203Y-103381003D01*
G37*
X135594203Y-103381003D02*
X135618001Y-103410001D01*
X135646999Y-103433799D01*
X135733725Y-103504974D01*
X135797583Y-103539107D01*
X135865755Y-103575546D01*
X136009016Y-103619003D01*
X136120669Y-103630000D01*
X136120679Y-103630000D01*
X136158002Y-103633676D01*
X136195325Y-103630000D01*
X136255987Y-103630000D01*
X136242795Y-103649744D01*
X136164774Y-103838102D01*
X136127129Y-104027358D01*
X131744488Y-108410000D01*
X131352904Y-108410000D01*
X131240312Y-108241495D01*
X131173873Y-108175056D01*
X131192180Y-108169502D01*
X131302494Y-108110537D01*
X131399185Y-108031185D01*
X131478537Y-107934494D01*
X131537502Y-107824180D01*
X131573812Y-107704482D01*
X131586072Y-107580000D01*
X131586072Y-105780000D01*
X131573812Y-105655518D01*
X131537502Y-105535820D01*
X131478537Y-105425506D01*
X131399185Y-105328815D01*
X131302494Y-105249463D01*
X131192180Y-105190498D01*
X131162808Y-105181588D01*
X131289637Y-105054759D01*
X131446680Y-104819727D01*
X131554853Y-104558574D01*
X131568684Y-104489040D01*
X131958091Y-104489040D01*
X132052930Y-104753881D01*
X132197615Y-104995131D01*
X132386586Y-105203519D01*
X132612580Y-105371037D01*
X132866913Y-105491246D01*
X133000961Y-105531904D01*
X133223000Y-105409915D01*
X133223000Y-104267000D01*
X133477000Y-104267000D01*
X133477000Y-105409915D01*
X133699039Y-105531904D01*
X133833087Y-105491246D01*
X134087420Y-105371037D01*
X134313414Y-105203519D01*
X134502385Y-104995131D01*
X134647070Y-104753881D01*
X134741909Y-104489040D01*
X134620624Y-104267000D01*
X133477000Y-104267000D01*
X133223000Y-104267000D01*
X132079376Y-104267000D01*
X131958091Y-104489040D01*
X131568684Y-104489040D01*
X131610000Y-104281335D01*
X131610000Y-103998665D01*
X131568685Y-103790960D01*
X131958091Y-103790960D01*
X132079376Y-104013000D01*
X133223000Y-104013000D01*
X133223000Y-102870085D01*
X133477000Y-102870085D01*
X133477000Y-104013000D01*
X134620624Y-104013000D01*
X134741909Y-103790960D01*
X134647070Y-103526119D01*
X134502385Y-103284869D01*
X134313414Y-103076481D01*
X134087420Y-102908963D01*
X133833087Y-102788754D01*
X133699039Y-102748096D01*
X133477000Y-102870085D01*
X133223000Y-102870085D01*
X133000961Y-102748096D01*
X132866913Y-102788754D01*
X132612580Y-102908963D01*
X132386586Y-103076481D01*
X132197615Y-103284869D01*
X132052930Y-103526119D01*
X131958091Y-103790960D01*
X131568685Y-103790960D01*
X131554853Y-103721426D01*
X131446680Y-103460273D01*
X131289637Y-103225241D01*
X131089759Y-103025363D01*
X130854727Y-102868320D01*
X130593574Y-102760147D01*
X130316335Y-102705000D01*
X130033665Y-102705000D01*
X129756426Y-102760147D01*
X129495273Y-102868320D01*
X129260241Y-103025363D01*
X129060363Y-103225241D01*
X128903320Y-103460273D01*
X128795147Y-103721426D01*
X128778000Y-103807629D01*
X128760853Y-103721426D01*
X128652680Y-103460273D01*
X128495637Y-103225241D01*
X128295759Y-103025363D01*
X128060727Y-102868320D01*
X127799574Y-102760147D01*
X127522335Y-102705000D01*
X127239665Y-102705000D01*
X126962426Y-102760147D01*
X126701273Y-102868320D01*
X126466241Y-103025363D01*
X126266363Y-103225241D01*
X126111000Y-103457759D01*
X125955637Y-103225241D01*
X125755759Y-103025363D01*
X125520727Y-102868320D01*
X125259574Y-102760147D01*
X124982335Y-102705000D01*
X124699665Y-102705000D01*
X124422426Y-102760147D01*
X124161273Y-102868320D01*
X123926241Y-103025363D01*
X123726363Y-103225241D01*
X123656365Y-103330000D01*
X123208418Y-103330000D01*
X123036397Y-103120392D01*
X122817890Y-102941068D01*
X122684931Y-102870000D01*
X122817890Y-102798932D01*
X123036397Y-102619608D01*
X123215721Y-102401101D01*
X123348971Y-102151808D01*
X123431025Y-101881309D01*
X123458732Y-101600000D01*
X123431025Y-101318691D01*
X123405638Y-101234999D01*
X133448200Y-101234999D01*
X135594203Y-103381003D01*
G36*
X127574748Y-99125858D02*
G01*
X127560605Y-99140000D01*
X127574748Y-99154143D01*
X127395143Y-99333748D01*
X127381000Y-99319605D01*
X127366858Y-99333748D01*
X127187253Y-99154143D01*
X127201395Y-99140000D01*
X127187253Y-99125858D01*
X127366858Y-98946253D01*
X127381000Y-98960395D01*
X127395143Y-98946253D01*
X127574748Y-99125858D01*
X127574748Y-99125858D01*
G37*
X127574748Y-99125858D02*
X127560605Y-99140000D01*
X127574748Y-99154143D01*
X127395143Y-99333748D01*
X127381000Y-99319605D01*
X127366858Y-99333748D01*
X127187253Y-99154143D01*
X127201395Y-99140000D01*
X127187253Y-99125858D01*
X127366858Y-98946253D01*
X127381000Y-98960395D01*
X127395143Y-98946253D01*
X127574748Y-99125858D01*
G36*
X125034748Y-99125858D02*
G01*
X125020605Y-99140000D01*
X125034748Y-99154143D01*
X124855143Y-99333748D01*
X124841000Y-99319605D01*
X124826858Y-99333748D01*
X124647253Y-99154143D01*
X124661395Y-99140000D01*
X124647253Y-99125858D01*
X124826858Y-98946253D01*
X124841000Y-98960395D01*
X124855143Y-98946253D01*
X125034748Y-99125858D01*
X125034748Y-99125858D01*
G37*
X125034748Y-99125858D02*
X125020605Y-99140000D01*
X125034748Y-99154143D01*
X124855143Y-99333748D01*
X124841000Y-99319605D01*
X124826858Y-99333748D01*
X124647253Y-99154143D01*
X124661395Y-99140000D01*
X124647253Y-99125858D01*
X124826858Y-98946253D01*
X124841000Y-98960395D01*
X124855143Y-98946253D01*
X125034748Y-99125858D01*
M02*
